<?xml version="1.0" encoding="UTF-8" standalone="no"?>
<!-- Created with Inkscape (http://www.inkscape.org/) -->
<svg id="svg5816" xmlns:rdf="http://www.w3.org/1999/02/22-rdf-syntax-ns#" xmlns="http://www.w3.org/2000/svg" xmlns:sodipodi="http://inkscape.sourceforge.net/DTD/sodipodi-0.dtd" sodipodi:version="0.32" height="48px" width="48px" xmlns:cc="http://web.resource.org/cc/" xmlns:xlink="http://www.w3.org/1999/xlink" sodipodi:docname="internet-mail.svg" sodipodi:docbase="/home/jimmac/gfx/ximian/tango-desktop-theme/scalable/apps" xmlns:dc="http://purl.org/dc/elements/1.1/">
 <defs id="defs3">
  <linearGradient id="linearGradient2152">
   <stop id="stop2154" stop-color="#9aa29a" offset="0"/>
   <stop id="stop2156" stop-color="#b5beb5" offset="1"/>
  </linearGradient>
  <radialGradient id="radialGradient11382" gradientUnits="userSpaceOnUse" cx="6.7027" cy="73.616" r="7.2284" gradientTransform="scale(1.9022 .52570)">
   <stop id="stop10693" offset="0"/>
   <stop id="stop10695" stop-opacity="0" offset="1"/>
  </radialGradient>
  <linearGradient id="linearGradient27463" y2="32.203" gradientUnits="userSpaceOnUse" y1="37.785" gradientTransform="matrix(2.3949 0 0 .78106 2.8795 0.343)" x2="9.7619" x1="8.7804">
   <stop id="stop2276" stop-opacity=".12871" offset="0"/>
   <stop id="stop2278" stop-opacity="0" offset="1"/>
  </linearGradient>
  <linearGradient id="linearGradient27468" y2="24.133" gradientUnits="userSpaceOnUse" y1="13.686" gradientTransform="matrix(1.3709 0 0 1.4438 2.4311 -.14079)" x2="21.112" x1="11.233">
   <stop id="stop9751" stop-color="#fff" offset="0"/>
   <stop id="stop9753" stop-color="#ededed" offset="1"/>
  </linearGradient>
  <linearGradient id="linearGradient27471" y2="52.091" xlink:href="#linearGradient2152" gradientUnits="userSpaceOnUse" y1="37.197" gradientTransform="matrix(2.4548 0 0 0.762 2.8795 0.343)" x2="9.8855" x1="8.9156"/>
  <linearGradient id="linearGradient27477" y2="29.569" gradientUnits="userSpaceOnUse" y1="15.148" gradientTransform="matrix(1.8193 0 0 1.0282 2.8795 0.343)" x2="15.311" x1="10.184">
   <stop id="stop2168" stop-color="#fff" offset="0"/>
   <stop id="stop2170" stop-color="#dcdcdc" offset="1"/>
  </linearGradient>
  <linearGradient id="linearGradient27483" y2="17.877" gradientUnits="userSpaceOnUse" y1="7.2311" gradientTransform="matrix(1.5706 0 0 1.191 2.8795 0.343)" x2="13.467" x1="5.8266">
   <stop id="stop18915" stop-color="#ededed" offset="0"/>
   <stop id="stop18917" stop-color="#c8c8c8" offset="1"/>
  </linearGradient>
  <linearGradient id="linearGradient27486" y2="26.023" gradientUnits="userSpaceOnUse" y1="4.7462" gradientTransform="matrix(1.3435 0 0 1.4179 2.8795 .31460)" x2="18.475" x1="11.573">
   <stop id="stop15109" stop-color="#fff" offset="0"/>
   <stop id="stop15111" stop-color="#e2e2e2" offset="1"/>
  </linearGradient>
  <linearGradient id="linearGradient27488" y2="15.257" gradientUnits="userSpaceOnUse" y1="15.257" gradientTransform="matrix(1.3435 0 0 1.4179 2.8795 .31460)" x2="30.6" x1="2.0619">
   <stop id="stop2138" stop-color="#989690" offset="0"/>
   <stop id="stop2140" stop-color="#656460" offset="1"/>
  </linearGradient>
 </defs>
 <sodipodi:namedview id="base" bordercolor="#666666" pagecolor="#ffffff" showgrid="false" borderopacity="1.0"/>
 <metadata id="metadata4">
  <rdf:RDF id="RDF5">
   <cc:Work id="Work6" rdf:about="">
    <dc:format id="format7">image/svg+xml</dc:format>
    <dc:type id="type9" rdf:resource="http://purl.org/dc/dcmitype/StillImage"/>
    <dc:title id="title29050">Mail</dc:title>
    <dc:creator id="creator29052">
     <cc:Agent id="Agent29054">
      <dc:title id="title29056">Jakub Steiner</dc:title>
     </cc:Agent>
    </dc:creator>
    <dc:contributor id="contributor29058">
     <cc:Agent id="Agent29060">
      <dc:title id="title29062">Andreas Nilsson</dc:title>
     </cc:Agent>
    </dc:contributor>
    <cc:license id="license29064" rdf:resource="http://creativecommons.org/licenses/by-sa/2.0/"/>
    <dc:subject id="subject29080">
     <rdf:Bag id="Bag29082">
      <rdf:li id="li29148">mail</rdf:li>
      <rdf:li id="li29150">e-mail</rdf:li>
      <rdf:li id="li29152">MUA</rdf:li>
     </rdf:Bag>
    </dc:subject>
   </cc:Work>
   <cc:License id="License29066" rdf:about="http://creativecommons.org/licenses/by-sa/2.0/">
    <cc:permits id="permits29068" rdf:resource="http://web.resource.org/cc/Reproduction"/>
    <cc:permits id="permits29070" rdf:resource="http://web.resource.org/cc/Distribution"/>
    <cc:requires id="requires29072" rdf:resource="http://web.resource.org/cc/Notice"/>
    <cc:requires id="requires29074" rdf:resource="http://web.resource.org/cc/Attribution"/>
    <cc:permits id="permits29076" rdf:resource="http://web.resource.org/cc/DerivativeWorks"/>
    <cc:requires id="requires29078" rdf:resource="http://web.resource.org/cc/ShareAlike"/>
   </cc:License>
  </rdf:RDF>
 </metadata>
 <g id="layer1">
  <path id="path10699" sodipodi:rx="13.750000" sodipodi:ry="3.8000000" style="color:#000000" sodipodi:type="arc" d="m26.5 38.7a13.75 3.8 0 1 1 -27.5 0 13.75 3.8 0 1 1 27.5 0z" opacity=".45570" transform="matrix(1.8006 0 0 1.9748 1.0839 -38.013)" sodipodi:cy="38.700001" sodipodi:cx="12.750000" fill="url(#radialGradient11382)"/>
  <path id="path12723" stroke-linejoin="round" d="m6.3334 16.972v24.51h36.973l-0.062-24.392c-0.003-1.378-11.848-14.678-14.033-14.678l-8.552 0.0001c-2.297 0-14.326 13.262-14.326 14.56z" fill-rule="evenodd" sodipodi:nodetypes="ccczzzz" stroke="url(#linearGradient27488)" stroke-width=".85660" fill="url(#linearGradient27486)"/>
  <path id="path18153" d="m6.9231 16.787c-0.3981-0.43 11.887-13.694 13.744-13.694l8.376 0.0005c1.747 0 14.037 13.128 13.427 13.886l-10.861 13.495-12.314-0.318-12.372-13.37z" fill-rule="evenodd" sodipodi:nodetypes="czzzccz" fill="url(#linearGradient27483)"/>
  <path id="path2164" d="m19.078 30.018l-7.333-8.746 24.818-6.936 3.029 6.216-7.416 9.44" fill-rule="evenodd" sodipodi:nodetypes="ccccc" fill-opacity=".14620"/>
  <path id="path2162" d="m18.292 29.836l-7.483-8.81 24.648-6.893 3.174 6.271-7.241 9.407" fill-rule="evenodd" sodipodi:nodetypes="ccccc" fill-opacity=".14620"/>
  <path id="path2160" d="m18.775 29.957l-7.675-8.66 24.968-7.065 3.286 6.593-7.48 9.107" fill-rule="evenodd" sodipodi:nodetypes="ccccc" fill-opacity=".14620"/>
  <path id="path15105" d="m18.594 30.441l-7.333-8.746 24.712-6.894 3.11 6.388-7.12 8.986" fill-rule="evenodd" sodipodi:nodetypes="ccccc" fill="url(#linearGradient27477)"/>
  <path id="path14245" d="m20.488 29.064l-13.396 10.972 13.909-9.604h9.018l12.42 9.482-11.864-10.85h-10.087z" fill-rule="evenodd" sodipodi:nodetypes="ccccccc" fill="url(#linearGradient27471)"/>
  <path id="path14339" style="color:#000000" d="m6.9635 16.885l11.516 14.316 1.068-0.854-12.584-13.462z" fill-rule="evenodd" sodipodi:nodetypes="cccc" fill="url(#linearGradient27471)"/>
  <path id="path15103" d="m7.3077 17.131l0.0312 23.211h34.945l-0.063-23.084c-0.002-0.75-11.216-13.799-13.384-13.799l-7.895 0.0002c-2.253 0-13.635 12.892-13.634 13.672z" sodipodi:nodetypes="ccczzzz" stroke="url(#linearGradient27468)" stroke-width=".85660" fill="none"/>
  <path id="path17393" d="m20.957 30.453l-11.941 8.271 2.219 0.006 9.998-6.869 8.822-1.423-9.098 0.015z" fill-rule="evenodd" sodipodi:nodetypes="cccccc" fill="#fff"/>
  <path id="path2174" d="m11.428 21.67l1.324 1.411 22.791-6.884 2.915 5.682 0.614-0.712-3.069-6.378-24.575 6.881z" fill-rule="evenodd" sodipodi:nodetypes="ccccccc" fill="#fff"/>
  <path id="path2272" d="m13.308 23.636l6.026 6.454 1.197-1.026 10.087 0.043 0.812 0.727 3.975-4.744c-1.154-1.411-22.097-1.454-22.097-1.454z" fill-rule="evenodd" sodipodi:nodetypes="ccccccc" fill="url(#linearGradient27463)"/>
  <path id="path27492" style="color:#000000" d="m41.813 17.848l-9.952 12.631-1.068-0.855 11.02-11.776z" fill-rule="evenodd" sodipodi:nodetypes="cccc" fill="#b1b1b1"/>
 </g>
</svg>
