<svg xmlns="http://www.w3.org/2000/svg" viewBox="0 0 72 100"><linearGradient id="a" gradientUnits="userSpaceOnUse" x1="36" y1="97" x2="36" y2="-1" gradientTransform="translate(0 2)"><stop offset="0" stop-color="#c8d4db"/><stop offset=".139" stop-color="#d8e1e6"/><stop offset=".359" stop-color="#ebf0f3"/><stop offset=".617" stop-color="#f9fafb"/><stop offset="1" stop-color="#fff"/></linearGradient><path d="M45 1l27 26.7V99H0V1h45z" fill="url(#a)"/><path d="M45 1l27 26.7V99H0V1h45z" stroke="#7191a1" stroke-width="2" fill="none"/><linearGradient id="b" gradientUnits="userSpaceOnUse" x1="45.037" y1="25.813" x2="58.537" y2="12.313" gradientTransform="translate(0 2)"><stop offset="0" stop-color="#fff"/><stop offset=".35" stop-color="#fafbfb"/><stop offset=".532" stop-color="#edf1f4"/><stop offset=".675" stop-color="#dde5e9"/><stop offset=".799" stop-color="#c7d3da"/><stop offset=".908" stop-color="#adbdc7"/><stop offset="1" stop-color="#92a5b0"/></linearGradient><path d="M45 1l27 26.7H45V1z" fill="url(#b)"/><path d="M45 1l27 26.7H45V1z" stroke="#7191a1" stroke-width="2" stroke-linejoin="bevel" fill="none"/><path d="M16.5 86.1l3.1 1c-.5 1.7-1.3 3-2.4 3.8-1.1.8-2.5 1.3-4.2 1.3-2.1 0-3.8-.7-5.2-2.1-1.3-1.4-2-3.4-2-5.9 0-2.6.7-4.7 2-6.1 1.4-1.4 3.1-2.2 5.3-2.2 1.9 0 3.5.6 4.7 1.7.7.7 1.3 1.6 1.6 2.9l-3.1.8c-.2-.8-.6-1.5-1.2-1.9s-1.3-.7-2.2-.7c-1.2 0-2.1.4-2.8 1.3-.7.8-1.1 2.2-1.1 4.1 0 2 .4 3.4 1.1 4.3.7.8 1.6 1.3 2.8 1.3.8 0 1.6-.3 2.2-.8.7-.8 1.2-1.7 1.4-2.8zm5 .7l3.1-.3c.2 1 .6 1.8 1.1 2.3s1.3.7 2.3.7c1 0 1.8-.2 2.3-.7.5-.4.8-.9.8-1.5 0-.4-.1-.7-.3-1-.2-.3-.6-.5-1.1-.7-.4-.1-1.2-.4-2.5-.7-1.7-.4-2.9-.9-3.6-1.6-1-.9-1.5-1.9-1.5-3.2 0-.8.2-1.6.7-2.2.5-.7 1.1-1.2 2-1.6.9-.4 1.9-.5 3.1-.5 2 0 3.5.4 4.5 1.3s1.5 2 1.6 3.5l-3.2.1c-.1-.8-.4-1.4-.9-1.7-.4-.4-1.1-.5-2-.5-.9 0-1.6.2-2.2.6-.3.2-.5.6-.5 1s.2.7.5 1c.4.3 1.4.7 2.9 1.1s2.7.7 3.4 1.1c.7.4 1.3.9 1.7 1.6.4.7.6 1.5.6 2.5 0 .9-.3 1.7-.8 2.5s-1.2 1.4-2.1 1.8c-.9.4-2.1.6-3.4.6-2 0-3.5-.5-4.6-1.4-1-1-1.7-2.4-1.9-4.1zm14.9-2.7c0-1.6.2-3 .7-4 .4-.8.8-1.5 1.5-2.2.6-.6 1.3-1.1 2-1.4 1-.4 2.1-.6 3.4-.6 2.3 0 4.2.7 5.6 2.2 1.4 1.4 2.1 3.4 2.1 6 0 2.5-.7 4.5-2.1 6-1.4 1.4-3.2 2.2-5.5 2.2s-4.2-.7-5.6-2.1c-1.4-1.6-2.1-3.6-2.1-6.1zm3.2-.1c0 1.8.4 3.1 1.2 4.1.8.9 1.9 1.4 3.1 1.4s2.3-.5 3.1-1.4c.8-.9 1.2-2.3 1.2-4.1 0-1.8-.4-3.2-1.2-4-.8-.9-1.8-1.3-3.2-1.3s-2.4.4-3.2 1.3c-.6.8-1 2.2-1 4zm14.6 7.9V76.1h3.1l6.4 10.5V76.1h3v15.7h-3.2l-6.3-10.3v10.3h-3z" fill="#4c6c7b"/><linearGradient id="c" gradientUnits="userSpaceOnUse" x1="35.8" y1="66.797" x2="35.8" y2="31.125"><stop offset="0" stop-color="#adccdc"/><stop offset="1" stop-color="#4c6c7b"/></linearGradient><path d="M31 36.6c4.2-.4 5.4-3 10.2-3.5 2.4-.2 3.9.3 4.1 1.1.1.8-1 1.3-2.5 1.4-2 .2-2.9-.5-3-1.2-1.5.1-1.7.8-1.6 1.2.1.9 2 1.7 5 1.4 3.5-.3 4.6-1.6 4.4-3-.4-1.8-3-3.3-7.9-2.9-6.2.6-6.1 3.4-10.3 3.7-1.7.1-2.7-.2-2.9-.9-.1-.7.7-1 1.7-1.1.9-.1 2 .1 2.6.4.4-.2.5-.4.5-.6-.1-.6-1.4-.9-3-.8-3.1.3-3.1 1.7-3 2.3.3 1.7 2.7 2.8 5.7 2.5zm20.9 7.1c-3.9.9-8.8 1.5-14.7 1.5-6 0-11-.6-14.8-1.5-3.4-.9-5.3-1.9-5.9-2.9.3 2.2.9 4.4 1.6 6.5-.9.5-1.7 1.2-2.4 2.1-1.4 1.7-2 3.7-1.9 5.7.1 2 1.1 3.6 2.6 4.8 1.6 1.2 3.3 1.6 5.3 1.2.7-.1 1.6-.5 2.4-.7-1.6 0-3-.5-4.3-1.6-1.5-1.1-2.5-2.6-2.7-4.4-.4-1.7 0-3.3 1-4.7.2-.3.4-.5.7-.7.5 1.4 1.2 2.6 1.9 3.9 1.5 2.2 3 4.2 4.4 6.3.6 1.2 1.1 2.5 1.4 3.7 1 1.4 2.4 2.3 4.1 2.8 2.1.7 4.3 1 6.6 1h.2c2.2 0 4.6-.4 6.8-1.1 1.6-.5 3-1.4 4-2.9h.1c.2-1.1.6-2.4 1.2-3.7 1.5-2.1 3-4.1 4.4-6.3 2-3.6 3.3-7.6 4.1-12-.9 1.2-2.8 2.2-6.1 3zm-29.6-3.1c3.9 1 8.8 1.5 14.7 1.5 6 0 10.9-.5 14.7-1.5 4.1-1 6-2.2 6-3.4 0-.9-.9-1.7-2.5-2.4.4.2.6.6.6 1.1 0 1.2-1.9 2.2-5.6 3.1-3.4.7-7.9 1.3-13.2 1.3-5.2 0-9.8-.5-13.1-1.2-3.6-.9-5.5-1.9-5.5-3.1 0-.5.2-1 1-1.5-2.2.9-3.4 1.6-3.4 2.7.2 1.2 2.2 2.5 6.3 3.4z" fill="url(#c)"/></svg>