<?xml version="1.0" encoding="utf-8"?>
<svg viewBox="-9 -2 500 500" preserveAspectRatio="xMidYMin" xmlns="http://www.w3.org/2000/svg" xmlns:bx="https://boxy-svg.com">
  <ellipse transform="matrix(-0.67828, 0.734804, -0.734803, -0.67828, 1215.090783, 9.868413)" cx="835.686" cy="554.246" rx="80.352" ry="79.722" style="stroke: rgb(0, 0, 0); fill: rgb(74, 74, 74);"/>
  <path d="M 974.188 51.146 L 1081.254 156.12 L 867.121 156.12 L 974.188 51.146 Z" style="stroke: rgb(0, 0, 0); fill: rgb(74, 74, 74);" transform="matrix(0.999999, 0.001197, -0.001197, 0.999999, -733.062441, -50.884094)" bx:shape="triangle 867.121 51.146 214.133 104.974 0.5 0 1@cf0a745c"/>
  <path d="M -760.055 -51.146 L -652.989 53.828 L -867.122 53.828 L -760.055 -51.146 Z" style="stroke: rgb(0, 0, 0); fill: rgb(74, 74, 74);" transform="matrix(0.999999, -0.001197, -0.001197, -0.999999, 1001.056185, 439.662734)" bx:shape="triangle -867.122 -51.146 214.133 104.974 0.5 0 1@1fd2051c"/>
  <path d="M -760.055 -51.146 L -652.989 53.828 L -867.122 53.828 L -760.055 -51.146 Z" style="stroke: rgb(0, 0, 0); fill: rgb(74, 74, 74);" transform="matrix(0.001197, 0.999999, 0.999999, -0.001197, 47.259121, 1008.056185)" bx:shape="triangle -867.122 -51.146 214.133 104.974 0.5 0 1@1fd2051c"/>
  <path d="M -760.055 -51.146 L -652.989 53.828 L -867.122 53.828 L -760.055 -51.146 Z" style="stroke: rgb(0, 0, 0); fill: rgb(74, 74, 74);" transform="matrix(-0.001197, 0.999999, -0.999999, -0.001197, 435.875945, 1008.054751)" bx:shape="triangle -867.122 -51.146 214.133 104.974 0.5 0 1@1fd2051c"/>
</svg>