<?xml version="1.0" encoding="utf-8"?>
<!-- Generator: Adobe Illustrator 21.1.0, SVG Export Plug-In . SVG Version: 6.00 Build 0)  -->
<svg version="1.1" id="Layer_1" xmlns="http://www.w3.org/2000/svg"  x="0px" y="0px"
	 viewBox="0 0 72 100" style="enable-background:new 0 0 72 100;" xml:space="preserve">
<style type="text/css">
	.st0{opacity:0.98;}
	.st1{fill:url(#SVGID_1_);}
	.st2{fill-opacity:0;stroke:#BA9C02;stroke-width:2;}
	.st3{enable-background:new    ;}
	.st4{fill:#A07802;}
	.st5{fill:url(#SVGID_2_);}
	.st6{fill-opacity:0;stroke:#BA9C02;stroke-width:2;stroke-linejoin:bevel;}
	.st7{opacity:0.98;fill:url(#SVGID_3_);}
	.st8{opacity:0.98;fill:#FFFFFF;}
</style>
<g class="st0">
	
		<linearGradient id="SVGID_1_" gradientUnits="userSpaceOnUse" x1="36" y1="2.8797" x2="36" y2="101.1251" gradientTransform="matrix(1 0 0 -1 0 102)">
		<stop  offset="0" style="stop-color:#EFC402"/>
		<stop  offset="3.800000e-02" style="stop-color:#F1C829"/>
		<stop  offset="0.147" style="stop-color:#F4D264"/>
		<stop  offset="0.258" style="stop-color:#F7DC8B"/>
		<stop  offset="0.372" style="stop-color:#F9E5AC"/>
		<stop  offset="0.488" style="stop-color:#FBECC7"/>
		<stop  offset="0.606" style="stop-color:#FCF3DD"/>
		<stop  offset="0.728" style="stop-color:#FEF9EE"/>
		<stop  offset="0.856" style="stop-color:#FFFDF9"/>
		<stop  offset="1" style="stop-color:#FFFFFF"/>
	</linearGradient>
	<path class="st1" d="M44.9,0.9l26.8,26.8v71.5H0.2V0.9H44.9z"/>
	<path class="st2" d="M44.9,0.9l26.8,26.8v71.5H0.2V0.9H44.9z"/>
</g>
<g class="st3">
	<path class="st4" d="M11.5,72.3h8c1.6,0,2.7,0.1,3.5,0.2c0.8,0.1,1.5,0.4,2.1,0.8c0.6,0.4,1.1,1,1.5,1.7c0.4,0.7,0.6,1.5,0.6,2.3
		c0,0.9-0.3,1.8-0.8,2.6s-1.2,1.4-2,1.8c1.2,0.4,2.1,1,2.8,1.8s1,1.8,1,3c0,0.9-0.2,1.8-0.6,2.6c-0.4,0.9-1,1.5-1.7,2
		c-0.7,0.5-1.6,0.8-2.7,0.9c-0.7,0.1-2.3,0.1-4.8,0.1h-6.8V72.3z M15.5,75.6v4.6h2.6c1.6,0,2.5,0,2.9-0.1c0.7-0.1,1.2-0.3,1.6-0.7
		c0.4-0.4,0.6-0.9,0.6-1.6c0-0.6-0.2-1.1-0.5-1.5c-0.3-0.4-0.8-0.6-1.5-0.7c-0.4,0-1.5-0.1-3.4-0.1H15.5z M15.5,83.5v5.3h3.7
		c1.4,0,2.4,0,2.8-0.1c0.6-0.1,1.1-0.4,1.5-0.8c0.4-0.4,0.6-1,0.6-1.7c0-0.6-0.1-1.1-0.4-1.5c-0.3-0.4-0.7-0.7-1.3-0.9
		c-0.5-0.2-1.7-0.3-3.6-0.3H15.5z"/>
	<path class="st4" d="M29.8,92.2v-3.6l10.5-12.9H31v-3.4h14.6v3.1L34.6,88.8H46v3.4H29.8z"/>
	<path class="st4" d="M60.5,88.6v3.5H47.2c0.1-1.3,0.6-2.6,1.3-3.8s2.2-2.8,4.3-4.8c1.7-1.6,2.8-2.7,3.2-3.3
		c0.5-0.8,0.8-1.6,0.8-2.3c0-0.8-0.2-1.5-0.7-2s-1.1-0.7-1.9-0.7c-0.8,0-1.4,0.2-1.9,0.7s-0.7,1.3-0.8,2.4l-3.8-0.4
		c0.2-2.1,0.9-3.6,2.1-4.5c1.2-0.9,2.7-1.4,4.5-1.4c2,0,3.5,0.5,4.6,1.6c1.1,1.1,1.7,2.4,1.7,3.9c0,0.9-0.2,1.7-0.5,2.6
		c-0.3,0.8-0.8,1.7-1.5,2.5c-0.5,0.6-1.3,1.4-2.5,2.5c-1.2,1.1-2,1.8-2.3,2.2c-0.3,0.4-0.6,0.7-0.8,1.1H60.5z"/>
</g>
<g class="st0">
	
		<linearGradient id="SVGID_2_" gradientUnits="userSpaceOnUse" x1="44.9421" y1="74.3264" x2="58.3483" y2="87.7326" gradientTransform="matrix(1 0 0 -1 0 102)">
		<stop  offset="5.000000e-03" style="stop-color:#FFFFFF"/>
		<stop  offset="0.234" style="stop-color:#FFFEFB"/>
		<stop  offset="0.369" style="stop-color:#FEFAF1"/>
		<stop  offset="0.481" style="stop-color:#FDF5E4"/>
		<stop  offset="0.579" style="stop-color:#FCF0D2"/>
		<stop  offset="0.669" style="stop-color:#FAE9BC"/>
		<stop  offset="0.752" style="stop-color:#F9E2A2"/>
		<stop  offset="0.831" style="stop-color:#F7DA83"/>
		<stop  offset="0.905" style="stop-color:#F4D15D"/>
		<stop  offset="0.975" style="stop-color:#F1C827"/>
		<stop  offset="1" style="stop-color:#EFC402"/>
	</linearGradient>
	<path class="st5" d="M44.9,0.9l26.8,26.8H44.9V0.9z"/>
	<path class="st6" d="M44.9,0.9l26.8,26.8H44.9V0.9z"/>
</g>
<linearGradient id="SVGID_3_" gradientUnits="userSpaceOnUse" x1="33.6167" y1="40.6893" x2="33.6167" y2="98.148" gradientTransform="matrix(1 0 0 -1 0 102)">
	<stop  offset="5.000000e-03" style="stop-color:#A47D03"/>
	<stop  offset="0.533" style="stop-color:#DEBE00"/>
	<stop  offset="0.639" style="stop-color:#CFAD04"/>
	<stop  offset="1" style="stop-color:#A07802"/>
</linearGradient>
<path class="st7" d="M38,15.8h-8.4v-5H38V15.8z M38,24.7h-8.4v5H38V24.7z M38,3.9h-8.4v5H38V3.9z M38,17.7h-8.4v5H38V17.7z M38,31.6
	h-8.4v5H38V31.6z M38.7,56.2c0,2.8-2.3,5.1-5.1,5.1s-5.1-2.3-5.1-5.1c0-0.2,0-0.3,0-0.5l0,0l1.7-14.6c0-1.9,1.5-3.4,3.4-3.4
	c1.8,0,3.3,1.5,3.4,3.3l0,0l1.6,14.4C38.7,55.8,38.7,56,38.7,56.2z M37.1,56.1c0-1.9-1.6-3.5-3.5-3.5c-1.9,0-3.5,1.6-3.5,3.5
	c0,1.9,1.6,3.5,3.5,3.5C35.6,59.5,37.1,57.9,37.1,56.1z"/>
<path class="st8" d="M32.5,41.6l-2.3-4.5v-2.3l2.3-2.2h2.2l2.3,2.2v2.3l-2.3,4.5H32.5z"/>
</svg>
