<?xml version="1.0" encoding="utf-8"?>
<!-- Generator: Adobe Illustrator 21.1.0, SVG Export Plug-In . SVG Version: 6.00 Build 0)  -->
<svg version="1.1" id="Layer_1" xmlns="http://www.w3.org/2000/svg"  x="0px" y="0px"
	 viewBox="0 0 72 100" style="enable-background:new 0 0 72 100;" xml:space="preserve">
<style type="text/css">
	.st0{opacity:0.99;}
	.st1{fill:url(#SVGID_1_);}
	.st2{fill-opacity:0;stroke:#2D3293;stroke-width:2;}
	.st3{enable-background:new    ;}
	.st4{fill:#FFFFFF;}
	.st5{fill:url(#SVGID_2_);}
	.st6{fill:url(#SVGID_3_);}
	.st7{fill:url(#SVGID_4_);}
	.st8{fill:url(#SVGID_5_);}
	.st9{fill:url(#SVGID_6_);}
	.st10{fill-opacity:0;stroke:#2D3293;stroke-width:2;stroke-linejoin:bevel;}
</style>
<g class="st0">
	
		<linearGradient id="SVGID_1_" gradientUnits="userSpaceOnUse" x1="36.15" y1="2.8868" x2="36.15" y2="101.1256" gradientTransform="matrix(1 0 0 -1 0 102)">
		<stop  offset="0" style="stop-color:#595593"/>
		<stop  offset="1.200000e-02" style="stop-color:#5B5794"/>
		<stop  offset="0.182" style="stop-color:#7B77AA"/>
		<stop  offset="0.352" style="stop-color:#9896BF"/>
		<stop  offset="0.521" style="stop-color:#B2B2D2"/>
		<stop  offset="0.687" style="stop-color:#C7C9E2"/>
		<stop  offset="0.848" style="stop-color:#D6D9EC"/>
		<stop  offset="1" style="stop-color:#DBDFF0"/>
	</linearGradient>
	<path class="st1" d="M45.2,0.9l27.1,26.8v71.4H0V0.9H45.2z"/>
	<path class="st2" d="M45.2,0.9l27.1,26.8v71.4H0V0.9H45.2z"/>
</g>
<g class="st3">
	<path class="st4" d="M8.6,91.2V71.3h6.1l3.6,13.6L22,71.3h6.1v19.9h-3.8V75.5l-4,15.7h-3.9l-4-15.7v15.7H8.6z"/>
	<path class="st4" d="M38.8,91.2v-4h-8.2v-3.3l8.7-12.6h3.2v12.6H45v3.4h-2.5v4H38.8z M38.8,83.8V77l-4.6,6.8H38.8z"/>
	<path class="st4" d="M47.7,91.2V71.3h8.5c2.2,0,3.7,0.2,4.7,0.5c1,0.4,1.8,1,2.3,1.9c0.6,0.9,0.9,2,0.9,3.1c0,1.5-0.4,2.7-1.3,3.7
		c-0.9,1-2.2,1.6-4,1.8c0.9,0.5,1.6,1.1,2.2,1.7c0.6,0.6,1.3,1.7,2.3,3.2l2.5,3.9H61L58,86.8c-1-1.5-1.8-2.5-2.1-2.9
		s-0.8-0.7-1.2-0.8c-0.4-0.1-1.1-0.2-2-0.2h-0.8v8.3H47.7z M51.8,79.7h3c1.9,0,3.2-0.1,3.6-0.2s0.9-0.4,1.1-0.8
		c0.3-0.4,0.4-0.9,0.4-1.5c0-0.7-0.2-1.2-0.5-1.6c-0.4-0.4-0.9-0.7-1.5-0.8c-0.3,0-1.3-0.1-3-0.1h-3.2V79.7z"/>
</g>
<g>
	<linearGradient id="SVGID_2_" gradientUnits="userSpaceOnUse" x1="17.1309" y1="43.7597" x2="55.6691" y2="43.7597">
		<stop  offset="0" style="stop-color:#352C7F"/>
		<stop  offset="7.400000e-02" style="stop-color:#3E3786"/>
		<stop  offset="0.266" style="stop-color:#544F96"/>
		<stop  offset="0.457" style="stop-color:#6763A5"/>
		<stop  offset="0.645" style="stop-color:#7572B1"/>
		<stop  offset="0.827" style="stop-color:#7E7CBA"/>
		<stop  offset="1" style="stop-color:#8180BD"/>
	</linearGradient>
	<path class="st5" d="M17.3,32c-0.7,1.6,0.7,6.6,0.7,6.6c2.5,7.1,8.5,13.1,8.5,13.1c5.8,6.1,11.7,9.8,16.9,11
		c5.2,1.2,6.2-0.9,6.2-0.9s4.3-4.2,5.5-5.6c1.2-1.5-0.3-2.4-0.3-2.4s-7.5-4.5-8.7-5c-1.2-0.5-1.9,0.3-2.7,1
		c-0.8,0.7-2.3,2.1-2.3,2.1c-0.9,0.1-2.5-0.6-5.2-2.7c-2.7-2.1-5.8-6.1-6.7-7.5c-0.9-1.3-0.9-2.8-0.9-2.8s1.1-0.9,2.2-2.1
		c1.1-1.2,0.8-2.3,0.8-2.3l-3.4-6.3c-2.1-4.4-2.6-3.5-2.6-3.5c-1.4,0.5-2.6,1.6-3.4,2.4C21.1,27.8,18.1,30.4,17.3,32z"/>
	<linearGradient id="SVGID_3_" gradientUnits="userSpaceOnUse" x1="38.0515" y1="36.0521" x2="48.6893" y2="36.0521">
		<stop  offset="0" style="stop-color:#352C7F"/>
		<stop  offset="7.400000e-02" style="stop-color:#3E3786"/>
		<stop  offset="0.266" style="stop-color:#544F96"/>
		<stop  offset="0.457" style="stop-color:#6763A5"/>
		<stop  offset="0.645" style="stop-color:#7572B1"/>
		<stop  offset="0.827" style="stop-color:#7E7CBA"/>
		<stop  offset="1" style="stop-color:#8180BD"/>
	</linearGradient>
	<path class="st6" d="M47,41.4c0.9,0,1.7-0.7,1.7-1.7c0-4.9-4-9-9-9c-0.9,0-1.7,0.7-1.7,1.7c0,0.9,0.7,1.7,1.7,1.7
		c3.1,0,5.6,2.5,5.6,5.6C45.3,40.6,46.1,41.4,47,41.4z"/>
	<linearGradient id="SVGID_4_" gradientUnits="userSpaceOnUse" x1="38.7184" y1="33.1245" x2="53.8782" y2="33.1245">
		<stop  offset="0" style="stop-color:#352C7F"/>
		<stop  offset="7.400000e-02" style="stop-color:#3E3786"/>
		<stop  offset="0.266" style="stop-color:#544F96"/>
		<stop  offset="0.457" style="stop-color:#6763A5"/>
		<stop  offset="0.645" style="stop-color:#7572B1"/>
		<stop  offset="0.827" style="stop-color:#7E7CBA"/>
		<stop  offset="1" style="stop-color:#8180BD"/>
	</linearGradient>
	<path class="st7" d="M40.4,25.5c-0.9,0-1.7,0.7-1.7,1.7c0,0.9,0.7,1.7,1.7,1.7c5.6,0,10.1,4.5,10.1,10.1c0,0.9,0.7,1.7,1.7,1.7
		s1.7-0.7,1.7-1.7C53.9,31.6,47.8,25.5,40.4,25.5z"/>
	<linearGradient id="SVGID_5_" gradientUnits="userSpaceOnUse" x1="36.4779" y1="39.1348" x2="44.0956" y2="39.1348">
		<stop  offset="0" style="stop-color:#352C7F"/>
		<stop  offset="7.400000e-02" style="stop-color:#3E3786"/>
		<stop  offset="0.266" style="stop-color:#544F96"/>
		<stop  offset="0.457" style="stop-color:#6763A5"/>
		<stop  offset="0.645" style="stop-color:#7572B1"/>
		<stop  offset="0.827" style="stop-color:#7E7CBA"/>
		<stop  offset="1" style="stop-color:#8180BD"/>
	</linearGradient>
	<path class="st8" d="M38.2,35.3c-0.9,0-1.7,0.7-1.7,1.7s0.7,1.7,1.7,1.7c1.4,0,2.6,1.2,2.6,2.6c0,0.9,0.7,1.7,1.7,1.7
		c0.9,0,1.7-0.7,1.7-1.7C44.1,38,41.4,35.3,38.2,35.3z"/>
</g>
<g class="st0">
	
		<linearGradient id="SVGID_6_" gradientUnits="userSpaceOnUse" x1="58.3206" y1="87.2734" x2="50.783" y2="78.8387" gradientTransform="matrix(1 0 0 -1 0 102)">
		<stop  offset="0" style="stop-color:#595593"/>
		<stop  offset="7.000000e-02" style="stop-color:#706CA2"/>
		<stop  offset="0.159" style="stop-color:#8988B5"/>
		<stop  offset="0.255" style="stop-color:#A3A5C8"/>
		<stop  offset="0.359" style="stop-color:#BABFD9"/>
		<stop  offset="0.471" style="stop-color:#CED5E7"/>
		<stop  offset="0.598" style="stop-color:#DEE6F2"/>
		<stop  offset="0.751" style="stop-color:#E9F3FA"/>
		<stop  offset="1" style="stop-color:#ECF8FE"/>
	</linearGradient>
	<path class="st9" d="M45.2,0.9l27.1,26.8H45.2V0.9z"/>
	<path class="st10" d="M45.2,0.9l27.1,26.8H45.2V0.9z"/>
</g>
</svg>
