<?xml version="1.0" encoding="utf-8"?>
<!-- Generator: Adobe Illustrator 21.1.0, SVG Export Plug-In . SVG Version: 6.00 Build 0)  -->
<svg version="1.1" id="Layer_1" xmlns="http://www.w3.org/2000/svg"  x="0px" y="0px"
	 viewBox="0 0 72 100" style="enable-background:new 0 0 72 100;" xml:space="preserve">
<style type="text/css">
	.st0{fill:url(#SVGID_1_);}
	.st1{fill-opacity:0;stroke:#01415E;stroke-width:2;}
	.st2{fill:#0B4466;}
	.st3{fill-opacity:0;stroke:#0E5580;stroke-width:0.6;stroke-linejoin:round;stroke-miterlimit:1;}
	.st4{fill:url(#SVGID_2_);}
	.st5{fill-opacity:0;stroke:#01415E;stroke-width:2;stroke-linejoin:bevel;}
	.st6{enable-background:new    ;}
	.st7{fill:#FFFFFF;}
</style>
<g>
	
		<linearGradient id="SVGID_1_" gradientUnits="userSpaceOnUse" x1="36" y1="3.0045" x2="36" y2="100.9996" gradientTransform="matrix(1 0 0 -1 0 102)">
		<stop  offset="5.000000e-03" style="stop-color:#002D44"/>
		<stop  offset="5.600001e-02" style="stop-color:#013852"/>
		<stop  offset="0.16" style="stop-color:#0A4D6B"/>
		<stop  offset="0.274" style="stop-color:#0F5E82"/>
		<stop  offset="0.398" style="stop-color:#0F6D96"/>
		<stop  offset="0.539" style="stop-color:#0D77A4"/>
		<stop  offset="0.711" style="stop-color:#0A7EAE"/>
		<stop  offset="1" style="stop-color:#0881B2"/>
	</linearGradient>
	<path class="st0" d="M45,1l27,26.7V99H0V1H45z"/>
	<path class="st1" d="M45,1l27,26.7V99H0V1H45z"/>
</g>
<g>
	<g>
		<path class="st2" d="M63.6,67l-0.1,0.8l-0.1,1.1L8.2,68.8l-0.7-0.1l-0.3-0.4l-0.1-0.5l0.1-0.4L7.7,67H63.6z"/>
		<path class="st3" d="M63.6,67l-0.1,0.8l-0.1,1.1L8.2,68.8l-0.7-0.1l-0.3-0.4l-0.1-0.5l0.1-0.4L7.7,67H63.6z"/>
	</g>
	<g>
		<path class="st2" d="M11.1,60.9l2,2.1l-2.7,1.9L9,65.7H8.5l-0.2-0.6l0.9-1.4L11.1,60.9z"/>
		<path class="st3" d="M11.1,60.9l2,2.1l-2.7,1.9L9,65.7H8.5l-0.2-0.6l0.9-1.4L11.1,60.9z"/>
	</g>
	<g>
		<path class="st2" d="M28.9,40.6l4.4,4.5L29.4,49l-4.3,3.9l-4.3,3.8l-3.4,2.9l-3.6,2.6l-2.1-2.1l2-2.9l2.8-3.3l2.2-2.6l2.8-3
			l3.5-3.7L28.9,40.6z"/>
		<path class="st3" d="M28.9,40.6l4.4,4.5L29.4,49l-4.3,3.9l-4.3,3.8l-3.4,2.9l-3.6,2.6l-2.1-2.1l2-2.9l2.8-3.3l2.2-2.6l2.8-3
			l3.5-3.7L28.9,40.6z"/>
	</g>
	<g>
		<path class="st2" d="M49.2,22.3l1.1,0.1l0.7,0.6c0,0,0.5,1,0.5,0.9v1.2l-0.4,1.1L50.6,27l0,0.9l0.4,0.5l0.1,0.7l-0.2,0.9l-9,9.6
			l-2.5,2.7l-1,1.2l-0.1,0.6l0.1,0.7l-0.6,0.7l-0.8-0.5l-0.3-1l0.2-1l0.6-0.8l6.3-6.7l5.3-5.9l0.1-0.7l-0.7,0.1l-3.8,4.1l-6.2,6.4
			l-4.4,4.5l-4.5-4.2l5.1-5.4l5.8-5.6l5.3-4.9l1.4-1l1-0.6L49.2,22.3z"/>
		<path class="st3" d="M49.2,22.3l1.1,0.1l0.7,0.6c0,0,0.5,1,0.5,0.9v1.2l-0.4,1.1L50.6,27l0,0.9l0.4,0.5l0.1,0.7l-0.2,0.9l-9,9.6
			l-2.5,2.7l-1,1.2l-0.1,0.6l0.1,0.7l-0.6,0.7l-0.8-0.5l-0.3-1l0.2-1l0.6-0.8l6.3-6.7l5.3-5.9l0.1-0.7l-0.7,0.1l-3.8,4.1l-6.2,6.4
			l-4.4,4.5l-4.5-4.2l5.1-5.4l5.8-5.6l5.3-4.9l1.4-1l1-0.6L49.2,22.3z"/>
	</g>
</g>
<g>
	
		<linearGradient id="SVGID_2_" gradientUnits="userSpaceOnUse" x1="45.0685" y1="74.2052" x2="58.5685" y2="87.7052" gradientTransform="matrix(1 0 0 -1 0 102)">
		<stop  offset="5.000000e-03" style="stop-color:#DFF1FA"/>
		<stop  offset="0.3" style="stop-color:#DCEEF7"/>
		<stop  offset="0.443" style="stop-color:#D3E4EF"/>
		<stop  offset="0.553" style="stop-color:#C4D6E3"/>
		<stop  offset="0.647" style="stop-color:#B1C5D5"/>
		<stop  offset="0.73" style="stop-color:#9AB0C5"/>
		<stop  offset="0.805" style="stop-color:#819AB3"/>
		<stop  offset="0.875" style="stop-color:#64829F"/>
		<stop  offset="0.938" style="stop-color:#426C8C"/>
		<stop  offset="0.998" style="stop-color:#06577A"/>
		<stop  offset="1" style="stop-color:#015679"/>
	</linearGradient>
	<path class="st4" d="M45,1l27,26.7H45V1z"/>
	<path class="st5" d="M45,1l27,26.7H45V1z"/>
</g>
<g class="st6">
	<path class="st7" d="M4.9,93V79.4h4.4c1.7,0,2.8,0.1,3.3,0.2c0.8,0.2,1.4,0.6,2,1.3c0.5,0.7,0.8,1.6,0.8,2.6c0,0.8-0.2,1.5-0.5,2.1
		c-0.3,0.6-0.7,1-1.2,1.3c-0.5,0.3-0.9,0.5-1.4,0.6c-0.7,0.1-1.6,0.2-2.8,0.2H7.6V93H4.9z M7.6,81.7v3.9h1.5c1.1,0,1.8-0.1,2.2-0.2
		c0.4-0.1,0.7-0.4,0.9-0.7c0.2-0.3,0.3-0.7,0.3-1.1c0-0.5-0.1-0.9-0.4-1.2c-0.3-0.3-0.7-0.5-1.1-0.6c-0.3-0.1-1-0.1-2-0.1H7.6z"/>
	<path class="st7" d="M28.4,93h-3l-1.2-3.1h-5.4L17.7,93h-2.9l5.3-13.6H23L28.4,93z M23.4,87.6l-1.9-5l-1.8,5H23.4z"/>
	<path class="st7" d="M36.2,88v-2.3h5.9v5.4c-0.6,0.6-1.4,1-2.5,1.5c-1.1,0.4-2.2,0.6-3.3,0.6c-1.4,0-2.7-0.3-3.7-0.9
		s-1.9-1.5-2.4-2.6c-0.5-1.1-0.8-2.3-0.8-3.6c0-1.4,0.3-2.7,0.9-3.8c0.6-1.1,1.5-1.9,2.6-2.5c0.9-0.5,2-0.7,3.3-0.7
		c1.7,0,3,0.4,4,1.1c0.9,0.7,1.6,1.7,1.8,2.9l-2.7,0.5c-0.2-0.7-0.6-1.2-1.1-1.6c-0.5-0.4-1.2-0.6-2-0.6c-1.2,0-2.2,0.4-2.9,1.1
		c-0.7,0.8-1.1,1.9-1.1,3.4c0,1.6,0.4,2.8,1.1,3.6c0.7,0.8,1.7,1.2,2.8,1.2c0.6,0,1.2-0.1,1.7-0.3c0.6-0.2,1.1-0.5,1.5-0.8V88H36.2z
		"/>
	<path class="st7" d="M44.7,93V79.4h10.1v2.3h-7.3v3h6.8V87h-6.8v3.7H55V93H44.7z"/>
	<path class="st7" d="M56.6,88.6l2.7-0.3c0.2,0.9,0.5,1.6,1,2c0.5,0.4,1.2,0.6,2,0.6c0.9,0,1.6-0.2,2-0.6C64.7,90,65,89.5,65,89
		c0-0.3-0.1-0.6-0.3-0.8c-0.2-0.2-0.5-0.4-1-0.6c-0.3-0.1-1.1-0.3-2.2-0.6c-1.5-0.4-2.5-0.8-3.1-1.3c-0.8-0.7-1.3-1.7-1.3-2.7
		c0-0.7,0.2-1.3,0.6-1.9c0.4-0.6,1-1.1,1.7-1.4s1.6-0.5,2.7-0.5c1.7,0,3,0.4,3.9,1.1c0.9,0.7,1.3,1.7,1.4,3l-2.7,0.1
		c-0.1-0.7-0.4-1.2-0.8-1.5c-0.4-0.3-1-0.5-1.7-0.5c-0.8,0-1.4,0.2-1.9,0.5c-0.3,0.2-0.4,0.5-0.4,0.8c0,0.3,0.1,0.6,0.4,0.8
		c0.3,0.3,1.2,0.6,2.5,0.9c1.3,0.3,2.3,0.6,3,1c0.6,0.3,1.1,0.8,1.5,1.4c0.4,0.6,0.5,1.3,0.5,2.2c0,0.8-0.2,1.5-0.6,2.2
		c-0.4,0.7-1,1.2-1.8,1.5c-0.8,0.3-1.8,0.5-3,0.5c-1.7,0-3-0.4-4-1.2C57.4,91.2,56.8,90.1,56.6,88.6z"/>
</g>
</svg>
