<?xml version="1.0" encoding="utf-8"?>
<!-- Generator: Adobe Illustrator 21.1.0, SVG Export Plug-In . SVG Version: 6.00 Build 0)  -->
<svg version="1.1" id="Layer_1" xmlns="http://www.w3.org/2000/svg"  x="0px" y="0px"
	 viewBox="0 0 72 100" style="enable-background:new 0 0 72 100;" xml:space="preserve">
<style type="text/css">
	.st0{opacity:0.99;}
	.st1{fill:url(#SVGID_1_);}
	.st2{fill-opacity:0;stroke:#006E6C;stroke-width:2;}
	.st3{enable-background:new    ;}
	.st4{fill:#FFFFFF;}
	.st5{fill:url(#SVGID_2_);}
	.st6{fill-opacity:0;stroke:#006E6C;stroke-width:2;stroke-linejoin:bevel;}
	.st7{opacity:0.99;fill:url(#SVGID_3_);}
</style>
<g class="st0">
	
		<linearGradient id="SVGID_1_" gradientUnits="userSpaceOnUse" x1="36.2" y1="3.0053" x2="36.2" y2="101.0001" gradientTransform="matrix(1 0 0 -1 0 102)">
		<stop  offset="0" style="stop-color:#006B69"/>
		<stop  offset="0.124" style="stop-color:#00807F"/>
		<stop  offset="0.262" style="stop-color:#009393"/>
		<stop  offset="0.41" style="stop-color:#00A3A3"/>
		<stop  offset="0.571" style="stop-color:#00B0AF"/>
		<stop  offset="0.752" style="stop-color:#08B8B7"/>
		<stop  offset="1" style="stop-color:#14BBBB"/>
	</linearGradient>
	<path class="st1" d="M45.2,1l26.9,26.7V99H0.3V1H45.2z"/>
	<path class="st2" d="M45.2,1l26.9,26.7V99H0.3V1H45.2z"/>
</g>
<g class="st3">
	<path class="st4" d="M8,91.1V71.2h6.5c2.5,0,4.1,0.1,4.8,0.3c1.1,0.3,2.1,0.9,2.9,1.9c0.8,1,1.2,2.3,1.2,3.9c0,1.2-0.2,2.2-0.7,3.1
		c-0.4,0.8-1,1.5-1.7,2c-0.7,0.5-1.4,0.8-2.1,0.9c-1,0.2-2.4,0.3-4.2,0.3H12v7.5H8z M12,74.6v5.6h2.2c1.6,0,2.7-0.1,3.2-0.3
		c0.5-0.2,1-0.5,1.3-1c0.3-0.4,0.5-1,0.5-1.5c0-0.7-0.2-1.3-0.6-1.8c-0.4-0.5-1-0.8-1.6-0.9c-0.5-0.1-1.4-0.1-2.9-0.1H12z"/>
	<path class="st4" d="M26.6,91.1V71.2h3.9l8.2,13.2V71.2h3.7v19.8h-4l-8.1-12.9v12.9H26.6z"/>
	<path class="st4" d="M56.1,83.8v-3.3h8.7v7.9c-0.8,0.8-2.1,1.5-3.7,2.1c-1.6,0.6-3.2,0.9-4.9,0.9c-2.1,0-3.9-0.4-5.5-1.3
		c-1.6-0.9-2.7-2.1-3.5-3.7c-0.8-1.6-1.2-3.4-1.2-5.3c0-2.1,0.4-3.9,1.3-5.5c0.9-1.6,2.1-2.8,3.8-3.7c1.3-0.7,2.9-1,4.8-1
		c2.5,0,4.4,0.5,5.8,1.5s2.3,2.5,2.7,4.3l-4,0.7c-0.3-1-0.8-1.7-1.6-2.3c-0.8-0.6-1.7-0.8-2.9-0.8c-1.8,0-3.2,0.6-4.2,1.7
		c-1,1.1-1.6,2.8-1.6,4.9c0,2.4,0.5,4.1,1.6,5.3s2.4,1.8,4.1,1.8c0.8,0,1.7-0.2,2.5-0.5c0.8-0.3,1.6-0.7,2.2-1.2v-2.5H56.1z"/>
</g>
<g class="st0">
	
		<linearGradient id="SVGID_2_" gradientUnits="userSpaceOnUse" x1="45.2139" y1="74.2291" x2="58.667" y2="87.6823" gradientTransform="matrix(1 0 0 -1 0 102)">
		<stop  offset="0" style="stop-color:#D6EDE8"/>
		<stop  offset="0.297" style="stop-color:#D3EBE6"/>
		<stop  offset="0.44" style="stop-color:#C7E3DF"/>
		<stop  offset="0.551" style="stop-color:#B7D8D5"/>
		<stop  offset="0.645" style="stop-color:#A0CBC9"/>
		<stop  offset="0.729" style="stop-color:#84BAB9"/>
		<stop  offset="0.804" style="stop-color:#62A7A7"/>
		<stop  offset="0.874" style="stop-color:#349394"/>
		<stop  offset="0.938" style="stop-color:#007F7F"/>
		<stop  offset="0.998" style="stop-color:#006B6A"/>
		<stop  offset="1" style="stop-color:#006B69"/>
	</linearGradient>
	<path class="st5" d="M45.2,1l26.9,26.7H45.2V1z"/>
	<path class="st6" d="M45.2,1l26.9,26.7H45.2V1z"/>
</g>
<linearGradient id="SVGID_3_" gradientUnits="userSpaceOnUse" x1="36.2498" y1="37.353" x2="36.2498" y2="85.1607" gradientTransform="matrix(1 0 0 -1 0 102)">
	<stop  offset="5.000000e-03" style="stop-color:#008281"/>
	<stop  offset="0.343" style="stop-color:#006A69"/>
	<stop  offset="1" style="stop-color:#003836"/>
</linearGradient>
<path class="st7" d="M62.7,56.8c-1.6-0.8-4.6-6.6-9.2-7c-4-0.3-9.1-1.8-11.9-2c-3.5-5.8-9.5-15-14.5-19.9l13.8,0.7
	C37.2,19.8,27.7,23,27.7,23l6.4-5.3c-8.2-3.3-11.6,4.7-11.6,4.7c-8.5-4.7-12.9,3.3-12.9,3.3l8.8,0.6C8.4,29.1,11.2,39,11.2,39l8.9-8
	c-1.9,4.4,2.3,7.5,2.3,7.5l2.6-10.8c0,0,9.3,10.6,12.2,21.4c-3.7,1.9-9.5,5-14,5.6C17,55.5,9.7,59.7,9.7,59.7v4.9h53.1L62.7,56.8z"
	/>
</svg>
