<?xml version="1.0" encoding="utf-8"?>
<!-- Generator: Adobe Illustrator 21.1.0, SVG Export Plug-In . SVG Version: 6.00 Build 0)  -->
<svg version="1.1" id="Layer_1" xmlns="http://www.w3.org/2000/svg"  x="0px" y="0px"
	 viewBox="0 0 72 100" style="enable-background:new 0 0 72 100;" xml:space="preserve">
<style type="text/css">
	.st0{fill:url(#path1228_1_);}
	.st1{fill-opacity:0;stroke:#827100;stroke-width:2;}
	.st2{enable-background:new    ;}
	.st3{fill:#FEFEFE;}
	.st4{fill:url(#path1238_1_);}
	.st5{fill-opacity:0;stroke:#827100;stroke-width:2;stroke-linejoin:round;}
	.st6{fill:url(#SVGID_1_);stroke:url(#SVGID_2_);stroke-width:0.75;stroke-miterlimit:10;}
	.st7{fill:url(#SVGID_3_);stroke:url(#SVGID_4_);stroke-width:0.75;stroke-miterlimit:10;}
</style>
<linearGradient id="path1228_1_" gradientUnits="userSpaceOnUse" x1="486.3114" y1="644.1125" x2="486.3104" y2="742.0848" gradientTransform="matrix(1 0 0 -1 -450.061 743.109)">
	<stop  offset="0" style="stop-color:#742D2D"/>
	<stop  offset="5.000000e-03" style="stop-color:#827100"/>
	<stop  offset="1" style="stop-color:#FFEE91"/>
</linearGradient>
<path id="path1228" class="st0" d="M45.3,1l27.1,26.7V99H0.1V1H45.3z"/>
<path id="path1230" class="st1" d="M45.3,1l27.1,26.7V99H0.1V1H45.3z"/>
<g class="st2">
	<path class="st3" d="M21.9,91.6V76H27c1.9,0,3.2,0.1,3.8,0.2c0.9,0.2,1.7,0.7,2.3,1.5s0.9,1.8,0.9,3c0,1-0.2,1.8-0.5,2.4
		s-0.8,1.2-1.3,1.5c-0.5,0.4-1.1,0.6-1.7,0.7c-0.8,0.1-1.9,0.2-3.3,0.2h-2.1v5.9H21.9z M25.1,78.6v4.4h1.7c1.3,0,2.1-0.1,2.5-0.2
		c0.4-0.2,0.8-0.4,1-0.8c0.2-0.3,0.4-0.8,0.4-1.2c0-0.6-0.2-1-0.5-1.4c-0.3-0.4-0.8-0.6-1.3-0.7c-0.4-0.1-1.1-0.1-2.3-0.1H25.1z"/>
	<path class="st3" d="M36,83.9c0-1.6,0.2-2.9,0.7-4c0.4-0.8,0.8-1.5,1.5-2.1c0.6-0.6,1.3-1.1,2-1.4c1-0.4,2.1-0.6,3.4-0.6
		c2.3,0,4.2,0.7,5.6,2.1c1.4,1.4,2.1,3.4,2.1,5.9c0,2.5-0.7,4.5-2.1,5.9s-3.2,2.1-5.6,2.1c-2.4,0-4.2-0.7-5.6-2.1
		C36.7,88.3,36,86.4,36,83.9z M39.3,83.8c0,1.8,0.4,3.1,1.2,4c0.8,0.9,1.9,1.4,3.1,1.4c1.3,0,2.3-0.5,3.1-1.4s1.2-2.3,1.2-4.1
		c0-1.8-0.4-3.1-1.2-4c-0.8-0.9-1.8-1.3-3.2-1.3c-1.3,0-2.4,0.4-3.2,1.3C39.7,80.6,39.3,82,39.3,83.8z"/>
</g>
<linearGradient id="path1238_1_" gradientUnits="userSpaceOnUse" x1="495.4366" y1="715.2711" x2="508.9823" y2="728.8177" gradientTransform="matrix(1 0 0 -1 -450.061 743.109)">
	<stop  offset="0" style="stop-color:#FEEA86"/>
	<stop  offset="1" style="stop-color:#867200"/>
</linearGradient>
<path id="path1238" class="st4" d="M45.3,1l27.1,26.7H45.3V1z"/>
<path id="path1240" class="st5" d="M45.3,1l27.1,26.7H45.3V1z"/>
<g>
	<linearGradient id="SVGID_1_" gradientUnits="userSpaceOnUse" x1="23.9246" y1="57.7285" x2="23.9246" y2="23.1">
		<stop  offset="0" style="stop-color:#AA9400"/>
		<stop  offset="1" style="stop-color:#564A00"/>
	</linearGradient>
	<linearGradient id="SVGID_2_" gradientUnits="userSpaceOnUse" x1="23.8823" y1="58.2666" x2="23.8823" y2="22.725">
		<stop  offset="0" style="stop-color:#AA9400"/>
		<stop  offset="1" style="stop-color:#564A00"/>
	</linearGradient>
	<path class="st6" d="M34.9,48.6c-3.5-3.4-6.6-6.5-8.4-13.4h12.3V30H26.6v-6.9h-5.3v7H9v5.2h12.6c0,0-0.1,1-0.3,1.8
		C19.6,43.9,17.5,48.3,9,52.5l1.8,5.2c8-4.3,12.2-9.6,14.1-15.6c1.8,4.5,4.8,8.2,8.2,11.6L34.9,48.6z"/>
	<linearGradient id="SVGID_3_" gradientUnits="userSpaceOnUse" x1="47.6531" y1="66.3646" x2="47.6531" y2="31.7362">
		<stop  offset="0" style="stop-color:#AA9400"/>
		<stop  offset="1" style="stop-color:#564A00"/>
	</linearGradient>
	<linearGradient id="SVGID_4_" gradientUnits="userSpaceOnUse" x1="47.6531" y1="66.7396" x2="47.6531" y2="31.3612">
		<stop  offset="0" style="stop-color:#AA9400"/>
		<stop  offset="1" style="stop-color:#564A00"/>
	</linearGradient>
	<path class="st7" d="M51.2,31.7h-7L31.8,66.4h5.3L40.6,56h14.1l3.5,10.4h5.3L51.2,31.7z M42.4,50.8l5.3-13.8l5.3,13.9L42.4,50.8
		L42.4,50.8z"/>
</g>
</svg>
