<?xml version="1.0" encoding="utf-8"?>
<!-- Generator: Adobe Illustrator 19.1.0, SVG Export Plug-In . SVG Version: 6.00 Build 0)  -->
<svg version="1.1" xmlns="http://www.w3.org/2000/svg" xmlns:xlink="http://www.w3.org/1999/xlink" x="0px" y="0px" width="24px"
	 height="24px" viewBox="0 0 24 24" enable-background="new 0 0 24 24" xml:space="preserve">
<g id="Bounding_Boxes">
	<g id="ui_x5F_spec_x5F_header_copy_3">
	</g>
	<path fill="none" d="M0,0h24v24H0V0z"/>
</g>
<g id="Outline_1_">
	<g id="ui_x5F_spec_x5F_header_copy_4">
	</g>
	<path id="XMLID_37_" d="M14.06,9.02l0.92,0.92L5.92,19H5v-0.92L14.06,9.02 M17.66,3c-0.25,0-0.51,0.1-0.7,0.29l-1.83,1.83
		l3.75,3.75l1.83-1.83c0.39-0.39,0.39-1.02,0-1.41l-2.34-2.34C18.17,3.09,17.92,3,17.66,3L17.66,3z M14.06,6.19L3,17.25V21h3.75
		L17.81,9.94L14.06,6.19L14.06,6.19z"/>
</g>
</svg>
