<?xml version="1.0" encoding="UTF-8" standalone="no"?>
<!-- Created with Inkscape (http://www.inkscape.org/) -->
<svg id="svg3440" xmlns:rdf="http://www.w3.org/1999/02/22-rdf-syntax-ns#" xmlns="http://www.w3.org/2000/svg" sodipodi:docname="applications-internet.svg" xmlns:sodipodi="http://inkscape.sourceforge.net/DTD/sodipodi-0.dtd" height="48px" sodipodi:version="0.32" width="48px" xmlns:cc="http://web.resource.org/cc/" xmlns:xlink="http://www.w3.org/1999/xlink" sodipodi:docbase="/home/jimmac/src/cvs/tango-icon-theme/scalable/categories" xmlns:dc="http://purl.org/dc/elements/1.1/">
 <defs id="defs3">
  <linearGradient id="linearGradient6001">
   <stop id="stop6003" stop-color="#fff" offset="0"/>
   <stop id="stop6005" stop-color="#fff" stop-opacity="0" offset="1"/>
  </linearGradient>
  <radialGradient id="radialGradient3968" gradientUnits="userSpaceOnUse" cy="15.716" cx="18.248" gradientTransform="scale(.99999 1)" r="29.993">
   <stop id="stop3964" stop-color="#d3e9ff" offset="0"/>
   <stop id="stop4134" stop-color="#d3e9ff" offset=".15517"/>
   <stop id="stop4346" stop-color="#4074ae" offset=".75"/>
   <stop id="stop3966" stop-color="#36486c" offset="1"/>
  </radialGradient>
  <radialGradient id="radialGradient4120" gradientUnits="userSpaceOnUse" cy="63.965" cx="15.116" gradientTransform="scale(1.644 .60828)" r="12.289">
   <stop id="stop4116" offset="0"/>
   <stop id="stop4118" stop-opacity="0" offset="1"/>
  </radialGradient>
  <radialGradient id="radialGradient4132" gradientUnits="userSpaceOnUse" cy="12.142" cx="15.601" gradientTransform="scale(.99999 1)" r="43.527">
   <stop id="stop4128" stop-color="#fff" offset="0"/>
   <stop id="stop4130" stop-color="#fff" stop-opacity=".16495" offset="1"/>
  </radialGradient>
  <radialGradient id="radialGradient5983" xlink:href="#linearGradient6001" gradientUnits="userSpaceOnUse" cy="12.493" cx="12.071" r="6.7175"/>
  <linearGradient id="linearGradient6007" y2="21.042" xlink:href="#linearGradient6001" gradientUnits="userSpaceOnUse" x2="-22.252" y1="30.057" x1="-25.176"/>
  <linearGradient id="linearGradient6011" y2="22.662" xlink:href="#linearGradient6001" gradientUnits="userSpaceOnUse" x2="-22.114" y1="30.057" x1="-25.176"/>
  <linearGradient id="linearGradient6015" y2="22.662" xlink:href="#linearGradient6001" gradientUnits="userSpaceOnUse" x2="-22.114" y1="28.338" x1="-22.823"/>
  <linearGradient id="linearGradient6019" y2="21.336" xlink:href="#linearGradient6001" gradientUnits="userSpaceOnUse" x2="-21.962" y1="15.649" x1="-21.659"/>
 </defs>
 <sodipodi:namedview id="base" bordercolor="#666666" pagecolor="#ffffff" showgrid="false" borderopacity="0.17254902"/>
 <metadata id="metadata4">
  <rdf:RDF>
   <cc:Work rdf:about="">
    <dc:format>image/svg+xml</dc:format>
    <dc:type rdf:resource="http://purl.org/dc/dcmitype/StillImage"/>
    <dc:title>Internet Category</dc:title>
    <dc:creator>
     <cc:Agent>
      <dc:title>Jakub Steiner</dc:title>
     </cc:Agent>
    </dc:creator>
    <dc:contributor>
     <cc:Agent>
      <dc:title>Tuomas Kuosmanen</dc:title>
     </cc:Agent>
    </dc:contributor>
    <cc:license rdf:resource="http://creativecommons.org/licenses/by-sa/2.0/"/>
    <dc:source>http://jimmac.musichall.cz</dc:source>
    <dc:subject>
     <rdf:Bag>
      <rdf:li>internet</rdf:li>
      <rdf:li>tools</rdf:li>
      <rdf:li>applications</rdf:li>
      <rdf:li>category</rdf:li>
     </rdf:Bag>
    </dc:subject>
   </cc:Work>
   <cc:License rdf:about="http://creativecommons.org/licenses/by-sa/2.0/">
    <cc:permits rdf:resource="http://web.resource.org/cc/Reproduction"/>
    <cc:permits rdf:resource="http://web.resource.org/cc/Distribution"/>
    <cc:requires rdf:resource="http://web.resource.org/cc/Notice"/>
    <cc:requires rdf:resource="http://web.resource.org/cc/Attribution"/>
    <cc:permits rdf:resource="http://web.resource.org/cc/DerivativeWorks"/>
    <cc:requires rdf:resource="http://web.resource.org/cc/ShareAlike"/>
   </cc:License>
  </rdf:RDF>
 </metadata>
 <g id="layer1">
  <path id="path4112" sodipodi:rx="20.203051" sodipodi:ry="7.4751287" sodipodi:type="arc" d="m45.053 38.909a20.203 7.4751 0 1 1 -40.406 0 20.203 7.4751 0 1 1 40.406 0z" transform="matrix(1 0 0 1.2432 0 -10.272)" sodipodi:cy="38.908627" sodipodi:cx="24.849752" fill="url(#radialGradient4120)"/>
  <path id="path3214" d="m43.96 23.485c0 10.71-8.682 19.392-19.39 19.392-10.71 0-19.391-8.682-19.391-19.392-0.0003-10.709 8.681-19.39 19.391-19.39 10.708 0.0002 19.39 8.681 19.39 19.39z" stroke="#39396c" fill="url(#radialGradient3968)"/>
  <g id="g4136" fill-opacity=".71345" transform="matrix(.98237 0 0 .98237 .12108 .23291)" fill="#204a87">
   <g id="g4138">
    <g id="g4142" fill="#204a87">
     <path id="path4144" fill="#204a87" d="m44.071 20.714v0l-0.545 0.618c-0.334-0.394-0.709-0.725-1.089-1.071l-0.836 0.123-0.764-0.863v1.068l0.654 0.495 0.436 0.494 0.582-0.658c0.146 0.274 0.291 0.548 0.436 0.823v0.822l-0.655 0.74-1.199 0.823-0.908 0.907-0.582-0.661 0.291-0.74-0.582-0.658-0.981-2.098-0.836-0.945-0.219 0.246 0.328 1.194 0.618 0.699c0.352 1.017 0.701 1.99 1.164 2.963 0.718 0 1.394-0.077 2.107-0.166v0.576l-0.872 2.139-0.8 0.904-0.654 1.401v2.303l0.219 0.906-0.364 0.41-0.8 0.494-0.836 0.699 0.691 0.782-0.945 0.824 0.182 0.533-1.418 1.606h-0.945l-0.8 0.494h-0.509v-0.659l-0.217-1.318c-0.281-0.826-0.574-1.647-0.872-2.467 0-0.605 0.036-1.205 0.072-1.81l0.364-0.823-0.509-0.988 0.037-1.357-0.692-0.782 0.346-1.13-0.563-0.639h-0.982l-0.327-0.37-0.981 0.618-0.4-0.454-0.909 0.782c-0.617-0.7-1.235-1.399-1.854-2.098l-0.726-1.729 0.654-0.986-0.363-0.411 0.799-1.894c0.656-0.816 1.341-1.599 2.035-2.385l1.236-0.329 1.381-0.165 0.945 0.248 1.345 1.356 0.473-0.534 0.653-0.082 1.236 0.411h0.946l0.654-0.576 0.291-0.411-0.655-0.412-1.091-0.082c-0.303-0.419-0.584-0.861-0.944-1.234l-0.364 0.164-0.145 1.07-0.655-0.74-0.144-0.824-0.727-0.574h-0.292l0.728 0.822-0.291 0.74-0.581 0.164 0.363-0.74-0.655-0.328-0.581-0.658-1.091 0.246-0.145 0.328-0.654 0.412-0.363 0.906-0.909 0.452-0.4-0.452h-0.436v-1.482l0.946-0.494h0.726l-0.146-0.575-0.58-0.576 0.98-0.206 0.545-0.617 0.436-0.741h0.801l-0.219-0.575 0.509-0.329v0.658l1.09 0.246 1.09-0.904 0.073-0.412 0.945-0.658c-0.342 0.043-0.684 0.074-1.018 0.165v-0.7414l0.363-0.8228h-0.363l-0.798 0.7402-0.219 0.412 0.219 0.576-0.365 0.987-0.581-0.329-0.508-0.576-0.8 0.576-0.291-1.316 1.381-0.9052v-0.4941l0.872-0.5757 1.381-0.3296 0.946 0.3296 1.744 0.3291-0.436 0.4932h-0.945l0.945 0.9877 0.727-0.8227 0.221-0.3618s2.787 2.4975 4.379 5.2305c1.593 2.733 2.341 5.955 2.341 6.609z"/>
    </g>
   </g>
   <g id="g4146">
    <g id="g4150" fill="#204a87">
     <path id="path4152" fill="#204a87" d="m26.07 9.2363l-0.073 0.4932 0.51 0.3295 0.871-0.5761-0.436-0.4937-0.582 0.3296-0.29-0.0825"/>
    </g>
   </g>
   <g id="g4154">
    <g id="g4158" fill="#204a87">
     <path id="path4160" fill="#204a87" d="m26.87 5.8633l-1.89-0.7407-2.18 0.2466-2.691 0.7402-0.508 0.4941 1.671 1.1514v0.6582l-0.654 0.6582 0.873 1.7287 0.58-0.33 0.729-1.1512c1.123-0.3472 2.13-0.7407 3.197-1.2344l0.873-2.2212"/>
    </g>
   </g>
   <g id="g4162">
    <g id="g4166" fill="#204a87">
     <path id="path4168" fill="#204a87" d="m28.833 12.775l-0.291-0.741-0.51 0.165 0.147 0.904 0.654-0.328"/>
    </g>
   </g>
   <g id="g4170">
    <g id="g4174" fill="#204a87">
     <path id="path4176" fill="#204a87" d="m29.123 12.609l-0.145 0.988 0.799-0.165 0.581-0.575-0.508-0.494c-0.171-0.455-0.368-0.88-0.582-1.317h-0.435v0.494l0.29 0.329v0.74"/>
    </g>
   </g>
   <g id="g4178">
    <g id="g4182" fill="#204a87">
     <path id="path4184" fill="#204a87" d="m18.365 28.242l-0.582-1.152-1.09-0.247-0.582-1.562-1.453 0.164-1.236-0.904-1.309 1.151v0.182c-0.396-0.115-0.883-0.13-1.235-0.347l-0.291-0.822v-0.906l-0.8722 0.082c0.0728-0.576 0.145-1.151 0.2183-1.727h-0.5093l-0.5083 0.658-0.5093 0.246-0.7271-0.41-0.0728-0.905 0.1455-0.988 1.0908-0.822h0.8721l0.145-0.494 1.0903 0.246 0.8 0.988 0.145-1.646 1.382-1.152 0.508-1.234 1.018-0.411 0.581-0.822 1.309-0.248 0.654-0.987h-1.963l1.236-0.576h0.872l1.236-0.412 0.146-0.492-0.437-0.412-0.509-0.165 0.146-0.494-0.363-0.74-0.873 0.328 0.146-0.657-1.018-0.5765-0.799 1.3975 0.072 0.494-0.799 0.331-0.51 1.069-0.218-0.987-1.381-0.577-0.218-0.74 1.817-1.0701 0.8-0.7402 0.073-0.9048-0.436-0.2471-0.582-0.0825-0.363 0.9053s-0.608 0.1191-0.764 0.1577c-1.996 1.8397-6.0294 5.8097-6.9664 13.306 0.0371 0.174 0.6792 1.182 0.6792 1.182l1.5264 0.904 1.5264 0.412 0.6544 0.824 1.018 0.74 0.581-0.082 0.436 0.196v0.133l-0.581 1.563-0.437 0.658 0.146 0.33-0.363 1.233 1.308 2.386 1.308 1.153 0.582 0.822-0.073 1.728 0.437 0.987-0.437 1.892s-0.034-0.011 0.022 0.178c0.056 0.19 2.329 1.451 2.473 1.344 0.144-0.109 0.267-0.205 0.267-0.205l-0.145-0.41 0.581-0.577 0.219-0.576 0.945-0.33 0.727-1.81-0.218-0.493 0.508-0.74 1.09-0.248 0.582-1.316-0.145-1.645 0.872-1.234 0.145-1.235c-1.193-0.591-2.376-1.201-3.561-1.81"/>
    </g>
   </g>
   <g id="g4186">
    <g id="g4190" fill="#204a87">
     <path id="path4192" fill="#204a87" d="m16.766 9.5649l0.726 0.4941h0.582v-0.5761l-0.726-0.3291-0.582 0.4111"/>
    </g>
   </g>
   <g id="g4194">
    <g id="g4198" fill="#204a87">
     <path id="path4200" fill="#204a87" d="m14.876 8.9072l-0.364 0.9048h0.727l0.364-0.8228c0.314-0.2217 0.626-0.4448 0.945-0.6582l0.727 0.2471c0.484 0.3291 0.969 0.6582 1.454 0.9868l0.727-0.6577-0.8-0.3291-0.364-0.7407-1.381-0.1646-0.073-0.4116-0.654 0.165-0.29 0.5758-0.364-0.7407-0.145 0.3291 0.073 0.8228-0.582 0.494"/>
    </g>
   </g>
   <g id="g4202">
    <g id="g4204" opacity=".75"></g>
    <g id="g4208"></g>
   </g>
   <g id="g4212">
    <g id="g4214" opacity=".75"></g>
    <g id="g4218"></g>
   </g>
   <g id="g4222">
    <g id="g4226" fill="#204a87">
     <path id="path4228" fill="#204a87" d="m17.492 6.8496l0.364-0.3286 0.727-0.1646c0.498-0.2422 0.998-0.4053 1.527-0.5762l-0.29-0.4937-0.939 0.1348-0.443 0.4419-0.731 0.106-0.65 0.3052-0.316 0.1528-0.193 0.2583 0.944 0.1641"/>
    </g>
   </g>
   <g id="g4230">
    <g id="g4234" fill="#204a87">
     <path id="path4236" fill="#204a87" d="m18.728 14.666l0.437-0.658-0.655-0.493 0.218 1.151"/>
    </g>
   </g>
  </g>
  <path id="path4122" opacity=".39560" d="m42.975 23.486c0 10.165-8.241 18.406-18.406 18.406s-18.406-8.241-18.406-18.406c0.0004-10.166 8.241-18.406 18.406-18.406 10.165-0.0001 18.406 8.24 18.406 18.406z" stroke="url(#radialGradient4132)" fill="none"/>
  <path id="path5991" sodipodi:rx="15.733126" sodipodi:ry="9.4575529" stroke="url(#linearGradient6007)" stroke-linecap="round" stroke-width=".88164" fill="none" style="color:#000000" transform="matrix(1.131 .61310 -.47656 .87914 54.091 16.044)" sodipodi:type="arc" d="m-2.8284 21.042a15.733 9.4576 0 1 1 -31.467 0 15.733 9.4576 0 1 1 31.467 0z" stroke-linejoin="round" sodipodi:cy="21.041553" sodipodi:cx="-18.561554"/>
  <path id="path6009" sodipodi:rx="15.733126" sodipodi:ry="9.4575529" stroke="url(#linearGradient6011)" stroke-linecap="round" stroke-width=".88164" fill="none" style="color:#000000" transform="matrix(.93933 -.87909 .68331 .73013 32.314 -4.4516)" sodipodi:type="arc" d="m-2.8284 21.042a15.733 9.4576 0 1 1 -31.467 0 15.733 9.4576 0 1 1 31.467 0z" stroke-linejoin="round" sodipodi:cy="21.041553" sodipodi:cx="-18.561554"/>
  <g id="g4933" fill-rule="evenodd" transform="matrix(-1.0458 .76725 .76725 1.0458 35.617 -22.144)">
   <path id="path4935" sodipodi:rx="6.7175145" sodipodi:ry="6.7175145" style="color:#000000" d="m18.789 12.493a6.7175 6.7175 0 1 1 -13.435 0 6.7175 6.7175 0 1 1 13.435 0z" transform="translate(14.95 22.93)" sodipodi:cy="12.493138" sodipodi:cx="12.071323" sodipodi:type="arc" fill="url(#radialGradient5983)"/>
   <path id="path4937" sodipodi:rx="6.7175145" sodipodi:ry="6.7175145" style="color:#000000" sodipodi:type="arc" d="m18.789 12.493a6.7175 6.7175 0 1 1 -13.435 0 6.7175 6.7175 0 1 1 13.435 0z" transform="matrix(.30827 0 0 .30827 23.3 31.572)" sodipodi:cy="12.493138" sodipodi:cx="12.071323" fill="#fff"/>
  </g>
  <path id="path6013" sodipodi:rx="15.733126" sodipodi:ry="9.4575529" stroke="url(#linearGradient6015)" stroke-linecap="round" stroke-width=".88164" fill="none" style="color:#000000" transform="matrix(-1.2803 -.12616 .098062 -.99518 -2.4051 40.524)" sodipodi:type="arc" d="m-2.8284 21.042a15.733 9.4576 0 1 1 -31.467 0 15.733 9.4576 0 1 1 31.467 0z" stroke-linejoin="round" sodipodi:cy="21.041553" sodipodi:cx="-18.561554"/>
  <path id="path6017" sodipodi:rx="15.733126" sodipodi:ry="9.4575529" stroke="url(#linearGradient6019)" stroke-linecap="round" stroke-width=".90226" fill="none" style="color:#000000" transform="matrix(.91787 -.85898 .66770 .71343 27.633 -6.9091)" sodipodi:type="arc" d="m-2.8284 21.042a15.733 9.4576 0 1 1 -31.467 0 15.733 9.4576 0 1 1 31.467 0z" stroke-linejoin="round" sodipodi:cy="21.041553" sodipodi:cx="-18.561554"/>
  <g id="g5075" fill-rule="evenodd" transform="matrix(-.80628 .59154 .59154 .80628 12.386 -18.029)">
   <path id="path5077" sodipodi:rx="6.7175145" sodipodi:ry="6.7175145" style="color:#000000" d="m18.789 12.493a6.7175 6.7175 0 1 1 -13.435 0 6.7175 6.7175 0 1 1 13.435 0z" transform="translate(14.95 22.93)" sodipodi:cy="12.493138" sodipodi:cx="12.071323" sodipodi:type="arc" fill="url(#radialGradient5983)"/>
   <path id="path5079" sodipodi:rx="6.7175145" sodipodi:ry="6.7175145" style="color:#000000" sodipodi:type="arc" d="m18.789 12.493a6.7175 6.7175 0 1 1 -13.435 0 6.7175 6.7175 0 1 1 13.435 0z" transform="matrix(.30827 0 0 .30827 23.3 31.572)" sodipodi:cy="12.493138" sodipodi:cx="12.071323" fill="#fff"/>
  </g>
  <g id="g4945" fill-rule="evenodd" transform="matrix(-.80628 .59154 .59154 .80628 13.499 -31.5)">
   <path id="path4947" sodipodi:rx="6.7175145" sodipodi:ry="6.7175145" style="color:#000000" sodipodi:type="arc" d="m18.789 12.493a6.7175 6.7175 0 1 1 -13.435 0 6.7175 6.7175 0 1 1 13.435 0z" transform="translate(14.95 22.93)" sodipodi:cy="12.493138" sodipodi:cx="12.071323" fill="url(#radialGradient5983)"/>
   <path id="path4949" sodipodi:rx="6.7175145" sodipodi:ry="6.7175145" style="color:#000000" d="m18.789 12.493a6.7175 6.7175 0 1 1 -13.435 0 6.7175 6.7175 0 1 1 13.435 0z" transform="matrix(.30827 0 0 .30827 23.3 31.572)" sodipodi:cy="12.493138" sodipodi:cx="12.071323" sodipodi:type="arc" fill="#fff"/>
  </g>
  <g id="g4939" fill-rule="evenodd" transform="matrix(-.87023 .63857 .63846 .87038 25.205 -35.313)">
   <path id="path4941" sodipodi:rx="6.7175145" sodipodi:ry="6.7175145" style="color:#000000" sodipodi:type="arc" d="m18.789 12.493a6.7175 6.7175 0 1 1 -13.435 0 6.7175 6.7175 0 1 1 13.435 0z" transform="translate(14.95 22.93)" sodipodi:cy="12.493138" sodipodi:cx="12.071323" fill="url(#radialGradient5983)"/>
   <path id="path4943" sodipodi:rx="6.7175145" sodipodi:ry="6.7175145" style="color:#000000" d="m18.789 12.493a6.7175 6.7175 0 1 1 -13.435 0 6.7175 6.7175 0 1 1 13.435 0z" transform="matrix(.30827 0 0 .30827 23.3 31.572)" sodipodi:cy="12.493138" sodipodi:cx="12.071323" sodipodi:type="arc" fill="#fff"/>
  </g>
 </g>
</svg>
