<?xml version="1.0" encoding="UTF-8" standalone="no"?>
<!-- Created with Inkscape (http://www.inkscape.org/) -->
<svg
   xmlns:dc="http://purl.org/dc/elements/1.1/"
   xmlns:cc="http://web.resource.org/cc/"
   xmlns:rdf="http://www.w3.org/1999/02/22-rdf-syntax-ns#"
   xmlns:svg="http://www.w3.org/2000/svg"
   xmlns="http://www.w3.org/2000/svg"
   xmlns:xlink="http://www.w3.org/1999/xlink"
   xmlns:sodipodi="http://inkscape.sourceforge.net/DTD/sodipodi-0.dtd"
   xmlns:inkscape="http://www.inkscape.org/namespaces/inkscape"
   inkscape:export-ydpi="90.000000"
   inkscape:export-xdpi="90.000000"
   inkscape:export-filename="/home/jimmac/Desktop/wi-fi.png"
   width="48px"
   height="48px"
   id="svg11300"
   sodipodi:version="0.32"
   inkscape:version="0.43+devel"
   sodipodi:docbase="/home/jimmac/gfx/novell/pdes/branches/NLD10/industrial-icons/scalable/unfiled"
   sodipodi:docname="assistive-technology.svg">
  <defs
     id="defs3">
    <linearGradient
       id="linearGradient3264">
      <stop
         id="stop3266"
         offset="0"
         style="stop-color:#c9c9c9;stop-opacity:1;" />
      <stop
         style="stop-color:#f8f8f8;stop-opacity:1;"
         offset="0.25"
         id="stop3276" />
      <stop
         style="stop-color:#e2e2e2;stop-opacity:1;"
         offset="0.5"
         id="stop3272" />
      <stop
         id="stop3274"
         offset="0.75"
         style="stop-color:#b0b0b0;stop-opacity:1;" />
      <stop
         id="stop3268"
         offset="1"
         style="stop-color:#c9c9c9;stop-opacity:1;" />
    </linearGradient>
    <linearGradient
       gradientTransform="matrix(1.241935,0,0,1.241935,-5.027508,-7.208988)"
       y2="39.684914"
       x2="34.534348"
       y1="12.284524"
       x1="14.462892"
       gradientUnits="userSpaceOnUse"
       id="linearGradient3281"
       xlink:href="#linearGradient3264"
       inkscape:collect="always" />
    <linearGradient
       id="linearGradient3256"
       inkscape:collect="always">
      <stop
         id="stop3258"
         offset="0"
         style="stop-color:#000000;stop-opacity:1;" />
      <stop
         id="stop3260"
         offset="1"
         style="stop-color:#000000;stop-opacity:0;" />
    </linearGradient>
    <radialGradient
       gradientUnits="userSpaceOnUse"
       gradientTransform="matrix(1,0,0,0.315315,6.894484e-14,26.81305)"
       r="19.622213"
       fy="39.161163"
       fx="25.455845"
       cy="39.161163"
       cx="25.455845"
       id="radialGradient3262"
       xlink:href="#linearGradient3256"
       inkscape:collect="always" />
    <linearGradient
       id="linearGradient2933">
      <stop
         style="stop-color:#9cbcde;stop-opacity:1"
         offset="0"
         id="stop2935" />
      <stop
         style="stop-color:#204a87"
         offset="1"
         id="stop2937" />
    </linearGradient>
    <linearGradient
       id="linearGradient11508"
       inkscape:collect="always">
      <stop
         id="stop11510"
         offset="0"
         style="stop-color:#000000;stop-opacity:1;" />
      <stop
         id="stop11512"
         offset="1"
         style="stop-color:#000000;stop-opacity:0;" />
    </linearGradient>
    <radialGradient
       inkscape:collect="always"
       xlink:href="#linearGradient11508"
       id="radialGradient1348"
       gradientUnits="userSpaceOnUse"
       gradientTransform="matrix(1.000000,0.000000,0.000000,0.338462,-1.435476e-15,29.48178)"
       cx="30.203562"
       cy="44.565483"
       fx="30.203562"
       fy="44.565483"
       r="6.5659914" />
    <radialGradient
       inkscape:collect="always"
       xlink:href="#linearGradient2933"
       id="radialGradient2939"
       cx="25.457863"
       cy="35.596233"
       fx="25.457863"
       fy="35.596233"
       r="20.530962"
       gradientUnits="userSpaceOnUse"
       gradientTransform="matrix(2.128185,-1.727173e-9,2.422814e-16,2.128254,-29.01906,-39.91779)" />
  </defs>
  <sodipodi:namedview
     stroke="#3465a4"
     fill="#729fcf"
     id="base"
     pagecolor="#ffffff"
     bordercolor="#666666"
     borderopacity="0.25490196"
     inkscape:pageopacity="0.0"
     inkscape:pageshadow="2"
     inkscape:zoom="1"
     inkscape:cx="24.742043"
     inkscape:cy="21.478192"
     inkscape:current-layer="layer1"
     showgrid="false"
     inkscape:grid-bbox="true"
     inkscape:document-units="px"
     inkscape:showpageshadow="false"
     inkscape:window-width="957"
     inkscape:window-height="894"
     inkscape:window-x="648"
     inkscape:window-y="163" />
  <metadata
     id="metadata4">
    <rdf:RDF>
      <cc:Work
         rdf:about="">
        <dc:format>image/svg+xml</dc:format>
        <dc:type
           rdf:resource="http://purl.org/dc/dcmitype/StillImage" />
        <dc:creator>
          <cc:Agent>
            <dc:title>Jakub Steiner</dc:title>
          </cc:Agent>
        </dc:creator>
        <dc:source>http://jimmac.musichall.cz</dc:source>
        <cc:license
           rdf:resource="http://creativecommons.org/licenses/by-sa/2.0/" />
        <dc:title>Assistive Technology</dc:title>
        <dc:subject>
          <rdf:Bag>
            <rdf:li>accessibility</rdf:li>
            <rdf:li>assist</rdf:li>
            <rdf:li>assistive technology</rdf:li>
          </rdf:Bag>
        </dc:subject>
      </cc:Work>
      <cc:License
         rdf:about="http://creativecommons.org/licenses/by-sa/2.0/">
        <cc:permits
           rdf:resource="http://web.resource.org/cc/Reproduction" />
        <cc:permits
           rdf:resource="http://web.resource.org/cc/Distribution" />
        <cc:requires
           rdf:resource="http://web.resource.org/cc/Notice" />
        <cc:requires
           rdf:resource="http://web.resource.org/cc/Attribution" />
        <cc:permits
           rdf:resource="http://web.resource.org/cc/DerivativeWorks" />
        <cc:requires
           rdf:resource="http://web.resource.org/cc/ShareAlike" />
      </cc:License>
    </rdf:RDF>
  </metadata>
  <g
     id="layer1"
     inkscape:label="Layer 1"
     inkscape:groupmode="layer">
    <path
       sodipodi:type="arc"
       style="opacity:0.40641710;color:#000000;fill:url(#radialGradient1348);fill-opacity:1.0000000;fill-rule:evenodd;stroke:none;stroke-width:2.8141584;stroke-linecap:butt;stroke-linejoin:miter;marker:none;marker-start:none;marker-mid:none;marker-end:none;stroke-miterlimit:10.000000;stroke-dasharray:none;stroke-dashoffset:0.0000000;stroke-opacity:1.0000000;visibility:visible;display:inline;overflow:visible"
       id="path11530"
       sodipodi:cx="30.203562"
       sodipodi:cy="44.565483"
       sodipodi:rx="6.5659914"
       sodipodi:ry="2.2223356"
       d="M 36.769553 44.565483 A 6.5659914 2.2223356 0 1 1  23.637570,44.565483 A 6.5659914 2.2223356 0 1 1  36.769553 44.565483 z"
       transform="matrix(2.460049,0.000000,0.000000,2.460049,-49.40946,-67.96374)" />
    <rect
       ry="5.4548240"
       rx="5.4548240"
       y="3.5233452"
       x="4.4147282"
       height="40.061924"
       width="40.061924"
       id="rect11518"
       style="opacity:1.0000000;color:#000000;fill:url(#radialGradient2939);fill-opacity:1.0;fill-rule:evenodd;stroke:#3465a4;stroke-width:1.0000000;stroke-linecap:butt;stroke-linejoin:bevel;marker:none;marker-start:none;marker-mid:none;marker-end:none;stroke-miterlimit:10.000000;stroke-dasharray:none;stroke-dashoffset:0.0000000;stroke-opacity:1.0000000;visibility:visible;display:inline;overflow:visible" />
    <rect
       style="opacity:1;color:#000000;fill:none;fill-opacity:1;fill-rule:evenodd;stroke:#ffffff;stroke-width:2.00000215;stroke-linecap:butt;stroke-linejoin:bevel;marker:none;marker-start:none;marker-mid:none;marker-end:none;stroke-miterlimit:10;stroke-dasharray:none;stroke-dashoffset:0;stroke-opacity:1;visibility:visible;display:inline;overflow:visible"
       id="rect11528"
       width="37.100636"
       height="37.100636"
       x="5.8954034"
       y="5.0040197"
       rx="3.9067502"
       ry="3.9067502" />
    <g
       id="g2990"
       transform="translate(1.552191,-0.640100)">
      <g
         id="g2972"
         transform="matrix(0.769231,0.000000,0.000000,0.769231,6.846158,4.576914)">
        <path
           transform="matrix(1.444444,0.000000,0.000000,1.444444,-7.841267,-5.809522)"
           d="M 20.857142 13.071428 A 3.2142856 3.2142856 0 1 1  14.428571,13.071428 A 3.2142856 3.2142856 0 1 1  20.857142 13.071428 z"
           sodipodi:ry="3.2142856"
           sodipodi:rx="3.2142856"
           sodipodi:cy="13.071428"
           sodipodi:cx="17.642857"
           id="path2961"
           style="color:#000000;fill:#ffffff;fill-opacity:1;fill-rule:nonzero;stroke:none;stroke-width:2.5;stroke-linecap:round;stroke-linejoin:round;marker:none;marker-start:none;marker-mid:none;marker-end:none;stroke-miterlimit:4;stroke-dashoffset:0;stroke-opacity:1;visibility:visible;display:inline;overflow:visible"
           sodipodi:type="arc" />
        <path
           id="path2963"
           d="M 17.571429,13.142857 L 20,30 L 32,27.428571 L 34.428571,37 L 38,36"
           style="fill:none;fill-opacity:0.75;fill-rule:evenodd;stroke:#ffffff;stroke-width:2.5;stroke-linecap:butt;stroke-linejoin:miter;stroke-miterlimit:4;stroke-opacity:1" />
      </g>
      <path
         style="color:#000000;fill:#ffffff;fill-opacity:1;fill-rule:nonzero;stroke:none;stroke-width:2.5;stroke-linecap:round;stroke-linejoin:round;marker:none;marker-start:none;marker-mid:none;marker-end:none;stroke-miterlimit:4;stroke-dashoffset:0;stroke-opacity:1;visibility:visible;display:inline;overflow:visible"
         d="M 17.374999,21.668259 C 14.821727,23.078575 13,25.694617 13,28.807681 C 13,33.36178 16.715131,37.076911 21.26923,37.076911 C 25.584839,37.076911 29.032971,33.705623 29.394229,29.480758 L 27.399037,29.937488 C 26.85153,32.888083 24.382202,35.153834 21.26923,35.153834 C 17.755637,35.153834 14.923077,32.321274 14.923077,28.807681 C 14.923077,26.611685 16.12003,24.778076 17.807692,23.639412 L 17.374999,21.668259 z "
         id="path2965" />
    </g>
    <path
       style="opacity:1;color:#000000;fill:none;fill-opacity:0.75;fill-rule:evenodd;stroke:#ffffff;stroke-width:1.9230775;stroke-linecap:butt;stroke-linejoin:miter;marker:none;marker-start:none;marker-mid:none;marker-end:none;stroke-miterlimit:4;stroke-dasharray:none;stroke-dashoffset:0;stroke-opacity:1;visibility:visible;display:inline;overflow:visible"
       d="M 22.857143,20.857143 L 31.714286,20"
       id="path2941"
       sodipodi:nodetypes="cc" />
    <g
       inkscape:label="Layer 1"
       id="g5786"
       transform="matrix(0.608214,0,0,0.608214,20.1558,19.56508)"
       inkscape:r_cx="true"
       inkscape:r_cy="true">
      <path
         transform="translate(-0.883885,2.474874)"
         d="M 45.078058 39.161163 A 19.622213 6.1871843 0 1 1  5.8336315,39.161163 A 19.622213 6.1871843 0 1 1  45.078058 39.161163 z"
         sodipodi:ry="6.1871843"
         sodipodi:rx="19.622213"
         sodipodi:cy="39.161163"
         sodipodi:cx="25.455845"
         id="path3254"
         style="opacity:0.40909089;color:#000000;fill:url(#radialGradient3262);fill-opacity:1;fill-rule:nonzero;stroke:none;stroke-width:1;stroke-linecap:butt;stroke-linejoin:miter;marker:none;marker-start:none;marker-mid:none;marker-end:none;stroke-miterlimit:4;stroke-dasharray:none;stroke-dashoffset:0;stroke-opacity:1;visibility:visible;display:inline;overflow:visible"
         sodipodi:type="arc"
         inkscape:r_cx="true"
         inkscape:r_cy="true" />
      <path
         id="path3243"
         d="M 23.25,0.46875 C 22.784561,0.50059628 22.332166,0.57268469 21.875,0.625 L 21.84375,0.625 L 20.75,6.59375 C 18.967275,6.9997399 17.290091,7.6887415 15.78125,8.625 L 10.875,5.09375 C 9.5487118,6.1234406 8.3418016,7.3243453 7.28125,8.625 L 10.6875,13.59375 C 9.6532671,15.174265 8.8755317,16.978974 8.4375,18.875 C 8.437425,18.883963 8.4374391,18.904688 8.4375,18.90625 L 2.5,19.84375 C 2.3914467,20.730383 2.34375,21.646689 2.34375,22.5625 C 2.3437501,23.3118 2.3644394,24.051089 2.4375,24.78125 L 8.375,25.84375 C 8.797279,27.905642 9.5994587,29.831262 10.71875,31.53125 L 7.1875,36.375 C 8.1988261,37.630518 9.3663917,38.773616 10.625,39.78125 L 15.625,36.34375 C 17.372433,37.458467 19.323083,38.240124 21.4375,38.625 L 22.375,44.53125 C 23.041183,44.591889 23.724349,44.59375 24.40625,44.59375 C 25.368935,44.593749 26.288487,44.557267 27.21875,44.4375 L 28.34375,38.40625 C 30.351311,37.906649 32.237219,37.03996 33.875,35.875 L 38.6875,39.375 C 39.935528,38.313203 41.076777,37.092744 42.0625,35.78125 L 38.5625,30.71875 C 39.510353,29.08176 40.167129,27.275609 40.5,25.34375 L 46.40625,24.40625 C 46.458044,23.789904 46.46875,23.192163 46.46875,22.5625 C 46.46875,21.468286 46.341568,20.395416 46.1875,19.34375 L 40.1875,18.25 C 39.717306,16.513776 38.945824,14.893898 37.96875,13.4375 L 41.5,8.59375 C 40.405427,7.2551429 39.156822,6.0185688 37.78125,4.96875 L 32.6875,8.46875 C 31.223504,7.6029126 29.648037,6.9385679 27.9375,6.5625 L 27,0.625 C 26.146701,0.52462461 25.286379,0.46875 24.40625,0.46875 C 24.168378,0.46875001 23.923566,0.4612654 23.6875,0.46875 C 23.572417,0.47239881 23.458534,0.4620551 23.34375,0.46875 C 23.312662,0.4705632 23.281029,0.46662691 23.25,0.46875 z M 24.0625,15.65625 C 24.176666,15.650457 24.290652,15.65625 24.40625,15.65625 C 28.105377,15.65625 31.125,18.675874 31.125,22.375 C 31.125001,26.074126 28.105376,29.0625 24.40625,29.0625 C 20.707125,29.062501 17.71875,26.074126 17.71875,22.375 C 17.718751,18.791473 20.52335,15.835842 24.0625,15.65625 z "
         style="opacity:1;color:#000000;fill:url(#linearGradient3281);fill-opacity:1;fill-rule:nonzero;stroke:#808080;stroke-width:1.64415729;stroke-linecap:butt;stroke-linejoin:miter;marker:none;marker-start:none;marker-mid:none;marker-end:none;stroke-miterlimit:4;stroke-dasharray:none;stroke-dashoffset:0;stroke-opacity:1;visibility:visible;display:inline;overflow:visible"
         inkscape:r_cx="true"
         inkscape:r_cy="true" />
      <path
         transform="matrix(0.668431,0,0,0.668431,8.694546,6.464436)"
         d="M 36.239223 23.781593 A 12.727922 12.727922 0 1 1  10.783379,23.781593 A 12.727922 12.727922 0 1 1  36.239223 23.781593 z"
         sodipodi:ry="12.727922"
         sodipodi:rx="12.727922"
         sodipodi:cy="23.781593"
         sodipodi:cx="23.511301"
         id="path3283"
         style="opacity:0.64772728;color:#000000;fill:none;fill-opacity:1;fill-rule:nonzero;stroke:#ffffff;stroke-width:2.45972466;stroke-linecap:butt;stroke-linejoin:miter;marker:none;marker-start:none;marker-mid:none;marker-end:none;stroke-miterlimit:4;stroke-dasharray:none;stroke-dashoffset:0;stroke-opacity:1;visibility:visible;display:inline;overflow:visible"
         sodipodi:type="arc"
         inkscape:r_cx="true"
         inkscape:r_cy="true" />
      <path
         sodipodi:nodetypes="ccccccccccccccccccccccccccccccccc"
         style="opacity:0.34659089;color:#000000;fill:none;fill-opacity:1;fill-rule:nonzero;stroke:#ffffff;stroke-width:1.64415598;stroke-linecap:butt;stroke-linejoin:miter;marker:none;marker-start:none;marker-mid:none;marker-end:none;stroke-miterlimit:4;stroke-dasharray:none;stroke-dashoffset:0;stroke-opacity:1;visibility:visible;display:inline;overflow:visible"
         d="M 22.66343,2.8294025 L 21.834734,8.2827133 C 20.257912,8.6418118 17.357417,9.740083 16.022846,10.568205 L 11.614124,7.2775526 C 10.441019,8.1883153 10.36057,8.2500786 9.4225105,9.40051 L 12.610179,14.128108 C 11.6954,15.526075 10.596635,18.017319 10.202127,19.797586 C 10.202127,19.797586 4.6163302,20.739189 4.6163302,20.739189 C 4.5203148,21.523417 4.5664591,23.201902 4.6310813,23.84773 L 9.9666574,24.808911 C 10.340164,26.632657 11.7379,29.568248 12.727915,31.071889 L 9.3538547,35.52969 C 10.248374,36.640197 10.427401,36.741817 11.540642,37.633071 L 16.052348,34.327666 C 17.597954,35.313634 20.66584,36.513031 22.536044,36.853454 L 23.276507,42.23811 C 23.865746,42.291745 25.493573,42.442201 26.316392,42.336267 L 27.145086,36.730894 C 28.920776,36.288997 31.988947,35.029547 33.437566,33.999138 L 37.944447,37.255462 C 39.048329,36.316303 39.058219,36.17479 39.930092,35.014772 L 36.59036,30.267596 C 37.428737,28.819675 38.512772,25.987974 38.807196,24.279242 L 44.275258,23.371966 C 44.321069,22.826806 44.323299,21.306535 44.187026,20.376335 L 38.61598,19.415154 C 38.200092,17.879462 36.77285,15.112168 35.908628,13.823982 L 39.449501,9.3661817 C 38.481352,8.1821819 38.121379,8.0197279 36.904684,7.091162 L 32.240915,10.430893 C 30.946007,9.6650597 28.363858,8.4976111 26.850887,8.1649786 L 26.027017,2.8294025 C 25.272273,2.7406203 23.094752,2.7800447 22.66343,2.8294025 z "
         id="path3285"
         inkscape:r_cx="true"
         inkscape:r_cy="true" />
    </g>
  </g>
</svg>
