<?xml version="1.0" encoding="utf-8"?>
<!-- Generated by IcoMoon.io -->
<!DOCTYPE svg PUBLIC "-//W3C//DTD SVG 1.1//EN" "http://www.w3.org/Graphics/SVG/1.1/DTD/svg11.dtd">
<svg version="1.1" xmlns="http://www.w3.org/2000/svg" xmlns:xlink="http://www.w3.org/1999/xlink" width="16" height="16" viewBox="0 0 16 16">
<path fill="#444" d="M8 0c-4.4 0-8 3.6-8 8s3.6 8 8 8 8-3.6 8-8-3.6-8-8-8zM13.2 5.3c0.4 0 0.7 0.3 1.1 0.3-0.3 0.4-1.6 0.4-2-0.1 0.3-0.1 0.5-0.2 0.9-0.2zM1 8c0-0.4 0-0.8 0.1-1.3 0.1 0 0.2 0.1 0.3 0.1 0 0 0.1 0.1 0.1 0.2 0 0.3 0.3 0.5 0.5 0.5 0.8 0.1 1.1 0.8 1.8 1 0.2 0.1 0.1 0.3 0 0.5-0.6 0.8-0.1 1.4 0.4 1.9 0.5 0.4 0.5 0.8 0.6 1.4 0 0.7 0.1 1.5 0.4 2.2-2.5-1.2-4.2-3.6-4.2-6.5zM8 15c-0.7 0-1.5-0.1-2.1-0.3-0.1-0.2-0.1-0.4 0-0.6 0.4-0.8 0.8-1.5 1.3-2.2 0.2-0.2 0.4-0.4 0.4-0.7 0-0.2 0.1-0.5 0.2-0.7 0.3-0.5 0.2-0.8-0.2-0.9-0.8-0.2-1.2-0.9-1.8-1.2s-1.2-0.5-1.7-0.2c-0.2 0.1-0.5 0.2-0.5-0.1 0-0.4-0.5-0.7-0.4-1.1-0.1 0-0.2 0-0.3 0.1s-0.2 0.2-0.4 0.1c-0.2-0.2-0.1-0.4-0.1-0.6 0.1-0.2 0.2-0.3 0.4-0.4 0.4-0.1 0.8-0.1 1 0.4 0.3-0.9 0.9-1.4 1.5-1.8 0 0 0.8-0.7 0.9-0.7s0.2 0.2 0.4 0.3c0.2 0 0.3 0 0.3-0.2 0.1-0.5-0.2-1.1-0.6-1.2 0-0.1 0.1-0.1 0.1-0.1 0.3-0.1 0.7-0.3 0.6-0.6 0-0.4-0.4-0.6-0.8-0.6-0.2 0-0.4 0-0.6 0.1-0.4 0.2-0.9 0.4-1.5 0.4 1.1-0.8 2.5-1.2 3.9-1.2 0.3 0 0.5 0 0.8 0-0.6 0.1-1.2 0.3-1.6 0.5 0.6 0.1 0.7 0.4 0.5 0.9-0.1 0.2 0 0.4 0.2 0.5s0.4 0.1 0.5-0.1c0.2-0.3 0.6-0.4 0.9-0.5 0.4-0.1 0.7-0.3 1-0.7 0-0.1 0.1-0.1 0.2-0.2 0.6 0.2 1.2 0.6 1.8 1-0.1 0-0.1 0.1-0.2 0.1-0.2 0.2-0.5 0.3-0.2 0.7 0.1 0.2 0 0.3-0.1 0.4-0.2 0.1-0.3 0-0.4-0.1s-0.1-0.3-0.4-0.3c-0.1 0.2-0.4 0.3-0.4 0.6 0.5 0 0.4 0.4 0.5 0.7-0.6 0.1-0.8 0.4-0.5 0.9 0.1 0.2-0.1 0.3-0.2 0.4-0.4 0.6-0.8 1-0.8 1.7s0.5 1.4 1.3 1.3c0.9-0.1 0.9-0.1 1.2 0.7 0 0.1 0.1 0.2 0.1 0.3 0.1 0.2 0.2 0.4 0.1 0.6-0.3 0.8 0.1 1.4 0.4 2 0.1 0.2 0.2 0.3 0.3 0.4-1.3 1.4-3 2.2-5 2.2z"></path>
</svg>
