<?xml version="1.0" encoding="utf-8"?>
<!-- Generated by IcoMoon.io -->
<!DOCTYPE svg PUBLIC "-//W3C//DTD SVG 1.1//EN" "http://www.w3.org/Graphics/SVG/1.1/DTD/svg11.dtd">
<svg version="1.1" xmlns="http://www.w3.org/2000/svg" xmlns:xlink="http://www.w3.org/1999/xlink" width="16" height="16" viewBox="0 0 16 16">
<path fill="#444" d="M16 6h-3.6c-0.7-1.2-2-2-3.4-2s-2.8 0.8-3.4 2h-5.6v4h5.6c0.7 1.2 2 2 3.4 2s2.8-0.8 3.4-2h3.6v-4zM1 9v-2h4.1c0 0.3-0.1 0.7-0.1 1s0.1 0.7 0.1 1h-4.1zM9 11c-1.7 0-3-1.3-3-3s1.3-3 3-3 3 1.3 3 3c0 1.7-1.3 3-3 3z"></path>
</svg>
