<?xml version="1.0" encoding="utf-8"?>
<!-- Generated by IcoMoon.io -->
<!DOCTYPE svg PUBLIC "-//W3C//DTD SVG 1.1//EN" "http://www.w3.org/Graphics/SVG/1.1/DTD/svg11.dtd">
<svg version="1.1" xmlns="http://www.w3.org/2000/svg" xmlns:xlink="http://www.w3.org/1999/xlink" width="16" height="16" viewBox="0 0 16 16">
<path fill="#444" d="M12.5 4.9c-1.4 0-2.5 0.8-2.6 0.9l1.2 1.6c0 0 0.7-0.5 1.4-0.5 1.4 0 1.5 1.2 1.5 1.6-0.4-0.1-1.1-0.3-2-0.1-1.4 0.3-2.8 2-2.1 3.9 0.7 1.8 3.1 2.1 4.1 0.6v1h2v-5.3c0-2.7-1.9-3.7-3.5-3.7zM11.5 11.4c-0.1-1.9 1.5-1.9 2.5-1.8v1c0 1.2-2.3 2.3-2.5 0.8z"></path>
<path fill="#444" d="M6.9 14h2.1l-3.2-12h-2.7l-3.1 12h2.1l1-4h2.7l1.1 4zM3.6 8l0.8-3.2 0.9 3.2h-1.7z"></path>
</svg>
