<?xml version="1.0" encoding="utf-8"?>
<!-- Generated by IcoMoon.io -->
<!DOCTYPE svg PUBLIC "-//W3C//DTD SVG 1.1//EN" "http://www.w3.org/Graphics/SVG/1.1/DTD/svg11.dtd">
<svg version="1.1" xmlns="http://www.w3.org/2000/svg" xmlns:xlink="http://www.w3.org/1999/xlink" width="16" height="16" viewBox="0 0 16 16">
<path fill="#444" d="M15 3v10h-14v-10h14zM16 2h-16v12h16v-12z"></path>
<path fill="#444" d="M8 5h6v1h-6v-1z"></path>
<path fill="#444" d="M8 7h6v1h-6v-1z"></path>
<path fill="#444" d="M8 9h3v1h-3v-1z"></path>
<path fill="#444" d="M5.4 7h-0.4v-0.1c0.6-0.2 1-0.8 1-1.4 0-0.8-0.7-1.5-1.5-1.5s-1.5 0.7-1.5 1.5c0 0.7 0.4 1.2 1 1.4v0.1h-0.4c-0.9 0-1.6 0.7-1.6 1.6v2.4h5v-2.4c0-0.9-0.7-1.6-1.6-1.6z"></path>
</svg>
