<?xml version="1.0" encoding="utf-8"?>
<!-- Generator: Adobe Illustrator 21.1.0, SVG Export Plug-In . SVG Version: 6.00 Build 0)  -->
<svg version="1.1" id="Layer_1" xmlns="http://www.w3.org/2000/svg"  x="0px" y="0px"
	 viewBox="0 0 72 100" style="enable-background:new 0 0 72 100;" xml:space="preserve">
<style type="text/css">
	.st0{fill:url(#SVGID_1_);}
	.st1{fill-opacity:0;stroke:#A03537;stroke-width:2;}
	.st2{enable-background:new    ;}
	.st3{fill:#FFFFFF;}
	.st4{fill:#F2F2F2;}
	.st5{fill:url(#SVGID_2_);}
	.st6{fill:url(#SVGID_3_);}
	.st7{fill:url(#SVGID_4_);}
	.st8{fill:url(#SVGID_5_);}
	.st9{fill:url(#SVGID_6_);}
	.st10{fill:url(#SVGID_7_);}
	.st11{fill:url(#SVGID_8_);}
	.st12{fill-opacity:0;stroke:#A03537;stroke-width:2;stroke-linejoin:bevel;}
</style>
<linearGradient id="SVGID_1_" gradientUnits="userSpaceOnUse" x1="36" y1="101.0003" x2="36" y2="3.0043" gradientTransform="matrix(1 0 0 -1 0 102)">
	<stop  offset="0" style="stop-color:#FFFEEE"/>
	<stop  offset="0.6371" style="stop-color:#CF9FA0"/>
	<stop  offset="1" style="stop-color:#A03537"/>
</linearGradient>
<path class="st0" d="M45.1,1l27.2,26.7V99H-0.2V1H45.1z"/>
<path class="st1" d="M45.1,1l27.2,26.7V99H-0.2V1H45.1z"/>
<g class="st2">
	<path class="st3" d="M17.5,91.1h-2.9l-1.1-2.9H8.2l-1.1,2.9H4.3l5.1-12.9h2.8L17.5,91.1z M12.6,86l-1.8-4.8L9,86H12.6z"/>
	<path class="st3" d="M27.3,86.3l2.6,0.8c-0.4,1.4-1,2.5-2,3.1c-0.9,0.7-2.1,1-3.5,1c-1.7,0-3.2-0.6-4.3-1.8
		c-1.1-1.2-1.7-2.8-1.7-4.8c0-2.1,0.6-3.8,1.7-5c1.1-1.2,2.6-1.8,4.4-1.8c1.6,0,2.9,0.5,3.9,1.4c0.6,0.6,1,1.3,1.3,2.4l-2.6,0.6
		c-0.2-0.7-0.5-1.2-1-1.6s-1.1-0.6-1.8-0.6c-1,0-1.8,0.3-2.4,1s-0.9,1.8-0.9,3.3c0,1.6,0.3,2.8,0.9,3.5c0.6,0.7,1.4,1,2.3,1
		c0.7,0,1.3-0.2,1.8-0.7C26.7,88,27.1,87.3,27.3,86.3z"/>
	<path class="st3" d="M40.5,86.3l2.6,0.8c-0.4,1.4-1,2.5-2,3.1c-0.9,0.7-2.1,1-3.5,1c-1.7,0-3.2-0.6-4.3-1.8
		c-1.1-1.2-1.7-2.8-1.7-4.8c0-2.1,0.6-3.8,1.7-5c1.1-1.2,2.6-1.8,4.4-1.8c1.6,0,2.9,0.5,3.9,1.4c0.6,0.6,1,1.3,1.3,2.4l-2.6,0.6
		c-0.2-0.7-0.5-1.2-1-1.6c-0.5-0.4-1.1-0.6-1.8-0.6c-1,0-1.8,0.3-2.4,1s-0.9,1.8-0.9,3.3c0,1.6,0.3,2.8,0.9,3.5c0.6,0.7,1.4,1,2.3,1
		c0.7,0,1.3-0.2,1.8-0.7C39.9,88,40.3,87.3,40.5,86.3z"/>
	<path class="st3" d="M45.3,78.2h4.8c1.1,0,1.9,0.1,2.5,0.2c0.8,0.2,1.4,0.6,2,1.2c0.5,0.6,1,1.3,1.3,2.1c0.3,0.8,0.4,1.8,0.4,3
		c0,1.1-0.1,2-0.4,2.7c-0.3,0.9-0.8,1.7-1.4,2.3c-0.5,0.4-1.1,0.8-1.9,1c-0.6,0.2-1.4,0.3-2.3,0.3h-5V78.2z M48,80.4v8.5h2
		c0.7,0,1.3,0,1.6-0.1c0.4-0.1,0.8-0.3,1.1-0.5s0.5-0.7,0.7-1.2c0.2-0.6,0.3-1.4,0.3-2.4s-0.1-1.8-0.3-2.3c-0.2-0.5-0.4-0.9-0.8-1.2
		c-0.3-0.3-0.7-0.5-1.2-0.6c-0.4-0.1-1.1-0.1-2.2-0.1H48z"/>
	<path class="st3" d="M61.5,91.1V80.4h-3.9v-2.2H68v2.2h-3.9v10.7H61.5z"/>
</g>
<g>
	<path class="st4" d="M54,48.1c0,2.5-8.1,4.5-18,4.5c-9.9,0-18-2-18-4.5c0-2.5,8.1-4.5,18-4.5C45.9,43.6,54,45.6,54,48.1z"/>
	
		<linearGradient id="SVGID_2_" gradientUnits="userSpaceOnUse" x1="28.9721" y1="47.2221" x2="43.0279" y2="61.2778" gradientTransform="matrix(1 0 0 -1 0 102)">
		<stop  offset="0" style="stop-color:#FFFEEE"/>
		<stop  offset="0.6371" style="stop-color:#CF9FA0"/>
		<stop  offset="1" style="stop-color:#A03537"/>
	</linearGradient>
	<path class="st5" d="M49.5,47.8c0,2.2-6,3.9-13.5,3.9c-7.5,0-13.5-1.7-13.5-3.9s6-3.9,13.5-3.9C43.5,43.9,49.5,45.6,49.5,47.8z"/>
	
		<linearGradient id="SVGID_3_" gradientUnits="userSpaceOnUse" x1="18" y1="45.9" x2="54" y2="45.9" gradientTransform="matrix(1 0 0 -1 0 102)">
		<stop  offset="0" style="stop-color:#FFFEEE"/>
		<stop  offset="0.6371" style="stop-color:#CF9FA0"/>
		<stop  offset="1" style="stop-color:#A03537"/>
	</linearGradient>
	<path class="st6" d="M18,48.3v11.2c0,0,4.5,4.5,18,4.5s18-4.5,18-4.5V48.3c0,0-2.2,3.9-18,4.2C20.2,52.8,18,48.3,18,48.3z"/>
	<path class="st4" d="M54,32.3c0,2.5-8.1,4.5-18,4.5c-9.9,0-18-2-18-4.5c0-2.5,8.1-4.5,18-4.5C45.9,27.8,54,29.8,54,32.3z"/>
	
		<linearGradient id="SVGID_4_" gradientUnits="userSpaceOnUse" x1="28.954" y1="63.004" x2="43.0097" y2="77.0597" gradientTransform="matrix(1 0 0 -1 0 102)">
		<stop  offset="0" style="stop-color:#FFFEEE"/>
		<stop  offset="0.6371" style="stop-color:#CF9FA0"/>
		<stop  offset="1" style="stop-color:#A03537"/>
	</linearGradient>
	<path class="st7" d="M49.5,31.9c0,2.2-6,3.9-13.5,3.9c-7.5,0-13.5-1.7-13.5-3.9c0-2.2,6-3.9,13.5-3.9
		C43.5,28.1,49.5,29.8,49.5,31.9z"/>
	
		<linearGradient id="SVGID_5_" gradientUnits="userSpaceOnUse" x1="18" y1="61.6" x2="54" y2="61.6" gradientTransform="matrix(1 0 0 -1 0 102)">
		<stop  offset="0" style="stop-color:#FFFEEE"/>
		<stop  offset="0.6371" style="stop-color:#CF9FA0"/>
		<stop  offset="1" style="stop-color:#A03537"/>
	</linearGradient>
	<path class="st8" d="M18,32.6v11.2c0,0,4.5,4.5,18,4.5s18-4.5,18-4.5V32.6c0,0-2.2,3.9-18,4.2C20.2,37.1,18,32.6,18,32.6z"/>
	<path class="st3" d="M54,16.6c0,2.5-8.1,4.5-18,4.5c-9.9,0-18-2-18-4.5c0-2.5,8.1-4.5,18-4.5C45.9,12.1,54,14.1,54,16.6z"/>
	
		<linearGradient id="SVGID_6_" gradientUnits="userSpaceOnUse" x1="28.9721" y1="78.7221" x2="43.0279" y2="92.7778" gradientTransform="matrix(1 0 0 -1 0 102)">
		<stop  offset="0" style="stop-color:#FFFEEE"/>
		<stop  offset="0.6371" style="stop-color:#CF9FA0"/>
		<stop  offset="1" style="stop-color:#A03537"/>
	</linearGradient>
	<path class="st9" d="M49.5,16.3c0,2.2-6,3.9-13.5,3.9c-7.5,0-13.5-1.7-13.5-3.9s6-3.9,13.5-3.9C43.5,12.4,49.5,14.1,49.5,16.3z"/>
	
		<linearGradient id="SVGID_7_" gradientUnits="userSpaceOnUse" x1="18" y1="77.4" x2="54" y2="77.4" gradientTransform="matrix(1 0 0 -1 0 102)">
		<stop  offset="0" style="stop-color:#FFFEEE"/>
		<stop  offset="0.6371" style="stop-color:#CF9FA0"/>
		<stop  offset="1" style="stop-color:#A03537"/>
	</linearGradient>
	<path class="st10" d="M18,16.8v11.2c0,0,4.5,4.5,18,4.5s18-4.5,18-4.5V16.8c0,0-2.2,3.9-18,4.2C20.2,21.3,18,16.8,18,16.8z"/>
</g>
<linearGradient id="SVGID_8_" gradientUnits="userSpaceOnUse" x1="45.1778" y1="74.1588" x2="58.7716" y2="87.7526" gradientTransform="matrix(1 0 0 -1 0 102)">
	<stop  offset="0" style="stop-color:#FFFEEE"/>
	<stop  offset="0.6371" style="stop-color:#CF9FA0"/>
	<stop  offset="1" style="stop-color:#A03537"/>
</linearGradient>
<path class="st11" d="M45.1,1l27.2,26.7H45.1V1z"/>
<path class="st12" d="M44.1,1l27.2,26.7H44.1V1z"/>
</svg>
