<?xml version="1.0" encoding="utf-8"?>
<!-- Generator: Adobe Illustrator 21.1.0, SVG Export Plug-In . SVG Version: 6.00 Build 0)  -->
<svg version="1.1" id="Layer_1" xmlns="http://www.w3.org/2000/svg" xmlns:xlink="http://www.w3.org/1999/xlink" x="0px" y="0px"
	 viewBox="0 0 72 100" style="enable-background:new 0 0 72 100;" xml:space="preserve">
<style type="text/css">
	.st0{opacity:0.99;}
	.st1{fill:url(#SVGID_1_);}
	.st2{fill-opacity:0;stroke:#2D3293;stroke-width:2;}
	.st3{enable-background:new    ;}
	.st4{fill:#FFFFFF;}
	.st5{fill:url(#SVGID_2_);}
	.st6{fill-opacity:0;stroke:#2D3293;stroke-width:2;stroke-linejoin:bevel;}
	.st7{opacity:0.99;fill:url(#SVGID_3_);}
</style>
<g class="st0">
	
		<linearGradient id="SVGID_1_" gradientUnits="userSpaceOnUse" x1="36.15" y1="2.8868" x2="36.15" y2="101.1256" gradientTransform="matrix(1 0 0 -1 0 102)">
		<stop  offset="0" style="stop-color:#595593"/>
		<stop  offset="1.200000e-02" style="stop-color:#5B5794"/>
		<stop  offset="0.182" style="stop-color:#7B77AA"/>
		<stop  offset="0.352" style="stop-color:#9896BF"/>
		<stop  offset="0.521" style="stop-color:#B2B2D2"/>
		<stop  offset="0.687" style="stop-color:#C7C9E2"/>
		<stop  offset="0.848" style="stop-color:#D6D9EC"/>
		<stop  offset="1" style="stop-color:#DBDFF0"/>
	</linearGradient>
	<path class="st1" d="M45.2,0.9l27.1,26.8v71.4H0V0.9H45.2z"/>
	<path class="st2" d="M45.2,0.9l27.1,26.8v71.4H0V0.9H45.2z"/>
</g>
<g class="st3">
	<path class="st4" d="M33.9,91.2h-4.4l-1.8-4.5h-8L18,91.2h-4.3l7.8-19.9h4.3L33.9,91.2z M26.4,83.3l-2.8-7.4l-2.7,7.4H26.4z"/>
	<path class="st4" d="M35.9,91.2V71.3H40v19.9H35.9z"/>
	<path class="st4" d="M43.9,91.2V71.3h13.8v3.4h-9.7v4.7h8.4v3.4h-8.4v8.5H43.9z"/>
</g>
<g class="st0">
	
		<linearGradient id="SVGID_2_" gradientUnits="userSpaceOnUse" x1="58.3206" y1="87.2734" x2="50.783" y2="78.8387" gradientTransform="matrix(1 0 0 -1 0 102)">
		<stop  offset="0" style="stop-color:#595593"/>
		<stop  offset="7.000000e-02" style="stop-color:#706CA2"/>
		<stop  offset="0.159" style="stop-color:#8988B5"/>
		<stop  offset="0.255" style="stop-color:#A3A5C8"/>
		<stop  offset="0.359" style="stop-color:#BABFD9"/>
		<stop  offset="0.471" style="stop-color:#CED5E7"/>
		<stop  offset="0.598" style="stop-color:#DEE6F2"/>
		<stop  offset="0.751" style="stop-color:#E9F3FA"/>
		<stop  offset="1" style="stop-color:#ECF8FE"/>
	</linearGradient>
	<path class="st5" d="M45.2,0.9l27.1,26.8H45.2V0.9z"/>
	<path class="st6" d="M45.2,0.9l27.1,26.8H45.2V0.9z"/>
</g>
<linearGradient id="SVGID_3_" gradientUnits="userSpaceOnUse" x1="14.776" y1="56.1739" x2="57.7264" y2="56.1739" gradientTransform="matrix(1 0 0 -1 0 102)">
	<stop  offset="0" style="stop-color:#352C7F"/>
	<stop  offset="7.400000e-02" style="stop-color:#3E3786"/>
	<stop  offset="0.266" style="stop-color:#544F96"/>
	<stop  offset="0.457" style="stop-color:#6763A5"/>
	<stop  offset="0.645" style="stop-color:#7572B1"/>
	<stop  offset="0.827" style="stop-color:#7E7CBA"/>
	<stop  offset="1" style="stop-color:#8180BD"/>
</linearGradient>
<path class="st7" d="M14.8,39.3h6.5l13-10v33l-13-10h-6.5V39.3z M40.9,49.5v2.9l0,0c0.1,0,1.6,0,3.2-0.8l0,0
	c1.6-0.8,3.4-2.7,3.4-5.8l0,0c0-3.1-1.7-5-3.4-5.8l0,0c-1.6-0.8-3.1-0.8-3.2-0.8v2.9l0,0c0,0,0,0,0.1,0l0,0c0.4,0,1.4,0.2,2.1,0.7
	l0,0c0.8,0.5,1.4,1.2,1.4,3l0,0c0,2-0.8,2.6-1.8,3.2l0,0c-0.5,0.2-1,0.4-1.3,0.4l0,0c-0.2,0-0.3,0-0.4,0.1l0,0
	C40.9,49.5,40.9,49.5,40.9,49.5L40.9,49.5z M40.9,54.6v2.9l0,0c0.1,0,2.8,0,5.8-1.4l0,0c2.9-1.4,6-4.6,5.9-10.1l0,0
	c0.1-5.6-3-8.7-5.9-10.1l0,0c-2.9-1.4-5.6-1.4-5.8-1.4v2.9l0,0c0,0,0.1,0,0.3,0l0,0c0.8,0.1,3.1,0.4,4.9,1.6l0,0
	c1.9,1.2,3.5,3.1,3.5,7.1l0,0c0,4.6-2.1,6.5-4.3,7.5l0,0c-1.1,0.6-2.2,0.8-3.1,1l0,0c-0.4,0.1-0.8,0.1-1,0.1l0,0
	C41,54.6,40.9,54.6,40.9,54.6L40.9,54.6z M40.9,59.6v2.9l0,0c0.1,0,4.1,0,8.3-2.1l0,0c4.2-2,8.5-6.5,8.5-14.6l0,0
	c0.1-8.1-4.3-12.6-8.5-14.6l0,0c-4.2-2.1-8.2-2.1-8.3-2.1V32l0,0c0,0,0.2,0,0.6,0l0,0c1.3,0.1,4.8,0.6,7.7,2.5l0,0
	c2.9,1.9,5.5,5.1,5.6,11.3l0,0c-0.1,7-3.4,10.2-6.9,12l0,0c-1.7,0.9-3.5,1.3-4.9,1.5l0,0c-0.7,0.1-1.2,0.2-1.6,0.2l0,0
	C41.1,59.6,40.9,59.6,40.9,59.6L40.9,59.6z M40.9,32.1L40.9,32.1L40.9,32.1L40.9,32.1z"/>
</svg>
