<?xml version="1.0" encoding="utf-8"?>
<!-- Generator: Adobe Illustrator 21.1.0, SVG Export Plug-In . SVG Version: 6.00 Build 0)  -->
<svg version="1.1" id="Layer_1" xmlns="http://www.w3.org/2000/svg"  x="0px" y="0px"
	 viewBox="0 0 72 100" style="enable-background:new 0 0 72 100;" xml:space="preserve">
<style type="text/css">
	.st0{opacity:0.99;}
	.st1{fill:url(#SVGID_1_);}
	.st2{fill-opacity:0;stroke:#006E6C;stroke-width:2;}
	.st3{enable-background:new    ;}
	.st4{fill:#FFFFFF;}
	.st5{fill:url(#SVGID_2_);}
	.st6{fill:url(#SVGID_3_);}
	.st7{fill-opacity:0;stroke:#006E6C;stroke-width:2;stroke-linejoin:bevel;}
</style>
<g class="st0">
	
		<linearGradient id="SVGID_1_" gradientUnits="userSpaceOnUse" x1="36.2" y1="3.0053" x2="36.2" y2="101.0001" gradientTransform="matrix(1 0 0 -1 0 102)">
		<stop  offset="0" style="stop-color:#006B69"/>
		<stop  offset="0.124" style="stop-color:#00807F"/>
		<stop  offset="0.262" style="stop-color:#009393"/>
		<stop  offset="0.41" style="stop-color:#00A3A3"/>
		<stop  offset="0.571" style="stop-color:#00B0AF"/>
		<stop  offset="0.752" style="stop-color:#08B8B7"/>
		<stop  offset="1" style="stop-color:#14BBBB"/>
	</linearGradient>
	<path class="st1" d="M45.2,1l26.9,26.7V99H0.3V1H45.2z"/>
	<path class="st2" d="M45.2,1l26.9,26.7V99H0.3V1H45.2z"/>
</g>
<g class="st3">
	<path class="st4" d="M32.2,91.1h-4.4l-1.7-4.5h-8l-1.6,4.5h-4.3L20,71.2h4.3L32.2,91.1z M24.8,83.2L22,75.9l-2.7,7.4H24.8z"/>
	<path class="st4" d="M34.4,91.1V71.2h3.9l8.2,13.2V71.2h3.7v19.8h-4l-8.1-12.9v12.9H34.4z"/>
	<path class="st4" d="M54.4,91.1V71.2h4v19.8H54.4z"/>
</g>
<linearGradient id="SVGID_2_" gradientUnits="userSpaceOnUse" x1="36.4583" y1="60.1" x2="36.4583" y2="18">
	<stop  offset="5.000000e-03" style="stop-color:#008281"/>
	<stop  offset="0.343" style="stop-color:#006A69"/>
	<stop  offset="1" style="stop-color:#003836"/>
</linearGradient>
<path class="st5" d="M51.4,18H21.5c-1.5,0-2.6,1.2-2.6,2.6l0,0c0,1.5,1.2,2.6,2.6,2.6h0.1v2.6c0,5.5,3.3,10.4,8.5,12.4
	c0.3,0.1,0.5,0.4,0.5,0.7v0.2c0,0.3-0.2,0.6-0.5,0.7c-5.1,2-8.5,6.9-8.5,12.4v2.6h-0.1c-1.5,0-2.6,1.2-2.6,2.6l0,0
	c0,1.5,1.2,2.6,2.6,2.6h29.8c1.5,0,2.6-1.2,2.6-2.6l0,0c0-1.5-1.2-2.6-2.6-2.6h-0.1v-2.6c0-5.5-3.3-10.4-8.5-12.4
	c-0.3-0.1-0.5-0.4-0.5-0.7v-0.2c0-0.3,0.2-0.6,0.5-0.7c5.1-2,8.5-6.9,8.5-12.4v-2.6h0.1c1.5,0,2.6-1.2,2.6-2.6l0,0
	C54,19.2,52.8,18,51.4,18z M47.8,25.9c0,4-2.5,7.7-6.2,9.1c-1.6,0.6-2.7,2.2-2.7,3.9v0.2c0,1.7,1.1,3.3,2.7,3.9
	c3.8,1.5,6.2,5.1,6.2,9.1v2.6H25.1v-2.6c0-4,2.5-7.7,6.2-9.1c1.6-0.6,2.7-2.2,2.7-3.9v-0.2c0-1.7-1.1-3.3-2.7-3.9
	c-3.8-1.5-6.2-5.1-6.2-9.1v-2.6h22.6V25.9z M28.7,30.3c-0.2-0.4-0.2-0.8,0.2-1.1c0.1-0.1,0.3-0.1,0.4-0.1h14.1
	c0.4,0,0.8,0.3,0.8,0.8c0,0.2,0,0.3-0.1,0.4c-0.9,1.2-2,2.1-3.4,2.7c-1.5,0.6-2.7,1.6-3.4,3c-0.3,0.5-0.9,0.7-1.4,0.4
	c-0.2-0.1-0.3-0.2-0.4-0.4c-0.7-1.4-1.9-2.5-3.4-3C30.8,32.5,29.6,31.5,28.7,30.3z M38.7,46.2c0.7,0.7,1.7,1.1,2.7,1.1l0,0
	c1.9,0,3.5,1.3,3.9,3.1l0,0.2c0.1,0.4,0.1,0.8,0.1,1.2l0,0c0,0.5-0.3,0.9-0.8,0.9c0,0,0,0,0,0H28.2c-0.5,0-0.9-0.4-0.9-0.9
	c0,0,0,0,0,0c0-0.4,0.1-0.9,0.2-1.3l0-0.2c0.5-1.8,2.1-3,3.9-3c1,0,2-0.4,2.7-1c0.5-0.5,1-1.1,1.3-1.7c0.2-0.4,0.7-0.6,1.1-0.5
	c0.3,0.1,0.6,0.3,0.7,0.6C37.7,45.2,38.1,45.7,38.7,46.2z"/>
<g class="st0">
	
		<linearGradient id="SVGID_3_" gradientUnits="userSpaceOnUse" x1="45.2139" y1="74.2291" x2="58.667" y2="87.6823" gradientTransform="matrix(1 0 0 -1 0 102)">
		<stop  offset="0" style="stop-color:#D6EDE8"/>
		<stop  offset="0.297" style="stop-color:#D3EBE6"/>
		<stop  offset="0.44" style="stop-color:#C7E3DF"/>
		<stop  offset="0.551" style="stop-color:#B7D8D5"/>
		<stop  offset="0.645" style="stop-color:#A0CBC9"/>
		<stop  offset="0.729" style="stop-color:#84BAB9"/>
		<stop  offset="0.804" style="stop-color:#62A7A7"/>
		<stop  offset="0.874" style="stop-color:#349394"/>
		<stop  offset="0.938" style="stop-color:#007F7F"/>
		<stop  offset="0.998" style="stop-color:#006B6A"/>
		<stop  offset="1" style="stop-color:#006B69"/>
	</linearGradient>
	<path class="st6" d="M45.2,1l26.9,26.7H45.2V1z"/>
	<path class="st7" d="M45.2,1l26.9,26.7H45.2V1z"/>
</g>
</svg>
