<?xml version="1.0" encoding="utf-8"?>
<!-- Generator: Adobe Illustrator 21.1.0, SVG Export Plug-In . SVG Version: 6.00 Build 0)  -->
<svg version="1.1" id="Layer_1" xmlns="http://www.w3.org/2000/svg"  x="0px" y="0px"
	 viewBox="0 0 72 100" style="enable-background:new 0 0 72 100;" xml:space="preserve">
<style type="text/css">
	.st0{fill:url(#SVGID_1_);}
	.st1{fill-opacity:0;stroke:#7191A1;stroke-width:2;}
	.st2{enable-background:new    ;}
	.st3{fill:#4C6C7B;}
	.st4{fill:url(#SVGID_2_);}
	.st5{fill:url(#SVGID_3_);}
	.st6{fill-opacity:0;stroke:#7191A1;stroke-width:2;stroke-linejoin:bevel;}
</style>
<g>
	
		<linearGradient id="SVGID_1_" gradientUnits="userSpaceOnUse" x1="36" y1="2.9534" x2="36" y2="100.9501" gradientTransform="matrix(1 0 0 -1 0 102)">
		<stop  offset="0" style="stop-color:#C8D4DB"/>
		<stop  offset="0.139" style="stop-color:#D8E1E6"/>
		<stop  offset="0.359" style="stop-color:#EBF0F3"/>
		<stop  offset="0.617" style="stop-color:#F9FAFB"/>
		<stop  offset="1" style="stop-color:#FFFFFF"/>
	</linearGradient>
	<path class="st0" d="M45,1l27,26.7V99H0V1H45z"/>
	<path class="st1" d="M45,1l27,26.7V99H0V1H45z"/>
</g>
<g class="st2">
	<path class="st3" d="M26.1,91.1h-4.4l-1.8-4.5h-8l-1.7,4.5H6l7.8-19.8h4.3L26.1,91.1z M18.6,83.3l-2.8-7.4l-2.7,7.4H18.6z"/>
	<path class="st3" d="M28.2,91.1V71.3h6.5c2.5,0,4.1,0.1,4.8,0.3c1.1,0.3,2.1,0.9,2.9,1.9c0.8,1,1.2,2.3,1.2,3.9
		c0,1.2-0.2,2.2-0.7,3.1c-0.4,0.8-1,1.5-1.7,2c-0.7,0.5-1.4,0.8-2.1,0.9c-1,0.2-2.4,0.3-4.2,0.3h-2.6v7.5H28.2z M32.3,74.6v5.6h2.2
		c1.6,0,2.7-0.1,3.2-0.3c0.5-0.2,1-0.5,1.3-1c0.3-0.4,0.5-1,0.5-1.5c0-0.7-0.2-1.3-0.6-1.8c-0.4-0.5-1-0.8-1.6-0.9
		c-0.5-0.1-1.5-0.1-2.9-0.1H32.3z"/>
	<path class="st3" d="M47,91.1V71.3h4v8.8l8.2-8.8h5.4L57.1,79l8,12.1h-5.2l-5.5-9.3L51,85.1v6H47z"/>
</g>
<g>
	<g id="android">
		<linearGradient id="SVGID_2_" gradientUnits="userSpaceOnUse" x1="15.182" y1="39.3516" x2="56.3055" y2="39.3516">
			<stop  offset="0" style="stop-color:#CCDDE7"/>
			<stop  offset="0.265" style="stop-color:#B5CCD8"/>
			<stop  offset="0.798" style="stop-color:#7FA0B1"/>
			<stop  offset="1" style="stop-color:#6A8FA1"/>
		</linearGradient>
		<path class="st4" d="M23.4,51.7c0,1.2,0.8,2.1,2.1,2.1h2.1v7.2c0,1.6,1.4,3.1,3.1,3.1c1.6,0,3.1-1.4,3.1-3.1v-7.2h4.1v7.2
			c0,1.6,1.4,3.1,3.1,3.1s3.1-1.4,3.1-3.1v-7.2H46c1.2,0,2.1-0.8,2.1-2.1V31.1H23.4V51.7z M18.3,31.1c-1.6,0-3.1,1.4-3.1,3.1v14.4
			c0,1.6,1.4,3.1,3.1,3.1c1.6,0,3.1-1.4,3.1-3.1V34.2C21.4,32.5,19.9,31.1,18.3,31.1z M53.2,31.1c-1.6,0-3.1,1.4-3.1,3.1v14.4
			c0,1.6,1.4,3.1,3.1,3.1s3.1-1.4,3.1-3.1V34.2C56.3,32.5,54.9,31.1,53.2,31.1z M42.9,19.2l2.7-2.7c0.4-0.4,0.4-1,0-1.4
			c-0.4-0.4-1-0.4-1.4,0l-3.1,3.1c-1.4-1-3.3-1.4-5.3-1.4s-3.9,0.4-5.6,1.2l-2.9-3.1c-0.4-0.2-1.2-0.2-1.6,0c-0.2,0.4-0.2,1.2,0,1.6
			l2.7,2.7c-2.9,2.3-4.9,5.8-4.9,9.9h24.7C48.1,24.9,46,21.2,42.9,19.2z M31.6,24.9h-2.1v-2.1h2.1V24.9z M41.9,24.9h-2.1v-2.1h2.1
			V24.9z"/>
	</g>
</g>
<g>
	
		<linearGradient id="SVGID_3_" gradientUnits="userSpaceOnUse" x1="45.0684" y1="74.1553" x2="58.5684" y2="87.6553" gradientTransform="matrix(1 0 0 -1 0 102)">
		<stop  offset="0" style="stop-color:#FFFFFF"/>
		<stop  offset="0.35" style="stop-color:#FAFBFB"/>
		<stop  offset="0.532" style="stop-color:#EDF1F4"/>
		<stop  offset="0.675" style="stop-color:#DDE5E9"/>
		<stop  offset="0.799" style="stop-color:#C7D3DA"/>
		<stop  offset="0.908" style="stop-color:#ADBDC7"/>
		<stop  offset="1" style="stop-color:#92A5B0"/>
	</linearGradient>
	<path class="st5" d="M45,1l27,26.7H45V1z"/>
	<path class="st6" d="M45,1l27,26.7H45V1z"/>
</g>
</svg>
