<?xml version="1.0" encoding="utf-8"?>
<!-- Generator: Adobe Illustrator 21.1.0, SVG Export Plug-In . SVG Version: 6.00 Build 0)  -->
<svg version="1.1" id="Layer_1" xmlns="http://www.w3.org/2000/svg"  x="0px" y="0px"
	 viewBox="0 0 72 100" style="enable-background:new 0 0 72 100;" xml:space="preserve">
<style type="text/css">
	.st0{fill:url(#SVGID_1_);}
	.st1{fill-opacity:0;stroke:#7191A1;stroke-width:2;}
	.st2{enable-background:new    ;}
	.st3{fill:#4C6C7B;}
	.st4{fill:url(#SVGID_2_);}
	.st5{fill:url(#SVGID_3_);}
	.st6{fill:url(#SVGID_4_);}
	.st7{fill:url(#SVGID_5_);}
	.st8{fill-opacity:0;stroke:#7191A1;stroke-width:2;stroke-linejoin:bevel;}
</style>
<g>
	
		<linearGradient id="SVGID_1_" gradientUnits="userSpaceOnUse" x1="36.108" y1="3.0033" x2="36.108" y2="101.0009" gradientTransform="matrix(1 0 0 -1 0 102)">
		<stop  offset="0" style="stop-color:#C8D4DB"/>
		<stop  offset="0.139" style="stop-color:#D8E1E6"/>
		<stop  offset="0.359" style="stop-color:#EBF0F3"/>
		<stop  offset="0.617" style="stop-color:#F9FAFB"/>
		<stop  offset="1" style="stop-color:#FFFFFF"/>
	</linearGradient>
	<path class="st0" d="M45.1,1L72,27.7V99H0.2V1H45.1z"/>
	<path class="st1" d="M45.1,1L72,27.7V99H0.2V1H45.1z"/>
</g>
<g class="st2">
	<path class="st3" d="M27.3,91.1h-4.4l-1.7-4.5h-8l-1.6,4.5H7.3l7.8-19.8h4.3L27.3,91.1z M19.9,83.2l-2.8-7.4l-2.7,7.4H19.9z"/>
	<path class="st3" d="M28.4,84.6l3.9-0.4c0.2,1.3,0.7,2.3,1.4,2.9c0.7,0.6,1.7,0.9,2.9,0.9c1.3,0,2.3-0.3,2.9-0.8s1-1.2,1-1.9
		c0-0.5-0.1-0.9-0.4-1.2s-0.8-0.6-1.5-0.9c-0.5-0.2-1.5-0.5-3.2-0.9c-2.2-0.5-3.7-1.2-4.6-2c-1.2-1.1-1.8-2.4-1.8-4
		c0-1,0.3-2,0.9-2.8c0.6-0.9,1.4-1.5,2.5-2c1.1-0.5,2.4-0.7,3.9-0.7c2.5,0,4.4,0.5,5.7,1.6s1.9,2.5,2,4.4l-4,0.2
		c-0.2-1-0.5-1.8-1.1-2.2c-0.6-0.4-1.4-0.7-2.6-0.7c-1.2,0-2.1,0.2-2.8,0.7c-0.4,0.3-0.6,0.7-0.6,1.2c0,0.5,0.2,0.9,0.6,1.2
		c0.5,0.4,1.7,0.9,3.7,1.3s3.4,0.9,4.4,1.4c0.9,0.5,1.7,1.2,2.2,2c0.5,0.9,0.8,1.9,0.8,3.2c0,1.1-0.3,2.2-1,3.2
		c-0.6,1-1.5,1.7-2.7,2.2s-2.6,0.7-4.3,0.7c-2.5,0-4.5-0.6-5.8-1.7C29.5,88.5,28.7,86.8,28.4,84.6z"/>
	<path class="st3" d="M48.1,91.1V71.2h4V79H60v-7.8h4v19.8h-4v-8.7h-7.9v8.7H48.1z"/>
</g>
<g>
	<linearGradient id="SVGID_2_" gradientUnits="userSpaceOnUse" x1="36.75" y1="64" x2="36.75" y2="17.5">
		<stop  offset="0" style="stop-color:#ADCCDC"/>
		<stop  offset="1" style="stop-color:#4C6C7B"/>
	</linearGradient>
	<path class="st4" d="M60,17.5H13.5V64H60V17.5z M22.8,26.8h-4.6v-4.6h4.6V26.8z M55.3,26.8H27.5v-4.6h27.9V26.8z M55.3,59.3H18.1
		V31.5h37.2V59.3z"/>
	<linearGradient id="SVGID_3_" gradientUnits="userSpaceOnUse" x1="28.1094" y1="52.6944" x2="28.1094" y2="35.4556">
		<stop  offset="0" style="stop-color:#ADCCDC"/>
		<stop  offset="1" style="stop-color:#4C6C7B"/>
	</linearGradient>
	<polygon class="st5" points="25.4,35.5 22.2,38.7 27.5,44.1 22.2,49.4 25.4,52.7 34.1,44.1 	"/>
	<linearGradient id="SVGID_4_" gradientUnits="userSpaceOnUse" x1="37.75" y1="55.7" x2="37.75" y2="51.05">
		<stop  offset="0" style="stop-color:#ADCCDC"/>
		<stop  offset="1" style="stop-color:#4C6C7B"/>
	</linearGradient>
	<rect x="33.1" y="51" class="st6" width="9.3" height="4.7"/>
</g>
<g>
	
		<linearGradient id="SVGID_5_" gradientUnits="userSpaceOnUse" x1="45.1216" y1="74.2293" x2="58.5748" y2="87.6825" gradientTransform="matrix(1 0 0 -1 0 102)">
		<stop  offset="0" style="stop-color:#FFFFFF"/>
		<stop  offset="0.35" style="stop-color:#FAFBFB"/>
		<stop  offset="0.532" style="stop-color:#EDF1F4"/>
		<stop  offset="0.675" style="stop-color:#DDE5E9"/>
		<stop  offset="0.799" style="stop-color:#C7D3DA"/>
		<stop  offset="0.908" style="stop-color:#ADBDC7"/>
		<stop  offset="1" style="stop-color:#92A5B0"/>
	</linearGradient>
	<path class="st7" d="M45.1,1L72,27.7H45.1V1z"/>
	<path class="st8" d="M45.1,1L72,27.7H45.1V1z"/>
</g>
</svg>
