<?xml version="1.0" encoding="utf-8"?>
<!-- Generator: Adobe Illustrator 21.1.0, SVG Export Plug-In . SVG Version: 6.00 Build 0)  -->
<svg version="1.1" id="Layer_1" xmlns="http://www.w3.org/2000/svg" xmlns:xlink="http://www.w3.org/1999/xlink" x="0px" y="0px"
	 viewBox="0 0 72 100" style="enable-background:new 0 0 72 100;" xml:space="preserve">
<style type="text/css">
	.st0{fill:url(#SVGID_1_);}
	.st1{fill-opacity:0;stroke:#7191A1;stroke-width:2;}
	.st2{enable-background:new    ;}
	.st3{fill:#4C6C7B;}
	.st4{fill:url(#SVGID_2_);}
	.st5{fill:url(#SVGID_3_);}
	.st6{fill-opacity:0;stroke:#7191A1;stroke-width:2;stroke-linejoin:bevel;}
</style>
<g>
	
		<linearGradient id="SVGID_1_" gradientUnits="userSpaceOnUse" x1="36" y1="2.9534" x2="36" y2="100.9501" gradientTransform="matrix(1 0 0 -1 0 102)">
		<stop  offset="0" style="stop-color:#C8D4DB"/>
		<stop  offset="0.139" style="stop-color:#D8E1E6"/>
		<stop  offset="0.359" style="stop-color:#EBF0F3"/>
		<stop  offset="0.617" style="stop-color:#F9FAFB"/>
		<stop  offset="1" style="stop-color:#FFFFFF"/>
	</linearGradient>
	<path class="st0" d="M45,1l27,26.7V99H0V1H45z"/>
	<path class="st1" d="M45,1l27,26.7V99H0V1H45z"/>
</g>
<g class="st2">
	<path class="st3" d="M28.6,91.1h-4.3l-1.7-4.4h-7.8l-1.6,4.4H9l7.6-19.3h4.2L28.6,91.1z M21.3,83.5l-2.7-7.2L16,83.5H21.3z"/>
	<path class="st3" d="M29,91.1v-3.5l10.3-12.5h-9.1v-3.3h14.3v3l-10.7,13h11.1v3.3H29z"/>
	<path class="st3" d="M47.3,91.1V71.8h14.5v3.3H51.3v4.3h9.8v3.3h-9.8v5.3h10.9v3.3H47.3z"/>
</g>
<linearGradient id="SVGID_2_" gradientUnits="userSpaceOnUse" x1="19.1033" y1="40.2847" x2="55" y2="40.2847">
	<stop  offset="0" style="stop-color:#FFCE85"/>
	<stop  offset="0.1372" style="stop-color:#FFCA7C"/>
	<stop  offset="0.3654" style="stop-color:#FFC062"/>
	<stop  offset="0.6563" style="stop-color:#FFAF39"/>
	<stop  offset="0.9944" style="stop-color:#FF9800"/>
</linearGradient>
<path class="st4" d="M43,62.6c9.9-8.8,1.4-20.1-1.3-21.3c0.3,1.4,0.2,3.7-1.1,5c-0.7-3.4-3.3-7.7-7.1-9.1c0.6,4.8-2.3,8.3-3.4,10
	c-1,1.6-6.8,9.7-0.9,15.4c-14-4.4-10.6-18.5-6.4-24.7C27,31.4,32,26.1,30.9,18c6.8,2.4,11.5,9.6,12.7,15.2c2.3-2.2,2.6-6.1,2-8.3
	C50.4,26.9,65.4,53.8,43,62.6z"/>
<g>
	
		<linearGradient id="SVGID_3_" gradientUnits="userSpaceOnUse" x1="45.0684" y1="74.1553" x2="58.5684" y2="87.6553" gradientTransform="matrix(1 0 0 -1 0 102)">
		<stop  offset="0" style="stop-color:#FFFFFF"/>
		<stop  offset="0.35" style="stop-color:#FAFBFB"/>
		<stop  offset="0.532" style="stop-color:#EDF1F4"/>
		<stop  offset="0.675" style="stop-color:#DDE5E9"/>
		<stop  offset="0.799" style="stop-color:#C7D3DA"/>
		<stop  offset="0.908" style="stop-color:#ADBDC7"/>
		<stop  offset="1" style="stop-color:#92A5B0"/>
	</linearGradient>
	<path class="st5" d="M45,1l27,26.7H45V1z"/>
	<path class="st6" d="M45,1l27,26.7H45V1z"/>
</g>
</svg>
