<?xml version="1.0" encoding="utf-8"?>
<!-- Generator: Adobe Illustrator 21.1.0, SVG Export Plug-In . SVG Version: 6.00 Build 0)  -->
<svg version="1.1" id="Layer_1" xmlns="http://www.w3.org/2000/svg" xmlns:xlink="http://www.w3.org/1999/xlink" x="0px" y="0px"
	 viewBox="0 0 72 100" style="enable-background:new 0 0 72 100;" xml:space="preserve">
<style type="text/css">
	.st0{fill:url(#SVGID_1_);}
	.st1{fill-opacity:0;stroke:#7191A1;stroke-width:2;}
	.st2{enable-background:new    ;}
	.st3{fill:#4C6C7B;}
	.st4{fill:url(#SVGID_2_);}
	.st5{fill:url(#SVGID_3_);}
	.st6{fill:url(#SVGID_4_);}
	.st7{fill:url(#SVGID_5_);}
	.st8{fill-opacity:0;stroke:#7191A1;stroke-width:2;stroke-linejoin:bevel;}
</style>
<g>
	
		<linearGradient id="SVGID_1_" gradientUnits="userSpaceOnUse" x1="36.108" y1="3.0033" x2="36.108" y2="101.0009" gradientTransform="matrix(1 0 0 -1 0 102)">
		<stop  offset="0" style="stop-color:#C8D4DB"/>
		<stop  offset="0.139" style="stop-color:#D8E1E6"/>
		<stop  offset="0.359" style="stop-color:#EBF0F3"/>
		<stop  offset="0.617" style="stop-color:#F9FAFB"/>
		<stop  offset="1" style="stop-color:#FFFFFF"/>
	</linearGradient>
	<path class="st0" d="M45.1,1L72,27.7V99H0.2V1H45.1z"/>
	<path class="st1" d="M45.1,1L72,27.7V99H0.2V1H45.1z"/>
</g>
<g class="st2">
	<path class="st3" d="M10.1,71.2h8c1.6,0,2.8,0.1,3.5,0.2c0.8,0.1,1.5,0.4,2.1,0.8c0.6,0.4,1.1,1,1.5,1.7s0.6,1.5,0.6,2.3
		c0,0.9-0.3,1.8-0.8,2.6c-0.5,0.8-1.2,1.4-2.1,1.7c1.2,0.4,2.2,1,2.8,1.8c0.7,0.8,1,1.8,1,3c0,0.9-0.2,1.8-0.6,2.6s-1,1.5-1.7,2
		c-0.7,0.5-1.6,0.8-2.7,0.9c-0.7,0.1-2.3,0.1-4.9,0.1h-6.8V71.2z M14.2,74.5v4.6h2.6c1.6,0,2.5,0,2.9-0.1c0.7-0.1,1.2-0.3,1.6-0.7
		s0.6-0.9,0.6-1.5c0-0.6-0.2-1.1-0.5-1.5c-0.3-0.4-0.8-0.6-1.5-0.7c-0.4,0-1.5-0.1-3.4-0.1H14.2z M14.2,82.4v5.3h3.7
		c1.5,0,2.4,0,2.8-0.1c0.6-0.1,1.1-0.4,1.5-0.8c0.4-0.4,0.6-1,0.6-1.7c0-0.6-0.1-1.1-0.4-1.5c-0.3-0.4-0.7-0.7-1.3-0.9
		c-0.5-0.2-1.7-0.3-3.6-0.3H14.2z"/>
	<path class="st3" d="M48.3,91.1h-4.4l-1.7-4.5h-8l-1.6,4.5h-4.3L36,71.2h4.3L48.3,91.1z M40.9,83.2l-2.8-7.4l-2.7,7.4H40.9z"/>
	<path class="st3" d="M52.8,91.1V74.6h-5.9v-3.4h15.9v3.4h-5.9v16.5H52.8z"/>
</g>
<g>
	<linearGradient id="SVGID_2_" gradientUnits="userSpaceOnUse" x1="36.75" y1="64" x2="36.75" y2="17.5">
		<stop  offset="0" style="stop-color:#ADCCDC"/>
		<stop  offset="1" style="stop-color:#4C6C7B"/>
	</linearGradient>
	<path class="st4" d="M60,17.5H13.5V64H60V17.5z M22.8,26.8h-4.6v-4.6h4.6V26.8z M55.3,26.8H27.5v-4.6h27.9V26.8z M55.3,59.3H18.1
		V31.5h37.2V59.3z"/>
	<linearGradient id="SVGID_3_" gradientUnits="userSpaceOnUse" x1="28.1094" y1="52.6944" x2="28.1094" y2="35.4556">
		<stop  offset="0" style="stop-color:#ADCCDC"/>
		<stop  offset="1" style="stop-color:#4C6C7B"/>
	</linearGradient>
	<polygon class="st5" points="25.4,35.5 22.2,38.7 27.5,44.1 22.2,49.4 25.4,52.7 34.1,44.1 	"/>
	<linearGradient id="SVGID_4_" gradientUnits="userSpaceOnUse" x1="37.75" y1="55.7" x2="37.75" y2="51.05">
		<stop  offset="0" style="stop-color:#ADCCDC"/>
		<stop  offset="1" style="stop-color:#4C6C7B"/>
	</linearGradient>
	<rect x="33.1" y="51" class="st6" width="9.3" height="4.7"/>
</g>
<g>
	
		<linearGradient id="SVGID_5_" gradientUnits="userSpaceOnUse" x1="45.1216" y1="74.2293" x2="58.5748" y2="87.6825" gradientTransform="matrix(1 0 0 -1 0 102)">
		<stop  offset="0" style="stop-color:#FFFFFF"/>
		<stop  offset="0.35" style="stop-color:#FAFBFB"/>
		<stop  offset="0.532" style="stop-color:#EDF1F4"/>
		<stop  offset="0.675" style="stop-color:#DDE5E9"/>
		<stop  offset="0.799" style="stop-color:#C7D3DA"/>
		<stop  offset="0.908" style="stop-color:#ADBDC7"/>
		<stop  offset="1" style="stop-color:#92A5B0"/>
	</linearGradient>
	<path class="st7" d="M45.1,1L72,27.7H45.1V1z"/>
	<path class="st8" d="M45.1,1L72,27.7H45.1V1z"/>
</g>
</svg>
