<?xml version="1.0" encoding="utf-8"?>
<!-- Generator: Adobe Illustrator 21.1.0, SVG Export Plug-In . SVG Version: 6.00 Build 0)  -->
<svg version="1.1" id="Layer_2" xmlns="http://www.w3.org/2000/svg" xmlns:xlink="http://www.w3.org/1999/xlink" x="0px" y="0px"
	 viewBox="0 0 72 100" style="enable-background:new 0 0 72 100;" xml:space="preserve">
<style type="text/css">
	.st0{fill:url(#SVGID_1_);}
	.st1{fill-opacity:0;stroke:#7191A1;stroke-width:2;}
	.st2{fill:url(#SVGID_2_);}
	.st3{fill-opacity:0;stroke:#7191A1;stroke-width:2;stroke-linejoin:bevel;}
	.st4{enable-background:new    ;}
	.st5{fill:#4C6C7B;}
</style>
<g>
	
		<linearGradient id="SVGID_1_" gradientUnits="userSpaceOnUse" x1="36" y1="127.8" x2="36" y2="29.8" gradientTransform="matrix(1 0 0 1 0 -29)">
		<stop  offset="0" style="stop-color:#C8D4DB"/>
		<stop  offset="0.139" style="stop-color:#D8E1E6"/>
		<stop  offset="0.359" style="stop-color:#EBF0F3"/>
		<stop  offset="0.617" style="stop-color:#F9FAFB"/>
		<stop  offset="1" style="stop-color:#FFFFFF"/>
	</linearGradient>
	<path class="st0" d="M45,0.8l27,26.7v71.3H0v-98C0,0.8,45,0.8,45,0.8z"/>
	<path class="st1" d="M45,0.8l27,26.7v71.3H0v-98C0,0.8,45,0.8,45,0.8z"/>
</g>
<g>
	
		<linearGradient id="SVGID_2_" gradientUnits="userSpaceOnUse" x1="45.075" y1="56.575" x2="58.575" y2="43.075" gradientTransform="matrix(1 0 0 1 0 -29)">
		<stop  offset="0" style="stop-color:#FFFFFF"/>
		<stop  offset="0.35" style="stop-color:#FAFBFB"/>
		<stop  offset="0.532" style="stop-color:#EDF1F4"/>
		<stop  offset="0.675" style="stop-color:#DDE5E9"/>
		<stop  offset="0.799" style="stop-color:#C7D3DA"/>
		<stop  offset="0.908" style="stop-color:#ADBDC7"/>
		<stop  offset="1" style="stop-color:#92A5B0"/>
	</linearGradient>
	<path class="st2" d="M45,0.8l27,26.7H45V0.8z"/>
	<path class="st3" d="M45,0.8l27,26.7H45V0.8z"/>
</g>
<g class="st4">
	<path class="st5" d="M11.4,86.1l2,0.6c-0.3,1.1-0.8,1.9-1.5,2.4c-0.7,0.5-1.6,0.8-2.7,0.8c-1.3,0-2.4-0.5-3.3-1.4
		c-0.9-0.9-1.3-2.2-1.3-3.7c0-1.7,0.4-3,1.3-3.9c0.9-0.9,2-1.4,3.4-1.4c1.2,0,2.2,0.4,3,1.1c0.5,0.4,0.8,1,1,1.8l-2,0.5
		c-0.1-0.5-0.4-0.9-0.7-1.2s-0.8-0.5-1.4-0.5c-0.7,0-1.3,0.3-1.8,0.8s-0.7,1.4-0.7,2.6c0,1.3,0.2,2.2,0.7,2.7s1,0.8,1.8,0.8
		c0.5,0,1-0.2,1.4-0.5S11.2,86.8,11.4,86.1z"/>
	<path class="st5" d="M14.7,84.9c0-1,0.2-1.9,0.5-2.6c0.2-0.5,0.5-1,0.9-1.4s0.8-0.7,1.3-0.9c0.6-0.3,1.3-0.4,2.2-0.4
		c1.5,0,2.7,0.5,3.5,1.4s1.3,2.2,1.3,3.8c0,1.6-0.4,2.9-1.3,3.8C22.2,89.5,21,90,19.5,90c-1.5,0-2.7-0.5-3.6-1.4
		C15.1,87.7,14.7,86.4,14.7,84.9z M16.7,84.8c0,1.1,0.3,2,0.8,2.6c0.5,0.6,1.2,0.9,2,0.9s1.5-0.3,2-0.9c0.5-0.6,0.8-1.5,0.8-2.6
		c0-1.1-0.3-2-0.8-2.6s-1.2-0.8-2-0.8s-1.5,0.3-2,0.9C17,82.8,16.7,83.6,16.7,84.8z"/>
	<path class="st5" d="M25.9,89.8v-10h3l1.8,6.8l1.8-6.8h3v10h-1.9v-7.9l-2,7.9h-1.9l-2-7.9v7.9H25.9z"/>
	<path class="st5" d="M37.6,89.8v-10h3.2c1.2,0,2,0,2.4,0.2c0.6,0.2,1.1,0.5,1.4,1c0.4,0.5,0.6,1.2,0.6,2c0,0.6-0.1,1.1-0.3,1.6
		c-0.2,0.4-0.5,0.7-0.9,1c-0.3,0.2-0.7,0.4-1,0.5C42.6,86,41.9,86,41,86h-1.3v3.8H37.6z M39.6,81.5v2.8h1.1c0.8,0,1.3-0.1,1.6-0.2
		c0.3-0.1,0.5-0.3,0.6-0.5c0.2-0.2,0.2-0.5,0.2-0.8c0-0.4-0.1-0.7-0.3-0.9c-0.2-0.2-0.5-0.4-0.8-0.4c-0.2,0-0.7-0.1-1.5-0.1H39.6z"
		/>
	<path class="st5" d="M46.9,89.8v-10h2v10H46.9z"/>
	<path class="st5" d="M50.9,89.8v-9.9h2v8.3h5v1.7H50.9z"/>
	<path class="st5" d="M59.4,89.8v-10h7.4v1.7h-5.4v2.2h5v1.7h-5v2.7H67v1.7H59.4z"/>
</g>
</svg>
