<?xml version="1.0" encoding="utf-8"?>
<!-- Generator: Adobe Illustrator 21.1.0, SVG Export Plug-In . SVG Version: 6.00 Build 0)  -->
<svg version="1.1" id="Layer_2" xmlns="http://www.w3.org/2000/svg" xmlns:xlink="http://www.w3.org/1999/xlink" x="0px" y="0px"
	 viewBox="0 0 72 100" style="enable-background:new 0 0 72 100;" xml:space="preserve">
<style type="text/css">
	.st0{fill:url(#SVGID_1_);}
	.st1{fill-opacity:0;stroke:#7191A1;stroke-width:2;}
	.st2{fill:url(#SVGID_2_);}
	.st3{fill-opacity:0;stroke:#7191A1;stroke-width:2;stroke-linejoin:bevel;}
	.st4{enable-background:new    ;}
	.st5{fill:#4C6C7B;}
</style>
<g>
	
		<linearGradient id="SVGID_1_" gradientUnits="userSpaceOnUse" x1="36" y1="127.8" x2="36" y2="29.8" gradientTransform="matrix(1 0 0 1 0 -29)">
		<stop  offset="0" style="stop-color:#C8D4DB"/>
		<stop  offset="0.139" style="stop-color:#D8E1E6"/>
		<stop  offset="0.359" style="stop-color:#EBF0F3"/>
		<stop  offset="0.617" style="stop-color:#F9FAFB"/>
		<stop  offset="1" style="stop-color:#FFFFFF"/>
	</linearGradient>
	<path class="st0" d="M45,0.8l27,26.7v71.3H0v-98C0,0.8,45,0.8,45,0.8z"/>
	<path class="st1" d="M45,0.8l27,26.7v71.3H0v-98C0,0.8,45,0.8,45,0.8z"/>
</g>
<g>
	
		<linearGradient id="SVGID_2_" gradientUnits="userSpaceOnUse" x1="45.075" y1="56.575" x2="58.575" y2="43.075" gradientTransform="matrix(1 0 0 1 0 -29)">
		<stop  offset="0" style="stop-color:#FFFFFF"/>
		<stop  offset="0.35" style="stop-color:#FAFBFB"/>
		<stop  offset="0.532" style="stop-color:#EDF1F4"/>
		<stop  offset="0.675" style="stop-color:#DDE5E9"/>
		<stop  offset="0.799" style="stop-color:#C7D3DA"/>
		<stop  offset="0.908" style="stop-color:#ADBDC7"/>
		<stop  offset="1" style="stop-color:#92A5B0"/>
	</linearGradient>
	<path class="st2" d="M45,0.8l27,26.7H45V0.8z"/>
	<path class="st3" d="M45,0.8l27,26.7H45V0.8z"/>
</g>
<g class="st4">
	<path class="st5" d="M16,86.1l2,0.6c-0.3,1.1-0.8,1.9-1.5,2.4c-0.7,0.5-1.6,0.8-2.7,0.8c-1.3,0-2.4-0.5-3.3-1.4
		c-0.9-0.9-1.3-2.2-1.3-3.7c0-1.7,0.4-3,1.3-3.9c0.9-0.9,2-1.4,3.4-1.4c1.2,0,2.2,0.4,3,1.1c0.5,0.4,0.8,1,1,1.8L16,83
		c-0.1-0.5-0.4-0.9-0.7-1.2s-0.8-0.5-1.4-0.5c-0.7,0-1.3,0.3-1.8,0.8s-0.7,1.4-0.7,2.6c0,1.3,0.2,2.2,0.7,2.7s1,0.8,1.8,0.8
		c0.5,0,1-0.2,1.4-0.5S15.9,86.8,16,86.1z"/>
	<path class="st5" d="M19.3,84.9c0-1,0.2-1.9,0.5-2.6c0.2-0.5,0.5-1,0.9-1.4s0.8-0.7,1.3-0.9c0.6-0.3,1.3-0.4,2.2-0.4
		c1.5,0,2.7,0.5,3.5,1.4s1.3,2.2,1.3,3.8c0,1.6-0.4,2.9-1.3,3.8c-0.9,0.9-2.1,1.4-3.5,1.4c-1.5,0-2.7-0.5-3.6-1.4
		C19.8,87.7,19.3,86.4,19.3,84.9z M21.4,84.8c0,1.1,0.3,2,0.8,2.6c0.5,0.6,1.2,0.9,2,0.9s1.5-0.3,2-0.9c0.5-0.6,0.8-1.5,0.8-2.6
		c0-1.1-0.3-2-0.8-2.6s-1.2-0.8-2-0.8s-1.5,0.3-2,0.9C21.7,82.8,21.4,83.6,21.4,84.8z"/>
	<path class="st5" d="M30.6,89.8v-10h2l4.1,6.7v-6.7h1.9v10h-2l-4-6.5v6.5H30.6z"/>
	<path class="st5" d="M40.7,89.8v-10h6.9v1.7h-4.8v2.4H47v1.7h-4.2v4.3H40.7z"/>
	<path class="st5" d="M49.2,89.8v-10h2v10H49.2z"/>
	<path class="st5" d="M57.8,86.1v-1.7h4.4v4c-0.4,0.4-1,0.8-1.8,1.1c-0.8,0.3-1.6,0.5-2.4,0.5c-1,0-2-0.2-2.7-0.7
		c-0.8-0.4-1.4-1.1-1.8-1.9c-0.4-0.8-0.6-1.7-0.6-2.7c0-1,0.2-2,0.7-2.8s1.1-1.4,1.9-1.9c0.6-0.3,1.4-0.5,2.4-0.5
		c1.2,0,2.2,0.3,2.9,0.8c0.7,0.5,1.1,1.2,1.3,2.2l-2,0.4c-0.1-0.5-0.4-0.9-0.8-1.2c-0.4-0.3-0.9-0.4-1.5-0.4c-0.9,0-1.6,0.3-2.1,0.8
		c-0.5,0.6-0.8,1.4-0.8,2.5c0,1.2,0.3,2.1,0.8,2.7c0.5,0.6,1.2,0.9,2.1,0.9c0.4,0,0.8-0.1,1.3-0.2c0.4-0.2,0.8-0.4,1.1-0.6v-1.3
		H57.8z"/>
</g>
</svg>
