<?xml version="1.0" encoding="utf-8"?>
<!-- Generator: Adobe Illustrator 21.1.0, SVG Export Plug-In . SVG Version: 6.00 Build 0)  -->
<svg version="1.1" id="Layer_1" xmlns="http://www.w3.org/2000/svg"  x="0px" y="0px"
	 viewBox="0 0 72 100" style="enable-background:new 0 0 72 100;" xml:space="preserve">
<style type="text/css">
	.st0{fill:url(#SVGID_1_);}
	.st1{fill-opacity:0;stroke:#0096DB;stroke-width:2;}
	.st2{fill:url(#SVGID_2_);}
	.st3{fill-opacity:0;stroke:#0096DB;stroke-width:2;stroke-linejoin:bevel;}
	.st4{enable-background:new    ;}
	.st5{fill:#FFFFFF;}
	.st6{fill:url(#SVGID_3_);}
</style>
<g>
	
		<linearGradient id="SVGID_1_" gradientUnits="userSpaceOnUse" x1="36.2" y1="3.0181" x2="36.2" y2="101.0517" gradientTransform="matrix(1 0 0 -1 0 102)">
		<stop  offset="0" style="stop-color:#00A6E9"/>
		<stop  offset="2.000000e-03" style="stop-color:#00A7E9"/>
		<stop  offset="9.200000e-02" style="stop-color:#00B2EC"/>
		<stop  offset="0.186" style="stop-color:#23BDEF"/>
		<stop  offset="0.286" style="stop-color:#66C8F2"/>
		<stop  offset="0.393" style="stop-color:#89D3F5"/>
		<stop  offset="0.507" style="stop-color:#A1DBF8"/>
		<stop  offset="0.633" style="stop-color:#B2E2F9"/>
		<stop  offset="0.781" style="stop-color:#BCE6FB"/>
		<stop  offset="1" style="stop-color:#BFE7FB"/>
	</linearGradient>
	<path class="st0" d="M45.2,0.9l27.1,26.7V99H0.1v-98H45.2z"/>
	<path class="st1" d="M45.2,0.9l27.1,26.7V99H0.1v-98H45.2z"/>
</g>
<g>
	
		<linearGradient id="SVGID_2_" gradientUnits="userSpaceOnUse" x1="58.7726" y1="87.8761" x2="49.7414" y2="78.8448" gradientTransform="matrix(1 0 0 -1 0 102)">
		<stop  offset="0" style="stop-color:#009DE1"/>
		<stop  offset="3.000000e-02" style="stop-color:#00A3E3"/>
		<stop  offset="9.500000e-02" style="stop-color:#00B1E7"/>
		<stop  offset="0.166" style="stop-color:#67C0EC"/>
		<stop  offset="0.241" style="stop-color:#92CEF0"/>
		<stop  offset="0.321" style="stop-color:#B4DBF4"/>
		<stop  offset="0.407" style="stop-color:#CEE7F8"/>
		<stop  offset="0.503" style="stop-color:#E3F0FB"/>
		<stop  offset="0.614" style="stop-color:#F1F8FD"/>
		<stop  offset="0.751" style="stop-color:#FBFDFE"/>
		<stop  offset="1" style="stop-color:#FFFFFF"/>
	</linearGradient>
	<path class="st2" d="M45.2,0.8l27.1,26.7H45.2V0.8z"/>
	<path class="st3" d="M45.2,0.8l27.1,26.7H45.2V0.8z"/>
</g>
<g class="st4">
	<path class="st5" d="M8.9,71.6h6.9c1.6,0,2.7,0.1,3.6,0.4c1.1,0.3,2,0.9,2.8,1.7c0.8,0.8,1.4,1.8,1.8,3s0.6,2.6,0.6,4.4
		c0,1.5-0.2,2.8-0.6,3.9c-0.5,1.3-1.1,2.4-2,3.3c-0.7,0.6-1.5,1.1-2.6,1.5c-0.8,0.3-1.9,0.4-3.3,0.4H8.9V71.6z M12.7,74.7V87h2.8
		c1.1,0,1.8-0.1,2.3-0.2c0.6-0.2,1.1-0.4,1.5-0.8s0.7-1,1-1.8c0.3-0.8,0.4-2,0.4-3.4s-0.1-2.5-0.4-3.3s-0.6-1.4-1.1-1.8
		c-0.5-0.4-1-0.7-1.7-0.9c-0.5-0.1-1.6-0.2-3.1-0.2H12.7z"/>
	<path class="st5" d="M36.5,83.3v-3.1h8.1v7.3c-0.8,0.8-1.9,1.4-3.4,2c-1.5,0.6-3,0.9-4.6,0.9c-2,0-3.7-0.4-5.1-1.2
		c-1.5-0.8-2.5-2-3.3-3.5c-0.7-1.5-1.1-3.1-1.1-4.9c0-1.9,0.4-3.6,1.2-5.1c0.8-1.5,2-2.6,3.6-3.4c1.2-0.6,2.7-0.9,4.5-0.9
		c2.3,0,4.1,0.5,5.4,1.4c1.3,1,2.1,2.3,2.5,4l-3.7,0.7c-0.3-0.9-0.8-1.6-1.5-2.1c-0.7-0.5-1.6-0.8-2.7-0.8c-1.6,0-3,0.5-3.9,1.5
		c-1,1-1.5,2.6-1.5,4.6c0,2.2,0.5,3.8,1.5,4.9c1,1.1,2.3,1.6,3.9,1.6c0.8,0,1.6-0.2,2.4-0.5s1.5-0.7,2-1.1v-2.3H36.5z"/>
	<path class="st5" d="M48.1,90.1V71.6h3.7l7.6,12.3V71.6h3.5v18.4h-3.8l-7.5-12v12H48.1z"/>
</g>
<linearGradient id="SVGID_3_" gradientUnits="userSpaceOnUse" x1="36.0996" y1="97.4264" x2="36.0996" y2="37.7824" gradientTransform="matrix(1 0 0 -1 0 102)">
	<stop  offset="0" style="stop-color:#009ADE"/>
	<stop  offset="1" style="stop-color:#00BDF2"/>
</linearGradient>
<path class="st6" d="M1.7,9.5L19,22.5l1.8-2.4L1,5.3V9L1.7,9.5z M37.7,32.8l5.5-7.1L42,24.8l-6.6-5.1l0.7,0.5l8.2-10.7V4.5l-10.7,14
	L26.5,13L13.6,29.6l7.1,5.4L1.1,59.9L1,64.2l22.1-27.4l-0.9-0.7l8.1,6.1l5.5-7.1l35.4,26.6v-3.7L37.7,32.8z M29.7,38.3l-11.9-9
	l9.1-11.8l11.9,9L29.7,38.3z"/>
</svg>
