<?xml version="1.0" encoding="utf-8"?>
<!-- Generator: Adobe Illustrator 21.1.0, SVG Export Plug-In . SVG Version: 6.00 Build 0)  -->
<svg version="1.1" id="Layer_1" xmlns="http://www.w3.org/2000/svg"  x="0px" y="0px"
	 viewBox="0 0 72 100" style="enable-background:new 0 0 72 100;" xml:space="preserve">
<style type="text/css">
	.st0{fill:url(#SVGID_1_);}
	.st1{fill-opacity:0;stroke:#7191A1;stroke-width:2;}
	.st2{enable-background:new    ;}
	.st3{fill:#4C6C7B;}
	.st4{fill:url(#SVGID_2_);stroke:url(#SVGID_3_);stroke-width:1.5;stroke-miterlimit:10;}
	.st5{fill:url(#SVGID_4_);stroke:url(#SVGID_5_);stroke-width:1.5;stroke-miterlimit:10;}
	.st6{fill:url(#SVGID_6_);stroke:url(#SVGID_7_);stroke-width:1.5;stroke-miterlimit:10;}
	.st7{fill:url(#SVGID_8_);stroke:url(#SVGID_9_);stroke-width:1.5;stroke-miterlimit:10;}
	.st8{fill:url(#SVGID_10_);stroke:url(#SVGID_11_);stroke-width:1.5;stroke-miterlimit:10;}
	.st9{fill:url(#SVGID_12_);stroke:url(#SVGID_13_);stroke-width:1.5;stroke-miterlimit:10;}
	.st10{fill:url(#SVGID_14_);}
	.st11{fill-opacity:0;stroke:#7191A1;stroke-width:2;stroke-linejoin:bevel;}
</style>
<g>
	
		<linearGradient id="SVGID_1_" gradientUnits="userSpaceOnUse" x1="36.108" y1="3.0033" x2="36.108" y2="101.0009" gradientTransform="matrix(1 0 0 -1 0 102)">
		<stop  offset="0" style="stop-color:#C8D4DB"/>
		<stop  offset="0.139" style="stop-color:#D8E1E6"/>
		<stop  offset="0.359" style="stop-color:#EBF0F3"/>
		<stop  offset="0.617" style="stop-color:#F9FAFB"/>
		<stop  offset="1" style="stop-color:#FFFFFF"/>
	</linearGradient>
	<path class="st0" d="M45.1,1L72,27.7V99H0.2V1H45.1z"/>
	<path class="st1" d="M45.1,1L72,27.7V99H0.2V1H45.1z"/>
</g>
<g class="st2">
	<path class="st3" d="M9.5,71.2h7.4c1.7,0,2.9,0.1,3.8,0.4c1.2,0.3,2.2,1,3,1.8c0.8,0.9,1.5,1.9,1.9,3.2s0.7,2.8,0.7,4.7
		c0,1.6-0.2,3-0.6,4.2c-0.5,1.4-1.2,2.6-2.1,3.5c-0.7,0.7-1.6,1.2-2.8,1.6c-0.9,0.3-2.1,0.4-3.6,0.4H9.5V71.2z M13.6,74.6v13.1h3
		c1.1,0,1.9-0.1,2.4-0.2c0.7-0.2,1.2-0.4,1.6-0.8c0.4-0.4,0.8-1,1.1-1.9s0.4-2.1,0.4-3.6s-0.1-2.7-0.4-3.5s-0.7-1.5-1.1-1.9
		c-0.5-0.5-1.1-0.8-1.9-0.9c-0.6-0.1-1.7-0.2-3.3-0.2H13.6z"/>
	<path class="st3" d="M34.2,91.1V74.6h-5.9v-3.4h15.9v3.4h-5.9v16.5H34.2z"/>
	<path class="st3" d="M46.7,71.2h7.4c1.7,0,2.9,0.1,3.8,0.4c1.2,0.3,2.2,1,3,1.8s1.5,1.9,1.9,3.2c0.4,1.3,0.7,2.8,0.7,4.7
		c0,1.6-0.2,3-0.6,4.2c-0.5,1.4-1.2,2.6-2.1,3.5c-0.7,0.7-1.6,1.2-2.8,1.6c-0.9,0.3-2.1,0.4-3.6,0.4h-7.6V71.2z M50.8,74.6v13.1h3
		c1.1,0,1.9-0.1,2.4-0.2c0.7-0.2,1.2-0.4,1.6-0.8s0.8-1,1.1-1.9s0.4-2.1,0.4-3.6s-0.1-2.7-0.4-3.5s-0.7-1.5-1.1-1.9
		c-0.5-0.5-1.1-0.8-1.9-0.9c-0.6-0.1-1.7-0.2-3.3-0.2H50.8z"/>
</g>
<g>
	<linearGradient id="SVGID_2_" gradientUnits="userSpaceOnUse" x1="12.7843" y1="34.2695" x2="29.8994" y2="34.2695">
		<stop  offset="0" style="stop-color:#CCDDE7"/>
		<stop  offset="0.265" style="stop-color:#B5CCD8"/>
		<stop  offset="0.798" style="stop-color:#7FA0B1"/>
		<stop  offset="1" style="stop-color:#6A8FA1"/>
	</linearGradient>
	<linearGradient id="SVGID_3_" gradientUnits="userSpaceOnUse" x1="12.0343" y1="34.2695" x2="30.6494" y2="34.2695">
		<stop  offset="0" style="stop-color:#CCDDE7"/>
		<stop  offset="0.265" style="stop-color:#B5CCD8"/>
		<stop  offset="0.798" style="stop-color:#7FA0B1"/>
		<stop  offset="1" style="stop-color:#6A8FA1"/>
	</linearGradient>
	<polygon class="st4" points="29.9,40.8 17,34.3 17,34.2 29.9,27.8 29.9,23.4 12.8,32.5 12.8,36 29.9,45.1 	"/>
	<linearGradient id="SVGID_4_" gradientUnits="userSpaceOnUse" x1="33.8982" y1="29.4596" x2="39.568" y2="29.4596">
		<stop  offset="0" style="stop-color:#CCDDE7"/>
		<stop  offset="0.265" style="stop-color:#B5CCD8"/>
		<stop  offset="0.798" style="stop-color:#7FA0B1"/>
		<stop  offset="1" style="stop-color:#6A8FA1"/>
	</linearGradient>
	<linearGradient id="SVGID_5_" gradientUnits="userSpaceOnUse" x1="33.1061" y1="29.4596" x2="40.3584" y2="29.4596">
		<stop  offset="0" style="stop-color:#CCDDE7"/>
		<stop  offset="0.265" style="stop-color:#B5CCD8"/>
		<stop  offset="0.798" style="stop-color:#7FA0B1"/>
		<stop  offset="1" style="stop-color:#6A8FA1"/>
	</linearGradient>
	<polygon class="st5" points="38.8,37 39.6,22 33.9,22 34.7,37 	"/>
	<linearGradient id="SVGID_6_" gradientUnits="userSpaceOnUse" x1="33.54" y1="42.7113" x2="39.9241" y2="42.7113">
		<stop  offset="0" style="stop-color:#CCDDE7"/>
		<stop  offset="0.265" style="stop-color:#B5CCD8"/>
		<stop  offset="0.798" style="stop-color:#7FA0B1"/>
		<stop  offset="1" style="stop-color:#6A8FA1"/>
	</linearGradient>
	<linearGradient id="SVGID_7_" gradientUnits="userSpaceOnUse" x1="32.79" y1="42.7113" x2="40.6741" y2="42.7113">
		<stop  offset="0" style="stop-color:#CCDDE7"/>
		<stop  offset="0.265" style="stop-color:#B5CCD8"/>
		<stop  offset="0.798" style="stop-color:#7FA0B1"/>
		<stop  offset="1" style="stop-color:#6A8FA1"/>
	</linearGradient>
	<path class="st6" d="M36.8,46.4c1.9,0,3.2-1.6,3.2-3.7c0-2.2-1.3-3.7-3.2-3.7c-1.9,0-3.2,1.5-3.2,3.7
		C33.5,44.8,34.8,46.4,36.8,46.4z"/>
	<linearGradient id="SVGID_8_" gradientUnits="userSpaceOnUse" x1="43.5983" y1="34.2695" x2="60.7157" y2="34.2695">
		<stop  offset="0" style="stop-color:#CCDDE7"/>
		<stop  offset="0.265" style="stop-color:#B5CCD8"/>
		<stop  offset="0.798" style="stop-color:#7FA0B1"/>
		<stop  offset="1" style="stop-color:#6A8FA1"/>
	</linearGradient>
	<linearGradient id="SVGID_9_" gradientUnits="userSpaceOnUse" x1="42.8483" y1="34.2695" x2="61.4657" y2="34.2695">
		<stop  offset="0" style="stop-color:#CCDDE7"/>
		<stop  offset="0.265" style="stop-color:#B5CCD8"/>
		<stop  offset="0.798" style="stop-color:#7FA0B1"/>
		<stop  offset="1" style="stop-color:#6A8FA1"/>
	</linearGradient>
	<polygon class="st7" points="43.6,23.4 43.6,27.8 56.8,34.2 56.8,34.3 43.6,40.8 43.6,45.1 60.7,36.1 60.7,32.4 	"/>
	<linearGradient id="SVGID_10_" gradientUnits="userSpaceOnUse" x1="15.302" y1="52.3943" x2="58.2304" y2="52.3943">
		<stop  offset="0" style="stop-color:#CCDDE7"/>
		<stop  offset="0.265" style="stop-color:#B5CCD8"/>
		<stop  offset="0.798" style="stop-color:#7FA0B1"/>
		<stop  offset="1" style="stop-color:#6A8FA1"/>
	</linearGradient>
	<linearGradient id="SVGID_11_" gradientUnits="userSpaceOnUse" x1="14.552" y1="52.3943" x2="58.9804" y2="52.3943">
		<stop  offset="0" style="stop-color:#CCDDE7"/>
		<stop  offset="0.265" style="stop-color:#B5CCD8"/>
		<stop  offset="0.798" style="stop-color:#7FA0B1"/>
		<stop  offset="1" style="stop-color:#6A8FA1"/>
	</linearGradient>
	<rect x="15.3" y="50.9" class="st8" width="42.9" height="2.9"/>
	<linearGradient id="SVGID_12_" gradientUnits="userSpaceOnUse" x1="15.302" y1="60.6741" x2="58.2304" y2="60.6741">
		<stop  offset="0" style="stop-color:#CCDDE7"/>
		<stop  offset="0.265" style="stop-color:#B5CCD8"/>
		<stop  offset="0.798" style="stop-color:#7FA0B1"/>
		<stop  offset="1" style="stop-color:#6A8FA1"/>
	</linearGradient>
	<linearGradient id="SVGID_13_" gradientUnits="userSpaceOnUse" x1="14.552" y1="60.6741" x2="58.9804" y2="60.6741">
		<stop  offset="0" style="stop-color:#CCDDE7"/>
		<stop  offset="0.265" style="stop-color:#B5CCD8"/>
		<stop  offset="0.798" style="stop-color:#7FA0B1"/>
		<stop  offset="1" style="stop-color:#6A8FA1"/>
	</linearGradient>
	<rect x="15.3" y="59.2" class="st9" width="42.9" height="2.9"/>
</g>
<g>
	
		<linearGradient id="SVGID_14_" gradientUnits="userSpaceOnUse" x1="45.1216" y1="74.2293" x2="58.5748" y2="87.6825" gradientTransform="matrix(1 0 0 -1 0 102)">
		<stop  offset="0" style="stop-color:#FFFFFF"/>
		<stop  offset="0.35" style="stop-color:#FAFBFB"/>
		<stop  offset="0.532" style="stop-color:#EDF1F4"/>
		<stop  offset="0.675" style="stop-color:#DDE5E9"/>
		<stop  offset="0.799" style="stop-color:#C7D3DA"/>
		<stop  offset="0.908" style="stop-color:#ADBDC7"/>
		<stop  offset="1" style="stop-color:#92A5B0"/>
	</linearGradient>
	<path class="st10" d="M45.1,1L72,27.7H45.1V1z"/>
	<path class="st11" d="M45.1,1L72,27.7H45.1V1z"/>
</g>
</svg>
