<?xml version="1.0" encoding="utf-8"?>
<!-- Generator: Adobe Illustrator 21.1.0, SVG Export Plug-In . SVG Version: 6.00 Build 0)  -->
<svg version="1.1" id="Layer_1" xmlns="http://www.w3.org/2000/svg" xmlns:xlink="http://www.w3.org/1999/xlink" x="0px" y="0px"
	 viewBox="0 0 72 100" style="enable-background:new 0 0 72 100;" xml:space="preserve">
<style type="text/css">
	.st0{fill:url(#SVGID_1_);}
	.st1{fill-opacity:0;stroke:#D41C5C;stroke-width:2;}
	.st2{enable-background:new    ;}
	.st3{fill:#FFFFFF;}
	.st4{opacity:0.73;fill:url(#SVGID_2_);enable-background:new    ;}
	.st5{fill-opacity:0;stroke:#F8B6BB;}
	.st6{fill:url(#SVGID_3_);}
	.st7{fill-opacity:0;stroke:#D41C5C;stroke-width:2;stroke-linejoin:bevel;}
</style>
<g>
	
		<linearGradient id="SVGID_1_" gradientUnits="userSpaceOnUse" x1="36" y1="101.0003" x2="36" y2="3.0043" gradientTransform="matrix(1 0 0 -1 0 102)">
		<stop  offset="0" style="stop-color:#F8B0B8"/>
		<stop  offset="0.211" style="stop-color:#F6ACB5"/>
		<stop  offset="0.37" style="stop-color:#F2A3AD"/>
		<stop  offset="0.512" style="stop-color:#ED95A1"/>
		<stop  offset="0.645" style="stop-color:#E78292"/>
		<stop  offset="0.77" style="stop-color:#E06980"/>
		<stop  offset="0.889" style="stop-color:#D7486B"/>
		<stop  offset="1" style="stop-color:#CE0757"/>
	</linearGradient>
	<path class="st0" d="M45.1,1l27.2,26.7V99H-0.2V1H45.1z"/>
	<path class="st1" d="M45.1,1l27.2,26.7V99H-0.2V1H45.1z"/>
</g>
<g class="st2">
	<path class="st3" d="M10.4,91.1V71.2h15v3.4H14.5V79h10.1v3.3H14.5v5.4h11.3v3.3H10.4z"/>
	<path class="st3" d="M29.2,91.1V71.2h6.5c2.5,0,4.1,0.1,4.8,0.3c1.2,0.3,2.1,0.9,2.9,1.9s1.2,2.3,1.2,3.9c0,1.2-0.2,2.2-0.7,3.1
		c-0.5,0.8-1,1.5-1.7,2c-0.7,0.5-1.4,0.8-2.1,0.9c-1,0.2-2.4,0.3-4.2,0.3h-2.7v7.5H29.2z M33.3,74.6v5.6h2.2c1.6,0,2.7-0.1,3.2-0.3
		c0.5-0.2,1-0.5,1.3-1c0.3-0.4,0.5-1,0.5-1.5c0-0.7-0.2-1.3-0.6-1.8c-0.4-0.5-1-0.8-1.6-0.9c-0.5-0.1-1.5-0.1-2.9-0.1H33.3z"/>
	<path class="st3" d="M47,84.6l4-0.4c0.2,1.3,0.7,2.3,1.5,2.9c0.7,0.6,1.7,0.9,3,0.9c1.3,0,2.3-0.3,3-0.8c0.7-0.5,1-1.2,1-1.9
		c0-0.5-0.1-0.9-0.4-1.2c-0.3-0.3-0.8-0.6-1.5-0.9c-0.5-0.2-1.6-0.5-3.3-0.9c-2.2-0.5-3.7-1.2-4.6-2c-1.2-1.1-1.9-2.4-1.9-4
		c0-1,0.3-2,0.9-2.8c0.6-0.9,1.4-1.5,2.5-2c1.1-0.5,2.4-0.7,4-0.7c2.5,0,4.4,0.5,5.7,1.6c1.3,1.1,2,2.5,2,4.4l-4.1,0.2
		c-0.2-1-0.5-1.8-1.1-2.2c-0.6-0.4-1.4-0.7-2.6-0.7c-1.2,0-2.1,0.2-2.8,0.7c-0.4,0.3-0.6,0.7-0.6,1.2c0,0.5,0.2,0.9,0.6,1.2
		c0.5,0.4,1.8,0.9,3.7,1.3s3.4,0.9,4.4,1.4c0.9,0.5,1.7,1.2,2.2,2c0.5,0.9,0.8,1.9,0.8,3.2c0,1.1-0.3,2.2-1,3.2
		c-0.6,1-1.6,1.7-2.7,2.2s-2.6,0.7-4.4,0.7c-2.6,0-4.5-0.6-5.9-1.7C48.1,88.5,47.3,86.8,47,84.6z"/>
</g>
<g>
	
		<linearGradient id="SVGID_2_" gradientUnits="userSpaceOnUse" x1="1729.6891" y1="-415.9561" x2="1753.8641" y2="-415.9561" gradientTransform="matrix(-0.81 -0.586 -0.586 0.81 1202.463 1396.5911)">
		<stop  offset="0" style="stop-color:#EE2868"/>
		<stop  offset="1" style="stop-color:#BC024F"/>
	</linearGradient>
	<path class="st4" d="M22,62.3L17.4,59c0,0,7.7-15.2,4.7-20.8l16.3-12.6c0,0,6.2,1,9.3,6.5l-7,19.1C34.3,50.3,22,62.3,22,62.3z
		 M33.1,42.5c1.3,0.9,3,0.6,3.9-0.6c0.9-1.3,0.6-3-0.6-3.9c-1.3-0.9-3-0.6-3.9,0.6C31.5,39.8,31.8,41.6,33.1,42.5z M33.1,42.5
		L19.8,60.6 M59.1,26.2c-6.2-11.8-19.6-14-19.6-14l-6,8.2c13.4,2.2,19.6,14,19.6,14L59.1,26.2z"/>
	<path class="st5" d="M19.9,60.8l13.4-18.2"/>
</g>
<g>
	
		<linearGradient id="SVGID_3_" gradientUnits="userSpaceOnUse" x1="45.1778" y1="74.1588" x2="58.7716" y2="87.7526" gradientTransform="matrix(1 0 0 -1 0 102)">
		<stop  offset="0" style="stop-color:#FFFEEE"/>
		<stop  offset="0.265" style="stop-color:#FFFAEC"/>
		<stop  offset="0.402" style="stop-color:#FEF2E6"/>
		<stop  offset="0.51" style="stop-color:#FCE7DC"/>
		<stop  offset="0.604" style="stop-color:#FAD7CF"/>
		<stop  offset="0.687" style="stop-color:#F6C3BF"/>
		<stop  offset="0.763" style="stop-color:#F2ABAC"/>
		<stop  offset="0.834" style="stop-color:#EE8F97"/>
		<stop  offset="0.901" style="stop-color:#EA6F82"/>
		<stop  offset="0.962" style="stop-color:#E5446D"/>
		<stop  offset="1" style="stop-color:#E30E60"/>
	</linearGradient>
	<path class="st6" d="M45.1,1l27.2,26.7H45.1V1z"/>
	<path class="st7" d="M45.1,1l27.2,26.7H45.1V1z"/>
</g>
</svg>
