<?xml version="1.0" encoding="utf-8"?>
<!-- Generator: Adobe Illustrator 21.1.0, SVG Export Plug-In . SVG Version: 6.00 Build 0)  -->
<svg version="1.1" id="Layer_1" xmlns="http://www.w3.org/2000/svg"  x="0px" y="0px"
	 viewBox="0 0 72 100" style="enable-background:new 0 0 72 100;" xml:space="preserve">
<style type="text/css">
	.st0{fill:url(#SVGID_1_);}
	.st1{fill-opacity:0;stroke:#7191A1;stroke-width:2;}
	.st2{enable-background:new    ;}
	.st3{fill:#4C6C7B;}
	.st4{fill:url(#SVGID_2_);}
	.st5{fill:url(#SVGID_3_);}
	.st6{fill-opacity:0;stroke:#7191A1;stroke-width:2;stroke-linejoin:bevel;}
</style>
<g>
	
		<linearGradient id="SVGID_1_" gradientUnits="userSpaceOnUse" x1="36.108" y1="3.0033" x2="36.108" y2="101.0009" gradientTransform="matrix(1 0 0 -1 0 102)">
		<stop  offset="0" style="stop-color:#C8D4DB"/>
		<stop  offset="0.139" style="stop-color:#D8E1E6"/>
		<stop  offset="0.359" style="stop-color:#EBF0F3"/>
		<stop  offset="0.617" style="stop-color:#F9FAFB"/>
		<stop  offset="1" style="stop-color:#FFFFFF"/>
	</linearGradient>
	<path class="st0" d="M45.1,1L72,27.7V99H0.2V1H45.1z"/>
	<path class="st1" d="M45.1,1L72,27.7V99H0.2V1H45.1z"/>
</g>
<g class="st2">
	<path class="st3" d="M9.8,91.1V71.2h14.8v3.4H13.9V79h10v3.3h-10v5.4H25v3.3H9.8z"/>
	<path class="st3" d="M26.4,91.1l6.8-10.4l-6.2-9.5h4.7l4,6.4l3.9-6.4h4.7l-6.2,9.6L45,91.1h-4.9l-4.4-6.9l-4.4,6.9H26.4z"/>
	<path class="st3" d="M47.1,91.1V71.2h14.8v3.4H51.1V79h10v3.3h-10v5.4h11.2v3.3H47.1z"/>
</g>
<linearGradient id="SVGID_2_" gradientUnits="userSpaceOnUse" x1="34.962" y1="37.8469" x2="34.962" y2="88.47" gradientTransform="matrix(1 0 0 -1 0 102)">
	<stop  offset="0" style="stop-color:#ADCCDC"/>
	<stop  offset="1" style="stop-color:#4C6C7B"/>
</linearGradient>
<path class="st4" d="M55.1,36.3c-0.1-1-0.3-1.9-0.6-2.9l4.7-2.7l-5-8.6l-4.7,2.7c-1.3-1.4-2.9-2.6-4.6-3.6l1.4-5.1l-9.7-2.7
	l-1.4,5.1c-1,0-1.9,0-2.9,0.1c-1,0.1-1.9,0.3-2.9,0.6l-2.7-4.7l-8.7,4.9l2.7,4.7c-1.4,1.4-2.6,2.9-3.6,4.6l-5.2-1.4L9.4,37l5.2,1.4
	c0,1,0,1.9,0.2,2.9c0.1,1,0.3,1.9,0.6,2.9l-4.7,2.7l5,8.6l4.7-2.7c1.3,1.4,2.9,2.6,4.6,3.6l-1.4,5.1l9.7,2.7l1.4-5.1
	c1,0,1.9,0,2.9-0.1c1-0.1,1.9-0.3,2.9-0.6l2.7,4.7l8.7-4.9l-2.7-4.7c1.4-1.3,2.6-2.9,3.6-4.6l5.2,1.4l2.7-9.6l-5.2-1.4
	C55.3,38.3,55.3,37.3,55.1,36.3z M36.1,47c-4.5,0.6-8.7-2.7-9.3-7.1c-0.6-4.5,2.7-8.6,7.2-9.2c4.5-0.6,8.7,2.7,9.3,7.1
	C43.8,42.3,40.6,46.4,36.1,47z"/>
<g>
	
		<linearGradient id="SVGID_3_" gradientUnits="userSpaceOnUse" x1="45.1216" y1="74.2293" x2="58.5748" y2="87.6825" gradientTransform="matrix(1 0 0 -1 0 102)">
		<stop  offset="0" style="stop-color:#FFFFFF"/>
		<stop  offset="0.35" style="stop-color:#FAFBFB"/>
		<stop  offset="0.532" style="stop-color:#EDF1F4"/>
		<stop  offset="0.675" style="stop-color:#DDE5E9"/>
		<stop  offset="0.799" style="stop-color:#C7D3DA"/>
		<stop  offset="0.908" style="stop-color:#ADBDC7"/>
		<stop  offset="1" style="stop-color:#92A5B0"/>
	</linearGradient>
	<path class="st5" d="M45.1,1L72,27.7H45.1V1z"/>
	<path class="st6" d="M45.1,1L72,27.7H45.1V1z"/>
</g>
</svg>
