<?xml version="1.0" encoding="utf-8"?>
<!-- Generator: Adobe Illustrator 21.1.0, SVG Export Plug-In . SVG Version: 6.00 Build 0)  -->
<svg version="1.1" id="Layer_1" xmlns="http://www.w3.org/2000/svg"  x="0px" y="0px"
	 viewBox="0 0 72 100" style="enable-background:new 0 0 72 100;" xml:space="preserve">
<style type="text/css">
	.st0{fill:url(#SVGID_1_);}
	.st1{fill-opacity:0;stroke:#D41C5C;stroke-width:2;}
	.st2{enable-background:new    ;}
	.st3{fill:#FFFFFF;}
	.st4{fill:url(#SVGID_2_);}
	.st5{fill-opacity:0;stroke:#D41C5C;stroke-width:2;stroke-linejoin:bevel;}
	.st6{fill:url(#SVGID_3_);}
</style>
<g>
	
		<linearGradient id="SVGID_1_" gradientUnits="userSpaceOnUse" x1="36" y1="101.0003" x2="36" y2="3.0043" gradientTransform="matrix(1 0 0 -1 0 102)">
		<stop  offset="0" style="stop-color:#F8B0B8"/>
		<stop  offset="0.211" style="stop-color:#F6ACB5"/>
		<stop  offset="0.37" style="stop-color:#F2A3AD"/>
		<stop  offset="0.512" style="stop-color:#ED95A1"/>
		<stop  offset="0.645" style="stop-color:#E78292"/>
		<stop  offset="0.77" style="stop-color:#E06980"/>
		<stop  offset="0.889" style="stop-color:#D7486B"/>
		<stop  offset="1" style="stop-color:#CE0757"/>
	</linearGradient>
	<path class="st0" d="M45.1,1l27.2,26.7V99H-0.2V1H45.1z"/>
	<path class="st1" d="M45.1,1l27.2,26.7V99H-0.2V1H45.1z"/>
</g>
<g class="st2">
	<path class="st3" d="M11,91.1V71.2h13.8v3.4h-9.8v4.7h8.4v3.4h-8.4v8.4H11z"/>
	<path class="st3" d="M44.9,91.1h-4.4l-1.8-4.5h-8.1l-1.7,4.5h-4.3l7.9-19.8h4.3L44.9,91.1z M37.4,83.2l-2.8-7.4l-2.7,7.4H37.4z"/>
	<path class="st3" d="M45,91.1l6.9-10.4l-6.2-9.5h4.8l4,6.4l4-6.4h4.7l-6.3,9.6l6.9,10.2h-4.9l-4.5-6.9l-4.5,6.9H45z"/>
</g>
<g>
	
		<linearGradient id="SVGID_2_" gradientUnits="userSpaceOnUse" x1="45.1778" y1="74.1588" x2="58.7716" y2="87.7526" gradientTransform="matrix(1 0 0 -1 0 102)">
		<stop  offset="0" style="stop-color:#FFFEEE"/>
		<stop  offset="0.265" style="stop-color:#FFFAEC"/>
		<stop  offset="0.402" style="stop-color:#FEF2E6"/>
		<stop  offset="0.51" style="stop-color:#FCE7DC"/>
		<stop  offset="0.604" style="stop-color:#FAD7CF"/>
		<stop  offset="0.687" style="stop-color:#F6C3BF"/>
		<stop  offset="0.763" style="stop-color:#F2ABAC"/>
		<stop  offset="0.834" style="stop-color:#EE8F97"/>
		<stop  offset="0.901" style="stop-color:#EA6F82"/>
		<stop  offset="0.962" style="stop-color:#E5446D"/>
		<stop  offset="1" style="stop-color:#E30E60"/>
	</linearGradient>
	<path class="st4" d="M45.1,1l27.2,26.7H45.1V1z"/>
	<path class="st5" d="M45.1,1l27.2,26.7H45.1V1z"/>
</g>
<linearGradient id="SVGID_3_" gradientUnits="userSpaceOnUse" x1="57.7185" y1="58.4632" x2="20.5422" y2="31.5677" gradientTransform="matrix(-1 0 0 1 73.572 0)">
	<stop  offset="0" style="stop-color:#EE2868"/>
	<stop  offset="1" style="stop-color:#BC024F"/>
</linearGradient>
<path class="st6" d="M41.7,35.1h-2.4c-0.3,0-0.5-0.2-0.5-0.5v-11H28.5v4.5c0,0.9-0.7,1.6-1.6,1.6h-4.5v4.9c0,0.3-0.2,0.5-0.5,0.5
	h-2.4c-0.3,0-0.5-0.2-0.5-0.5v-7.3l7.2-7.2H40c1.2,0,2.2,1,2.3,2.2v12.3C42.2,34.9,42,35.1,41.7,35.1z M42.2,61.1
	C42.2,61.1,42.2,61.1,42.2,61.1c0,0.5-0.4,0.9-0.9,0.9H20.6c-2.4,0-4.3-1.9-4.3-4.3V39.4c0-0.5,0.4-0.9,0.9-0.9h24.2
	c0.5,0,0.9,0.4,0.9,0.9V61.1L42.2,61.1z M25.2,44.2c0-1-0.8-1.8-1.8-1.8l0,0l0,0c-1,0-1.8,0.8-1.8,1.8l0,0c0,1,0.8,1.8,1.8,1.8l0,0
	l0,0C24.4,46,25.2,45.2,25.2,44.2L25.2,44.2z M25.2,50.2c0-1-0.8-1.8-1.8-1.8l0,0c-1,0-1.8,0.8-1.8,1.8l0,0v0c0,1,0.8,1.8,1.8,1.8
	l0,0h0C24.4,52.1,25.2,51.3,25.2,50.2C25.2,50.3,25.2,50.2,25.2,50.2z M29.4,42.4L29.4,42.4c-1,0-1.8,0.8-1.8,1.8l0,0
	c0,1,0.8,1.8,1.8,1.8l0,0c1,0,1.8-0.8,1.8-1.8C31.2,43.2,30.4,42.4,29.4,42.4z M31.2,50.2L31.2,50.2c0-1-0.8-1.8-1.8-1.8l0,0
	c-1,0-1.8,0.8-1.8,1.8l0,0v0c0,1,0.8,1.8,1.8,1.8l0,0C30.4,52.1,31.2,51.3,31.2,50.2L31.2,50.2z M31.2,56.3c0-1-0.8-1.8-1.8-1.8l0,0
	c-1,0-1.8,0.8-1.8,1.8l0,0v0c0,1,0.8,1.8,1.8,1.8l0,0C30.4,58.1,31.2,57.3,31.2,56.3C31.2,56.3,31.2,56.3,31.2,56.3z M35.4,42.4
	L35.4,42.4c-1,0-1.8,0.8-1.8,1.8l0,0c0,1,0.8,1.8,1.8,1.8l0,0c1,0,1.8-0.8,1.8-1.8S36.4,42.4,35.4,42.4z M37.2,50.2L37.2,50.2
	c0-1-0.8-1.8-1.8-1.8l0,0c0,0,0,0,0,0c-1,0-1.8,0.8-1.8,1.8l0,0l0,0c0,1,0.8,1.8,1.8,1.8l0,0h0C36.4,52.1,37.3,51.3,37.2,50.2
	L37.2,50.2z M37.3,56.3c0-1-0.8-1.8-1.8-1.8l0,0c-1,0-1.8,0.8-1.8,1.8l0,0l0,0c0,1,0.8,1.8,1.8,1.8l0,0
	C36.4,58.1,37.2,57.3,37.3,56.3C37.3,56.3,37.3,56.3,37.3,56.3z M56.7,57.6V38.4c0,0,0,0,0,0c0-3-2.5-5.5-5.5-5.5h-4.6
	c-0.5,0-0.9,0.4-0.9,0.9v27.3c0,0.5,0.4,0.9,0.9,0.9h5.8C54.8,62,56.7,60,56.7,57.6z"/>
</svg>
