<?xml version="1.0" encoding="utf-8"?>
<!-- Generator: Adobe Illustrator 21.1.0, SVG Export Plug-In . SVG Version: 6.00 Build 0)  -->
<svg version="1.1" id="Layer_1" xmlns="http://www.w3.org/2000/svg" xmlns:xlink="http://www.w3.org/1999/xlink" x="0px" y="0px"
	 viewBox="0 0 72 100" style="enable-background:new 0 0 72 100;" xml:space="preserve">
<style type="text/css">
	.st0{fill:url(#SVGID_1_);}
	.st1{fill-opacity:0;stroke:#D10407;stroke-width:2;}
	.st2{enable-background:new    ;}
	.st3{fill:#FFFFFF;}
	.st4{fill:url(#SVGID_2_);}
	.st5{fill:url(#SVGID_3_);}
	.st6{fill-opacity:0;stroke:#D10407;stroke-width:2;stroke-linejoin:bevel;}
</style>
<linearGradient id="SVGID_1_" gradientUnits="userSpaceOnUse" x1="36" y1="101.0003" x2="36" y2="3.0043" gradientTransform="matrix(1 0 0 -1 0 102)">
	<stop  offset="0" style="stop-color:#FFFEEE"/>
	<stop  offset="0.5309" style="stop-color:#F9B1B2"/>
	<stop  offset="1" style="stop-color:#D10407"/>
</linearGradient>
<path class="st0" d="M45.1,1l27.2,26.7V99H-0.2V1H45.1z"/>
<path class="st1" d="M45.1,1l27.2,26.7V99H-0.2V1H45.1z"/>
<g class="st2">
	<path class="st3" d="M12.9,91.1V71.2h13.8v3.4h-9.8v4.7h8.4v3.4h-8.4v8.4H12.9z"/>
	<path class="st3" d="M30.2,91.1V71.4h4.1v16.3h10.1v3.3H30.2z"/>
	<path class="st3" d="M50.3,91.1l-7.2-19.8h4.4l5.1,14.7l4.9-14.7h4.3l-7.2,19.8H50.3z"/>
</g>
<g transform="translate(0,-952.36218)">
	<linearGradient id="SVGID_2_" gradientUnits="userSpaceOnUse" x1="36.625" y1="974.6121" x2="36.625" y2="1015.3622">
		<stop  offset="0.1185" style="stop-color:#F9B1B2"/>
		<stop  offset="1" style="stop-color:#D10407"/>
	</linearGradient>
	<path class="st4" d="M36.6,974.6c-11.3,0-20.4,9.1-20.4,20.4c0,11.3,9.1,20.4,20.4,20.4S57,1006.2,57,995
		C57,983.7,47.9,974.6,36.6,974.6z M40.5,979.4l-3.3,12.3h8.6l-13,18.8l3.3-12.3h-8.6L40.5,979.4z"/>
</g>
<linearGradient id="SVGID_3_" gradientUnits="userSpaceOnUse" x1="45.1778" y1="74.1588" x2="58.7716" y2="87.7526" gradientTransform="matrix(1 0 0 -1 0 102)">
	<stop  offset="0" style="stop-color:#FFFEEE"/>
	<stop  offset="0.6371" style="stop-color:#F9B1B2"/>
	<stop  offset="1" style="stop-color:#D10407"/>
</linearGradient>
<path class="st5" d="M45.1,1l27.2,26.7H45.1V1z"/>
<path class="st6" d="M45.1,1l27.2,26.7H45.1V1z"/>
</svg>
