<?xml version="1.0" encoding="utf-8"?>
<!-- Generator: Adobe Illustrator 21.1.0, SVG Export Plug-In . SVG Version: 6.00 Build 0)  -->
<svg version="1.1" id="Layer_1" xmlns="http://www.w3.org/2000/svg"  x="0px" y="0px"
	 viewBox="0 0 72 100" style="enable-background:new 0 0 72 100;" xml:space="preserve">
<style type="text/css">
	.st0{fill:url(#SVGID_1_);}
	.st1{fill-opacity:0;stroke:#7191A1;stroke-width:2;}
	.st2{fill:url(#SVGID_2_);}
	.st3{fill:url(#SVGID_3_);}
	.st4{fill-opacity:0;stroke:#7191A1;stroke-width:2;stroke-linejoin:bevel;}
	.st5{enable-background:new    ;}
	.st6{fill:#4C6C7B;}
</style>
<g>
	
		<linearGradient id="SVGID_1_" gradientUnits="userSpaceOnUse" x1="36" y1="97" x2="36" y2="-1" gradientTransform="matrix(1 0 0 1 0 2)">
		<stop  offset="0" style="stop-color:#C8D4DB"/>
		<stop  offset="0.139" style="stop-color:#D8E1E6"/>
		<stop  offset="0.359" style="stop-color:#EBF0F3"/>
		<stop  offset="0.617" style="stop-color:#F9FAFB"/>
		<stop  offset="1" style="stop-color:#FFFFFF"/>
	</linearGradient>
	<path class="st0" d="M45,1l27,26.7V99H0V1H45z"/>
	<path class="st1" d="M45,1l27,26.7V99H0V1H45z"/>
</g>
<g transform="translate(0,-1036.3622)">
	<linearGradient id="SVGID_2_" gradientUnits="userSpaceOnUse" x1="36.1937" y1="1096.3267" x2="36.1937" y2="1057.0789">
		<stop  offset="0" style="stop-color:#869BA6"/>
		<stop  offset="0.379" style="stop-color:#8399A4"/>
		<stop  offset="0.576" style="stop-color:#7B929E"/>
		<stop  offset="0.731" style="stop-color:#6D8694"/>
		<stop  offset="0.863" style="stop-color:#5A7785"/>
		<stop  offset="0.981" style="stop-color:#426373"/>
		<stop  offset="0.99" style="stop-color:#416271"/>
	</linearGradient>
	<path class="st2" d="M57.2,1057.1l-19.3,2.6v15.3h19.3V1057.1z M34.4,1060.1l-19.3,2.6v12.3h19.3V1060.1z M15.2,1078.5v12.3
		l19.3,2.6v-14.8H15.2z M37.9,1078.5v15.3l19.3,2.6v-17.9H37.9z"/>
</g>
<g>
	
		<linearGradient id="SVGID_3_" gradientUnits="userSpaceOnUse" x1="45.0368" y1="25.8132" x2="58.5368" y2="12.3132" gradientTransform="matrix(1 0 0 1 0 2)">
		<stop  offset="0" style="stop-color:#FFFFFF"/>
		<stop  offset="0.35" style="stop-color:#FAFBFB"/>
		<stop  offset="0.532" style="stop-color:#EDF1F4"/>
		<stop  offset="0.675" style="stop-color:#DDE5E9"/>
		<stop  offset="0.799" style="stop-color:#C7D3DA"/>
		<stop  offset="0.908" style="stop-color:#ADBDC7"/>
		<stop  offset="1" style="stop-color:#92A5B0"/>
	</linearGradient>
	<path class="st3" d="M45,1l27,26.7H45V1z"/>
	<path class="st4" d="M45,1l27,26.7H45V1z"/>
</g>
<g class="st5">
	<path class="st6" d="M10.6,87.9v-1.8h4.7v4.3c-0.5,0.4-1.1,0.8-2,1.2c-0.9,0.3-1.7,0.5-2.6,0.5c-1.1,0-2.1-0.2-2.9-0.7
		c-0.8-0.5-1.5-1.1-1.9-2c-0.4-0.9-0.6-1.8-0.6-2.9c0-1.1,0.2-2.1,0.7-3c0.5-0.9,1.2-1.5,2.1-2c0.7-0.4,1.5-0.5,2.6-0.5
		c1.3,0,2.4,0.3,3.1,0.8c0.7,0.6,1.2,1.3,1.4,2.3L13,84.5c-0.2-0.5-0.4-0.9-0.9-1.2c-0.4-0.3-0.9-0.5-1.6-0.5
		c-0.9,0-1.7,0.3-2.3,0.9c-0.6,0.6-0.8,1.5-0.8,2.7c0,1.3,0.3,2.2,0.8,2.9c0.6,0.6,1.3,1,2.2,1c0.5,0,0.9-0.1,1.4-0.3
		c0.5-0.2,0.8-0.4,1.2-0.6v-1.4H10.6z"/>
	<path class="st6" d="M27,91.9h-2.4l-0.9-2.4h-4.3l-0.9,2.4h-2.3l4.2-10.7h2.3L27,91.9z M23,87.6l-1.5-4l-1.5,4H23z"/>
	<path class="st6" d="M28.1,81.1h4c0.9,0,1.6,0.1,2,0.2c0.6,0.2,1.2,0.5,1.6,1c0.4,0.5,0.8,1.1,1,1.7c0.2,0.7,0.4,1.5,0.4,2.5
		c0,0.9-0.1,1.6-0.3,2.3c-0.3,0.8-0.7,1.4-1.1,1.9c-0.4,0.4-0.9,0.7-1.5,0.9c-0.5,0.2-1.1,0.2-1.9,0.2h-4.1V81.1z M30.3,83v7.1h1.6
		c0.6,0,1,0,1.3-0.1c0.4-0.1,0.6-0.2,0.9-0.4s0.4-0.6,0.6-1c0.1-0.5,0.2-1.1,0.2-2s-0.1-1.5-0.2-1.9c-0.1-0.4-0.4-0.8-0.6-1
		c-0.3-0.2-0.6-0.4-1-0.5C32.8,83,32.2,83,31.3,83H30.3z"/>
	<path class="st6" d="M44,87.9v-1.8h4.7v4.3c-0.5,0.4-1.1,0.8-2,1.2c-0.9,0.3-1.7,0.5-2.6,0.5c-1.1,0-2.1-0.2-2.9-0.7
		c-0.8-0.5-1.5-1.1-1.9-2c-0.4-0.9-0.6-1.8-0.6-2.9c0-1.1,0.2-2.1,0.7-3c0.5-0.9,1.2-1.5,2.1-2c0.7-0.4,1.5-0.5,2.6-0.5
		c1.3,0,2.4,0.3,3.1,0.8c0.7,0.6,1.2,1.3,1.4,2.3l-2.2,0.4c-0.2-0.5-0.4-0.9-0.9-1.2c-0.4-0.3-0.9-0.5-1.6-0.5
		c-0.9,0-1.7,0.3-2.3,0.9c-0.6,0.6-0.8,1.5-0.8,2.7c0,1.3,0.3,2.2,0.8,2.9c0.6,0.6,1.3,1,2.2,1c0.5,0,0.9-0.1,1.4-0.3
		c0.5-0.2,0.8-0.4,1.2-0.6v-1.4H44z"/>
	<path class="st6" d="M50.6,91.9V81.1h8V83h-5.8v2.4h5.4v1.8h-5.4v2.9h6v1.8H50.6z"/>
	<path class="st6" d="M63.1,91.9V83h-3.2v-1.8h8.5V83h-3.2v8.9H63.1z"/>
</g>
</svg>
