<?xml version="1.0" encoding="utf-8"?>
<!-- Generator: Adobe Illustrator 21.1.0, SVG Export Plug-In . SVG Version: 6.00 Build 0)  -->
<svg version="1.1" id="Layer_1" xmlns="http://www.w3.org/2000/svg" xmlns:xlink="http://www.w3.org/1999/xlink" x="0px" y="0px"
	 viewBox="0 0 72 100" style="enable-background:new 0 0 72 100;" xml:space="preserve">
<style type="text/css">
	.st0{fill:url(#SVGID_1_);}
	.st1{fill-opacity:0;stroke:#7191A1;stroke-width:2;}
	.st2{enable-background:new    ;}
	.st3{fill:#4C6C7B;}
	.st4{fill:url(#SVGID_2_);}
	.st5{fill:url(#SVGID_3_);}
	.st6{fill-opacity:0;stroke:#FFFFFF;}
	.st7{fill:url(#SVGID_4_);}
	.st8{fill-opacity:0;stroke:#7191A1;stroke-width:2;stroke-linejoin:bevel;}
</style>
<linearGradient id="SVGID_1_" gradientUnits="userSpaceOnUse" x1="36.2" y1="3.0143" x2="36.2" y2="101.0005" gradientTransform="matrix(1 0 0 -1 0 102)">
	<stop  offset="0" style="stop-color:#C8D4DB"/>
	<stop  offset="0.139" style="stop-color:#D8E1E6"/>
	<stop  offset="0.359" style="stop-color:#EBF0F3"/>
	<stop  offset="0.617" style="stop-color:#F9FAFB"/>
	<stop  offset="1" style="stop-color:#FFFFFF"/>
</linearGradient>
<path class="st0" d="M45.2,1l27.1,26.7V99H0.1V1H45.2z"/>
<path class="st1" d="M45.2,1l27.1,26.7V99H0.1V1H45.2z"/>
<g class="st2">
	<path class="st3" d="M15.7,82.8v-3.3h8.8v7.9c-0.9,0.8-2.1,1.5-3.7,2.1c-1.6,0.6-3.2,0.9-4.9,0.9c-2.1,0-3.9-0.4-5.5-1.3
		c-1.6-0.9-2.7-2.1-3.5-3.7S5.7,82,5.7,80.1c0-2.1,0.4-3.9,1.3-5.5c0.9-1.6,2.2-2.8,3.9-3.7c1.3-0.7,2.9-1,4.8-1
		c2.5,0,4.4,0.5,5.9,1.5c1.4,1,2.3,2.5,2.7,4.3l-4,0.7c-0.3-1-0.8-1.7-1.6-2.3c-0.8-0.6-1.8-0.8-2.9-0.8c-1.8,0-3.2,0.6-4.2,1.7
		s-1.6,2.8-1.6,4.9c0,2.4,0.5,4.1,1.6,5.3c1.1,1.2,2.5,1.8,4.2,1.8c0.9,0,1.7-0.2,2.6-0.5c0.9-0.3,1.6-0.7,2.2-1.2v-2.5H15.7z"/>
	<path class="st3" d="M28.2,90.1V70.2h14.9v3.4H32.3V78h10.1v3.3H32.3v5.4h11.2v3.3H28.2z"/>
	<path class="st3" d="M46.9,90.1V70.2H53l3.6,13.5l3.6-13.5h6.1v19.8h-3.8V74.5l-4,15.6h-3.9l-4-15.6v15.6H46.9z"/>
</g>
<linearGradient id="SVGID_2_" gradientUnits="userSpaceOnUse" x1="31.7471" y1="69.9349" x2="31.7471" y2="69.9864" gradientTransform="matrix(1 0 0 -1 0 102)">
	<stop  offset="0" style="stop-color:#ADCCDC"/>
	<stop  offset="1" style="stop-color:#4C6C7B"/>
</linearGradient>
<path class="st4" d="M31.8,32C31.7,32.1,31.7,32.1,31.8,32"/>
<g>
	
		<linearGradient id="SVGID_3_" gradientUnits="userSpaceOnUse" x1="18" y1="60.5" x2="54" y2="60.5" gradientTransform="matrix(1 0 0 -1 0 102)">
		<stop  offset="0" style="stop-color:#ADCCDC"/>
		<stop  offset="1" style="stop-color:#4C6C7B"/>
	</linearGradient>
	<path class="st5" d="M54,23.5v36l-9-27L54,23.5z M18,59.5h36l-27-9L18,59.5z M27,50.5l27,9l-18-18L27,50.5z M36,41.5l18,18l-9-27
		L36,41.5z M18,50.5v9l9-9H18z M36,41.5h-9v9L36,41.5z M45,32.5h-9v9L45,32.5z M54,23.5h-9v9L54,23.5z M27,41.5l-9,9h9V41.5z
		 M36,32.5l-9,9h9V32.5z M45,23.5l-9,9h9V23.5z"/>
	<path class="st6" d="M54,23.5v36l-9-27L54,23.5z M18,59.5h36l-27-9L18,59.5z M27,50.5l27,9l-18-18L27,50.5z M36,41.5l18,18l-9-27
		L36,41.5z M18,50.5v9l9-9H18z M36,41.5h-9v9L36,41.5z M45,32.5h-9v9L45,32.5z M54,23.5h-9v9L54,23.5z M27,41.5l-9,9h9V41.5z
		 M36,32.5l-9,9h9V32.5z M45,23.5l-9,9h9V23.5z"/>
</g>
<linearGradient id="SVGID_4_" gradientUnits="userSpaceOnUse" x1="45.3238" y1="74.1844" x2="58.8707" y2="87.7313" gradientTransform="matrix(1 0 0 -1 0 102)">
	<stop  offset="0" style="stop-color:#FFFFFF"/>
	<stop  offset="0.35" style="stop-color:#FAFBFB"/>
	<stop  offset="0.532" style="stop-color:#EDF1F4"/>
	<stop  offset="0.675" style="stop-color:#DDE5E9"/>
	<stop  offset="0.799" style="stop-color:#C7D3DA"/>
	<stop  offset="0.908" style="stop-color:#ADBDC7"/>
	<stop  offset="1" style="stop-color:#92A5B0"/>
</linearGradient>
<path class="st7" d="M45.2,1l27.1,26.7H45.2V1z"/>
<path class="st8" d="M45.2,1l27.1,26.7H45.2V1z"/>
</svg>
