<?xml version="1.0" encoding="utf-8"?>
<!-- Generator: Adobe Illustrator 21.1.0, SVG Export Plug-In . SVG Version: 6.00 Build 0)  -->
<svg version="1.1" id="Layer_1" xmlns="http://www.w3.org/2000/svg" xmlns:xlink="http://www.w3.org/1999/xlink" x="0px" y="0px"
	 viewBox="0 0 72 100" style="enable-background:new 0 0 72 100;" xml:space="preserve">
<style type="text/css">
	.st0{opacity:0.99;}
	.st1{fill:url(#SVGID_1_);}
	.st2{fill-opacity:0;stroke:#006E6C;stroke-width:2;}
	.st3{enable-background:new    ;}
	.st4{fill:#FFFFFF;}
	.st5{fill:url(#SVGID_2_);}
	.st6{fill-opacity:0;stroke:#006E6C;stroke-width:2;stroke-linejoin:bevel;}
	.st7{fill:url(#SVGID_3_);}
</style>
<g class="st0">
	
		<linearGradient id="SVGID_1_" gradientUnits="userSpaceOnUse" x1="36.2" y1="3.0053" x2="36.2" y2="101.0001" gradientTransform="matrix(1 0 0 -1 0 102)">
		<stop  offset="0" style="stop-color:#006B69"/>
		<stop  offset="0.124" style="stop-color:#00807F"/>
		<stop  offset="0.262" style="stop-color:#009393"/>
		<stop  offset="0.41" style="stop-color:#00A3A3"/>
		<stop  offset="0.571" style="stop-color:#00B0AF"/>
		<stop  offset="0.752" style="stop-color:#08B8B7"/>
		<stop  offset="1" style="stop-color:#14BBBB"/>
	</linearGradient>
	<path class="st1" d="M45.2,1l26.9,26.7V99H0.3V1H45.2z"/>
	<path class="st2" d="M45.2,1l26.9,26.7V99H0.3V1H45.2z"/>
</g>
<g class="st3">
	<path class="st4" d="M13.3,91.1V71.2h4v19.8H13.3z"/>
	<path class="st4" d="M34,83.8l3.9,1.2c-0.6,2.2-1.6,3.8-3,4.8c-1.4,1.1-3.2,1.6-5.3,1.6c-2.7,0-4.8-0.9-6.5-2.7s-2.6-4.3-2.6-7.4
		c0-3.3,0.9-5.9,2.6-7.7s4-2.7,6.8-2.7c2.4,0,4.4,0.7,6,2.2c0.9,0.8,1.6,2.1,2,3.7l-4,0.9c-0.2-1-0.7-1.8-1.5-2.4
		c-0.7-0.6-1.7-0.9-2.7-0.9c-1.5,0-2.7,0.5-3.6,1.6s-1.4,2.8-1.4,5.1c0,2.5,0.5,4.3,1.4,5.4s2.1,1.6,3.5,1.6c1.1,0,2-0.3,2.8-1
		S33.6,85.2,34,83.8z"/>
	<path class="st4" d="M40.5,81.3c0-2,0.3-3.7,0.9-5.1c0.5-1,1.1-1.9,1.9-2.7c0.8-0.8,1.6-1.4,2.6-1.8c1.2-0.5,2.7-0.8,4.3-0.8
		c2.9,0,5.3,0.9,7.1,2.7c1.8,1.8,2.6,4.3,2.6,7.6c0,3.2-0.9,5.7-2.6,7.5c-1.8,1.8-4.1,2.7-7,2.7c-3,0-5.3-0.9-7.1-2.7
		S40.5,84.4,40.5,81.3z M44.7,81.1c0,2.2,0.5,4,1.6,5.1c1,1.2,2.4,1.7,4,1.7s2.9-0.6,4-1.7c1-1.2,1.5-2.9,1.5-5.2
		c0-2.3-0.5-4-1.5-5.1c-1-1.1-2.3-1.7-4-1.7s-3,0.6-4,1.7C45.2,77.1,44.7,78.9,44.7,81.1z"/>
</g>
<g class="st0">
	
		<linearGradient id="SVGID_2_" gradientUnits="userSpaceOnUse" x1="45.2139" y1="74.2291" x2="58.667" y2="87.6823" gradientTransform="matrix(1 0 0 -1 0 102)">
		<stop  offset="0" style="stop-color:#D6EDE8"/>
		<stop  offset="0.297" style="stop-color:#D3EBE6"/>
		<stop  offset="0.44" style="stop-color:#C7E3DF"/>
		<stop  offset="0.551" style="stop-color:#B7D8D5"/>
		<stop  offset="0.645" style="stop-color:#A0CBC9"/>
		<stop  offset="0.729" style="stop-color:#84BAB9"/>
		<stop  offset="0.804" style="stop-color:#62A7A7"/>
		<stop  offset="0.874" style="stop-color:#349394"/>
		<stop  offset="0.938" style="stop-color:#007F7F"/>
		<stop  offset="0.998" style="stop-color:#006B6A"/>
		<stop  offset="1" style="stop-color:#006B69"/>
	</linearGradient>
	<path class="st5" d="M45.2,1l26.9,26.7H45.2V1z"/>
	<path class="st6" d="M45.2,1l26.9,26.7H45.2V1z"/>
</g>
<linearGradient id="SVGID_3_" gradientUnits="userSpaceOnUse" x1="36.1184" y1="63.1584" x2="36.1184" y2="15.82">
	<stop  offset="5.000000e-03" style="stop-color:#008281"/>
	<stop  offset="0.343" style="stop-color:#006A69"/>
	<stop  offset="1" style="stop-color:#003836"/>
</linearGradient>
<path class="st7" d="M35.8,16.2c0.2-0.5,0.4-0.5,0.6,0l5.4,16.7c0.2,0.5,0.6,0.9,1.2,0.9h17.6c0.5,0,0.6,0.2,0.2,0.5L46.5,44.6
	c-0.4,0.3-0.6,0.9-0.4,1.4l5.4,16.7c0.2,0.5-0.1,0.6-0.4,0.3L36.8,52.7c-0.4-0.3-1-0.3-1.5,0L21.2,63c-0.4,0.3-0.6,0.1-0.4-0.3
	L26.2,46c0.1-0.5,0-1.1-0.4-1.4L11.5,34.3c-0.4-0.3-0.3-0.5,0.2-0.5h17.6c0.5,0,1-0.4,1.2-0.9L35.8,16.2z"/>
</svg>
