<?xml version="1.0" encoding="utf-8"?>
<!-- Generator: Adobe Illustrator 21.1.0, SVG Export Plug-In . SVG Version: 6.00 Build 0)  -->
<svg version="1.1" id="Layer_1" xmlns="http://www.w3.org/2000/svg" xmlns:xlink="http://www.w3.org/1999/xlink" x="0px" y="0px"
	 viewBox="0 0 72 100" style="enable-background:new 0 0 72 100;" xml:space="preserve">
<style type="text/css">
	.st0{fill:url(#SVGID_1_);}
	.st1{fill-opacity:0;stroke:#7191A1;stroke-width:2;}
	.st2{enable-background:new    ;}
	.st3{fill:#4C6C7B;}
	.st4{fill:url(#SVGID_2_);}
	.st5{fill:url(#SVGID_3_);}
	.st6{fill-opacity:0;stroke:#7191A1;stroke-width:2;stroke-linejoin:bevel;}
	.st7{fill:url(#SVGID_4_);}
</style>
<linearGradient id="SVGID_1_" gradientUnits="userSpaceOnUse" x1="36.2" y1="3.0143" x2="36.2" y2="101.0005" gradientTransform="matrix(1 0 0 -1 0 102)">
	<stop  offset="0" style="stop-color:#C8D4DB"/>
	<stop  offset="0.139" style="stop-color:#D8E1E6"/>
	<stop  offset="0.359" style="stop-color:#EBF0F3"/>
	<stop  offset="0.617" style="stop-color:#F9FAFB"/>
	<stop  offset="1" style="stop-color:#FFFFFF"/>
</linearGradient>
<path class="st0" d="M45.2,1l27.1,26.7V99H0.1V1H45.2z"/>
<path class="st1" d="M45.2,1l27.1,26.7V99H0.1V1H45.2z"/>
<g class="st2">
	<path class="st3" d="M15.8,90.1V70.2h4.1v19.8H15.8z"/>
	<path class="st3" d="M23.7,70.2h7.4c1.7,0,2.9,0.1,3.8,0.4c1.2,0.3,2.2,1,3,1.8s1.5,1.9,1.9,3.2c0.4,1.3,0.7,2.8,0.7,4.7
		c0,1.6-0.2,3-0.6,4.2c-0.5,1.4-1.2,2.6-2.2,3.5c-0.7,0.7-1.7,1.2-2.9,1.6c-0.9,0.3-2.1,0.4-3.6,0.4h-7.6V70.2z M27.8,73.6v13.1h3
		c1.1,0,2-0.1,2.5-0.2c0.7-0.2,1.2-0.4,1.6-0.8c0.4-0.4,0.8-1,1.1-1.9c0.3-0.9,0.4-2.1,0.4-3.6c0-1.5-0.1-2.7-0.4-3.5
		c-0.3-0.8-0.7-1.5-1.2-1.9c-0.5-0.5-1.1-0.8-1.9-0.9c-0.6-0.1-1.7-0.2-3.3-0.2H27.8z"/>
	<path class="st3" d="M42,90.1l6.9-10.4l-6.2-9.5h4.7l4,6.4l4-6.4H60l-6.3,9.6l6.9,10.2h-4.9l-4.5-6.9l-4.5,6.9H42z"/>
</g>
<linearGradient id="SVGID_2_" gradientUnits="userSpaceOnUse" x1="31.7471" y1="69.9349" x2="31.7471" y2="69.9864" gradientTransform="matrix(1 0 0 -1 0 102)">
	<stop  offset="0" style="stop-color:#ADCCDC"/>
	<stop  offset="1" style="stop-color:#4C6C7B"/>
</linearGradient>
<path class="st4" d="M31.8,32C31.7,32.1,31.7,32.1,31.8,32"/>
<linearGradient id="SVGID_3_" gradientUnits="userSpaceOnUse" x1="45.3238" y1="74.1844" x2="58.8707" y2="87.7313" gradientTransform="matrix(1 0 0 -1 0 102)">
	<stop  offset="0" style="stop-color:#FFFFFF"/>
	<stop  offset="0.35" style="stop-color:#FAFBFB"/>
	<stop  offset="0.532" style="stop-color:#EDF1F4"/>
	<stop  offset="0.675" style="stop-color:#DDE5E9"/>
	<stop  offset="0.799" style="stop-color:#C7D3DA"/>
	<stop  offset="0.908" style="stop-color:#ADBDC7"/>
	<stop  offset="1" style="stop-color:#92A5B0"/>
</linearGradient>
<path class="st5" d="M45.2,1l27.1,26.7H45.2V1z"/>
<path class="st6" d="M45.2,1l27.1,26.7H45.2V1z"/>
<linearGradient id="SVGID_4_" gradientUnits="userSpaceOnUse" x1="35.5252" y1="61" x2="35.5252" y2="16">
	<stop  offset="0" style="stop-color:#ADCCDC"/>
	<stop  offset="1" style="stop-color:#4C6C7B"/>
</linearGradient>
<path class="st7" d="M52.7,43.8c0,2.8-2.1,12.5-2.1,12.5C50.1,58.5,48,61,45.3,61H32.6c-1.9,0-3.6-1.1-4.3-2.8
	c0,0-6.2-11.5-8.8-15.7c-1.7-2.9-1.7-2.9,0.5-4.1c0.4-0.2,0.8-0.3,1.2-0.3c0.9,0,1.5,0.5,2.1,1.2l3.8,4.4l1.2,1.5v-1.9V18.4
	c0-1.3,1.2-2.4,2.6-2.4c1.3,0,2.4,1.1,2.4,2.4l0.4,17.1H35l0.2-3c0-1.3,1.1-2.4,2.4-2.4c1.3,0,2.4,1.1,2.4,2.4l0.2,3.6h1.1l0.2-2.4
	c0-1.3,1.1-2.4,2.4-2.4c1.3,0,2.4,1.1,2.4,2.5l0.2,2.4l0,0.6h0.9l0.2-1.2l0,0v0c0-1.3,1.1-2.4,2.4-2.4c1.3,0,2.4,1.1,2.4,2.4
	C52.7,35.6,52.7,41,52.7,43.8z"/>
</svg>
