<?xml version="1.0" encoding="utf-8"?>
<!-- Generator: Adobe Illustrator 21.1.0, SVG Export Plug-In . SVG Version: 6.00 Build 0)  -->
<svg version="1.1" id="Layer_2" xmlns="http://www.w3.org/2000/svg" xmlns:xlink="http://www.w3.org/1999/xlink" x="0px" y="0px"
	 viewBox="0 0 72 100" style="enable-background:new 0 0 72 100;" xml:space="preserve">
<style type="text/css">
	.st0{fill:url(#path1042_1_);}
	.st1{fill-opacity:0;stroke:#0099DB;stroke-width:2;}
	.st2{fill:url(#path1046_1_);}
	.st3{fill-opacity:0;stroke:#0099DB;stroke-width:2;stroke-linejoin:bevel;}
	.st4{fill:url(#path1050_1_);}
	.st5{fill:url(#path1052_1_);}
	.st6{fill:url(#path1054_1_);}
	.st7{fill:url(#path1056_1_);}
	.st8{fill:url(#path1058_1_);}
	.st9{fill:url(#path1060_1_);}
	.st10{fill:url(#path1062_1_);}
</style>
<g>
	
		<linearGradient id="path1042_1_" gradientUnits="userSpaceOnUse" x1="-63" y1="145.111" x2="-63" y2="243.111" gradientTransform="matrix(1 0 0 -1 99 244.111)">
		<stop  offset="0" style="stop-color:#4BA0D8"/>
		<stop  offset="1" style="stop-color:#FEFEFE"/>
	</linearGradient>
	<path id="path1042" class="st0" d="M0,1v98h72V27.7L45,1H0z"/>
	<path id="path1044" class="st1" d="M45,1l27,26.7V99H0V1H45z"/>
	
		<linearGradient id="path1046_1_" gradientUnits="userSpaceOnUse" x1="-41.2508" y1="228.9966" x2="-47.0058" y2="223.2415" gradientTransform="matrix(1 0 0 -1 99 244.111)">
		<stop  offset="0" style="stop-color:#0085C9"/>
		<stop  offset="1" style="stop-color:#DCE9F7"/>
	</linearGradient>
	<path id="path1046" class="st2" d="M45,27.7h27L45,1V27.7z"/>
	<path id="path1048" class="st3" d="M45,1l27,26.7H45V1z"/>
	
		<linearGradient id="path1050_1_" gradientUnits="userSpaceOnUse" x1="-76.5" y1="207.4746" x2="-76.5" y2="234.2019" gradientTransform="matrix(1 0 0 -1 99 244.111)">
		<stop  offset="0" style="stop-color:#E6EBF6"/>
		<stop  offset="5.000000e-03" style="stop-color:#E6EBF6"/>
		<stop  offset="1" style="stop-color:#00AFEE"/>
	</linearGradient>
	<path id="path1050" class="st4" d="M9,36.6h27V9.9H9V36.6z"/>
	
		<linearGradient id="path1052_1_" gradientUnits="userSpaceOnUse" x1="-74.935" y1="207.4746" x2="-74.935" y2="231.3837" gradientTransform="matrix(1 0 0 -1 99 244.111)">
		<stop  offset="0" style="stop-color:#0096D8"/>
		<stop  offset="5.000000e-03" style="stop-color:#0096D8"/>
		<stop  offset="1" style="stop-color:#005F8E"/>
	</linearGradient>
	<path id="path1052" class="st5" d="M18.4,15.5c-4.3-2.3-6.4,1.7-6.4,1.7l0,0l4.4,0.3c-5,1.5-3.7,6.4-3.7,6.4l0,0l4.4-4
		c-1,2.2,1.2,3.8,1.2,3.8l0,0l1.3-5.4c0,0,4.7,5.3,6.1,10.7l0,0c-1.9,0.9-4.7,2.5-7,2.8l0,0c-3.1,0.4-6.8,2.5-6.8,2.5l0,0v2.5h24
		l0.1-6.5L34,29.2c-2-0.2-4.5-0.9-6-1l0,0c-1.8-2.9-4.8-7.5-7.3-10l0,0l6.9,0.4c-1.9-4.4-6.6-2.8-6.6-2.8l0,0l3.2-2.7
		c-0.7-0.3-1.3-0.4-1.9-0.4l0,0C19.6,12.7,18.4,15.5,18.4,15.5"/>
	
		<linearGradient id="path1054_1_" gradientUnits="userSpaceOnUse" x1="-77.5134" y1="211.0517" x2="-48.4866" y2="182.0238" gradientTransform="matrix(1 0 0 -1 99 244.111)">
		<stop  offset="0" style="stop-color:#0095D6"/>
		<stop  offset="1" style="stop-color:#83BEE7"/>
	</linearGradient>
	<path id="path1054" class="st6" d="M9,49.6h54v-4.1H9V49.6z"/>
	
		<linearGradient id="path1056_1_" gradientUnits="userSpaceOnUse" x1="-77.5142" y1="200.5258" x2="-48.4858" y2="171.4975" gradientTransform="matrix(1 0 0 -1 99 244.111)">
		<stop  offset="0" style="stop-color:#0095D6"/>
		<stop  offset="1" style="stop-color:#83BEE7"/>
	</linearGradient>
	<path id="path1056" class="st7" d="M9,60.1h54v-4.1H9V60.1z"/>
	
		<linearGradient id="path1058_1_" gradientUnits="userSpaceOnUse" x1="-77.5139" y1="189.9985" x2="-48.4861" y2="160.9707" gradientTransform="matrix(1 0 0 -1 99 244.111)">
		<stop  offset="0" style="stop-color:#0095D6"/>
		<stop  offset="1" style="stop-color:#83BEE7"/>
	</linearGradient>
	<path id="path1058" class="st8" d="M9,70.7h54v-4.1H9V70.7z"/>
	
		<linearGradient id="path1060_1_" gradientUnits="userSpaceOnUse" x1="-77.5137" y1="179.4716" x2="-48.4863" y2="150.4433" gradientTransform="matrix(1 0 0 -1 99 244.111)">
		<stop  offset="0" style="stop-color:#0093D6"/>
		<stop  offset="1" style="stop-color:#66B4E3"/>
	</linearGradient>
	<path id="path1060" class="st9" d="M9,81.2h54v-4.1H9V81.2z"/>
	
		<linearGradient id="path1062_1_" gradientUnits="userSpaceOnUse" x1="-77.5134" y1="168.9453" x2="-48.4866" y2="139.9174" gradientTransform="matrix(1 0 0 -1 99 244.111)">
		<stop  offset="0" style="stop-color:#0087CB"/>
		<stop  offset="1" style="stop-color:#4AA6DC"/>
	</linearGradient>
	<path id="path1062" class="st10" d="M9,91.7h54v-4.1H9V91.7z"/>
</g>
</svg>
