<?xml version="1.0" encoding="utf-8"?>
<!-- Generator: Adobe Illustrator 21.1.0, SVG Export Plug-In . SVG Version: 6.00 Build 0)  -->
<svg version="1.1" id="Layer_1" xmlns="http://www.w3.org/2000/svg"  x="0px" y="0px"
	 viewBox="0 0 72 100" style="enable-background:new 0 0 72 100;" xml:space="preserve">
<style type="text/css">
	.st0{fill:url(#SVGID_1_);}
	.st1{fill-opacity:0;stroke:#7191A1;stroke-width:2;}
	.st2{fill:url(#SVGID_2_);}
	.st3{fill:url(#SVGID_3_);}
	.st4{fill:url(#SVGID_4_);}
	.st5{fill:url(#SVGID_5_);}
	.st6{fill-opacity:0;stroke:#7191A1;stroke-width:2;stroke-linejoin:bevel;}
	.st7{enable-background:new    ;}
	.st8{fill:#4C6C7B;}
</style>
<g>
	
		<linearGradient id="SVGID_1_" gradientUnits="userSpaceOnUse" x1="36" y1="97" x2="36" y2="-1" gradientTransform="matrix(1 0 0 1 0 2)">
		<stop  offset="0" style="stop-color:#C8D4DB"/>
		<stop  offset="0.139" style="stop-color:#D8E1E6"/>
		<stop  offset="0.359" style="stop-color:#EBF0F3"/>
		<stop  offset="0.617" style="stop-color:#F9FAFB"/>
		<stop  offset="1" style="stop-color:#FFFFFF"/>
	</linearGradient>
	<path class="st0" d="M45,1l27,26.7V99H0V1H45z"/>
	<path class="st1" d="M45,1l27,26.7V99H0V1H45z"/>
</g>
<g>
	<linearGradient id="SVGID_2_" gradientUnits="userSpaceOnUse" x1="36.2" y1="61.7167" x2="36.2" y2="20.7167">
		<stop  offset="0" style="stop-color:#869BA6"/>
		<stop  offset="0.379" style="stop-color:#8399A4"/>
		<stop  offset="0.576" style="stop-color:#7B929E"/>
		<stop  offset="0.731" style="stop-color:#6D8694"/>
		<stop  offset="0.863" style="stop-color:#5A7785"/>
		<stop  offset="0.981" style="stop-color:#426373"/>
		<stop  offset="0.99" style="stop-color:#416271"/>
	</linearGradient>
	<path class="st2" d="M42,35.4c0-2.5-1.5-4.5-3.7-5.4v-7.3c0-1.2-0.9-2.1-2.1-2.1s-2.1,0.9-2.1,2.1v7.3c-2.2,0.8-3.7,2.9-3.7,5.4
		c0,2.5,1.5,4.6,3.7,5.4c0,0.1-0.1,0.3-0.1,0.4v18.4c0,1.2,0.9,2.1,2.1,2.1s2.1-0.9,2.1-2.1V41.2c0-0.2,0-0.3-0.1-0.4
		C40.5,40,42,37.9,42,35.4z M36.2,37c-0.9,0-1.6-0.7-1.6-1.6s0.7-1.6,1.6-1.6s1.6,0.7,1.6,1.6S37.1,37,36.2,37z"/>
	<linearGradient id="SVGID_3_" gradientUnits="userSpaceOnUse" x1="50.9179" y1="61.7167" x2="50.9179" y2="20.7167">
		<stop  offset="0" style="stop-color:#869BA6"/>
		<stop  offset="0.379" style="stop-color:#8399A4"/>
		<stop  offset="0.576" style="stop-color:#7B929E"/>
		<stop  offset="0.731" style="stop-color:#6D8694"/>
		<stop  offset="0.863" style="stop-color:#5A7785"/>
		<stop  offset="0.981" style="stop-color:#426373"/>
		<stop  offset="0.99" style="stop-color:#416271"/>
	</linearGradient>
	<path class="st3" d="M53,22.8c0-1.2-0.9-2.1-2.1-2.1c-1.2,0-2.1,0.9-2.1,2.1v17.2c-2.2,0.8-3.7,2.9-3.7,5.4c0,2.5,1.5,4.6,3.7,5.4
		c0,0.1-0.1,0.3-0.1,0.4v8.4c0,1.2,0.9,2.1,2.1,2.1c1.2,0,2.1-0.9,2.1-2.1v-8.4c0-0.2,0-0.3-0.1-0.4c2.2-0.8,3.7-2.9,3.7-5.4
		c0-2.5-1.5-4.5-3.7-5.4V22.8z M50.9,47c-0.9,0-1.6-0.7-1.6-1.6c0-0.9,0.7-1.6,1.6-1.6s1.6,0.7,1.6,1.6C52.5,46.3,51.8,47,50.9,47z"
		/>
	<linearGradient id="SVGID_4_" gradientUnits="userSpaceOnUse" x1="21.4821" y1="61.7167" x2="21.4821" y2="20.7167">
		<stop  offset="0" style="stop-color:#869BA6"/>
		<stop  offset="0.379" style="stop-color:#8399A4"/>
		<stop  offset="0.576" style="stop-color:#7B929E"/>
		<stop  offset="0.731" style="stop-color:#6D8694"/>
		<stop  offset="0.863" style="stop-color:#5A7785"/>
		<stop  offset="0.981" style="stop-color:#426373"/>
		<stop  offset="0.99" style="stop-color:#416271"/>
	</linearGradient>
	<path class="st4" d="M19.4,59.6c0,1.2,0.9,2.1,2.1,2.1c1.2,0,2.1-0.9,2.1-2.1v-8.4c0-0.2,0-0.3-0.1-0.4c2.2-0.8,3.7-2.9,3.7-5.4
		c0-2.5-1.5-4.5-3.7-5.4V22.8c0-1.2-0.9-2.1-2.1-2.1c-1.2,0-2.1,0.9-2.1,2.1v17.2c-2.2,0.8-3.7,2.9-3.7,5.4c0,2.5,1.5,4.6,3.7,5.4
		c0,0.1-0.1,0.3-0.1,0.4V59.6z M21.5,43.8c0.9,0,1.6,0.7,1.6,1.6c0,0.9-0.7,1.6-1.6,1.6c-0.9,0-1.6-0.7-1.6-1.6
		C19.9,44.5,20.6,43.8,21.5,43.8z"/>
</g>
<g>
	
		<linearGradient id="SVGID_5_" gradientUnits="userSpaceOnUse" x1="45.0368" y1="25.8132" x2="58.5368" y2="12.3132" gradientTransform="matrix(1 0 0 1 0 2)">
		<stop  offset="0" style="stop-color:#FFFFFF"/>
		<stop  offset="0.35" style="stop-color:#FAFBFB"/>
		<stop  offset="0.532" style="stop-color:#EDF1F4"/>
		<stop  offset="0.675" style="stop-color:#DDE5E9"/>
		<stop  offset="0.799" style="stop-color:#C7D3DA"/>
		<stop  offset="0.908" style="stop-color:#ADBDC7"/>
		<stop  offset="1" style="stop-color:#92A5B0"/>
	</linearGradient>
	<path class="st5" d="M45,1l27,26.7H45V1z"/>
	<path class="st6" d="M45,1l27,26.7H45V1z"/>
</g>
<g class="st7">
	<path class="st8" d="M20.7,91.9v-20h4v20H20.7z"/>
	<path class="st8" d="M28.6,91.9v-20h3.9l8.2,13.4V71.8h3.8v20h-4.1l-8.1-13.1v13.1H28.6z"/>
	<path class="st8" d="M48.7,91.9v-20h4v20H48.7z"/>
</g>
</svg>
