<?xml version="1.0" encoding="utf-8"?>
<!-- Generator: Adobe Illustrator 21.1.0, SVG Export Plug-In . SVG Version: 6.00 Build 0)  -->
<svg version="1.1" id="Layer_1" xmlns="http://www.w3.org/2000/svg" xmlns:xlink="http://www.w3.org/1999/xlink" x="0px" y="0px"
	 viewBox="0 0 72 100" style="enable-background:new 0 0 72 100;" xml:space="preserve">
<style type="text/css">
	.st0{fill:url(#SVGID_1_);}
	.st1{fill-opacity:0;stroke:#7191A1;stroke-width:2;}
	.st2{enable-background:new    ;}
	.st3{fill:#4C6C7B;}
	.st4{fill:url(#SVGID_2_);}
	.st5{fill:url(#SVGID_3_);}
	.st6{fill-opacity:0;stroke:#7191A1;stroke-width:2;stroke-linejoin:bevel;}
</style>
<g>
	
		<linearGradient id="SVGID_1_" gradientUnits="userSpaceOnUse" x1="36" y1="3.125" x2="36" y2="100.875" gradientTransform="matrix(1 0 0 -1 0 102)">
		<stop  offset="0" style="stop-color:#C8D4DB"/>
		<stop  offset="0.139" style="stop-color:#D8E1E6"/>
		<stop  offset="0.359" style="stop-color:#EBF0F3"/>
		<stop  offset="0.617" style="stop-color:#F9FAFB"/>
		<stop  offset="1" style="stop-color:#FFFFFF"/>
	</linearGradient>
	<path class="st0" d="M45,1.1l27,26.7v71.1H0V1.1H45z"/>
	<path class="st1" d="M45,1.1l27,26.7v71.1H0V1.1H45z"/>
</g>
<g class="st2">
	<path class="st3" d="M14.8,74.4H18v9.8c0,1.3-0.1,2.3-0.3,3c-0.3,0.9-0.9,1.6-1.7,2.2c-0.8,0.5-1.9,0.8-3.2,0.8
		c-1.6,0-2.8-0.4-3.6-1.3s-1.3-2.1-1.3-3.8l3-0.3c0,0.9,0.2,1.5,0.4,1.9c0.3,0.6,0.9,0.8,1.6,0.8c0.7,0,1.2-0.2,1.5-0.6
		c0.3-0.4,0.4-1.2,0.4-2.5V74.4z"/>
	<path class="st3" d="M35.6,90h-3.5l-1.4-3.5h-6.3L23.1,90h-3.4l6.1-15.5h3.4L35.6,90z M29.7,83.8l-2.2-5.8l-2.1,5.8H29.7z"/>
	<path class="st3" d="M39.6,90L34,74.4h3.4l4,11.5l3.9-11.5h3.4L43,90H39.6z"/>
	<path class="st3" d="M62.9,90h-3.5L58,86.4h-6.3L50.4,90h-3.4l6.1-15.5h3.4L62.9,90z M57,83.8l-2.2-5.8l-2.1,5.8H57z"/>
</g>
<linearGradient id="SVGID_2_" gradientUnits="userSpaceOnUse" x1="34.9107" y1="37.8105" x2="34.9107" y2="88.05" gradientTransform="matrix(1 0 0 -1 0 102)">
	<stop  offset="0" style="stop-color:#ADCCDC"/>
	<stop  offset="1" style="stop-color:#4C6C7B"/>
</linearGradient>
<path class="st4" d="M48.3,41.2c3-0.9,5.9,0.9,5.6,3.7c-0.3,3.2-4.4,4.7-6.9,5.5l0.1-0.2l-0.2-0.1c1.7-1.3,5.2-3,5-6
	c-0.1-1.6-1.4-2.8-3.6-2.7V41.2L48.3,41.2z M26.7,41.8l0.1-0.2c-1.3,0-2.5,0.5-3.6,0.9c-1.1,0.4-2.4,0.6-2.9,1.7
	c0.6,0.9,1.9,0.9,3.2,1.1c4.6,0.7,11.1,0.6,15.7,0c2.4-0.3,4.5-0.6,5.6-1.6l-0.2-0.1l0.1-0.2c-4.6,0.6-10.5,1.4-15.9,1.1
	c-1.8-0.1-4-0.1-4.9-1.1C24.5,42.5,25.8,42.3,26.7,41.8L26.7,41.8z M53.4,60.4v-0.2c-6.8,3.4-17.7,3.8-27.5,3l0.1,0.2l-0.1,0.2
	c4,0.7,9.3,0.9,14.3,0.6c4.9-0.3,11-0.9,13.3-3.6L53.4,60.4z M34.1,40h0.2c-1.1-2.4-3.1-3.5-3.4-6.2c-0.3-2.5,1-4.1,2.1-5.3
	c1.5-1.6,3.6-2.9,5.2-4.6c2.1-2.4,4.6-5.9,2.5-9.4l-0.2,0.1l-0.2-0.1c0.5,3.3-0.8,5.4-2.5,7.2c-1.4,1.6-3.5,3-5.3,4.3
	c-2.1,1.7-4.9,3.9-4.2,7c0.7,3.1,3.7,5.1,5.5,7.1L34.1,40z M44.8,24.6l-0.1-0.2c-3.6,1.4-9,3.5-9.5,7.6c-0.2,2,0.6,3.5,1.2,4.4
	c0.5,0.8,1.5,1.4,1.8,2.5c0.3,1.1,0,2.2-0.3,2.9h0.2l0.1,0.2c1.5-1.1,2.9-2.6,2.6-4.5s-2.6-3.4-2.8-5.1c-0.2-1.1,0.2-2,0.6-2.6
	C39.9,27.7,43.1,26.1,44.8,24.6L44.8,24.6z M26.3,47.7l-0.1-0.2c-0.7,0.4-2,0.6-1.9,1.6s2,1.3,3,1.6c5,1.1,12.3,0.4,16-0.8l-0.1-0.2
	l0.2-0.1c-0.4-0.1-1-0.9-1.7-1c-0.7-0.1-2.1,0.4-3.5,0.6c-2.1,0.3-4.4,0.4-6.5,0.3C30.1,49.4,25.6,49.4,26.3,47.7L26.3,47.7z
	 M27.5,53.2l0.1-0.2c-0.8,0.3-1.7,0.5-1.7,1.5c0,0.8,1.6,1.4,2.5,1.7c4.4,1.4,11.4,0.5,14.6-0.9c-0.3-0.4-0.8-0.6-1.2-0.8
	c-0.5-0.2-1-0.4-1.5-0.7c-2.7,0.7-6.9,0.9-10,0.6c-0.9-0.1-2.3-0.1-2.5-1.1L27.5,53.2z M51.3,57.4l-0.2-0.1
	c-0.2,1.3-1.7,1.5-2.8,1.8c-1.2,0.3-2.6,0.5-4,0.7c-6.6,0.8-15.4,1.2-21.8,0c-1.2-0.2-2.9-0.5-3.3-1.5c0.6-1,2-1.1,3.2-1.6l-0.1-0.2
	l0.1-0.2c-1.6,0.1-2.8,0.5-4,1c-1,0.4-2.3,0.9-2.5,2c0.8,1.1,2.4,1.1,3.8,1.4c8.9,1.3,21,1.6,28.7-1c1.4-0.5,4.1-1.4,2.8-2.6
	L51.3,57.4z M46.3,50.6c0.3,0,0.6-0.2,0.9-0.3 M48.4,41.4c-0.3,0-0.6,0.1-0.9,0.2 M44.6,43.7c0.2,0,0.3-0.1,0.5-0.2 M28.4,41.5
	c-0.6,0.1-1.1,0.2-1.7,0.3 M23.7,62.8c0.7,0.3,1.5,0.3,2.3,0.5 M53.4,60.4c0.2-0.1,0.3-0.3,0.4-0.5 M40.6,14.6
	c0-0.2-0.1-0.4-0.1-0.6 M34.1,40c0.2,0.2,0.4,0.5,0.6,0.7 M37.7,42.3c0.1-0.2,0.3-0.3,0.4-0.5 M45.8,24.2c-0.4,0.1-0.7,0.3-1,0.5
	 M43.3,49.7c0.1,0,0.2,0,0.3,0 M26.6,47.3c0,0.2-0.3,0.1-0.3,0.3 M27.5,53.2c0.1-0.1,0.2-0.1,0.2-0.2 M23.9,56.6
	c-0.5,0-0.9,0.1-1.4,0.1 M51.3,57.4c0-0.1-0.1-0.2-0.1-0.2h-0.1"/>
<g>
	
		<linearGradient id="SVGID_3_" gradientUnits="userSpaceOnUse" x1="45.0852" y1="74.1307" x2="58.5852" y2="87.6307" gradientTransform="matrix(1 0 0 -1 0 102)">
		<stop  offset="0" style="stop-color:#FFFFFF"/>
		<stop  offset="0.35" style="stop-color:#FAFBFB"/>
		<stop  offset="0.532" style="stop-color:#EDF1F4"/>
		<stop  offset="0.675" style="stop-color:#DDE5E9"/>
		<stop  offset="0.799" style="stop-color:#C7D3DA"/>
		<stop  offset="0.908" style="stop-color:#ADBDC7"/>
		<stop  offset="1" style="stop-color:#92A5B0"/>
	</linearGradient>
	<path class="st5" d="M45,1.1l27,26.7H45V1.1z"/>
	<path class="st6" d="M45,1.1l27,26.7H45V1.1z"/>
</g>
</svg>
