<?xml version="1.0" encoding="utf-8"?>
<!-- Generator: Adobe Illustrator 21.1.0, SVG Export Plug-In . SVG Version: 6.00 Build 0)  -->
<svg version="1.1" id="Layer_1" xmlns="http://www.w3.org/2000/svg"  x="0px" y="0px"
	 viewBox="0 0 72 100" style="enable-background:new 0 0 72 100;" xml:space="preserve">
<style type="text/css">
	.st0{fill:url(#SVGID_1_);}
	.st1{fill-opacity:0;stroke:#7191A1;stroke-width:2;}
	.st2{fill:url(#SVGID_2_);}
	.st3{fill:url(#SVGID_3_);}
	.st4{fill:url(#SVGID_4_);}
	.st5{fill:url(#SVGID_5_);}
	.st6{fill:url(#SVGID_6_);}
	.st7{fill-opacity:0;stroke:#7191A1;stroke-width:2;stroke-linejoin:bevel;}
	.st8{enable-background:new    ;}
	.st9{fill:#4C6C7B;}
</style>
<g>
	
		<linearGradient id="SVGID_1_" gradientUnits="userSpaceOnUse" x1="36" y1="97" x2="36" y2="-1" gradientTransform="matrix(1 0 0 1 0 2)">
		<stop  offset="0" style="stop-color:#C8D4DB"/>
		<stop  offset="0.139" style="stop-color:#D8E1E6"/>
		<stop  offset="0.359" style="stop-color:#EBF0F3"/>
		<stop  offset="0.617" style="stop-color:#F9FAFB"/>
		<stop  offset="1" style="stop-color:#FFFFFF"/>
	</linearGradient>
	<path class="st0" d="M45,1l27,26.7V99H0V1H45z"/>
	<path class="st1" d="M45,1l27,26.7V99H0V1H45z"/>
</g>
<linearGradient id="SVGID_2_" gradientUnits="userSpaceOnUse" x1="11.8" y1="33.75" x2="60.4" y2="33.75" gradientTransform="matrix(1 0 0 1 0 2)">
	<stop  offset="0" style="stop-color:#7291A1"/>
	<stop  offset="1" style="stop-color:#CAD5DB"/>
</linearGradient>
<path class="st2" d="M11.8,33.7h48.6v4.1H11.8V33.7z"/>
<linearGradient id="SVGID_3_" gradientUnits="userSpaceOnUse" x1="11.8" y1="57.85" x2="60.4" y2="57.85" gradientTransform="matrix(1 0 0 1 0 2)">
	<stop  offset="0" style="stop-color:#7291A1"/>
	<stop  offset="1" style="stop-color:#CAD5DB"/>
</linearGradient>
<path class="st3" d="M11.8,57.8h48.6v4.1H11.8V57.8z"/>
<linearGradient id="SVGID_4_" gradientUnits="userSpaceOnUse" x1="11.8" y1="46.05" x2="60.4" y2="46.05" gradientTransform="matrix(1 0 0 1 0 2)">
	<stop  offset="0" style="stop-color:#7291A1"/>
	<stop  offset="1" style="stop-color:#CAD5DB"/>
</linearGradient>
<path class="st4" d="M11.8,46h48.6v4.1H11.8V46z"/>
<linearGradient id="SVGID_5_" gradientUnits="userSpaceOnUse" x1="11.8" y1="21.65" x2="60.4" y2="21.65" gradientTransform="matrix(1 0 0 1 0 2)">
	<stop  offset="0" style="stop-color:#7291A1"/>
	<stop  offset="1" style="stop-color:#CAD5DB"/>
</linearGradient>
<path class="st5" d="M11.8,21.6h48.6v4.1H11.8V21.6z"/>
<g>
	
		<linearGradient id="SVGID_6_" gradientUnits="userSpaceOnUse" x1="45.0368" y1="25.8132" x2="58.5368" y2="12.3132" gradientTransform="matrix(1 0 0 1 0 2)">
		<stop  offset="0" style="stop-color:#FFFFFF"/>
		<stop  offset="0.35" style="stop-color:#FAFBFB"/>
		<stop  offset="0.532" style="stop-color:#EDF1F4"/>
		<stop  offset="0.675" style="stop-color:#DDE5E9"/>
		<stop  offset="0.799" style="stop-color:#C7D3DA"/>
		<stop  offset="0.908" style="stop-color:#ADBDC7"/>
		<stop  offset="1" style="stop-color:#92A5B0"/>
	</linearGradient>
	<path class="st6" d="M45,1l27,26.7H45V1z"/>
	<path class="st7" d="M45,1l27,26.7H45V1z"/>
</g>
<g class="st8">
	<path class="st9" d="M7.6,91.2V71.3h4v16.5h10.1v3.4H7.6z"/>
	<path class="st9" d="M23.8,81.3c0-2,0.3-3.8,0.9-5.1c0.5-1,1.1-1.9,1.9-2.7c0.8-0.8,1.7-1.4,2.6-1.8c1.2-0.5,2.7-0.8,4.3-0.8
		c3,0,5.3,0.9,7.1,2.7c1.8,1.8,2.7,4.4,2.7,7.6c0,3.2-0.9,5.8-2.6,7.6c-1.8,1.8-4.1,2.7-7.1,2.7c-3,0-5.4-0.9-7.1-2.7
		C24.6,87,23.8,84.5,23.8,81.3z M27.9,81.2c0,2.3,0.5,4,1.6,5.2c1,1.2,2.4,1.8,4,1.8s2.9-0.6,4-1.7c1-1.2,1.6-2.9,1.6-5.2
		c0-2.3-0.5-4-1.5-5.1c-1-1.1-2.3-1.7-4-1.7s-3,0.6-4,1.7C28.4,77.1,27.9,78.9,27.9,81.2z"/>
	<path class="st9" d="M55.7,83.8v-3.4h8.7v8c-0.8,0.8-2.1,1.5-3.7,2.2c-1.6,0.6-3.2,0.9-4.9,0.9c-2.1,0-3.9-0.4-5.5-1.3
		s-2.7-2.1-3.5-3.8c-0.8-1.6-1.2-3.4-1.2-5.3c0-2.1,0.4-3.9,1.3-5.6s2.2-2.9,3.8-3.7c1.3-0.7,2.9-1,4.8-1c2.5,0,4.4,0.5,5.8,1.6
		c1.4,1,2.3,2.5,2.7,4.3l-4,0.8c-0.3-1-0.8-1.8-1.6-2.3s-1.8-0.9-2.9-0.9c-1.8,0-3.2,0.6-4.2,1.7c-1,1.1-1.6,2.8-1.6,5
		c0,2.4,0.5,4.2,1.6,5.4c1.1,1.2,2.4,1.8,4.2,1.8c0.8,0,1.7-0.2,2.5-0.5c0.9-0.3,1.6-0.7,2.2-1.2v-2.5H55.7z"/>
</g>
</svg>
