<?xml version="1.0" encoding="utf-8"?>
<!-- Generator: Adobe Illustrator 21.1.0, SVG Export Plug-In . SVG Version: 6.00 Build 0)  -->
<svg version="1.1" id="Layer_1" xmlns="http://www.w3.org/2000/svg" xmlns:xlink="http://www.w3.org/1999/xlink" x="0px" y="0px"
	 viewBox="0 0 72 100" style="enable-background:new 0 0 72 100;" xml:space="preserve">
<style type="text/css">
	.st0{fill:url(#SVGID_1_);}
	.st1{fill-opacity:0;stroke:#7191A1;stroke-width:2;}
	.st2{enable-background:new    ;}
	.st3{fill:#4C6C7B;}
	.st4{fill:url(#SVGID_2_);}
	.st5{fill:url(#SVGID_3_);}
	.st6{fill:url(#SVGID_4_);}
	.st7{fill:url(#SVGID_5_);}
	.st8{fill:url(#SVGID_6_);}
	.st9{fill:url(#SVGID_7_);}
	.st10{fill-opacity:0;stroke:#7191A1;stroke-width:2;stroke-linejoin:bevel;}
</style>
<g>
	
		<linearGradient id="SVGID_1_" gradientUnits="userSpaceOnUse" x1="36.108" y1="3.0033" x2="36.108" y2="101.0009" gradientTransform="matrix(1 0 0 -1 0 102)">
		<stop  offset="0" style="stop-color:#C8D4DB"/>
		<stop  offset="0.139" style="stop-color:#D8E1E6"/>
		<stop  offset="0.359" style="stop-color:#EBF0F3"/>
		<stop  offset="0.617" style="stop-color:#F9FAFB"/>
		<stop  offset="1" style="stop-color:#FFFFFF"/>
	</linearGradient>
	<path class="st0" d="M45.1,1L72,27.7V99H0.2V1H45.1z"/>
	<path class="st1" d="M45.1,1L72,27.7V99H0.2V1H45.1z"/>
</g>
<g class="st2">
	<path class="st3" d="M9.7,91.1V71.4h4v16.3h10v3.3H9.7z"/>
	<path class="st3" d="M26.6,71.2h4V82c0,1.7,0,2.8,0.1,3.3c0.2,0.8,0.6,1.5,1.2,2c0.6,0.5,1.5,0.7,2.7,0.7c1.1,0,2-0.2,2.6-0.7
		c0.6-0.5,0.9-1,1-1.7c0.1-0.7,0.2-1.8,0.2-3.4v-11h4v10.4c0,2.4-0.1,4.1-0.3,5s-0.6,1.8-1.2,2.5s-1.4,1.2-2.3,1.6s-2.3,0.6-3.8,0.6
		c-1.9,0-3.4-0.2-4.3-0.7s-1.8-1-2.3-1.7s-0.9-1.4-1.1-2.2c-0.3-1.1-0.4-2.8-0.4-5V71.2z"/>
	<path class="st3" d="M64.8,91.1h-4.4l-1.7-4.5h-8L49,91.1h-4.3l7.8-19.8h4.3L64.8,91.1z M57.4,83.2l-2.8-7.4l-2.7,7.4H57.4z"/>
</g>
<g>
	<linearGradient id="SVGID_2_" gradientUnits="userSpaceOnUse" x1="33.5" y1="25" x2="33.5" y2="21">
		<stop  offset="0" style="stop-color:#ADCCDC"/>
		<stop  offset="1" style="stop-color:#4C6C7B"/>
	</linearGradient>
	<rect x="15" y="21" class="st4" width="37" height="4"/>
	<linearGradient id="SVGID_3_" gradientUnits="userSpaceOnUse" x1="40.5" y1="34" x2="40.5" y2="30">
		<stop  offset="0" style="stop-color:#ADCCDC"/>
		<stop  offset="1" style="stop-color:#4C6C7B"/>
	</linearGradient>
	<rect x="22" y="30" class="st5" width="37" height="4"/>
	<linearGradient id="SVGID_4_" gradientUnits="userSpaceOnUse" x1="33.5" y1="43" x2="33.5" y2="39">
		<stop  offset="0" style="stop-color:#ADCCDC"/>
		<stop  offset="1" style="stop-color:#4C6C7B"/>
	</linearGradient>
	<rect x="15" y="39" class="st6" width="37" height="4"/>
	<linearGradient id="SVGID_5_" gradientUnits="userSpaceOnUse" x1="40.5" y1="52" x2="40.5" y2="48">
		<stop  offset="0" style="stop-color:#ADCCDC"/>
		<stop  offset="1" style="stop-color:#4C6C7B"/>
	</linearGradient>
	<rect x="22" y="48" class="st7" width="37" height="4"/>
	<linearGradient id="SVGID_6_" gradientUnits="userSpaceOnUse" x1="31.5" y1="61" x2="31.5" y2="57">
		<stop  offset="0" style="stop-color:#ADCCDC"/>
		<stop  offset="1" style="stop-color:#4C6C7B"/>
	</linearGradient>
	<rect x="13" y="57" class="st8" width="37" height="4"/>
</g>
<g>
	
		<linearGradient id="SVGID_7_" gradientUnits="userSpaceOnUse" x1="45.1216" y1="74.2293" x2="58.5748" y2="87.6825" gradientTransform="matrix(1 0 0 -1 0 102)">
		<stop  offset="0" style="stop-color:#FFFFFF"/>
		<stop  offset="0.35" style="stop-color:#FAFBFB"/>
		<stop  offset="0.532" style="stop-color:#EDF1F4"/>
		<stop  offset="0.675" style="stop-color:#DDE5E9"/>
		<stop  offset="0.799" style="stop-color:#C7D3DA"/>
		<stop  offset="0.908" style="stop-color:#ADBDC7"/>
		<stop  offset="1" style="stop-color:#92A5B0"/>
	</linearGradient>
	<path class="st9" d="M45.1,1L72,27.7H45.1V1z"/>
	<path class="st10" d="M45.1,1L72,27.7H45.1V1z"/>
</g>
</svg>
