<?xml version="1.0" encoding="utf-8"?>
<!-- Generator: Adobe Illustrator 21.1.0, SVG Export Plug-In . SVG Version: 6.00 Build 0)  -->
<svg version="1.1" id="Layer_1" xmlns="http://www.w3.org/2000/svg" xmlns:xlink="http://www.w3.org/1999/xlink" x="0px" y="0px"
	 viewBox="0 0 72 100" style="enable-background:new 0 0 72 100;" xml:space="preserve">
<style type="text/css">
	.st0{opacity:0.99;}
	.st1{fill:url(#SVGID_1_);}
	.st2{fill-opacity:0;stroke:#2D3293;stroke-width:2;}
	.st3{enable-background:new    ;}
	.st4{fill:#FFFFFF;}
	.st5{fill:url(#SVGID_2_);}
	.st6{fill:url(#SVGID_3_);}
	.st7{fill:url(#SVGID_4_);}
	.st8{fill:url(#SVGID_5_);}
	.st9{fill:url(#SVGID_6_);}
	.st10{fill-opacity:0;stroke:#2D3293;stroke-width:2;stroke-linejoin:bevel;}
</style>
<g class="st0">
	
		<linearGradient id="SVGID_1_" gradientUnits="userSpaceOnUse" x1="36.15" y1="2.8868" x2="36.15" y2="101.1256" gradientTransform="matrix(1 0 0 -1 0 102)">
		<stop  offset="0" style="stop-color:#595593"/>
		<stop  offset="1.200000e-02" style="stop-color:#5B5794"/>
		<stop  offset="0.182" style="stop-color:#7B77AA"/>
		<stop  offset="0.352" style="stop-color:#9896BF"/>
		<stop  offset="0.521" style="stop-color:#B2B2D2"/>
		<stop  offset="0.687" style="stop-color:#C7C9E2"/>
		<stop  offset="0.848" style="stop-color:#D6D9EC"/>
		<stop  offset="1" style="stop-color:#DBDFF0"/>
	</linearGradient>
	<path class="st1" d="M45.2,0.9l27.1,26.8v71.4H0V0.9H45.2z"/>
	<path class="st2" d="M45.2,0.9l27.1,26.8v71.4H0V0.9H45.2z"/>
</g>
<g class="st3">
	<path class="st4" d="M8.2,91.2V75.4H13l2.9,10.7l2.9-10.7h4.8v15.7h-3V78.8l-3.2,12.4h-3.1l-3.2-12.4v12.4H8.2z"/>
	<path class="st4" d="M26,87l3-0.4c0.1,0.7,0.3,1.3,0.8,1.7c0.4,0.4,0.9,0.6,1.5,0.6c0.6,0,1.2-0.2,1.6-0.7s0.6-1.1,0.6-1.9
		c0-0.8-0.2-1.4-0.6-1.8c-0.4-0.4-0.9-0.7-1.5-0.7c-0.4,0-0.9,0.1-1.4,0.2l0.3-2.5c0.8,0,1.5-0.2,1.9-0.5c0.4-0.4,0.7-0.9,0.7-1.5
		c0-0.5-0.2-1-0.5-1.3s-0.7-0.5-1.3-0.5c-0.5,0-1,0.2-1.3,0.5c-0.4,0.4-0.6,0.9-0.7,1.6l-2.8-0.5c0.2-1,0.5-1.7,0.9-2.3
		c0.4-0.6,0.9-1,1.7-1.3c0.7-0.3,1.5-0.5,2.4-0.5c1.5,0,2.7,0.5,3.6,1.4c0.7,0.8,1.1,1.6,1.1,2.6c0,1.4-0.8,2.5-2.3,3.3
		c0.9,0.2,1.6,0.6,2.2,1.3s0.8,1.5,0.8,2.4c0,1.4-0.5,2.6-1.5,3.5s-2.3,1.5-3.8,1.5c-1.4,0-2.6-0.4-3.6-1.2
		C26.7,89.4,26.2,88.3,26,87z"/>
	<path class="st4" d="M39.1,75.4h3.2v8.5c0,1.4,0,2.2,0.1,2.6c0.1,0.6,0.5,1.2,1,1.6c0.5,0.4,1.2,0.6,2.1,0.6c0.9,0,1.6-0.2,2.1-0.6
		c0.5-0.4,0.7-0.8,0.8-1.4c0.1-0.5,0.1-1.4,0.1-2.7v-8.7h3.2v8.3c0,1.9-0.1,3.2-0.3,4s-0.5,1.4-1,2c-0.5,0.5-1.1,1-1.9,1.3
		c-0.8,0.3-1.8,0.5-3.1,0.5c-1.5,0-2.7-0.2-3.5-0.5c-0.8-0.3-1.4-0.8-1.9-1.4c-0.5-0.6-0.8-1.1-0.9-1.7c-0.2-0.9-0.3-2.2-0.3-4V75.4
		z"/>
	<path class="st4" d="M57.2,82.7c-0.8-0.3-1.4-0.8-1.7-1.4c-0.4-0.6-0.5-1.2-0.5-1.9c0-1.2,0.4-2.1,1.2-2.9c0.8-0.8,2-1.1,3.5-1.1
		c1.5,0,2.7,0.4,3.5,1.1s1.3,1.7,1.3,2.9c0,0.7-0.2,1.4-0.6,1.9c-0.4,0.6-0.9,1-1.6,1.3c0.9,0.4,1.6,0.9,2,1.5s0.7,1.5,0.7,2.3
		c0,1.5-0.5,2.6-1.4,3.5s-2.2,1.4-3.7,1.4c-1.4,0-2.7-0.4-3.6-1.1c-1.1-0.9-1.7-2.1-1.7-3.7c0-0.9,0.2-1.6,0.6-2.3
		C55.6,83.6,56.3,83.1,57.2,82.7z M57.5,86.4c0,0.8,0.2,1.5,0.6,1.9c0.4,0.5,1,0.7,1.6,0.7c0.6,0,1.2-0.2,1.6-0.7
		c0.4-0.4,0.6-1.1,0.6-1.9c0-0.7-0.2-1.3-0.6-1.8c-0.4-0.4-1-0.7-1.6-0.7c-0.7,0-1.3,0.3-1.7,0.8S57.5,85.8,57.5,86.4z M57.8,79.6
		c0,0.6,0.2,1.1,0.5,1.4s0.8,0.5,1.4,0.5c0.6,0,1-0.2,1.4-0.5c0.3-0.3,0.5-0.8,0.5-1.4c0-0.6-0.2-1-0.5-1.4
		c-0.3-0.3-0.8-0.5-1.4-0.5c-0.6,0-1.1,0.2-1.4,0.5S57.8,79.1,57.8,79.6z"/>
</g>
<g>
	<linearGradient id="SVGID_2_" gradientUnits="userSpaceOnUse" x1="13" y1="30.9272" x2="40.7034" y2="30.9272">
		<stop  offset="0" style="stop-color:#352C7F"/>
		<stop  offset="7.400000e-02" style="stop-color:#3E3786"/>
		<stop  offset="0.266" style="stop-color:#544F96"/>
		<stop  offset="0.457" style="stop-color:#6763A5"/>
		<stop  offset="0.645" style="stop-color:#7572B1"/>
		<stop  offset="0.827" style="stop-color:#7E7CBA"/>
		<stop  offset="1" style="stop-color:#8180BD"/>
	</linearGradient>
	<path class="st5" d="M15.2,33.1h23.4c1.2,0,2.2-1,2.2-2.2s-1-2.2-2.2-2.2H15.2c-1.2,0-2.2,1-2.2,2.2S14,33.1,15.2,33.1z"/>
	<linearGradient id="SVGID_3_" gradientUnits="userSpaceOnUse" x1="13" y1="42.1817" x2="40.7034" y2="42.1817">
		<stop  offset="0" style="stop-color:#352C7F"/>
		<stop  offset="7.400000e-02" style="stop-color:#3E3786"/>
		<stop  offset="0.266" style="stop-color:#544F96"/>
		<stop  offset="0.457" style="stop-color:#6763A5"/>
		<stop  offset="0.645" style="stop-color:#7572B1"/>
		<stop  offset="0.827" style="stop-color:#7E7CBA"/>
		<stop  offset="1" style="stop-color:#8180BD"/>
	</linearGradient>
	<path class="st6" d="M15.2,44.3h23.4c1.2,0,2.2-1,2.2-2.2s-1-2.2-2.2-2.2H15.2C14,40,13,41,13,42.2S14,44.3,15.2,44.3z"/>
	<linearGradient id="SVGID_4_" gradientUnits="userSpaceOnUse" x1="13" y1="52.5705" x2="28.5832" y2="52.5705">
		<stop  offset="0" style="stop-color:#352C7F"/>
		<stop  offset="7.400000e-02" style="stop-color:#3E3786"/>
		<stop  offset="0.266" style="stop-color:#544F96"/>
		<stop  offset="0.457" style="stop-color:#6763A5"/>
		<stop  offset="0.645" style="stop-color:#7572B1"/>
		<stop  offset="0.827" style="stop-color:#7E7CBA"/>
		<stop  offset="1" style="stop-color:#8180BD"/>
	</linearGradient>
	<path class="st7" d="M26.4,50.4H15.2c-1.2,0-2.2,1-2.2,2.2s1,2.2,2.2,2.2h11.3c1.2,0,2.2-1,2.2-2.2S27.6,50.4,26.4,50.4z"/>
	<linearGradient id="SVGID_5_" gradientUnits="userSpaceOnUse" x1="33.935" y1="45.0438" x2="60.6332" y2="45.0438">
		<stop  offset="0" style="stop-color:#352C7F"/>
		<stop  offset="7.400000e-02" style="stop-color:#3E3786"/>
		<stop  offset="0.266" style="stop-color:#544F96"/>
		<stop  offset="0.457" style="stop-color:#6763A5"/>
		<stop  offset="0.645" style="stop-color:#7572B1"/>
		<stop  offset="0.827" style="stop-color:#7E7CBA"/>
		<stop  offset="1" style="stop-color:#8180BD"/>
	</linearGradient>
	<path class="st8" d="M53.8,32.6c-1.6-0.8-3.8-2.1-4.6-3.8c0-0.9-0.8-1.7-1.7-1.7c-0.9,0-1.7,0.8-1.7,1.7v21.9
		c-1.7-0.9-5-0.6-7.5,0.8c-3.9,2.1-5.5,6.2-3.8,9c1.7,2.8,6.2,3.4,10.1,1.2c2.7-1.5,4.5-4,4.6-6.4c0-6.4,0-12.5,0-18.9
		c5.6,0,8.9,2.2,7.6,7.7c-0.2,1-0.6,2-1,2.9l0,0c-0.2,0.3-0.2,0.7,0.1,1c0.3,0.3,0.8,0.2,1.2-0.2c2.1-2,3.3-4.7,3.5-7.6
		C60.7,36.3,57,34.1,53.8,32.6z"/>
</g>
<g class="st0">
	
		<linearGradient id="SVGID_6_" gradientUnits="userSpaceOnUse" x1="58.3206" y1="87.2734" x2="50.783" y2="78.8387" gradientTransform="matrix(1 0 0 -1 0 102)">
		<stop  offset="0" style="stop-color:#595593"/>
		<stop  offset="7.000000e-02" style="stop-color:#706CA2"/>
		<stop  offset="0.159" style="stop-color:#8988B5"/>
		<stop  offset="0.255" style="stop-color:#A3A5C8"/>
		<stop  offset="0.359" style="stop-color:#BABFD9"/>
		<stop  offset="0.471" style="stop-color:#CED5E7"/>
		<stop  offset="0.598" style="stop-color:#DEE6F2"/>
		<stop  offset="0.751" style="stop-color:#E9F3FA"/>
		<stop  offset="1" style="stop-color:#ECF8FE"/>
	</linearGradient>
	<path class="st9" d="M45.2,0.9l27.1,26.8H45.2V0.9z"/>
	<path class="st10" d="M45.2,0.9l27.1,26.8H45.2V0.9z"/>
</g>
</svg>
