<?xml version="1.0" encoding="utf-8"?>
<!-- Generator: Adobe Illustrator 21.1.0, SVG Export Plug-In . SVG Version: 6.00 Build 0)  -->
<svg version="1.1" id="Layer_2" xmlns="http://www.w3.org/2000/svg"  x="0px" y="0px"
	 viewBox="0 0 72 100" style="enable-background:new 0 0 72 100;" xml:space="preserve">
<style type="text/css">
	.st0{fill:url(#SVGID_1_);}
	.st1{fill-opacity:0;stroke:#7191A1;stroke-width:2;}
	.st2{fill:url(#SVGID_2_);}
	.st3{fill-opacity:0;stroke:#7191A1;stroke-width:2;stroke-linejoin:bevel;}
	.st4{enable-background:new    ;}
	.st5{fill:#4C6C7B;}
</style>
<g>
	
		<linearGradient id="SVGID_1_" gradientUnits="userSpaceOnUse" x1="36" y1="127.8" x2="36" y2="29.8" gradientTransform="matrix(1 0 0 1 0 -29)">
		<stop  offset="0" style="stop-color:#C8D4DB"/>
		<stop  offset="0.139" style="stop-color:#D8E1E6"/>
		<stop  offset="0.359" style="stop-color:#EBF0F3"/>
		<stop  offset="0.617" style="stop-color:#F9FAFB"/>
		<stop  offset="1" style="stop-color:#FFFFFF"/>
	</linearGradient>
	<path class="st0" d="M45,0.8l27,26.7v71.3H0v-98C0,0.8,45,0.8,45,0.8z"/>
	<path class="st1" d="M45,0.8l27,26.7v71.3H0v-98C0,0.8,45,0.8,45,0.8z"/>
</g>
<g>
	
		<linearGradient id="SVGID_2_" gradientUnits="userSpaceOnUse" x1="45.075" y1="56.575" x2="58.575" y2="43.075" gradientTransform="matrix(1 0 0 1 0 -29)">
		<stop  offset="0" style="stop-color:#FFFFFF"/>
		<stop  offset="0.35" style="stop-color:#FAFBFB"/>
		<stop  offset="0.532" style="stop-color:#EDF1F4"/>
		<stop  offset="0.675" style="stop-color:#DDE5E9"/>
		<stop  offset="0.799" style="stop-color:#C7D3DA"/>
		<stop  offset="0.908" style="stop-color:#ADBDC7"/>
		<stop  offset="1" style="stop-color:#92A5B0"/>
	</linearGradient>
	<path class="st2" d="M45,0.8l27,26.7H45V0.8z"/>
	<path class="st3" d="M45,0.8l27,26.7H45V0.8z"/>
</g>
<g class="st4">
	<path class="st5" d="M7.3,89.8v-10h3l1.8,6.8l1.8-6.8h3v10h-1.9v-7.9l-2,7.9h-1.9l-2-7.9v7.9H7.3z"/>
	<path class="st5" d="M28,89.8h-2.2l-0.9-2.3h-4l-0.8,2.3h-2.1l3.9-10H24L28,89.8z M24.3,85.8l-1.4-3.7l-1.4,3.7H24.3z"/>
	<path class="st5" d="M28.5,86.5l2-0.2c0.1,0.7,0.4,1.1,0.7,1.5s0.9,0.5,1.5,0.5c0.7,0,1.1-0.1,1.5-0.4c0.3-0.3,0.5-0.6,0.5-1
		c0-0.2-0.1-0.4-0.2-0.6c-0.1-0.2-0.4-0.3-0.7-0.4c-0.2-0.1-0.8-0.2-1.6-0.4c-1.1-0.3-1.8-0.6-2.3-1c-0.6-0.6-0.9-1.2-0.9-2
		c0-0.5,0.1-1,0.4-1.4c0.3-0.4,0.7-0.8,1.3-1s1.2-0.3,2-0.3c1.3,0,2.2,0.3,2.8,0.8s1,1.3,1,2.2l-2,0.1c-0.1-0.5-0.3-0.9-0.6-1.1
		c-0.3-0.2-0.7-0.3-1.3-0.3c-0.6,0-1,0.1-1.4,0.4c-0.2,0.2-0.3,0.4-0.3,0.6c0,0.2,0.1,0.4,0.3,0.6c0.3,0.2,0.9,0.4,1.9,0.7
		s1.7,0.5,2.2,0.7c0.5,0.2,0.8,0.6,1.1,1c0.3,0.4,0.4,1,0.4,1.6c0,0.6-0.2,1.1-0.5,1.6s-0.8,0.9-1.4,1.1c-0.6,0.2-1.3,0.4-2.2,0.4
		c-1.3,0-2.2-0.3-2.9-0.9C29.1,88.5,28.7,87.7,28.5,86.5z"/>
	<path class="st5" d="M40.7,89.8v-8.3h-3v-1.7h8v1.7h-3v8.3H40.7z"/>
	<path class="st5" d="M47,89.8v-10h7.4v1.7H49v2.2h5v1.7h-5v2.7h5.6v1.7H47z"/>
	<path class="st5" d="M56.3,89.8v-10h4.3c1.1,0,1.8,0.1,2.3,0.3c0.5,0.2,0.9,0.5,1.2,1c0.3,0.5,0.4,1,0.4,1.6c0,0.8-0.2,1.4-0.7,1.9
		c-0.4,0.5-1.1,0.8-2,0.9c0.4,0.3,0.8,0.5,1.1,0.8c0.3,0.3,0.7,0.8,1.2,1.6l1.2,2h-2.4l-1.5-2.2c-0.5-0.8-0.9-1.3-1.1-1.5
		c-0.2-0.2-0.4-0.3-0.6-0.4c-0.2-0.1-0.6-0.1-1-0.1h-0.4v4.2H56.3z M58.3,84h1.5c1,0,1.6,0,1.8-0.1c0.2-0.1,0.4-0.2,0.6-0.4
		s0.2-0.5,0.2-0.8c0-0.3-0.1-0.6-0.3-0.8c-0.2-0.2-0.4-0.3-0.8-0.4c-0.2,0-0.7,0-1.5,0h-1.6V84z"/>
</g>
</svg>
