<?xml version="1.0" encoding="utf-8"?>
<!-- Generator: Adobe Illustrator 21.1.0, SVG Export Plug-In . SVG Version: 6.00 Build 0)  -->
<svg version="1.1" id="Layer_1" xmlns="http://www.w3.org/2000/svg" xmlns:xlink="http://www.w3.org/1999/xlink" x="0px" y="0px"
	 viewBox="0 0 72 100" style="enable-background:new 0 0 72 100;" xml:space="preserve">
<style type="text/css">
	.st0{fill:url(#path1228_1_);}
	.st1{fill-opacity:0;stroke:#827100;stroke-width:2;}
	.st2{enable-background:new    ;}
	.st3{fill:#FEFEFE;}
	.st4{fill:url(#path1236_1_);}
	.st5{fill:url(#path1238_1_);}
	.st6{fill-opacity:0;stroke:#827100;stroke-width:2;stroke-linejoin:round;}
</style>
<linearGradient id="path1228_1_" gradientUnits="userSpaceOnUse" x1="486.3114" y1="644.1125" x2="486.3104" y2="742.0848" gradientTransform="matrix(1 0 0 -1 -450.061 743.109)">
	<stop  offset="0" style="stop-color:#742D2D"/>
	<stop  offset="5.000000e-03" style="stop-color:#827100"/>
	<stop  offset="1" style="stop-color:#FFEE91"/>
</linearGradient>
<path id="path1228" class="st0" d="M45.3,1l27.1,26.7V99H0.1V1H45.3z"/>
<path id="path1230" class="st1" d="M45.3,1l27.1,26.7V99H0.1V1H45.3z"/>
<g class="st2">
	<path class="st3" d="M9.8,91.6V76h4.8l2.9,10.6L20.3,76h4.8v15.6h-3V79.3L19,91.6h-3.1l-3.1-12.3v12.3H9.8z"/>
	<path class="st3" d="M27.6,83.9c0-1.6,0.2-2.9,0.7-4c0.4-0.8,0.8-1.5,1.5-2.1s1.3-1.1,2-1.4c1-0.4,2.1-0.6,3.4-0.6
		c2.3,0,4.2,0.7,5.6,2.1c1.4,1.4,2.1,3.4,2.1,5.9c0,2.5-0.7,4.5-2.1,5.9s-3.2,2.1-5.6,2.1c-2.4,0-4.2-0.7-5.6-2.1
		C28.3,88.3,27.6,86.4,27.6,83.9z M30.9,83.8c0,1.8,0.4,3.1,1.2,4c0.8,0.9,1.9,1.4,3.1,1.4s2.3-0.5,3.1-1.4s1.2-2.3,1.2-4.1
		c0-1.8-0.4-3.1-1.2-4c-0.8-0.9-1.8-1.3-3.2-1.3s-2.4,0.4-3.2,1.3C31.3,80.6,30.9,82,30.9,83.8z"/>
	<path class="st3" d="M45.4,76h6.3c1.2,0,2.2,0.1,2.8,0.2c0.6,0.1,1.2,0.3,1.6,0.6s0.9,0.8,1.2,1.3c0.3,0.5,0.5,1.2,0.5,1.8
		c0,0.7-0.2,1.4-0.6,2s-0.9,1.1-1.6,1.4c1,0.3,1.7,0.7,2.2,1.4s0.8,1.4,0.8,2.3c0,0.7-0.2,1.4-0.5,2.1s-0.8,1.2-1.4,1.6
		c-0.6,0.4-1.3,0.6-2.1,0.7c-0.5,0.1-1.8,0.1-3.8,0.1h-5.4V76z M48.6,78.6v3.6h2.1c1.2,0,2,0,2.3-0.1c0.5-0.1,1-0.2,1.3-0.6
		c0.3-0.3,0.5-0.7,0.5-1.2c0-0.5-0.1-0.9-0.4-1.2c-0.3-0.3-0.7-0.5-1.2-0.5c-0.3,0-1.2-0.1-2.7-0.1H48.6z M48.6,84.8V89h3
		c1.2,0,1.9,0,2.2-0.1c0.5-0.1,0.9-0.3,1.2-0.6c0.3-0.3,0.4-0.8,0.4-1.3c0-0.5-0.1-0.9-0.3-1.2c-0.2-0.3-0.6-0.6-1-0.7
		c-0.4-0.1-1.4-0.2-2.8-0.2H48.6z"/>
	<path class="st3" d="M61.2,91.6V76h3.2v15.6H61.2z"/>
</g>
<linearGradient id="path1236_1_" gradientUnits="userSpaceOnUse" x1="305.1711" y1="859.4441" x2="305.1711" y2="814.6844" gradientTransform="matrix(0.962 0.272 0.272 -0.962 -484.957 762.637)">
	<stop  offset="0" style="stop-color:#AA9400"/>
	<stop  offset="1" style="stop-color:#564A00"/>
</linearGradient>
<path id="path1236" class="st4" d="M62.7,34.5c-0.3-0.7-0.7-1.2-1.3-1.7c-0.1,0.5-0.3,1.1-0.6,1.6L44.4,59.6c-0.6,0.9-2,1.2-3,0.9
	l-26.1-7.3c-1.6-0.4-3.4-1.3-3.5-3.1c-0.1-0.7,0-0.9,0.4-1.2c0.4-0.3,0.8-0.2,1.2-0.1l24.6,6.8c3.6,1,4.6,0.3,7.2-3.7l15-23.1
	c0.8-1.2,1-2.6,0.5-3.8c-0.4-1.2-1.4-2.1-2.8-2.5l-21.5-6c-0.5-0.1-1-0.1-1.5-0.2l0.1-0.1c-3.3-2-4.6,1.8-6.3,3.2
	c-0.6,0.5-1.5,0.9-1.7,1.4c-0.2,0.5-0.1,1-0.3,1.5c-0.6,1.4-2.5,3.8-3.4,4.5c-0.6,0.4-1.3,0.5-1.7,1.1c-0.3,0.4-0.2,1.1-0.4,1.7
	c-0.5,1.3-2.2,3.5-3.4,4.6c-0.4,0.4-1.1,0.7-1.4,1.2c-0.3,0.4-0.2,1.1-0.5,1.6c-0.7,1.4-2.3,3.4-3.6,4.5c-0.7,0.6-1.4,0.9-1.7,1.6
	c-0.2,0.3,0,0.8-0.2,1.2C10.1,45,9.8,45.5,9.6,46c-0.7,1-1.1,2.2-1,3.6c0.2,3.2,2.7,6.3,5.5,7.1L40.3,64c2.4,0.7,5.5-0.5,6.8-2.6
	l15-23.1C62.9,37,63.1,35.7,62.7,34.5z M32.5,26.2l1.1-1.6c0.3-0.5,1-0.7,1.4-0.6l17.2,4.8c0.5,0.1,0.7,0.6,0.4,1.1l-1.1,1.6
	c-0.3,0.5-1,0.7-1.4,0.6l-17.2-4.8C32.4,27.1,32.2,26.6,32.5,26.2z M28.1,32.6l1.1-1.6c0.3-0.5,1-0.7,1.4-0.6l17.2,4.8
	c0.5,0.1,0.7,0.6,0.4,1.1l-1.1,1.6c-0.3,0.5-1,0.7-1.4,0.6l-17.2-4.8C28,33.6,27.8,33.1,28.1,32.6z"/>
<linearGradient id="path1238_1_" gradientUnits="userSpaceOnUse" x1="495.4366" y1="715.2711" x2="508.9823" y2="728.8177" gradientTransform="matrix(1 0 0 -1 -450.061 743.109)">
	<stop  offset="0" style="stop-color:#FEEA86"/>
	<stop  offset="1" style="stop-color:#867200"/>
</linearGradient>
<path id="path1238" class="st5" d="M45.3,1l27.1,26.7H45.3V1z"/>
<path id="path1240" class="st6" d="M45.3,1l27.1,26.7H45.3V1z"/>
</svg>
