<?xml version="1.0" encoding="utf-8"?>
<!-- Generator: Adobe Illustrator 21.1.0, SVG Export Plug-In . SVG Version: 6.00 Build 0)  -->
<svg version="1.1" id="Layer_1" xmlns="http://www.w3.org/2000/svg" xmlns:xlink="http://www.w3.org/1999/xlink" x="0px" y="0px"
	 viewBox="0 0 72 100" style="enable-background:new 0 0 72 100;" xml:space="preserve">
<style type="text/css">
	.st0{opacity:0.99;}
	.st1{fill:url(#SVGID_1_);}
	.st2{fill-opacity:0;stroke:#2D3293;stroke-width:2;}
	.st3{enable-background:new    ;}
	.st4{fill:#FFFFFF;}
	.st5{fill:url(#SVGID_2_);}
	.st6{fill-opacity:0;stroke:#2D3293;stroke-width:2;stroke-linejoin:bevel;}
	.st7{opacity:0.99;fill:url(#SVGID_3_);}
</style>
<g class="st0">
	
		<linearGradient id="SVGID_1_" gradientUnits="userSpaceOnUse" x1="36.15" y1="2.8868" x2="36.15" y2="101.1256" gradientTransform="matrix(1 0 0 -1 0 102)">
		<stop  offset="0" style="stop-color:#595593"/>
		<stop  offset="1.200000e-02" style="stop-color:#5B5794"/>
		<stop  offset="0.182" style="stop-color:#7B77AA"/>
		<stop  offset="0.352" style="stop-color:#9896BF"/>
		<stop  offset="0.521" style="stop-color:#B2B2D2"/>
		<stop  offset="0.687" style="stop-color:#C7C9E2"/>
		<stop  offset="0.848" style="stop-color:#D6D9EC"/>
		<stop  offset="1" style="stop-color:#DBDFF0"/>
	</linearGradient>
	<path class="st1" d="M45.2,0.9l27.1,26.8v71.4H0V0.9H45.2z"/>
	<path class="st2" d="M45.2,0.9l27.1,26.8v71.4H0V0.9H45.2z"/>
</g>
<g class="st3">
	<path class="st4" d="M9.3,91.2V71.3h6.1L19,84.8l3.6-13.6h6.1v19.9H25V75.5l-4,15.7h-3.9l-4-15.7v15.7H9.3z"/>
	<path class="st4" d="M32.8,91.2V71.3h6.5c2.5,0,4.1,0.1,4.8,0.3c1.2,0.3,2.1,0.9,2.9,1.9s1.2,2.3,1.2,3.9c0,1.2-0.2,2.2-0.7,3.1
		c-0.4,0.8-1,1.5-1.7,2c-0.7,0.5-1.4,0.8-2.1,0.9c-1,0.2-2.4,0.3-4.2,0.3h-2.6v7.5H32.8z M36.8,74.6v5.6H39c1.6,0,2.7-0.1,3.2-0.3
		c0.5-0.2,1-0.5,1.3-1c0.3-0.4,0.5-1,0.5-1.5c0-0.7-0.2-1.3-0.6-1.8c-0.4-0.5-1-0.8-1.6-0.9c-0.5-0.1-1.5-0.1-2.9-0.1H36.8z"/>
	<path class="st4" d="M50.5,85.9l3.7-0.4c0.1,0.9,0.4,1.7,1,2.2c0.5,0.5,1.2,0.7,1.9,0.7c0.8,0,1.5-0.3,2-0.9
		c0.5-0.6,0.8-1.4,0.8-2.4c0-1-0.3-1.7-0.8-2.3s-1.2-0.8-1.9-0.8c-0.5,0-1.1,0.1-1.8,0.3l0.4-3.1c1,0,1.8-0.2,2.4-0.7
		s0.8-1.1,0.8-1.9c0-0.7-0.2-1.2-0.6-1.6s-0.9-0.6-1.6-0.6c-0.7,0-1.2,0.2-1.7,0.7c-0.5,0.5-0.8,1.1-0.9,2l-3.6-0.6
		c0.2-1.2,0.6-2.2,1.1-2.9c0.5-0.7,1.2-1.3,2.1-1.7c0.9-0.4,1.9-0.6,3-0.6c1.9,0,3.4,0.6,4.6,1.8c0.9,1,1.4,2.1,1.4,3.3
		c0,1.7-1,3.1-2.9,4.2c1.2,0.2,2.1,0.8,2.8,1.6c0.7,0.8,1,1.9,1,3.1c0,1.7-0.6,3.2-1.9,4.5c-1.3,1.2-2.9,1.8-4.8,1.8
		c-1.8,0-3.3-0.5-4.5-1.6C51.4,88.9,50.7,87.6,50.5,85.9z"/>
</g>
<g class="st0">
	
		<linearGradient id="SVGID_2_" gradientUnits="userSpaceOnUse" x1="58.3206" y1="87.2734" x2="50.783" y2="78.8387" gradientTransform="matrix(1 0 0 -1 0 102)">
		<stop  offset="0" style="stop-color:#595593"/>
		<stop  offset="7.000000e-02" style="stop-color:#706CA2"/>
		<stop  offset="0.159" style="stop-color:#8988B5"/>
		<stop  offset="0.255" style="stop-color:#A3A5C8"/>
		<stop  offset="0.359" style="stop-color:#BABFD9"/>
		<stop  offset="0.471" style="stop-color:#CED5E7"/>
		<stop  offset="0.598" style="stop-color:#DEE6F2"/>
		<stop  offset="0.751" style="stop-color:#E9F3FA"/>
		<stop  offset="1" style="stop-color:#ECF8FE"/>
	</linearGradient>
	<path class="st5" d="M45.2,0.9l27.1,26.8H45.2V0.9z"/>
	<path class="st6" d="M45.2,0.9l27.1,26.8H45.2V0.9z"/>
</g>
<linearGradient id="SVGID_3_" gradientUnits="userSpaceOnUse" x1="14.776" y1="56.1739" x2="57.7264" y2="56.1739" gradientTransform="matrix(1 0 0 -1 0 102)">
	<stop  offset="0" style="stop-color:#352C7F"/>
	<stop  offset="7.400000e-02" style="stop-color:#3E3786"/>
	<stop  offset="0.266" style="stop-color:#544F96"/>
	<stop  offset="0.457" style="stop-color:#6763A5"/>
	<stop  offset="0.645" style="stop-color:#7572B1"/>
	<stop  offset="0.827" style="stop-color:#7E7CBA"/>
	<stop  offset="1" style="stop-color:#8180BD"/>
</linearGradient>
<path class="st7" d="M14.8,39.3h6.5l13-10v33l-13-10h-6.5V39.3z M40.9,49.5v2.9l0,0c0.1,0,1.6,0,3.2-0.8l0,0
	c1.6-0.8,3.4-2.7,3.4-5.8l0,0c0-3.1-1.7-5-3.4-5.8l0,0c-1.6-0.8-3.1-0.8-3.2-0.8v2.9l0,0c0,0,0,0,0.1,0l0,0c0.4,0,1.4,0.2,2.1,0.7
	l0,0c0.8,0.5,1.4,1.2,1.4,3l0,0c0,2-0.8,2.6-1.8,3.2l0,0c-0.5,0.2-1,0.4-1.3,0.4l0,0c-0.2,0-0.3,0-0.4,0.1l0,0
	C40.9,49.5,40.9,49.5,40.9,49.5L40.9,49.5z M40.9,54.6v2.9l0,0c0.1,0,2.8,0,5.8-1.4l0,0c2.9-1.4,6-4.6,5.9-10.1l0,0
	c0.1-5.6-3-8.7-5.9-10.1l0,0c-2.9-1.4-5.6-1.4-5.8-1.4v2.9l0,0c0,0,0.1,0,0.3,0l0,0c0.8,0.1,3.1,0.4,4.9,1.6l0,0
	c1.9,1.2,3.5,3.1,3.5,7.1l0,0c0,4.6-2.1,6.5-4.3,7.5l0,0c-1.1,0.6-2.2,0.8-3.1,1l0,0c-0.4,0.1-0.8,0.1-1,0.1l0,0
	C41,54.6,40.9,54.6,40.9,54.6L40.9,54.6z M40.9,59.6v2.9l0,0c0.1,0,4.1,0,8.3-2.1l0,0c4.2-2,8.5-6.5,8.5-14.6l0,0
	c0.1-8.1-4.3-12.6-8.5-14.6l0,0c-4.2-2.1-8.2-2.1-8.3-2.1V32l0,0c0,0,0.2,0,0.6,0l0,0c1.3,0.1,4.8,0.6,7.7,2.5l0,0
	c2.9,1.9,5.5,5.1,5.6,11.3l0,0c-0.1,7-3.4,10.2-6.9,12l0,0c-1.7,0.9-3.5,1.3-4.9,1.5l0,0c-0.7,0.1-1.2,0.2-1.6,0.2l0,0
	C41.1,59.6,40.9,59.6,40.9,59.6L40.9,59.6z M40.9,32.1L40.9,32.1L40.9,32.1L40.9,32.1z"/>
</svg>
