<?xml version="1.0" encoding="utf-8"?>
<!-- Generator: Adobe Illustrator 21.1.0, SVG Export Plug-In . SVG Version: 6.00 Build 0)  -->
<svg version="1.1" id="Layer_1" xmlns="http://www.w3.org/2000/svg" xmlns:xlink="http://www.w3.org/1999/xlink" x="0px" y="0px"
	 viewBox="0 0 72 100" style="enable-background:new 0 0 72 100;" xml:space="preserve">
<style type="text/css">
	.st0{fill:url(#SVGID_1_);}
	.st1{fill:url(#SVGID_2_);fill-opacity:0;stroke:#235427;stroke-width:2;}
	.st2{enable-background:new    ;}
	.st3{fill:#FFFFFF;}
	.st4{fill:url(#SVGID_3_);}
	.st5{fill:url(#SVGID_4_);}
	.st6{fill:url(#SVGID_5_);}
	.st7{fill:url(#SVGID_6_);}
	.st8{fill:url(#SVGID_7_);}
	.st9{fill:url(#SVGID_8_);}
	.st10{fill-opacity:0;stroke:#235427;stroke-width:2;stroke-linejoin:bevel;}
</style>
<linearGradient id="SVGID_1_" gradientUnits="userSpaceOnUse" x1="36.2" y1="3.0053" x2="36.2" y2="101.0001" gradientTransform="matrix(1 0 0 -1 0 102)">
	<stop  offset="2.949025e-02" style="stop-color:#235427"/>
	<stop  offset="0.4624" style="stop-color:#4EB056"/>
	<stop  offset="0.998" style="stop-color:#64D66D"/>
</linearGradient>
<path class="st0" d="M45.2,1l26.9,26.7V99H0.3V1H45.2z"/>
<linearGradient id="SVGID_2_" gradientUnits="userSpaceOnUse" x1="0.325" y1="49.9973" x2="72.075" y2="49.9973">
	<stop  offset="5.000000e-03" style="stop-color:#077265"/>
	<stop  offset="0.343" style="stop-color:#006A69"/>
	<stop  offset="1" style="stop-color:#003836"/>
</linearGradient>
<path class="st1" d="M45.2,1l26.9,26.7V99H0.3V1H45.2z"/>
<g class="st2">
	<path class="st3" d="M7.2,91.1V71.2h6l3.6,13.5l3.6-13.5h6v19.8h-3.7V75.4l-4,15.6h-3.9l-4-15.6v15.6H7.2z"/>
	<path class="st3" d="M30.5,91.1V71.2h6.5c2.5,0,4.1,0.1,4.8,0.3c1.1,0.3,2.1,0.9,2.9,1.9c0.8,1,1.2,2.3,1.2,3.9
		c0,1.2-0.2,2.2-0.7,3.1c-0.4,0.8-1,1.5-1.7,2c-0.7,0.5-1.4,0.8-2.1,0.9c-1,0.2-2.4,0.3-4.2,0.3h-2.6v7.5H30.5z M34.5,74.6v5.6h2.2
		c1.6,0,2.7-0.1,3.2-0.3c0.5-0.2,1-0.5,1.3-1c0.3-0.4,0.5-1,0.5-1.5c0-0.7-0.2-1.3-0.6-1.8c-0.4-0.5-1-0.8-1.6-0.9
		c-0.5-0.1-1.4-0.1-2.9-0.1H34.5z"/>
	<path class="st3" d="M49.1,71.2h7.4c1.7,0,2.9,0.1,3.8,0.4c1.2,0.3,2.2,1,3,1.8s1.5,1.9,1.9,3.2c0.4,1.3,0.7,2.8,0.7,4.7
		c0,1.6-0.2,3-0.6,4.2c-0.5,1.4-1.2,2.6-2.1,3.5c-0.7,0.7-1.6,1.2-2.8,1.6c-0.9,0.3-2.1,0.4-3.6,0.4h-7.6V71.2z M53.1,74.6v13.1h3
		c1.1,0,1.9-0.1,2.4-0.2c0.7-0.2,1.2-0.4,1.6-0.8c0.4-0.4,0.8-1,1.1-1.9c0.3-0.9,0.4-2.1,0.4-3.6c0-1.5-0.1-2.7-0.4-3.5
		c-0.3-0.8-0.7-1.5-1.1-1.9c-0.5-0.5-1.1-0.8-1.9-0.9c-0.6-0.1-1.7-0.2-3.3-0.2H53.1z"/>
</g>
<g>
	<g>
		<linearGradient id="SVGID_3_" gradientUnits="userSpaceOnUse" x1="27.8456" y1="19.2" x2="27.8456" y2="62">
			<stop  offset="0" style="stop-color:#235427"/>
			<stop  offset="1" style="stop-color:#44984B"/>
		</linearGradient>
		<polygon class="st4" points="15.1,24 40.6,19.2 40.6,62 15.1,57.3 		"/>
	</g>
	<g>
		<linearGradient id="SVGID_4_" gradientUnits="userSpaceOnUse" x1="47.5776" y1="23.5429" x2="47.5776" y2="57.8459">
			<stop  offset="0" style="stop-color:#235427"/>
			<stop  offset="1" style="stop-color:#44984B"/>
		</linearGradient>
		<path class="st5" d="M58.4,57.8H36.8c-1.1,0-1.9-0.9-1.9-1.9V25.4c0-1.1,0.9-1.9,1.9-1.9h21.7c1.1,0,1.9,0.9,1.9,1.9V56
			C60.3,57,59.5,57.8,58.4,57.8z M36.8,25.2c-0.1,0-0.2,0.1-0.2,0.2V56c0,0.1,0.1,0.2,0.2,0.2h21.7c0.1,0,0.2-0.1,0.2-0.2V25.4
			c0-0.1-0.1-0.2-0.2-0.2H36.8z"/>
	</g>
	<g>
		<linearGradient id="SVGID_5_" gradientUnits="userSpaceOnUse" x1="47.1685" y1="29.2706" x2="47.1685" y2="42.1735">
			<stop  offset="0" style="stop-color:#235427"/>
			<stop  offset="1" style="stop-color:#44984B"/>
		</linearGradient>
		<polygon class="st6" points="55.3,42.2 52.4,42.2 52.4,32.2 39.1,32.2 39.1,29.3 55.3,29.3 		"/>
	</g>
	<g>
		<linearGradient id="SVGID_6_" gradientUnits="userSpaceOnUse" x1="53.6515" y1="39.0265" x2="53.6515" y2="44.6912">
			<stop  offset="0" style="stop-color:#235427"/>
			<stop  offset="1" style="stop-color:#44984B"/>
		</linearGradient>
		<polygon class="st7" points="53.7,44.7 48.6,39 53.7,39 58.7,39 		"/>
	</g>
	<g>
		<linearGradient id="SVGID_7_" gradientUnits="userSpaceOnUse" x1="45.9751" y1="42.1825" x2="45.9751" y2="53.1309">
			<stop  offset="0" style="stop-color:#235427"/>
			<stop  offset="1" style="stop-color:#44984B"/>
		</linearGradient>
		<polygon class="st8" points="40.5,47.7 46,42.2 51.4,47.7 46,53.1 		"/>
	</g>
</g>
<g>
	<path class="st3" d="M31,34.1c-0.4-0.4-1-0.8-1.7-0.9C28.7,33,27.9,33,27.2,33c-1.4,0.1-4,0.3-4,0.3l-0.1,13.9l2.6,0.2v-4.9
		c0,0,1.5,0.2,2.9-0.1c0.8-0.2,1.4-0.6,1.8-0.9c0.4-0.4,0.8-1,1.1-1.4c0.4-0.7,0.5-1.4,0.5-2.5C32.2,36.1,31.8,34.9,31,34.1z
		 M28.9,39c-0.5,1.1-1.8,1.1-1.8,1.1h-1.3v-4.4c0,0,0.9-0.1,1.7,0c0.4,0.1,0.8,0.2,0.9,0.3C29.1,36.5,29.4,38,28.9,39z"/>
</g>
<linearGradient id="SVGID_8_" gradientUnits="userSpaceOnUse" x1="45.2139" y1="74.2291" x2="58.667" y2="87.6823" gradientTransform="matrix(1 0 0 -1 0 102)">
	<stop  offset="0.4842" style="stop-color:#CCF8D2"/>
	<stop  offset="0.9308" style="stop-color:#429B4E"/>
	<stop  offset="0.998" style="stop-color:#2D7136"/>
</linearGradient>
<path class="st9" d="M45.2,1l26.9,26.7H45.2V1z"/>
<path class="st10" d="M45.2,1l26.9,26.7H45.2V1z"/>
</svg>
