<?xml version="1.0" encoding="utf-8"?>
<!-- Generator: Adobe Illustrator 21.1.0, SVG Export Plug-In . SVG Version: 6.00 Build 0)  -->
<svg version="1.1" id="Layer_2" xmlns="http://www.w3.org/2000/svg" xmlns:xlink="http://www.w3.org/1999/xlink" x="0px" y="0px"
	 viewBox="0 0 72 100" style="enable-background:new 0 0 72 100;" xml:space="preserve">
<style type="text/css">
	.st0{fill:url(#SVGID_1_);}
	.st1{fill-opacity:0;stroke:#882383;stroke-width:2;}
	.st2{enable-background:new    ;}
	.st3{fill:#FFFFFF;}
	.st4{fill:url(#SVGID_2_);}
	.st5{fill:url(#SVGID_3_);}
	.st6{fill:url(#SVGID_4_);}
	.st7{fill-opacity:0;stroke:#882383;stroke-width:2;stroke-linejoin:bevel;}
</style>
<g>
	
		<linearGradient id="SVGID_1_" gradientUnits="userSpaceOnUse" x1="36.2" y1="100.9998" x2="36.2" y2="3.0054" gradientTransform="matrix(1 0 0 -1 0 102)">
		<stop  offset="0" style="stop-color:#E2CDE4"/>
		<stop  offset="0.17" style="stop-color:#E0CAE2"/>
		<stop  offset="0.313" style="stop-color:#DBC0DD"/>
		<stop  offset="0.447" style="stop-color:#D2B1D4"/>
		<stop  offset="0.575" style="stop-color:#C79DC7"/>
		<stop  offset="0.698" style="stop-color:#BA84B9"/>
		<stop  offset="0.819" style="stop-color:#AB68A9"/>
		<stop  offset="0.934" style="stop-color:#9C4598"/>
		<stop  offset="1" style="stop-color:#932A8E"/>
	</linearGradient>
	<path class="st0" d="M45.2,1l27,26.7V99h-72V1H45.2z"/>
	<path class="st1" d="M45.2,1l27,26.7V99h-72V1H45.2z"/>
</g>
<g class="st2">
	<path class="st3" d="M5.5,91.1V75.3h4.8l2.9,10.7l2.9-10.7h4.8v15.7h-3V78.7l-3.2,12.4h-3.1L8.5,78.7v12.4H5.5z"/>
	<path class="st3" d="M24.1,91.1V75.3h5.2c2,0,3.2,0.1,3.8,0.2c0.9,0.2,1.7,0.8,2.3,1.5c0.6,0.8,0.9,1.8,0.9,3.1
		c0,1-0.2,1.8-0.5,2.4s-0.8,1.2-1.4,1.6c-0.5,0.4-1.1,0.6-1.7,0.7c-0.8,0.2-1.9,0.2-3.3,0.2h-2.1v5.9H24.1z M27.3,78v4.5H29
		c1.3,0,2.1-0.1,2.5-0.2c0.4-0.2,0.8-0.4,1-0.8c0.2-0.4,0.4-0.8,0.4-1.2c0-0.6-0.2-1-0.5-1.4c-0.3-0.4-0.8-0.6-1.3-0.7
		C30.8,78,30,78,28.8,78H27.3z"/>
	<path class="st3" d="M38.9,91.1V75.3h11.8V78h-8.6v3.5h8v2.7h-8v4.3H51v2.7H38.9z"/>
	<path class="st3" d="M61.1,85.3v-2.7H68v6.3c-0.7,0.6-1.6,1.2-2.9,1.7c-1.3,0.5-2.6,0.7-3.9,0.7c-1.7,0-3.1-0.3-4.4-1
		c-1.2-0.7-2.2-1.7-2.8-3c-0.6-1.3-0.9-2.7-0.9-4.2c0-1.6,0.3-3.1,1-4.4s1.7-2.3,3-2.9c1-0.5,2.3-0.8,3.8-0.8c2,0,3.5,0.4,4.6,1.2
		c1.1,0.8,1.8,2,2.1,3.4l-3.2,0.6c-0.2-0.8-0.6-1.4-1.3-1.8c-0.6-0.4-1.4-0.7-2.3-0.7c-1.4,0-2.5,0.4-3.3,1.3s-1.2,2.2-1.2,3.9
		c0,1.9,0.4,3.3,1.3,4.2c0.8,0.9,1.9,1.4,3.3,1.4c0.7,0,1.3-0.1,2-0.4c0.7-0.3,1.3-0.6,1.7-1v-2H61.1z"/>
</g>
<g>
	
		<linearGradient id="SVGID_2_" gradientUnits="userSpaceOnUse" x1="18.2" y1="50.023" x2="18.2" y2="50.023" gradientTransform="matrix(1 0 0 -1 0 102)">
		<stop  offset="5.000000e-03" style="stop-color:#963491"/>
		<stop  offset="1" style="stop-color:#70136B"/>
	</linearGradient>
	<path class="st4" d="M18.2,52"/>
	
		<linearGradient id="SVGID_3_" gradientUnits="userSpaceOnUse" x1="11.511" y1="51.7156" x2="65.211" y2="51.7156" gradientTransform="matrix(1 0 0 -1 0 102)">
		<stop  offset="5.000000e-03" style="stop-color:#963491"/>
		<stop  offset="1" style="stop-color:#70136B"/>
	</linearGradient>
	<path class="st5" d="M64.3,55.5c-1.7-0.2-3.4-0.3-5.1-0.3c-7.3-0.1-13.3,1.6-18.8,3.7c-5.5,2.1-10.8,4.7-17.1,5.1
		c-3.4,0.2-7.3-0.6-8.5-2.4c-0.8-1.3-0.8-3.5-1-5.7c-0.6-5.7-1.6-11.7-2.4-17.3c0.8-0.9,2.1-1.3,3.4-1.7c0.4,1.1,0.2,2.7,0.6,3.8
		c7.1,0.7,13.6-0.4,20-1.5c6.3-1.1,12.4-2.2,19.4-2.6c3.4-0.2,6.9-0.2,10.3,0 M55.2,51.9c0.5-0.2,1.1-0.3,1.9-0.2
		c0.2-3.7,0.3-7.3,0.3-11.2c-6.2,0.2-11.9,0.9-17,2.2c0.2,4,0.4,7.8,0.3,12c4-1.1,7.7-2.5,12.6-2.7 M55.3,39.9c0.4,0,0.7,0,1.1,0
		c0.4-0.4,0.2-1.2,0.2-1.9C55.1,37.4,54.8,39,55.3,39.9z M59.2,39.7c0.5,0,1,0,1.5,0c0-0.6,0-1.1,0-1.7c-0.4,0-0.9,0-1.3,0
		C59.4,38.7,59,38.9,59.2,39.7z M63.2,39.7c0.5-0.1,0.8,0,1.1,0.2c0.4-0.3,0.2-1.2,0.2-1.9c-0.4,0-0.8,0-1.3,0
		C63.2,38.6,63.2,39.1,63.2,39.7z M51.7,40c0.3,0,0.6,0,0.9,0c0.4-0.3,0.2-1.2,0.2-1.9C51.4,37.7,51.2,39.3,51.7,40z M47.7,40.4
		c0.7,0.2,0.8-0.3,1.5-0.2c0-0.6,0-1.1,0-1.7C47.7,38.1,47.5,39.1,47.7,40.4z M44.1,39.3c0,0.6-0.1,1.4,0.2,1.7
		c0.5,0.1,0.5-0.4,1.1-0.2c-0.2-0.6,0.5-2-0.4-1.9C44.9,39.3,44.2,39,44.1,39.3z M12.6,40.1c0.4-0.1,1.1,0.6,1.3,0
		c-0.5,0-0.1-0.8-0.2-1.1C13,39.2,12.4,39.3,12.6,40.1z M40.9,39.7c-0.3,0.3,0.2,1.1,0,1.9c0.6,0.2,0.6-0.3,1.1-0.2
		c-0.2-0.6,0.5-2-0.4-1.9C41.5,39.8,41.2,39.7,40.9,39.7z M37.4,42.5c0.5-0.1,0.9-0.2,1.3-0.4c0.2-0.8-0.4-0.9-0.2-1.7
		c-0.3,0-0.6,0-0.9,0C37.3,40.7,37.5,41.7,37.4,42.5z M64.3,40.7c-2.1-0.1-3.3-0.2-5.5-0.2c-0.5,3.4,0,7.8-0.5,11.2
		c2.4,0,3.6,0.1,5.8,0.3 M33.4,41.6c0.5,0.2,0.1,1.2,0.2,1.7c0.5-0.1,1.1-0.2,1.5-0.4C35.7,41,34.2,40.5,33.4,41.6z M28.7,42.2
		c0,0.6,0,1.3,0,1.9c0.9,0.2,1.2-0.2,1.9-0.2c-0.1-0.7,0.2-1.7-0.2-2.1C29.9,42,29.1,41.9,28.7,42.2z M23.4,42.8
		c0.3,0.5,0,1.6,0.4,2.1c0.7,0.1,0.8-0.4,1.5-0.2c-0.1-0.7-0.3-1.2-0.2-2.1C24.3,42.4,24.2,42.9,23.4,42.8z M15.9,44.8
		c0.4,0,0.7,0,1.1,0c0.2-0.9-0.4-1.2-0.2-2.1c-0.4,0.1-1.2-0.3-1.3,0.2C16.1,43.1,15.4,44.6,15.9,44.8z M19.3,45.8
		c0.1,4.1,0.9,9.3,1.4,13.7c8,0.1,13.1-2.7,19.2-4.5c-0.5-3.9,0.1-8.7-0.7-12.2C33,44.4,27.1,46,19.3,45.8z M19.8,45
		c0.4,0,0.7,0,1.1,0c0.4-0.5-0.2-1.2,0-2.1c-0.5,0-1,0-1.5,0C19.5,43.6,19.5,44.5,19.8,45z M14.4,52.8c0.2,0,0.3,0.2,0.4,0.4
		c-0.4-0.7-0.7,0.5-0.2,0.6c0.1-0.2,0-0.4,0.2-0.4c0.3,0.5-0.8,0.7-0.2,0.8c0.7-0.5,1.3-1.2,2.4-1.5c-0.1,1.5,0.4,2.4,0.4,3.8
		c-0.7,0.5-1.7,0.7-1.9,1.7c1.2,0.7,2.5,1.2,4.2,1.3c-0.7-4.9-1.1-8.8-1.6-13.7c-2.2,0.3-4-0.8-5.1-0.9c0.9,0.8,0.6,2.5,0.8,3.6
		c0-0.2,0-0.4,0.2-0.4c-0.1,0.7,0.1,1.7-0.2,2.1c0.7,0.3,0.5-0.2,0.4,0.9 M58.8,54.3c0.4,0,0.7,0,1.1,0c0.3-0.3,0.2-1.1,0.2-1.7
		c-0.4,0-0.9,0-1.3,0C58.8,53.1,58.8,53.7,58.8,54.3z M54.8,52.9c0,0.4,0,0.9,0,1.3c0.4,0.4,0.7-0.2,1.5,0c0-0.5,0-1,0-1.5
		C55.7,52.7,55.1,52.7,54.8,52.9z M62.4,54.3c0.4,0,0.8,0,1.3,0c0-0.5,0-1,0-1.5c-0.4,0-0.9,0-1.3,0C62.5,53.3,62.4,53.8,62.4,54.3z
		 M51.4,53.3c0,0.4,0,0.8,0,1.3c0.4,0,0.7,0,1.1,0c0.3-0.3,0.4-1.7-0.2-1.7C52.2,53.3,51.5,53,51.4,53.3z M47.8,53.7
		c0.1,0.6-0.3,1.7,0.4,1.7c0-0.3,0.5-0.2,0.9-0.2c-0.2-0.5,0.4-1.8-0.4-1.7C48.6,53.8,48.1,53.7,47.8,53.7z M44.4,54.7
		c0,0.5,0,1,0,1.5c0.7,0.2,0.6-0.4,1.3-0.2c-0.2-0.5,0.4-1.8-0.4-1.7C45.2,54.6,44.5,54.5,44.4,54.7z M15,57
		c0.7-0.5,1.3-1.7,0.2-2.3C14.5,55.1,14.4,56.3,15,57z M41.1,55.7c-0.1,0.7,0.4,0.8,0.2,1.5c0.9,0,1.2-0.6,1.1-1.7
		C42,55,41.6,55.6,41.1,55.7z M38.1,58.4c1,0,1.2-0.8,1.1-1.9c-0.3,0-0.6,0-0.9,0C38,56.9,38.2,57.8,38.1,58.4z M34.5,58
		c0,0.6,0,1.1,0,1.7c0.6-0.1,1.3-0.2,1.5-0.8c-0.6,0,0.3-1.6-0.6-1.3C35.4,58,34.7,57.7,34.5,58z M16,60.8c-0.4-0.7-0.2-2-1.3-1.9
		C14.9,59.6,14.9,61.6,16,60.8z M29.8,59.9c0.5,0,0.1,0.9,0.2,1.3c0.8,0.1,1.2-0.2,1.7-0.4c0-0.6,0-1.1,0-1.7
		C30.8,59,30.1,59.2,29.8,59.9z M25.1,60.5c0,0.8-0.1,1.7,0.4,1.9c0-0.5,0.8-0.1,1.1-0.2c0.3-0.3-0.2-1.1,0-1.9
		C25.9,60.1,25.6,60.4,25.1,60.5z M19,62.3c0-0.6,0-1.1,0-1.7c-0.5,0-0.6-0.4-1.3-0.2C17.6,61.5,17.7,62.5,19,62.3z M21.5,62.5
		c0.4,0,0.8,0,1.3,0c0.2-0.9-0.3-1.1-0.2-1.9c-0.4,0-0.9,0-1.3,0C21.2,61.5,21.5,61.8,21.5,62.5z"/>
</g>
<g>
	
		<linearGradient id="SVGID_4_" gradientUnits="userSpaceOnUse" x1="45.2686" y1="74.2055" x2="58.7686" y2="87.7055" gradientTransform="matrix(1 0 0 -1 0 102)">
		<stop  offset="0" style="stop-color:#F9EFF6"/>
		<stop  offset="0.378" style="stop-color:#F8EDF5"/>
		<stop  offset="0.515" style="stop-color:#F3E6F1"/>
		<stop  offset="0.612" style="stop-color:#ECDBEB"/>
		<stop  offset="0.69" style="stop-color:#E3CCE2"/>
		<stop  offset="0.757" style="stop-color:#D7B8D7"/>
		<stop  offset="0.817" style="stop-color:#CAA1C9"/>
		<stop  offset="0.871" style="stop-color:#BC88BB"/>
		<stop  offset="0.921" style="stop-color:#AE6CAB"/>
		<stop  offset="0.965" style="stop-color:#9F4D9B"/>
		<stop  offset="1" style="stop-color:#932A8E"/>
	</linearGradient>
	<path class="st6" d="M45.2,1l27,26.7h-27V1z"/>
	<path class="st7" d="M45.2,1l27,26.7h-27V1z"/>
</g>
</svg>
