<?xml version="1.0" encoding="utf-8"?>
<!-- Generator: Adobe Illustrator 21.1.0, SVG Export Plug-In . SVG Version: 6.00 Build 0)  -->
<svg version="1.1" id="Layer_1" xmlns="http://www.w3.org/2000/svg"  x="0px" y="0px"
	 viewBox="0 0 72 100" style="enable-background:new 0 0 72 100;" xml:space="preserve">
<style type="text/css">
	.st0{fill:url(#SVGID_1_);}
	.st1{fill-opacity:0;stroke:#7191A1;stroke-width:2;}
	.st2{enable-background:new    ;}
	.st3{fill:#4C6C7B;}
	.st4{fill:url(#SVGID_2_);}
	.st5{fill-opacity:0;stroke:#7191A1;stroke-width:2;stroke-linejoin:bevel;}
	.st6{fill:url(#SVGID_3_);stroke:url(#SVGID_4_);stroke-miterlimit:10;}
	.st7{fill:url(#SVGID_5_);stroke:url(#SVGID_6_);stroke-miterlimit:10;}
	.st8{fill:url(#SVGID_7_);stroke:url(#SVGID_8_);stroke-miterlimit:10;}
	.st9{fill:url(#SVGID_9_);stroke:url(#SVGID_10_);stroke-miterlimit:10;}
	.st10{fill:url(#SVGID_11_);stroke:url(#SVGID_12_);stroke-miterlimit:10;}
	.st11{fill:url(#SVGID_13_);stroke:url(#SVGID_14_);stroke-miterlimit:10;}
</style>
<g>
	
		<linearGradient id="SVGID_1_" gradientUnits="userSpaceOnUse" x1="36" y1="2.9534" x2="36" y2="100.9501" gradientTransform="matrix(1 0 0 -1 0 102)">
		<stop  offset="0" style="stop-color:#C8D4DB"/>
		<stop  offset="0.139" style="stop-color:#D8E1E6"/>
		<stop  offset="0.359" style="stop-color:#EBF0F3"/>
		<stop  offset="0.617" style="stop-color:#F9FAFB"/>
		<stop  offset="1" style="stop-color:#FFFFFF"/>
	</linearGradient>
	<path class="st0" d="M45,1l27,26.7V99H0V1H45z"/>
	<path class="st1" d="M45,1l27,26.7V99H0V1H45z"/>
</g>
<g class="st2">
	<path class="st3" d="M9.9,91.1V71.8h3.8l8,12.9V71.8h3.7v19.3h-4l-7.9-12.6v12.6H9.9z"/>
	<path class="st3" d="M29.5,91.1V71.8H44v3.3H33.5v4.3h9.8v3.3h-9.8v5.3h10.9v3.3H29.5z"/>
	<path class="st3" d="M46.7,84.8l3.8-0.4c0.2,1.3,0.7,2.2,1.4,2.8s1.7,0.9,2.9,0.9c1.3,0,2.2-0.3,2.9-0.8c0.6-0.5,1-1.2,1-1.9
		c0-0.5-0.1-0.8-0.4-1.2c-0.3-0.3-0.7-0.6-1.4-0.8c-0.5-0.2-1.5-0.4-3.2-0.8c-2.1-0.5-3.6-1.2-4.4-1.9c-1.2-1.1-1.8-2.4-1.8-3.9
		c0-1,0.3-1.9,0.8-2.8c0.6-0.9,1.4-1.5,2.4-2s2.3-0.7,3.8-0.7c2.5,0,4.3,0.5,5.5,1.6s1.9,2.5,2,4.3l-3.9,0.2c-0.2-1-0.5-1.7-1.1-2.1
		c-0.6-0.4-1.4-0.7-2.5-0.7c-1.1,0-2,0.2-2.7,0.7c-0.4,0.3-0.6,0.7-0.6,1.2c0,0.5,0.2,0.8,0.6,1.2c0.5,0.4,1.7,0.8,3.6,1.3
		c1.9,0.4,3.3,0.9,4.3,1.4c0.9,0.5,1.6,1.1,2.2,2c0.5,0.8,0.8,1.9,0.8,3.1c0,1.1-0.3,2.1-0.9,3.1s-1.5,1.7-2.6,2.2
		c-1.1,0.5-2.6,0.7-4.2,0.7c-2.5,0-4.4-0.6-5.7-1.7C47.8,88.6,47,87,46.7,84.8z"/>
</g>
<g>
	
		<linearGradient id="SVGID_2_" gradientUnits="userSpaceOnUse" x1="45.0684" y1="74.1553" x2="58.5684" y2="87.6553" gradientTransform="matrix(1 0 0 -1 0 102)">
		<stop  offset="0" style="stop-color:#FFFFFF"/>
		<stop  offset="0.35" style="stop-color:#FAFBFB"/>
		<stop  offset="0.532" style="stop-color:#EDF1F4"/>
		<stop  offset="0.675" style="stop-color:#DDE5E9"/>
		<stop  offset="0.799" style="stop-color:#C7D3DA"/>
		<stop  offset="0.908" style="stop-color:#ADBDC7"/>
		<stop  offset="1" style="stop-color:#92A5B0"/>
	</linearGradient>
	<path class="st4" d="M45,1l27,26.7H45V1z"/>
	<path class="st5" d="M45,1l27,26.7H45V1z"/>
</g>
<g>
	<linearGradient id="SVGID_3_" gradientUnits="userSpaceOnUse" x1="9.6" y1="43.0497" x2="63" y2="43.0497">
		<stop  offset="0" style="stop-color:#869BA6"/>
		<stop  offset="0.379" style="stop-color:#8399A4"/>
		<stop  offset="0.576" style="stop-color:#7B929E"/>
		<stop  offset="0.731" style="stop-color:#6D8694"/>
		<stop  offset="0.863" style="stop-color:#5A7785"/>
		<stop  offset="0.981" style="stop-color:#426373"/>
		<stop  offset="0.99" style="stop-color:#416271"/>
	</linearGradient>
	<linearGradient id="SVGID_4_" gradientUnits="userSpaceOnUse" x1="9.1" y1="43.0497" x2="63.5" y2="43.0497">
		<stop  offset="0" style="stop-color:#869BA6"/>
		<stop  offset="0.379" style="stop-color:#8399A4"/>
		<stop  offset="0.576" style="stop-color:#7B929E"/>
		<stop  offset="0.731" style="stop-color:#6D8694"/>
		<stop  offset="0.863" style="stop-color:#5A7785"/>
		<stop  offset="0.981" style="stop-color:#426373"/>
		<stop  offset="0.99" style="stop-color:#416271"/>
	</linearGradient>
	<path class="st6" d="M61.6,34.8H23.8v-8.3h-2.7v8.3H10.9c-0.7,0-1.3,0.6-1.3,1.3v22.2c0,0.7,0.6,1.3,1.3,1.3h50.7
		c0.7,0,1.3-0.6,1.3-1.3V36.1C62.9,35.4,62.3,34.8,61.6,34.8z M60.3,57h-48V37.4h48.1L60.3,57L60.3,57z"/>
	<linearGradient id="SVGID_5_" gradientUnits="userSpaceOnUse" x1="27.7759" y1="51.0099" x2="33.0827" y2="51.0099">
		<stop  offset="0" style="stop-color:#869BA6"/>
		<stop  offset="0.379" style="stop-color:#8399A4"/>
		<stop  offset="0.576" style="stop-color:#7B929E"/>
		<stop  offset="0.731" style="stop-color:#6D8694"/>
		<stop  offset="0.863" style="stop-color:#5A7785"/>
		<stop  offset="0.981" style="stop-color:#426373"/>
		<stop  offset="0.99" style="stop-color:#416271"/>
	</linearGradient>
	<linearGradient id="SVGID_6_" gradientUnits="userSpaceOnUse" x1="27.2759" y1="51.0099" x2="33.5827" y2="51.0099">
		<stop  offset="0" style="stop-color:#869BA6"/>
		<stop  offset="0.379" style="stop-color:#8399A4"/>
		<stop  offset="0.576" style="stop-color:#7B929E"/>
		<stop  offset="0.731" style="stop-color:#6D8694"/>
		<stop  offset="0.863" style="stop-color:#5A7785"/>
		<stop  offset="0.981" style="stop-color:#426373"/>
		<stop  offset="0.99" style="stop-color:#416271"/>
	</linearGradient>
	<path class="st7" d="M29.1,52.3h2.7c0.7,0,1.3-0.6,1.3-1.3c0-0.7-0.6-1.3-1.3-1.3h-2.7c-0.7,0-1.3,0.6-1.3,1.3
		C27.8,51.7,28.4,52.3,29.1,52.3z"/>
	<linearGradient id="SVGID_7_" gradientUnits="userSpaceOnUse" x1="35.0728" y1="51.0099" x2="40.3796" y2="51.0099">
		<stop  offset="0" style="stop-color:#869BA6"/>
		<stop  offset="0.379" style="stop-color:#8399A4"/>
		<stop  offset="0.576" style="stop-color:#7B929E"/>
		<stop  offset="0.731" style="stop-color:#6D8694"/>
		<stop  offset="0.863" style="stop-color:#5A7785"/>
		<stop  offset="0.981" style="stop-color:#426373"/>
		<stop  offset="0.99" style="stop-color:#416271"/>
	</linearGradient>
	<linearGradient id="SVGID_8_" gradientUnits="userSpaceOnUse" x1="34.5728" y1="51.0099" x2="40.8796" y2="51.0099">
		<stop  offset="0" style="stop-color:#869BA6"/>
		<stop  offset="0.379" style="stop-color:#8399A4"/>
		<stop  offset="0.576" style="stop-color:#7B929E"/>
		<stop  offset="0.731" style="stop-color:#6D8694"/>
		<stop  offset="0.863" style="stop-color:#5A7785"/>
		<stop  offset="0.981" style="stop-color:#426373"/>
		<stop  offset="0.99" style="stop-color:#416271"/>
	</linearGradient>
	<path class="st8" d="M36.4,52.3h2.7c0.7,0,1.3-0.6,1.3-1.3c0-0.7-0.6-1.3-1.3-1.3h-2.7c-0.7,0-1.3,0.6-1.3,1.3
		C35.1,51.7,35.7,52.3,36.4,52.3z"/>
	<linearGradient id="SVGID_9_" gradientUnits="userSpaceOnUse" x1="14.2435" y1="47.859" x2="23.2651" y2="47.859">
		<stop  offset="0" style="stop-color:#869BA6"/>
		<stop  offset="0.379" style="stop-color:#8399A4"/>
		<stop  offset="0.576" style="stop-color:#7B929E"/>
		<stop  offset="0.731" style="stop-color:#6D8694"/>
		<stop  offset="0.863" style="stop-color:#5A7785"/>
		<stop  offset="0.981" style="stop-color:#426373"/>
		<stop  offset="0.99" style="stop-color:#416271"/>
	</linearGradient>
	<linearGradient id="SVGID_10_" gradientUnits="userSpaceOnUse" x1="13.7435" y1="47.859" x2="23.7651" y2="47.859">
		<stop  offset="0" style="stop-color:#869BA6"/>
		<stop  offset="0.379" style="stop-color:#8399A4"/>
		<stop  offset="0.576" style="stop-color:#7B929E"/>
		<stop  offset="0.731" style="stop-color:#6D8694"/>
		<stop  offset="0.863" style="stop-color:#5A7785"/>
		<stop  offset="0.981" style="stop-color:#426373"/>
		<stop  offset="0.99" style="stop-color:#416271"/>
	</linearGradient>
	<polygon class="st9" points="17.4,52.3 20.1,52.3 20.1,49.2 23.3,49.2 23.3,46.5 20.1,46.5 20.1,43.4 17.4,43.4 17.4,46.5 
		14.2,46.5 14.2,49.2 17.4,49.2 	"/>
	<linearGradient id="SVGID_11_" gradientUnits="userSpaceOnUse" x1="46.2171" y1="49.5506" x2="50.9933" y2="49.5506">
		<stop  offset="0" style="stop-color:#869BA6"/>
		<stop  offset="0.379" style="stop-color:#8399A4"/>
		<stop  offset="0.576" style="stop-color:#7B929E"/>
		<stop  offset="0.731" style="stop-color:#6D8694"/>
		<stop  offset="0.863" style="stop-color:#5A7785"/>
		<stop  offset="0.981" style="stop-color:#426373"/>
		<stop  offset="0.99" style="stop-color:#416271"/>
	</linearGradient>
	<linearGradient id="SVGID_12_" gradientUnits="userSpaceOnUse" x1="45.7171" y1="49.5506" x2="51.4933" y2="49.5506">
		<stop  offset="0" style="stop-color:#869BA6"/>
		<stop  offset="0.379" style="stop-color:#8399A4"/>
		<stop  offset="0.576" style="stop-color:#7B929E"/>
		<stop  offset="0.731" style="stop-color:#6D8694"/>
		<stop  offset="0.863" style="stop-color:#5A7785"/>
		<stop  offset="0.981" style="stop-color:#426373"/>
		<stop  offset="0.99" style="stop-color:#416271"/>
	</linearGradient>
	<circle class="st10" cx="48.6" cy="49.6" r="2.4"/>
	<linearGradient id="SVGID_13_" gradientUnits="userSpaceOnUse" x1="53.514" y1="49.5506" x2="58.2902" y2="49.5506">
		<stop  offset="0" style="stop-color:#869BA6"/>
		<stop  offset="0.379" style="stop-color:#8399A4"/>
		<stop  offset="0.576" style="stop-color:#7B929E"/>
		<stop  offset="0.731" style="stop-color:#6D8694"/>
		<stop  offset="0.863" style="stop-color:#5A7785"/>
		<stop  offset="0.981" style="stop-color:#426373"/>
		<stop  offset="0.99" style="stop-color:#416271"/>
	</linearGradient>
	<linearGradient id="SVGID_14_" gradientUnits="userSpaceOnUse" x1="53.014" y1="49.5506" x2="58.7902" y2="49.5506">
		<stop  offset="0" style="stop-color:#869BA6"/>
		<stop  offset="0.379" style="stop-color:#8399A4"/>
		<stop  offset="0.576" style="stop-color:#7B929E"/>
		<stop  offset="0.731" style="stop-color:#6D8694"/>
		<stop  offset="0.863" style="stop-color:#5A7785"/>
		<stop  offset="0.981" style="stop-color:#426373"/>
		<stop  offset="0.99" style="stop-color:#416271"/>
	</linearGradient>
	<circle class="st11" cx="55.9" cy="49.6" r="2.4"/>
</g>
</svg>
