<?xml version="1.0" encoding="utf-8"?>
<!-- Generator: Adobe Illustrator 21.1.0, SVG Export Plug-In . SVG Version: 6.00 Build 0)  -->
<svg version="1.1" id="Layer_1" xmlns="http://www.w3.org/2000/svg"  x="0px" y="0px"
	 viewBox="0 0 72 100" style="enable-background:new 0 0 72 100;" xml:space="preserve">
<style type="text/css">
	.st0{fill:url(#SVGID_1_);}
	.st1{fill-opacity:0;stroke:#7191A1;stroke-width:2;}
	.st2{enable-background:new    ;}
	.st3{fill:#4C6C7B;}
	.st4{fill:url(#SVGID_2_);}
	.st5{fill:#F2F2F2;}
	.st6{fill:url(#SVGID_3_);}
	.st7{fill:url(#SVGID_4_);}
	.st8{fill:url(#SVGID_5_);}
	.st9{fill:url(#SVGID_6_);}
	.st10{fill:#FFFFFF;}
	.st11{fill:url(#SVGID_7_);}
	.st12{fill:url(#SVGID_8_);}
	.st13{fill:url(#SVGID_9_);}
	.st14{fill-opacity:0;stroke:#7191A1;stroke-width:2;stroke-linejoin:bevel;}
</style>
<linearGradient id="SVGID_1_" gradientUnits="userSpaceOnUse" x1="36.2" y1="3.0143" x2="36.2" y2="101.0005" gradientTransform="matrix(1 0 0 -1 0 102)">
	<stop  offset="0" style="stop-color:#C8D4DB"/>
	<stop  offset="0.139" style="stop-color:#D8E1E6"/>
	<stop  offset="0.359" style="stop-color:#EBF0F3"/>
	<stop  offset="0.617" style="stop-color:#F9FAFB"/>
	<stop  offset="1" style="stop-color:#FFFFFF"/>
</linearGradient>
<path class="st0" d="M45.2,1l27.1,26.7V99H0.1V1H45.2z"/>
<path class="st1" d="M45.2,1l27.1,26.7V99H0.1V1H45.2z"/>
<g class="st2">
	<path class="st3" d="M6.6,80.3c0-2,0.3-3.7,0.9-5.1c0.5-1,1.1-1.9,1.9-2.7c0.8-0.8,1.7-1.4,2.6-1.8c1.3-0.5,2.7-0.8,4.3-0.8
		c3,0,5.3,0.9,7.1,2.7c1.8,1.8,2.7,4.3,2.7,7.6c0,3.2-0.9,5.7-2.6,7.5s-4.1,2.7-7.1,2.7c-3,0-5.4-0.9-7.1-2.7S6.6,83.4,6.6,80.3z
		 M10.8,80.1c0,2.2,0.5,3.9,1.6,5.1s2.4,1.7,4,1.7c1.6,0,2.9-0.6,4-1.7s1.6-2.9,1.6-5.2c0-2.3-0.5-4-1.5-5.1c-1-1.1-2.4-1.7-4-1.7
		s-3,0.6-4,1.7C11.3,76.1,10.8,77.9,10.8,80.1z"/>
	<path class="st3" d="M29.2,70.2h7.4c1.7,0,3,0.1,3.8,0.4c1.2,0.3,2.2,1,3,1.8c0.8,0.9,1.5,1.9,1.9,3.2s0.7,2.8,0.7,4.7
		c0,1.6-0.2,3-0.6,4.2c-0.5,1.4-1.2,2.6-2.2,3.5c-0.7,0.7-1.7,1.2-2.9,1.6c-0.9,0.3-2.1,0.4-3.6,0.4h-7.6V70.2z M33.3,73.6v13.1h3
		c1.1,0,2-0.1,2.5-0.2c0.7-0.2,1.2-0.4,1.6-0.8c0.4-0.4,0.8-1,1.1-1.9c0.3-0.9,0.4-2.1,0.4-3.6c0-1.5-0.1-2.7-0.4-3.5
		c-0.3-0.8-0.7-1.5-1.2-1.9s-1.1-0.8-1.9-0.9c-0.6-0.1-1.7-0.2-3.3-0.2H33.3z"/>
	<path class="st3" d="M49.6,70.2h8c1.6,0,2.8,0.1,3.6,0.2c0.8,0.1,1.5,0.4,2.1,0.8c0.6,0.4,1.1,1,1.5,1.7s0.6,1.5,0.6,2.3
		c0,0.9-0.3,1.8-0.8,2.6c-0.5,0.8-1.2,1.4-2.1,1.7c1.2,0.4,2.2,1,2.8,1.8c0.7,0.8,1,1.8,1,3c0,0.9-0.2,1.8-0.6,2.6
		c-0.4,0.9-1,1.5-1.7,2c-0.7,0.5-1.6,0.8-2.7,0.9C60.6,90,59,90,56.4,90.1h-6.8V70.2z M53.6,73.5v4.6h2.7c1.6,0,2.6,0,2.9-0.1
		c0.7-0.1,1.2-0.3,1.6-0.7c0.4-0.4,0.6-0.9,0.6-1.5c0-0.6-0.2-1.1-0.5-1.5c-0.3-0.4-0.9-0.6-1.5-0.7c-0.4,0-1.6-0.1-3.5-0.1H53.6z
		 M53.6,81.4v5.3h3.8c1.5,0,2.4,0,2.8-0.1c0.6-0.1,1.1-0.4,1.5-0.8c0.4-0.4,0.6-1,0.6-1.7c0-0.6-0.1-1.1-0.4-1.5
		c-0.3-0.4-0.7-0.7-1.3-0.9c-0.6-0.2-1.8-0.3-3.6-0.3H53.6z"/>
</g>
<linearGradient id="SVGID_2_" gradientUnits="userSpaceOnUse" x1="31.7471" y1="69.9349" x2="31.7471" y2="69.9864" gradientTransform="matrix(1 0 0 -1 0 102)">
	<stop  offset="0" style="stop-color:#ADCCDC"/>
	<stop  offset="1" style="stop-color:#4C6C7B"/>
</linearGradient>
<path class="st4" d="M31.8,32C31.7,32.1,31.7,32.1,31.8,32"/>
<g>
	<g>
		<path class="st5" d="M53.2,48.9c0,2.5-8.1,4.5-18,4.5s-18-2-18-4.5c0-2.5,8.1-4.5,18-4.5S53.2,46.4,53.2,48.9z"/>
		
			<linearGradient id="SVGID_3_" gradientUnits="userSpaceOnUse" x1="28.1711" y1="46.3721" x2="42.2269" y2="60.4279" gradientTransform="matrix(1 0 0 -1 0 102)">
			<stop  offset="0" style="stop-color:#CCDDE7"/>
			<stop  offset="0.212" style="stop-color:#B4CCD8"/>
			<stop  offset="0.639" style="stop-color:#7DA0B1"/>
			<stop  offset="1" style="stop-color:#4F7A8D"/>
		</linearGradient>
		<path class="st6" d="M48.7,48.6c0,2.2-6,3.9-13.5,3.9s-13.5-1.7-13.5-3.9s6-3.9,13.5-3.9S48.7,46.4,48.7,48.6z"/>
		
			<linearGradient id="SVGID_4_" gradientUnits="userSpaceOnUse" x1="17.199" y1="45.05" x2="53.199" y2="45.05" gradientTransform="matrix(1 0 0 -1 0 102)">
			<stop  offset="0" style="stop-color:#CCDDE7"/>
			<stop  offset="0.212" style="stop-color:#B4CCD8"/>
			<stop  offset="0.639" style="stop-color:#7DA0B1"/>
			<stop  offset="1" style="stop-color:#4F7A8D"/>
		</linearGradient>
		<path class="st7" d="M17.2,49.1v11.2c0,0,4.5,4.5,18,4.5s18-4.5,18-4.5V49.1c0,0-2.2,3.9-18,4.2C19.4,53.6,17.2,49.1,17.2,49.1z"
			/>
	</g>
	<g>
		<path class="st5" d="M53.2,33.1c0,2.5-8.1,4.5-18,4.5s-18-2-18-4.5c0-2.5,8.1-4.5,18-4.5S53.2,30.6,53.2,33.1z"/>
		
			<linearGradient id="SVGID_5_" gradientUnits="userSpaceOnUse" x1="28.153" y1="62.154" x2="42.2087" y2="76.2097" gradientTransform="matrix(1 0 0 -1 0 102)">
			<stop  offset="0" style="stop-color:#CCDDE7"/>
			<stop  offset="0.212" style="stop-color:#B4CCD8"/>
			<stop  offset="0.639" style="stop-color:#7DA0B1"/>
			<stop  offset="1" style="stop-color:#4F7A8D"/>
		</linearGradient>
		<path class="st8" d="M48.7,32.8c0,2.2-6,3.9-13.5,3.9S21.7,35,21.7,32.8c0-2.2,6-3.9,13.5-3.9S48.7,30.6,48.7,32.8z"/>
		
			<linearGradient id="SVGID_6_" gradientUnits="userSpaceOnUse" x1="17.199" y1="60.75" x2="53.199" y2="60.75" gradientTransform="matrix(1 0 0 -1 0 102)">
			<stop  offset="0" style="stop-color:#CCDDE7"/>
			<stop  offset="0.212" style="stop-color:#B4CCD8"/>
			<stop  offset="0.639" style="stop-color:#7DA0B1"/>
			<stop  offset="1" style="stop-color:#4F7A8D"/>
		</linearGradient>
		<path class="st9" d="M17.2,33.4v11.2c0,0,4.5,4.5,18,4.5s18-4.5,18-4.5V33.4c0,0-2.2,3.9-18,4.2C19.4,37.9,17.2,33.4,17.2,33.4z"
			/>
	</g>
	<g>
		<path class="st10" d="M53.2,17.4c0,2.5-8.1,4.5-18,4.5s-18-2-18-4.5c0-2.5,8.1-4.5,18-4.5S53.2,14.9,53.2,17.4z"/>
		
			<linearGradient id="SVGID_7_" gradientUnits="userSpaceOnUse" x1="28.1711" y1="77.8721" x2="42.2269" y2="91.9279" gradientTransform="matrix(1 0 0 -1 0 102)">
			<stop  offset="0" style="stop-color:#CCDDE7"/>
			<stop  offset="0.265" style="stop-color:#B5CCD8"/>
			<stop  offset="0.798" style="stop-color:#7FA0B1"/>
			<stop  offset="1" style="stop-color:#6A8FA1"/>
		</linearGradient>
		<path class="st11" d="M48.7,17.1c0,2.2-6,3.9-13.5,3.9s-13.5-1.7-13.5-3.9s6-3.9,13.5-3.9S48.7,14.9,48.7,17.1z"/>
		
			<linearGradient id="SVGID_8_" gradientUnits="userSpaceOnUse" x1="17.199" y1="76.55" x2="53.199" y2="76.55" gradientTransform="matrix(1 0 0 -1 0 102)">
			<stop  offset="0" style="stop-color:#CCDDE7"/>
			<stop  offset="0.265" style="stop-color:#B5CCD8"/>
			<stop  offset="0.798" style="stop-color:#7FA0B1"/>
			<stop  offset="1" style="stop-color:#6A8FA1"/>
		</linearGradient>
		<path class="st12" d="M17.2,17.6v11.2c0,0,4.5,4.5,18,4.5s18-4.5,18-4.5V17.6c0,0-2.2,3.9-18,4.2C19.4,22.1,17.2,17.6,17.2,17.6z"
			/>
	</g>
	<path d="M39.8,37.6c0.6,0,1.3,0,1.9,0c2.8,0.2,5.1,0.9,7.3,1.8c4.2-1.9,10.3-0.4,14,1c-4.8-0.5-10.5,0-13.8,1.9
		c-3.3-2.7-9.6-3.4-15.5-2.7C35.4,38.5,37.4,37.9,39.8,37.6z M38.4,45c-3.4,0.2-6.2,1.3-8.1,2.9c-5.7-2.6-15.5-1.5-19.2,2
		c-0.3,0.2-0.7,0.5-0.6,0.8c3.2-1,7.1-1.8,11.2-1.5c4,0.3,7,1.7,9.3,3.5c4.1-3.7,10.2-5.8,17.9-5.7C46.2,45.6,42.3,44.6,38.4,45z"/>
</g>
<linearGradient id="SVGID_9_" gradientUnits="userSpaceOnUse" x1="45.3238" y1="74.1844" x2="58.8707" y2="87.7313" gradientTransform="matrix(1 0 0 -1 0 102)">
	<stop  offset="0" style="stop-color:#FFFFFF"/>
	<stop  offset="0.35" style="stop-color:#FAFBFB"/>
	<stop  offset="0.532" style="stop-color:#EDF1F4"/>
	<stop  offset="0.675" style="stop-color:#DDE5E9"/>
	<stop  offset="0.799" style="stop-color:#C7D3DA"/>
	<stop  offset="0.908" style="stop-color:#ADBDC7"/>
	<stop  offset="1" style="stop-color:#92A5B0"/>
</linearGradient>
<path class="st13" d="M45.2,1l27.1,26.7H45.2V1z"/>
<path class="st14" d="M45.2,1l27.1,26.7H45.2V1z"/>
</svg>
