<?xml version="1.0" encoding="utf-8"?>
<!-- Generator: Adobe Illustrator 21.1.0, SVG Export Plug-In . SVG Version: 6.00 Build 0)  -->
<svg version="1.1" id="Layer_1" xmlns="http://www.w3.org/2000/svg"  x="0px" y="0px"
	 viewBox="0 0 72 100" style="enable-background:new 0 0 72 100;" xml:space="preserve">
<style type="text/css">
	.st0{fill:url(#SVGID_1_);}
	.st1{fill-opacity:0;stroke:#01415E;stroke-width:2;}
	.st2{enable-background:new    ;}
	.st3{fill:#FFFFFF;}
	.st4{fill:url(#SVGID_2_);}
	.st5{fill-opacity:0;stroke:#01415E;stroke-width:2;stroke-linejoin:bevel;}
</style>
<g>
	
		<linearGradient id="SVGID_1_" gradientUnits="userSpaceOnUse" x1="36" y1="3.0045" x2="36" y2="100.9996" gradientTransform="matrix(1 0 0 -1 0 102)">
		<stop  offset="5.000000e-03" style="stop-color:#002D44"/>
		<stop  offset="5.600001e-02" style="stop-color:#013852"/>
		<stop  offset="0.16" style="stop-color:#0A4D6B"/>
		<stop  offset="0.274" style="stop-color:#0F5E82"/>
		<stop  offset="0.398" style="stop-color:#0F6D96"/>
		<stop  offset="0.539" style="stop-color:#0D77A4"/>
		<stop  offset="0.711" style="stop-color:#0A7EAE"/>
		<stop  offset="1" style="stop-color:#0881B2"/>
	</linearGradient>
	<path class="st0" d="M45,1l27,26.7V99H0V1H45z"/>
	<path class="st1" d="M45,1l27,26.7V99H0V1H45z"/>
</g>
<g class="st2">
	<path class="st3" d="M8.8,81.3c0-2,0.3-3.7,0.9-5.1c0.5-1,1.1-1.9,1.9-2.7c0.8-0.8,1.7-1.4,2.6-1.8c1.2-0.5,2.7-0.8,4.3-0.8
		c3,0,5.3,0.9,7.1,2.7c1.8,1.8,2.7,4.3,2.7,7.6c0,3.2-0.9,5.7-2.6,7.5c-1.8,1.8-4.1,2.7-7.1,2.7c-3,0-5.4-0.9-7.1-2.7
		C9.7,86.9,8.8,84.4,8.8,81.3z M13,81.1c0,2.2,0.5,4,1.6,5.1c1,1.2,2.4,1.7,4,1.7s2.9-0.6,4-1.7c1-1.2,1.6-2.9,1.6-5.2
		c0-2.3-0.5-4-1.5-5.1c-1-1.1-2.3-1.7-4-1.7s-3,0.6-4,1.7C13.5,77.1,13,78.8,13,81.1z"/>
	<path class="st3" d="M35.9,91.1V74.6H30v-3.4h15.9v3.4H40v16.5H35.9z"/>
	<path class="st3" d="M53,91.1V74.6h-5.9v-3.4H63v3.4h-5.9v16.5H53z"/>
</g>
<g>
	
		<linearGradient id="SVGID_2_" gradientUnits="userSpaceOnUse" x1="45.0685" y1="74.2052" x2="58.5685" y2="87.7052" gradientTransform="matrix(1 0 0 -1 0 102)">
		<stop  offset="5.000000e-03" style="stop-color:#DFF1FA"/>
		<stop  offset="0.3" style="stop-color:#DCEEF7"/>
		<stop  offset="0.443" style="stop-color:#D3E4EF"/>
		<stop  offset="0.553" style="stop-color:#C4D6E3"/>
		<stop  offset="0.647" style="stop-color:#B1C5D5"/>
		<stop  offset="0.73" style="stop-color:#9AB0C5"/>
		<stop  offset="0.805" style="stop-color:#819AB3"/>
		<stop  offset="0.875" style="stop-color:#64829F"/>
		<stop  offset="0.938" style="stop-color:#426C8C"/>
		<stop  offset="0.998" style="stop-color:#06577A"/>
		<stop  offset="1" style="stop-color:#015679"/>
	</linearGradient>
	<path class="st4" d="M45,1l27,26.7H45V1z"/>
	<path class="st5" d="M45,1l27,26.7H45V1z"/>
</g>
<path d="M39.2,34c0.6,0,1.3,0,1.9,0c2.8,0.2,5.1,0.9,7.3,1.8c4.2-1.9,10.3-0.4,14,1c-4.8-0.5-10.5,0-13.8,1.9
	C45.3,36,39,35.3,33.1,36C34.8,34.9,36.8,34.2,39.2,34z M37.8,41.3c-3.4,0.2-6.2,1.3-8.1,2.9c-5.7-2.6-15.5-1.5-19.2,2
	c-0.3,0.2-0.7,0.5-0.6,0.8c3.2-1,7.1-1.8,11.2-1.5c4,0.3,7,1.7,9.3,3.5c4.1-3.7,10.2-5.8,17.9-5.7C45.6,42,41.7,41,37.8,41.3z"/>
</svg>
