<?xml version="1.0" encoding="utf-8"?>
<!-- Generator: Adobe Illustrator 21.1.0, SVG Export Plug-In . SVG Version: 6.00 Build 0)  -->
<svg version="1.1" id="Layer_2" xmlns="http://www.w3.org/2000/svg"  x="0px" y="0px"
	 viewBox="0 0 72 100" style="enable-background:new 0 0 72 100;" xml:space="preserve">
<style type="text/css">
	.st0{fill:url(#SVGID_1_);}
	.st1{fill-opacity:0;stroke:#7191A1;stroke-width:2;}
	.st2{fill:url(#SVGID_2_);}
	.st3{fill-opacity:0;stroke:#7191A1;stroke-width:2;stroke-linejoin:bevel;}
	.st4{enable-background:new    ;}
	.st5{fill:#4C6C7B;}
</style>
<g>
	
		<linearGradient id="SVGID_1_" gradientUnits="userSpaceOnUse" x1="36" y1="127.8" x2="36" y2="29.8" gradientTransform="matrix(1 0 0 1 0 -29)">
		<stop  offset="0" style="stop-color:#C8D4DB"/>
		<stop  offset="0.139" style="stop-color:#D8E1E6"/>
		<stop  offset="0.359" style="stop-color:#EBF0F3"/>
		<stop  offset="0.617" style="stop-color:#F9FAFB"/>
		<stop  offset="1" style="stop-color:#FFFFFF"/>
	</linearGradient>
	<path class="st0" d="M45,0.8l27,26.7v71.3H0v-98L45,0.8z"/>
	<path class="st1" d="M45,0.8l27,26.7v71.3H0v-98L45,0.8z"/>
</g>
<g>
	
		<linearGradient id="SVGID_2_" gradientUnits="userSpaceOnUse" x1="45.075" y1="56.575" x2="58.575" y2="43.075" gradientTransform="matrix(1 0 0 1 0 -29)">
		<stop  offset="0" style="stop-color:#FFFFFF"/>
		<stop  offset="0.35" style="stop-color:#FAFBFB"/>
		<stop  offset="0.532" style="stop-color:#EDF1F4"/>
		<stop  offset="0.675" style="stop-color:#DDE5E9"/>
		<stop  offset="0.799" style="stop-color:#C7D3DA"/>
		<stop  offset="0.908" style="stop-color:#ADBDC7"/>
		<stop  offset="1" style="stop-color:#92A5B0"/>
	</linearGradient>
	<path class="st2" d="M45,0.8l27,26.7H45V0.8z"/>
	<path class="st3" d="M45,0.8l27,26.7H45V0.8z"/>
</g>
<g class="st4">
	<path class="st5" d="M9.3,89.8V74.1h5.1c1.9,0,3.2,0.1,3.8,0.2c0.9,0.2,1.7,0.8,2.3,1.5c0.6,0.8,0.9,1.8,0.9,3.1
		c0,1-0.2,1.8-0.5,2.4c-0.4,0.7-0.8,1.2-1.3,1.6c-0.5,0.4-1.1,0.6-1.6,0.7c-0.8,0.2-1.9,0.2-3.3,0.2h-2.1v5.9H9.3z M12.5,76.7v4.5
		h1.7c1.3,0,2.1-0.1,2.5-0.2c0.4-0.2,0.8-0.4,1-0.8c0.2-0.4,0.4-0.8,0.4-1.2c0-0.6-0.2-1-0.5-1.4c-0.3-0.4-0.8-0.6-1.3-0.7
		c-0.4-0.1-1.1-0.1-2.3-0.1H12.5z"/>
	<path class="st5" d="M36.5,89.8h-3.5l-1.4-3.6h-6.3l-1.3,3.6h-3.4l6.1-15.7h3.4L36.5,89.8z M30.7,83.6l-2.2-5.8l-2.1,5.8H30.7z"/>
	<path class="st5" d="M38.2,89.8V74.1h6.7c1.7,0,2.9,0.1,3.7,0.4c0.8,0.3,1.4,0.8,1.8,1.5c0.5,0.7,0.7,1.6,0.7,2.5
		c0,1.2-0.3,2.2-1,2.9c-0.7,0.8-1.7,1.3-3.1,1.5c0.7,0.4,1.3,0.8,1.7,1.3s1.1,1.3,1.8,2.6l1.9,3.1h-3.8l-2.3-3.4
		c-0.8-1.2-1.4-2-1.7-2.3c-0.3-0.3-0.6-0.5-1-0.7c-0.3-0.1-0.9-0.2-1.6-0.2h-0.6v6.6H38.2z M41.4,80.7h2.4c1.5,0,2.5-0.1,2.9-0.2
		c0.4-0.1,0.7-0.4,0.9-0.7s0.3-0.7,0.3-1.2c0-0.5-0.1-1-0.4-1.3c-0.3-0.3-0.7-0.5-1.2-0.6c-0.3,0-1-0.1-2.3-0.1h-2.5V80.7z"/>
	<path class="st5" d="M57.7,89.8V76.7H53v-2.7h12.5v2.7h-4.7v13.1H57.7z"/>
</g>
</svg>
