<?xml version="1.0" encoding="utf-8"?>
<!-- Generator: Adobe Illustrator 21.1.0, SVG Export Plug-In . SVG Version: 6.00 Build 0)  -->
<svg version="1.1" id="PDF" xmlns="http://www.w3.org/2000/svg" xmlns:xlink="http://www.w3.org/1999/xlink" x="0px" y="0px"
	 viewBox="0 0 72 100" style="enable-background:new 0 0 72 100;" xml:space="preserve">
<style type="text/css">
	.st0{fill:url(#SVGID_1_);}
	.st1{fill-opacity:0;stroke:#951B1F;stroke-width:2;}
	.st2{enable-background:new    ;}
	.st3{fill:#FFFFFF;}
	.st4{fill:url(#SVGID_2_);}
	.st5{fill-opacity:0;stroke:#8E191C;stroke-width:2;stroke-linejoin:round;}
	.st6{fill:url(#SVGID_3_);}
	.st7{fill:url(#SVGID_4_);}
</style>
<g>
	
		<linearGradient id="SVGID_1_" gradientUnits="userSpaceOnUse" x1="36" y1="0.7674" x2="36" y2="99.25" gradientTransform="matrix(1 0 0 -1 0 100)">
		<stop  offset="5.000000e-03" style="stop-color:#6E0E10"/>
		<stop  offset="4.700000e-02" style="stop-color:#7E1416"/>
		<stop  offset="0.116" style="stop-color:#94191C"/>
		<stop  offset="0.196" style="stop-color:#A71D21"/>
		<stop  offset="0.289" style="stop-color:#B61F24"/>
		<stop  offset="0.403" style="stop-color:#C02026"/>
		<stop  offset="0.563" style="stop-color:#C72027"/>
		<stop  offset="1" style="stop-color:#C82127"/>
	</linearGradient>
	<path class="st0" d="M45,0.8l27,26.9v71.6H0V0.8H45z"/>
	<path class="st1" d="M45,0.8l27,26.9v71.6H0V0.8H45z"/>
</g>
<g class="st2">
	<path class="st3" d="M9.9,91.3V71.3h6.5c2.5,0,4.1,0.1,4.8,0.3c1.1,0.3,2.1,0.9,2.9,2c0.8,1,1.2,2.3,1.2,3.9c0,1.2-0.2,2.3-0.7,3.1
		c-0.4,0.8-1,1.5-1.7,2c-0.7,0.5-1.4,0.8-2.1,0.9c-1,0.2-2.4,0.3-4.2,0.3H14v7.5H9.9z M14,74.7v5.7h2.2c1.6,0,2.7-0.1,3.2-0.3
		c0.5-0.2,1-0.5,1.3-1c0.3-0.4,0.5-1,0.5-1.6c0-0.7-0.2-1.3-0.6-1.8c-0.4-0.5-1-0.8-1.6-0.9c-0.5-0.1-1.5-0.1-2.9-0.1H14z"/>
	<path class="st3" d="M28.6,71.3H36c1.7,0,2.9,0.1,3.8,0.4c1.2,0.3,2.2,1,3,1.8c0.8,0.9,1.5,2,1.9,3.2c0.4,1.3,0.7,2.8,0.7,4.7
		c0,1.6-0.2,3.1-0.6,4.2c-0.5,1.5-1.2,2.6-2.1,3.5c-0.7,0.7-1.7,1.2-2.8,1.6c-0.9,0.3-2.1,0.4-3.6,0.4h-7.6V71.3z M32.6,74.7v13.2h3
		c1.1,0,1.9-0.1,2.4-0.2c0.7-0.2,1.2-0.4,1.6-0.8c0.4-0.4,0.8-1,1.1-1.9c0.3-0.9,0.4-2.1,0.4-3.7c0-1.5-0.1-2.7-0.4-3.5
		s-0.7-1.5-1.1-1.9c-0.5-0.5-1.1-0.8-1.9-0.9c-0.6-0.1-1.7-0.2-3.3-0.2H32.6z"/>
	<path class="st3" d="M48.8,91.3V71.3h13.7v3.4h-9.7v4.7h8.4v3.4h-8.4v8.5H48.8z"/>
</g>
<g>
	
		<linearGradient id="SVGID_2_" gradientUnits="userSpaceOnUse" x1="45.0353" y1="72.3558" x2="58.5353" y2="85.8558" gradientTransform="matrix(1 0 0 -1 0 100)">
		<stop  offset="0" style="stop-color:#FDDFD8"/>
		<stop  offset="0.166" style="stop-color:#FCDCD4"/>
		<stop  offset="0.302" style="stop-color:#F9D3C9"/>
		<stop  offset="0.427" style="stop-color:#F4C5B7"/>
		<stop  offset="0.546" style="stop-color:#EFB1A0"/>
		<stop  offset="0.661" style="stop-color:#E99983"/>
		<stop  offset="0.772" style="stop-color:#E27E66"/>
		<stop  offset="0.88" style="stop-color:#DA5C46"/>
		<stop  offset="0.984" style="stop-color:#D22B2A"/>
		<stop  offset="1" style="stop-color:#D12027"/>
	</linearGradient>
	<path class="st4" d="M45,0.8l27,26.9H45V0.8z"/>
	<path class="st5" d="M45,0.8l27,26.9H45V0.8z"/>
</g>
<g>
	
		<linearGradient id="SVGID_3_" gradientUnits="userSpaceOnUse" x1="10.268" y1="31.9159" x2="52.2737" y2="73.9205" gradientTransform="matrix(1 0 0 -1 0 100)">
		<stop  offset="5.000000e-03" style="stop-color:#A50D12"/>
		<stop  offset="0.432" style="stop-color:#A20D12"/>
		<stop  offset="0.639" style="stop-color:#9A0C10"/>
		<stop  offset="0.799" style="stop-color:#8C090B"/>
		<stop  offset="0.933" style="stop-color:#7B0405"/>
		<stop  offset="1" style="stop-color:#700101"/>
	</linearGradient>
	<path class="st6" d="M15.7,54.3c-2.9,3-6.7,5.2-7.8,9.9c7-1.7,11-9.2,14.9-15.9c1.6-2.8,3.8-6.4,5.7-10.2c1.6-3.3,4.2-8.4,4.3-11.3
		c0.2-5.5-4.5-12.6-0.4-18c2.6-0.4,4,0.5,3.6,3.2c-0.8-0.8-0.5-2.5-2.1-2.5c-2.8,2.6-1.2,10.4,0,13.4c0.7-2.3,1.4-4.8,1.4-7.8
		c1.2,4.3-0.7,7.9-0.4,11.3c1,8.7,8.9,13.8,14.9,17.7c5.8-0.2,15.3-1.7,17.8,2.5c-0.6,0.9-1.8-0.7-3.2-1.1
		c-3.1-0.7-7.7-0.1-11.4-0.4c3.5,2.3,7.9,3.7,13.9,3.6c-5.5,3.9-13.3-2.6-18.1-3.2c-7-0.9-14.8,3.4-21.7,3.9
		c5.6-2.5,12.4-3.7,19.2-5c-5.2-3.8-9.7-8.3-12.1-14.8C32.5,35.3,28.7,41.7,25,48c-3.7,6.1-7,12.6-11.7,15.9
		c-2.1,1.5-4.4,1.8-6.8,0.4C7.1,58.9,13.2,55.5,15.7,54.3z"/>
	
		<linearGradient id="SVGID_4_" gradientUnits="userSpaceOnUse" x1="9.7818" y1="30.8752" x2="53.2395" y2="74.3319" gradientTransform="matrix(1 0 0 -1 0 100)">
		<stop  offset="5.000000e-03" style="stop-color:#A50D12"/>
		<stop  offset="0.432" style="stop-color:#A20D12"/>
		<stop  offset="0.639" style="stop-color:#9A0C10"/>
		<stop  offset="0.799" style="stop-color:#8C090B"/>
		<stop  offset="0.933" style="stop-color:#7B0405"/>
		<stop  offset="1" style="stop-color:#700101"/>
	</linearGradient>
	<path class="st7" d="M6.8,65.5l-0.3,0.1v-0.2c-0.2-0.1-0.4-0.2-0.6-0.3l0,0l-0.6-0.3l0.1-0.6c0.8-6.1,7.3-9.5,9.8-10.7l0,0l1.1,1.6
		c-2.6,2.7-5.5,4.5-6.9,7.7l0,0c5.4-2.3,8.9-8.8,12.5-14.8l0,0c1.6-2.8,3.8-6.4,5.7-10.1l0,0c1.6-3.2,4.1-8.4,4.2-10.9l0,0
		c0-0.1,0-0.2,0-0.3l0,0c0-3.4-2.1-7.9-2.1-12.2l0,0c0-2.1,0.5-4.2,1.9-6l0,0L31.8,8l0.4-0.1c0.4-0.1,0.8-0.1,1.2-0.1l0,0
		c1,0,1.9,0.2,2.6,0.8l0,0c0.7,0.6,1,1.6,1,2.6l0,0c0,0.3,0,0.7-0.1,1.1l0,0l-0.3,1.9l-1.4-1.3c-0.7-0.7-0.8-1.4-1-1.8l0,0
		c-0.1-0.1-0.1-0.2-0.1-0.2l0,0c-0.6,0.8-0.9,2.3-0.9,4l0,0c0,1.5,0.2,3.1,0.5,4.6l0,0c0.3-1.3,0.4-2.6,0.5-4.1l0,0l2-0.3
		c0.3,1.1,0.5,2.3,0.5,3.3l0,0c0,2.8-0.8,5.3-0.8,7.4l0,0c0,0.3,0,0.6,0,0.9l0,0c0.8,8,8.2,13,14.2,16.8l0,0
		c2.4-0.1,5.6-0.4,8.6-0.4l0,0c4,0,7.9,0.5,9.8,3.4l0,0l0.3,0.6l-0.4,0.5c-0.1,0.2-0.4,0.4-0.6,0.5l0,0l2.3-0.1l-2.6,1.9
		c-1.4,1-3,1.4-4.6,1.4l0,0c-5.3-0.1-10.9-4.1-14.2-4.5l0,0c-0.6-0.1-1.2-0.1-1.8-0.1l0,0c-6.1,0-13.1,3.5-19.6,4l0,0l-0.5-1.9
		c5.1-2.3,11.2-3.5,17.2-4.6l0,0c-3.9-3.1-7.3-6.7-9.6-11.4l0,0c-2,5.2-5.2,10.7-8.5,16.1l0,0c-3.7,6.1-7,12.6-12,16.2l0,0
		c-1.3,0.9-2.7,1.5-4.2,1.5l0,0l0,0l0,0C8.6,66.1,7.7,65.9,6.8,65.5L6.8,65.5z M66,47.7c0.2,0,0.3,0,0.5,0l0,0
		c-0.5-0.2-0.8-0.4-1.1-0.6l0,0c-0.5-0.3-0.9-0.6-1.2-0.6l0,0c-1.1-0.3-2.6-0.4-4.2-0.4l0,0c-0.9,0-1.9,0-2.9,0l0,0
		C59.6,47.1,62.5,47.7,66,47.7L66,47.7z M51.1,45L51.1,45C51,45,51,45,51,45l0,0H51.1L51.1,45z M48.6,44.4c-1.7-1.1-3.5-2.3-5.3-3.6
		l0,0c1.1,1,2.3,1.9,3.5,2.8l0,0l1.1,0.8C48.2,44.4,48.4,44.4,48.6,44.4L48.6,44.4z M33.8,26.4c0,0.1,0,0.3,0,0.4l0,0
		c0,0.4-0.1,0.8-0.1,1.2l0,0l0.3-1.1c0-0.1,0-0.2,0-0.4l0,0c0-0.3-0.1-0.6-0.1-0.9l0,0l-0.1-0.3C33.7,25.6,33.8,26,33.8,26.4
		L33.8,26.4z"/>
</g>
</svg>
