<?xml version="1.0" encoding="utf-8"?>
<!-- Generator: Adobe Illustrator 21.1.0, SVG Export Plug-In . SVG Version: 6.00 Build 0)  -->
<svg version="1.1" id="Layer_1" xmlns="http://www.w3.org/2000/svg" xmlns:xlink="http://www.w3.org/1999/xlink" x="0px" y="0px"
	 viewBox="0 0 72 100" style="enable-background:new 0 0 72 100;" xml:space="preserve">
<style type="text/css">
	.st0{fill:url(#SVGID_1_);}
	.st1{fill-opacity:0;stroke:#7191A1;stroke-width:2;}
	.st2{fill:url(#SVGID_2_);}
	.st3{fill:url(#SVGID_3_);}
	.st4{fill-opacity:0;stroke:#7191A1;stroke-width:2;stroke-linejoin:bevel;}
	.st5{enable-background:new    ;}
	.st6{fill:#4C6C7B;}
</style>
<g>
	
		<linearGradient id="SVGID_1_" gradientUnits="userSpaceOnUse" x1="36" y1="97" x2="36" y2="-1" gradientTransform="matrix(1 0 0 1 0 2)">
		<stop  offset="0" style="stop-color:#C8D4DB"/>
		<stop  offset="0.139" style="stop-color:#D8E1E6"/>
		<stop  offset="0.359" style="stop-color:#EBF0F3"/>
		<stop  offset="0.617" style="stop-color:#F9FAFB"/>
		<stop  offset="1" style="stop-color:#FFFFFF"/>
	</linearGradient>
	<path class="st0" d="M45,1l27,26.7V99H0V1H45z"/>
	<path class="st1" d="M45,1l27,26.7V99H0V1H45z"/>
</g>
<linearGradient id="SVGID_2_" gradientUnits="userSpaceOnUse" x1="36.8" y1="61.5893" x2="36.8" y2="20.3333">
	<stop  offset="0" style="stop-color:#869BA6"/>
	<stop  offset="0.379" style="stop-color:#8399A4"/>
	<stop  offset="0.576" style="stop-color:#7B929E"/>
	<stop  offset="0.731" style="stop-color:#6D8694"/>
	<stop  offset="0.863" style="stop-color:#5A7785"/>
	<stop  offset="0.981" style="stop-color:#426373"/>
	<stop  offset="0.99" style="stop-color:#416271"/>
</linearGradient>
<path class="st2" d="M51.4,37.7h-2.9V32c0-6.4-5.2-11.7-11.7-11.7S25.1,25.6,25.1,32v5.7h-2.9c-1.1,0-2,0.9-2,2v19.8
	c0,1.1,0.9,2,2,2h29.1c1.1,0,2-0.9,2-2V39.8C53.4,38.6,52.5,37.7,51.4,37.7z M39.3,54.2c0.2,0.7-0.3,1.3-1,1.3h-3
	c-0.7,0-1.2-0.7-1-1.3l1-3.7c-1.1-0.6-1.9-1.7-1.9-3.1c0-2,1.6-3.5,3.5-3.5s3.5,1.6,3.5,3.5c0,1.4-0.8,2.6-1.9,3.1L39.3,54.2z
	 M42.6,37.7H31V32c0-3.2,2.6-5.8,5.8-5.8s5.8,2.6,5.8,5.8L42.6,37.7L42.6,37.7z"/>
<g>
	
		<linearGradient id="SVGID_3_" gradientUnits="userSpaceOnUse" x1="45.0368" y1="25.8132" x2="58.5368" y2="12.3132" gradientTransform="matrix(1 0 0 1 0 2)">
		<stop  offset="0" style="stop-color:#FFFFFF"/>
		<stop  offset="0.35" style="stop-color:#FAFBFB"/>
		<stop  offset="0.532" style="stop-color:#EDF1F4"/>
		<stop  offset="0.675" style="stop-color:#DDE5E9"/>
		<stop  offset="0.799" style="stop-color:#C7D3DA"/>
		<stop  offset="0.908" style="stop-color:#ADBDC7"/>
		<stop  offset="1" style="stop-color:#92A5B0"/>
	</linearGradient>
	<path class="st3" d="M45,1l27,26.7H45V1z"/>
	<path class="st4" d="M45,1l27,26.7H45V1z"/>
</g>
<g class="st5">
	<path class="st6" d="M8.3,91.9v-20h6.5c2.5,0,4.1,0.1,4.8,0.3c1.1,0.3,2.1,1,2.9,2c0.8,1,1.2,2.3,1.2,3.9c0,1.2-0.2,2.3-0.7,3.1
		c-0.4,0.8-1,1.5-1.7,2c-0.7,0.5-1.4,0.8-2.1,1c-1,0.2-2.4,0.3-4.2,0.3h-2.6v7.6H8.3z M12.4,75.2v5.7h2.2c1.6,0,2.7-0.1,3.2-0.3
		c0.5-0.2,1-0.5,1.3-1c0.3-0.4,0.5-1,0.5-1.6c0-0.7-0.2-1.3-0.6-1.8c-0.4-0.5-1-0.8-1.6-0.9c-0.5-0.1-1.5-0.1-2.9-0.1H12.4z"/>
	<path class="st6" d="M27,91.9v-20h14.9v3.4H31.1v4.4h10.1v3.4H31.1v5.5h11.2v3.4H27z"/>
	<path class="st6" d="M45.6,91.9v-20h6.1l3.6,13.7l3.6-13.7H65v20h-3.8V76.1l-4,15.8h-3.9l-4-15.8v15.8H45.6z"/>
</g>
</svg>
