<?xml version="1.0" encoding="utf-8"?>
<!-- Generator: Adobe Illustrator 21.1.0, SVG Export Plug-In . SVG Version: 6.00 Build 0)  -->
<svg version="1.1" id="Layer_1" xmlns="http://www.w3.org/2000/svg"  x="0px" y="0px"
	 viewBox="0 0 72 100" style="enable-background:new 0 0 72 100;" xml:space="preserve">
<style type="text/css">
	.st0{fill:url(#SVGID_1_);}
	.st1{fill-opacity:0;stroke:#7191A1;stroke-width:2;}
	.st2{enable-background:new    ;}
	.st3{fill:#4C6C7B;}
	.st4{fill:url(#SVGID_2_);}
	.st5{fill:url(#SVGID_3_);}
	.st6{fill:url(#SVGID_4_);}
	.st7{fill-opacity:0;stroke:#7191A1;stroke-width:2;stroke-linejoin:bevel;}
</style>
<linearGradient id="SVGID_1_" gradientUnits="userSpaceOnUse" x1="36.2" y1="3.0143" x2="36.2" y2="101.0005" gradientTransform="matrix(1 0 0 -1 0 102)">
	<stop  offset="0" style="stop-color:#C8D4DB"/>
	<stop  offset="0.139" style="stop-color:#D8E1E6"/>
	<stop  offset="0.359" style="stop-color:#EBF0F3"/>
	<stop  offset="0.617" style="stop-color:#F9FAFB"/>
	<stop  offset="1" style="stop-color:#FFFFFF"/>
</linearGradient>
<path class="st0" d="M45.2,1l27.1,26.7V99H0.1V1H45.2z"/>
<path class="st1" d="M45.2,1l27.1,26.7V99H0.1V1H45.2z"/>
<g class="st2">
	<path class="st3" d="M9.3,90.1V70.2h6.5c2.5,0,4.1,0.1,4.8,0.3c1.2,0.3,2.1,0.9,2.9,1.9c0.8,1,1.2,2.3,1.2,3.9
		c0,1.2-0.2,2.2-0.7,3.1c-0.4,0.8-1,1.5-1.7,2c-0.7,0.5-1.4,0.8-2.1,0.9c-1,0.2-2.4,0.3-4.2,0.3h-2.6v7.5H9.3z M13.4,73.6v5.6h2.2
		c1.6,0,2.7-0.1,3.2-0.3c0.5-0.2,1-0.5,1.3-1c0.3-0.4,0.5-1,0.5-1.5c0-0.7-0.2-1.3-0.6-1.8c-0.4-0.5-1-0.8-1.6-0.9
		c-0.5-0.1-1.5-0.1-2.9-0.1H13.4z"/>
	<path class="st3" d="M28.1,90.1V70.2h4.1V78h8v-7.8h4.1v19.8h-4.1v-8.7h-8v8.7H28.1z"/>
	<path class="st3" d="M48.3,90.1V70.2h6.5c2.5,0,4.1,0.1,4.8,0.3c1.2,0.3,2.1,0.9,2.9,1.9c0.8,1,1.2,2.3,1.2,3.9
		c0,1.2-0.2,2.2-0.7,3.1s-1,1.5-1.7,2s-1.4,0.8-2.1,0.9c-1,0.2-2.4,0.3-4.2,0.3h-2.6v7.5H48.3z M52.4,73.6v5.6h2.2
		c1.6,0,2.7-0.1,3.2-0.3c0.5-0.2,1-0.5,1.3-1c0.3-0.4,0.5-1,0.5-1.5c0-0.7-0.2-1.3-0.6-1.8c-0.4-0.5-1-0.8-1.6-0.9
		c-0.5-0.1-1.5-0.1-2.9-0.1H52.4z"/>
</g>
<linearGradient id="SVGID_2_" gradientUnits="userSpaceOnUse" x1="37.4622" y1="43.2292" x2="37.4622" y2="74.2652" gradientTransform="matrix(1 0 0 -1 0 102)">
	<stop  offset="0" style="stop-color:#ADCCDC"/>
	<stop  offset="1" style="stop-color:#4C6C7B"/>
</linearGradient>
<path class="st4" d="M34.1,50.9c2,0.7,5.3,0.6,7.7,0.3c0.4,1-0.2,2.2,0.2,3.3c0.2,0.5,0.9,1,1.9,1.5c0.2,0.1,0.5,0.1,0.7,0.2
	l0.2,0.2c0.4,0.3,1.3,0.8,1.5,0.9c0.3,0.1,0.6,0.1,0.9,0.1c0.3,0,0.7,0,1.1,0c1.5-0.1,3-0.5,3.4-1.1c0.7-1,0.3-3.1,0.2-4.9
	c-0.1-1.6-0.3-3.7,0-4.9c0.1-0.4,0.5-0.9,0.7-1.4c0.9-1.8,1.7-4.8,1.4-7.6c-0.2-1.3-0.8-2.4-1-3.4c2,0.2,3.9-0.2,5.7,0
	c1.1,0.1,1.9,0.8,2.9,0.7c0.2-0.5,0.8-0.8,0.9-1.5c0.1-0.7-0.2-1.6-0.5-2.1c-1.4-0.2-2.5,1.1-3.8,1.2c-0.4,0-1-0.1-1.5-0.2
	c-1.6-0.1-3.8,0.3-5.2,0c-1-0.2-1.8-1.3-2.8-1.7c-0.2-0.1-0.6,0-0.9-0.2c-0.3-0.1-0.5-0.3-0.7-0.3c-1.1-0.4-2.2-0.8-3.3-1
	c-2-0.5-4.8-0.5-7.4-0.3c-0.8,0.1-1.6,0.5-2.4,0.3c-0.6-0.1-0.7-0.5-1.2-0.7c-1.8-0.8-3.6,0.1-4.8,0.7c-0.9,0.4-1.9,1.1-2.8,1.2
	c-0.9,0.2-2.1,0-2.9,0c-1,0-2.2,0.2-3.3,0.3c-1,0.2-2.3,0.3-2.9,0.7c-1.5,0.9-1.9,4.8-2.4,7c-0.2,0.9-0.5,1.7-0.7,2.6
	c-0.3,1.9-0.5,3.9-0.5,5.7c-0.1,3.7-0.5,8.9,1.4,10.2c0.4,0.3,1.8,0.7,2.2,0.5c0.1,0,0.6-0.5,0.7-0.7c0.1-0.3-0.2-0.7-0.2-1.2
	c0-0.8-0.2-1.9-0.2-2.8c0-2.2,0.4-4.7,1-5.6c0-0.1,0.3-0.1,0.3-0.2c0.1-0.2,0-0.4,0.2-0.5c0.4-0.4,1.1-0.9,1.5-1
	c1.3-0.5,2,0.1,2.6,0.9c1.1,1.4,1.3,3.7,1.4,5.9c0,0.4,0,1,0,1.4c0,0.5-0.2,1.1-0.2,1.4c0.3,0.9,1.8,1.3,2.4,1.7
	c0,0.3,0.1,0.7,0.3,1c0.3,0.5,0.8,0.9,1.2,1.1c1.6,0.9,5.6,0.3,6.4-0.7c0.1-0.1,0.2-0.2,0.2-0.4c0.1-0.3,0.3-0.6,0.3-0.8
	C34.5,54.5,33.8,52.9,34.1,50.9z"/>
<linearGradient id="SVGID_3_" gradientUnits="userSpaceOnUse" x1="31.7471" y1="69.9349" x2="31.7471" y2="69.9864" gradientTransform="matrix(1 0 0 -1 0 102)">
	<stop  offset="0" style="stop-color:#ADCCDC"/>
	<stop  offset="1" style="stop-color:#4C6C7B"/>
</linearGradient>
<path class="st5" d="M31.8,32C31.7,32.1,31.7,32.1,31.8,32"/>
<linearGradient id="SVGID_4_" gradientUnits="userSpaceOnUse" x1="45.3238" y1="74.1844" x2="58.8707" y2="87.7313" gradientTransform="matrix(1 0 0 -1 0 102)">
	<stop  offset="0" style="stop-color:#FFFFFF"/>
	<stop  offset="0.35" style="stop-color:#FAFBFB"/>
	<stop  offset="0.532" style="stop-color:#EDF1F4"/>
	<stop  offset="0.675" style="stop-color:#DDE5E9"/>
	<stop  offset="0.799" style="stop-color:#C7D3DA"/>
	<stop  offset="0.908" style="stop-color:#ADBDC7"/>
	<stop  offset="1" style="stop-color:#92A5B0"/>
</linearGradient>
<path class="st6" d="M45.2,1l27.1,26.7H45.2V1z"/>
<path class="st7" d="M45.2,1l27.1,26.7H45.2V1z"/>
</svg>
