<?xml version="1.0" encoding="utf-8"?>
<!-- Generator: Adobe Illustrator 21.1.0, SVG Export Plug-In . SVG Version: 6.00 Build 0)  -->
<svg version="1.1" id="Layer_2" xmlns="http://www.w3.org/2000/svg" xmlns:xlink="http://www.w3.org/1999/xlink" x="0px" y="0px"
	 viewBox="0 0 72 100" style="enable-background:new 0 0 72 100;" xml:space="preserve">
<style type="text/css">
	.st0{fill:url(#SVGID_1_);}
	.st1{fill-opacity:0;stroke:#C15127;stroke-width:2;}
	.st2{fill:url(#SVGID_2_);}
	.st3{fill:url(#SVGID_3_);}
	.st4{fill-opacity:0;stroke:#C15127;stroke-width:2;stroke-linejoin:bevel;}
	.st5{enable-background:new    ;}
	.st6{fill:#FFFFFF;}
</style>
<g>
	
		<linearGradient id="SVGID_1_" gradientUnits="userSpaceOnUse" x1="36" y1="95.3" x2="36" y2="-3.2" gradientTransform="matrix(1 0 0 1 0 4)">
		<stop  offset="0" style="stop-color:#CB5528"/>
		<stop  offset="3.200000e-02" style="stop-color:#CF5B27"/>
		<stop  offset="0.162" style="stop-color:#DB7026"/>
		<stop  offset="0.305" style="stop-color:#E68025"/>
		<stop  offset="0.468" style="stop-color:#EE8C23"/>
		<stop  offset="0.666" style="stop-color:#F49322"/>
		<stop  offset="1" style="stop-color:#F69622"/>
	</linearGradient>
	<path class="st0" d="M45,0.8l27,26.9v71.6H0V0.8H45z"/>
	<path class="st1" d="M45,0.8l27,26.9v71.6H0V0.8H45z"/>
</g>
<linearGradient id="SVGID_2_" gradientUnits="userSpaceOnUse" x1="12.8381" y1="54.2619" x2="49.8333" y2="17.2667" gradientTransform="matrix(1 0 0 1 0 4)">
	<stop  offset="5.000000e-03" style="stop-color:#D65B25"/>
	<stop  offset="0.418" style="stop-color:#D35A25"/>
	<stop  offset="0.679" style="stop-color:#CA5624"/>
	<stop  offset="0.897" style="stop-color:#BC4F22"/>
	<stop  offset="1" style="stop-color:#B34B21"/>
</linearGradient>
<path class="st2" d="M56.5,32c0,2.3-0.5,4.4-1.4,6c-1,1.7-2.3,3.1-4,4.1c-1.8,1.1-3.8,1.9-6,2.4c-2.3,0.5-4.8,0.7-7.6,0.7H34v11.6
	c0,0.7,0.1,1.3,0.4,1.8s0.8,0.9,1.5,1.2c0.4,0.2,1,0.3,1.9,0.5s1.6,0.3,2.2,0.4V63H17.5v-2.3c0.6-0.1,1.3-0.1,2.3-0.2
	c0.9-0.1,1.6-0.2,2-0.4c0.8-0.3,1.3-0.7,1.5-1.1s0.4-1.1,0.4-1.9V27.9c0-0.7-0.1-1.3-0.4-1.8c-0.2-0.5-0.7-0.9-1.5-1.2
	c-0.5-0.2-1.3-0.4-2.2-0.6c-0.9-0.2-1.6-0.3-2-0.4v-2.3h22.9c5.4,0,9.4,0.9,12,2.6C55.1,25.9,56.5,28.5,56.5,32z M45,33.5
	c0-3.1-0.6-5.4-1.9-7c-1.3-1.5-3.5-2.3-6.7-2.3H34v18.1h1.2c3.2,0,5.6-0.7,7.3-2.2C44.2,38.8,45,36.6,45,33.5z"/>
<g>
	
		<linearGradient id="SVGID_3_" gradientUnits="userSpaceOnUse" x1="45.0704" y1="23.6796" x2="58.5704" y2="10.1796" gradientTransform="matrix(1 0 0 1 0 4)">
		<stop  offset="0" style="stop-color:#FFFCE3"/>
		<stop  offset="0.383" style="stop-color:#FFFAE0"/>
		<stop  offset="0.521" style="stop-color:#FDF3D8"/>
		<stop  offset="0.62" style="stop-color:#FBEBCC"/>
		<stop  offset="0.699" style="stop-color:#F8DFBB"/>
		<stop  offset="0.767" style="stop-color:#F5D0A6"/>
		<stop  offset="0.828" style="stop-color:#F1BF8D"/>
		<stop  offset="0.882" style="stop-color:#ECAA72"/>
		<stop  offset="0.933" style="stop-color:#E79354"/>
		<stop  offset="0.977" style="stop-color:#E27C34"/>
		<stop  offset="1" style="stop-color:#DF6F26"/>
	</linearGradient>
	<path class="st3" d="M45,0.8l27,26.9H45V0.8z"/>
	<path class="st4" d="M45,0.8l27,26.9H45V0.8z"/>
</g>
<g class="st5">
	<path class="st6" d="M9.7,91.3V71.5h6.5c2.5,0,4.1,0.1,4.8,0.3c1.1,0.3,2.1,0.9,2.9,1.9c0.8,1,1.2,2.3,1.2,3.9
		c0,1.2-0.2,2.2-0.7,3.1c-0.4,0.8-1,1.5-1.7,2c-0.7,0.5-1.4,0.8-2.1,0.9c-1,0.2-2.4,0.3-4.2,0.3h-2.6v7.5H9.7z M13.7,74.8v5.6h2.2
		c1.6,0,2.7-0.1,3.2-0.3c0.5-0.2,1-0.5,1.3-1c0.3-0.4,0.5-1,0.5-1.5c0-0.7-0.2-1.3-0.6-1.8c-0.4-0.5-1-0.8-1.6-0.9
		c-0.5-0.1-1.4-0.1-2.9-0.1H13.7z"/>
	<path class="st6" d="M28.3,91.3V71.5h6.5c2.5,0,4.1,0.1,4.8,0.3c1.1,0.3,2.1,0.9,2.9,1.9c0.8,1,1.2,2.3,1.2,3.9
		c0,1.2-0.2,2.2-0.7,3.1s-1,1.5-1.7,2c-0.7,0.5-1.4,0.8-2.1,0.9c-1,0.2-2.4,0.3-4.2,0.3h-2.6v7.5H28.3z M32.3,74.8v5.6h2.2
		c1.6,0,2.7-0.1,3.2-0.3c0.5-0.2,1-0.5,1.3-1c0.3-0.4,0.5-1,0.5-1.5c0-0.7-0.2-1.3-0.6-1.8c-0.4-0.5-1-0.8-1.6-0.9
		c-0.5-0.1-1.4-0.1-2.9-0.1H32.3z"/>
	<path class="st6" d="M45.9,84.8l3.9-0.4c0.2,1.3,0.7,2.3,1.4,2.9c0.7,0.6,1.7,0.9,2.9,0.9c1.3,0,2.3-0.3,2.9-0.8
		c0.7-0.5,1-1.2,1-1.9c0-0.5-0.1-0.9-0.4-1.2s-0.8-0.6-1.5-0.9c-0.5-0.2-1.5-0.5-3.2-0.9c-2.2-0.5-3.7-1.2-4.6-2
		c-1.2-1.1-1.8-2.4-1.8-4c0-1,0.3-2,0.9-2.8c0.6-0.9,1.4-1.5,2.5-2c1.1-0.5,2.4-0.7,3.9-0.7c2.5,0,4.4,0.5,5.7,1.6
		c1.3,1.1,1.9,2.5,2,4.4l-4,0.2c-0.2-1-0.5-1.8-1.1-2.2s-1.4-0.7-2.6-0.7c-1.2,0-2.1,0.2-2.8,0.7c-0.4,0.3-0.6,0.7-0.6,1.2
		c0,0.5,0.2,0.9,0.6,1.2c0.5,0.4,1.7,0.9,3.7,1.3c2,0.5,3.4,0.9,4.4,1.4c0.9,0.5,1.7,1.2,2.2,2s0.8,1.9,0.8,3.2c0,1.1-0.3,2.2-1,3.2
		c-0.6,1-1.5,1.7-2.7,2.2c-1.2,0.5-2.6,0.7-4.3,0.7c-2.5,0-4.5-0.6-5.8-1.7C47,88.8,46.2,87.1,45.9,84.8z"/>
</g>
</svg>
