<?xml version="1.0" encoding="utf-8"?>
<!-- Generator: Adobe Illustrator 21.1.0, SVG Export Plug-In . SVG Version: 6.00 Build 0)  -->
<svg version="1.1" id="Layer_1" xmlns="http://www.w3.org/2000/svg"  x="0px" y="0px"
	 viewBox="0 0 72 100" style="enable-background:new 0 0 72 100;" xml:space="preserve">
<style type="text/css">
	.st0{fill:url(#SVGID_1_);}
	.st1{fill-opacity:0;stroke:#7191A1;stroke-width:2;}
	.st2{enable-background:new    ;}
	.st3{fill:#4C6C7B;}
	.st4{fill:url(#SVGID_2_);}
	.st5{fill:url(#SVGID_3_);}
	.st6{fill-opacity:0;stroke:#7191A1;stroke-width:2;stroke-linejoin:bevel;}
</style>
<g>
	
		<linearGradient id="SVGID_1_" gradientUnits="userSpaceOnUse" x1="36" y1="2.9534" x2="36" y2="100.9501" gradientTransform="matrix(1 0 0 -1 0 102)">
		<stop  offset="0" style="stop-color:#C8D4DB"/>
		<stop  offset="0.139" style="stop-color:#D8E1E6"/>
		<stop  offset="0.359" style="stop-color:#EBF0F3"/>
		<stop  offset="0.617" style="stop-color:#F9FAFB"/>
		<stop  offset="1" style="stop-color:#FFFFFF"/>
	</linearGradient>
	<path class="st0" d="M45,1l27,26.7V99H0V1H45z"/>
	<path class="st1" d="M45,1l27,26.7V99H0V1H45z"/>
</g>
<g class="st2">
	<path class="st3" d="M6.3,90.9V75.1h5.2c2,0,3.2,0.1,3.8,0.2c0.9,0.2,1.7,0.8,2.3,1.5c0.6,0.8,0.9,1.8,0.9,3.1c0,1-0.2,1.8-0.5,2.4
		s-0.8,1.2-1.4,1.6c-0.5,0.4-1.1,0.6-1.7,0.7c-0.8,0.2-1.9,0.2-3.3,0.2H9.5v5.9H6.3z M9.5,77.8v4.5h1.8c1.3,0,2.1-0.1,2.5-0.2
		s0.8-0.4,1-0.8s0.4-0.8,0.4-1.2c0-0.6-0.2-1-0.5-1.4s-0.8-0.6-1.3-0.7c-0.4-0.1-1.2-0.1-2.3-0.1H9.5z"/>
	<path class="st3" d="M21.2,90.9V75.1h6.8c1.7,0,2.9,0.1,3.7,0.4c0.8,0.3,1.4,0.8,1.9,1.5s0.7,1.6,0.7,2.5c0,1.2-0.4,2.2-1.1,2.9
		c-0.7,0.8-1.8,1.3-3.1,1.5c0.7,0.4,1.3,0.8,1.7,1.3s1.1,1.3,1.8,2.6l1.9,3.1h-3.8l-2.3-3.4c-0.8-1.2-1.4-2-1.7-2.3
		c-0.3-0.3-0.6-0.5-1-0.7c-0.3-0.1-0.9-0.2-1.6-0.2h-0.7v6.6H21.2z M24.4,81.8h2.4c1.5,0,2.5-0.1,2.9-0.2c0.4-0.1,0.7-0.4,0.9-0.7
		c0.2-0.3,0.3-0.7,0.3-1.2c0-0.5-0.1-1-0.4-1.3c-0.3-0.3-0.7-0.5-1.2-0.6c-0.3,0-1-0.1-2.3-0.1h-2.5V81.8z"/>
	<path class="st3" d="M36.5,83.1c0-1.6,0.2-3,0.7-4c0.4-0.8,0.9-1.5,1.5-2.2c0.6-0.6,1.3-1.1,2.1-1.4c1-0.4,2.1-0.6,3.4-0.6
		c2.3,0,4.2,0.7,5.6,2.2c1.4,1.4,2.1,3.4,2.1,6c0,2.5-0.7,4.5-2.1,6c-1.4,1.4-3.3,2.2-5.6,2.2c-2.4,0-4.2-0.7-5.6-2.1
		C37.2,87.6,36.5,85.6,36.5,83.1z M39.9,83c0,1.8,0.4,3.1,1.2,4.1c0.8,0.9,1.9,1.4,3.2,1.4s2.3-0.5,3.2-1.4c0.8-0.9,1.2-2.3,1.2-4.1
		c0-1.8-0.4-3.2-1.2-4s-1.9-1.3-3.2-1.3c-1.3,0-2.4,0.4-3.2,1.3C40.3,79.8,39.9,81.2,39.9,83z"/>
	<path class="st3" d="M54.5,90.9V75.1h5.2c2,0,3.2,0.1,3.8,0.2c0.9,0.2,1.7,0.8,2.3,1.5c0.6,0.8,0.9,1.8,0.9,3.1
		c0,1-0.2,1.8-0.5,2.4s-0.8,1.2-1.4,1.6c-0.5,0.4-1.1,0.6-1.7,0.7c-0.8,0.2-1.9,0.2-3.3,0.2h-2.1v5.9H54.5z M57.7,77.8v4.5h1.8
		c1.3,0,2.1-0.1,2.5-0.2c0.4-0.2,0.8-0.4,1-0.8s0.4-0.8,0.4-1.2c0-0.6-0.2-1-0.5-1.4s-0.8-0.6-1.3-0.7c-0.4-0.1-1.2-0.1-2.3-0.1
		H57.7z"/>
</g>
<g>
	<g id="android">
		<linearGradient id="SVGID_2_" gradientUnits="userSpaceOnUse" x1="15.182" y1="39.3516" x2="56.3055" y2="39.3516">
			<stop  offset="0" style="stop-color:#CCDDE7"/>
			<stop  offset="0.265" style="stop-color:#B5CCD8"/>
			<stop  offset="0.798" style="stop-color:#7FA0B1"/>
			<stop  offset="1" style="stop-color:#6A8FA1"/>
		</linearGradient>
		<path class="st4" d="M23.4,51.7c0,1.2,0.8,2.1,2.1,2.1h2.1v7.2c0,1.6,1.4,3.1,3.1,3.1c1.6,0,3.1-1.4,3.1-3.1v-7.2h4.1v7.2
			c0,1.6,1.4,3.1,3.1,3.1s3.1-1.4,3.1-3.1v-7.2H46c1.2,0,2.1-0.8,2.1-2.1V31.1H23.4V51.7z M18.3,31.1c-1.6,0-3.1,1.4-3.1,3.1v14.4
			c0,1.6,1.4,3.1,3.1,3.1c1.6,0,3.1-1.4,3.1-3.1V34.2C21.4,32.5,19.9,31.1,18.3,31.1z M53.2,31.1c-1.6,0-3.1,1.4-3.1,3.1v14.4
			c0,1.6,1.4,3.1,3.1,3.1s3.1-1.4,3.1-3.1V34.2C56.3,32.5,54.9,31.1,53.2,31.1z M42.9,19.2l2.7-2.7c0.4-0.4,0.4-1,0-1.4
			c-0.4-0.4-1-0.4-1.4,0l-3.1,3.1c-1.4-1-3.3-1.4-5.3-1.4s-3.9,0.4-5.6,1.2l-2.9-3.1c-0.4-0.2-1.2-0.2-1.6,0c-0.2,0.4-0.2,1.2,0,1.6
			l2.7,2.7c-2.9,2.3-4.9,5.8-4.9,9.9h24.7C48.1,24.9,46,21.2,42.9,19.2z M31.6,24.9h-2.1v-2.1h2.1V24.9z M41.9,24.9h-2.1v-2.1h2.1
			V24.9z"/>
	</g>
</g>
<g>
	
		<linearGradient id="SVGID_3_" gradientUnits="userSpaceOnUse" x1="45.0684" y1="74.1553" x2="58.5684" y2="87.6553" gradientTransform="matrix(1 0 0 -1 0 102)">
		<stop  offset="0" style="stop-color:#FFFFFF"/>
		<stop  offset="0.35" style="stop-color:#FAFBFB"/>
		<stop  offset="0.532" style="stop-color:#EDF1F4"/>
		<stop  offset="0.675" style="stop-color:#DDE5E9"/>
		<stop  offset="0.799" style="stop-color:#C7D3DA"/>
		<stop  offset="0.908" style="stop-color:#ADBDC7"/>
		<stop  offset="1" style="stop-color:#92A5B0"/>
	</linearGradient>
	<path class="st5" d="M45,1l27,26.7H45V1z"/>
	<path class="st6" d="M45,1l27,26.7H45V1z"/>
</g>
</svg>
