<?xml version="1.0" encoding="utf-8"?>
<!-- Generator: Adobe Illustrator 21.1.0, SVG Export Plug-In . SVG Version: 6.00 Build 0)  -->
<svg version="1.1" id="Layer_1" xmlns="http://www.w3.org/2000/svg" xmlns:xlink="http://www.w3.org/1999/xlink" x="0px" y="0px"
	 viewBox="0 0 72 100" style="enable-background:new 0 0 72 100;" xml:space="preserve">
<style type="text/css">
	.st0{fill:url(#SVGID_1_);}
	.st1{fill-opacity:0;stroke:#366C81;stroke-width:2;}
	.st2{enable-background:new    ;}
	.st3{fill:#FFFFFF;}
	.st4{fill:url(#SVGID_2_);}
	.st5{fill-opacity:0;stroke:#346A80;stroke-width:2;stroke-linejoin:bevel;}
	.st6{fill:url(#SVGID_3_);}
</style>
<g>
	
		<linearGradient id="SVGID_1_" gradientUnits="userSpaceOnUse" x1="36" y1="101.0006" x2="36" y2="2.517" gradientTransform="matrix(1 0 0 -1 0 102)">
		<stop  offset="0" style="stop-color:#B5D8E9"/>
		<stop  offset="0.264" style="stop-color:#B2D6E8"/>
		<stop  offset="0.412" style="stop-color:#A7D0E3"/>
		<stop  offset="0.53" style="stop-color:#96C6DC"/>
		<stop  offset="0.633" style="stop-color:#7DB8D2"/>
		<stop  offset="0.726" style="stop-color:#5DA7C5"/>
		<stop  offset="0.812" style="stop-color:#3094B5"/>
		<stop  offset="0.892" style="stop-color:#007FA3"/>
		<stop  offset="0.966" style="stop-color:#006A90"/>
		<stop  offset="1" style="stop-color:#006086"/>
	</linearGradient>
	<path class="st0" d="M45.1,1l27.3,26.9v71.6H-0.4V1H45.1z"/>
	<path class="st1" d="M45.1,1l27.3,26.9v71.6H-0.4V1H45.1z"/>
</g>
<g class="st2">
	<path class="st3" d="M9,91.5V71.6h6.6c2.5,0,4.1,0.1,4.9,0.3c1.2,0.3,2.1,1,2.9,2s1.2,2.3,1.2,3.9c0,1.2-0.2,2.3-0.7,3.1
		c-0.5,0.8-1,1.5-1.7,2s-1.4,0.8-2.1,0.9c-1,0.2-2.4,0.3-4.2,0.3h-2.7v7.5H9z M13.1,74.9v5.7h2.2c1.6,0,2.7-0.1,3.2-0.3
		c0.5-0.2,1-0.5,1.3-1s0.5-1,0.5-1.6c0-0.7-0.2-1.3-0.6-1.8c-0.4-0.5-1-0.8-1.6-0.9c-0.5-0.1-1.5-0.1-2.9-0.1H13.1z"/>
	<path class="st3" d="M26.8,85l4-0.4c0.2,1.3,0.7,2.3,1.5,2.9c0.7,0.6,1.7,0.9,3,0.9c1.3,0,2.3-0.3,3-0.8s1-1.2,1-1.9
		c0-0.5-0.1-0.9-0.4-1.2s-0.8-0.6-1.5-0.9c-0.5-0.2-1.6-0.5-3.3-0.9c-2.2-0.5-3.7-1.2-4.6-2c-1.2-1.1-1.9-2.4-1.9-4
		c0-1,0.3-2,0.9-2.8c0.6-0.9,1.4-1.6,2.5-2c1.1-0.5,2.4-0.7,4-0.7c2.5,0,4.5,0.5,5.7,1.6c1.3,1.1,2,2.6,2,4.4l-4.1,0.2
		c-0.2-1-0.5-1.8-1.1-2.2c-0.6-0.4-1.4-0.7-2.6-0.7c-1.2,0-2.1,0.2-2.8,0.7c-0.4,0.3-0.6,0.7-0.6,1.2c0,0.5,0.2,0.9,0.6,1.2
		c0.5,0.4,1.8,0.9,3.8,1.3c2,0.5,3.5,0.9,4.4,1.4c1,0.5,1.7,1.2,2.2,2c0.5,0.9,0.8,1.9,0.8,3.2c0,1.1-0.3,2.2-1,3.2
		s-1.6,1.7-2.7,2.2c-1.2,0.5-2.6,0.7-4.4,0.7c-2.6,0-4.5-0.6-5.9-1.7C27.9,89,27.1,87.3,26.8,85z"/>
	<path class="st3" d="M46.7,71.6h7.5c1.7,0,3,0.1,3.9,0.4c1.2,0.3,2.2,1,3.1,1.8c0.8,0.9,1.5,2,1.9,3.2c0.4,1.3,0.7,2.8,0.7,4.7
		c0,1.6-0.2,3.1-0.6,4.2c-0.5,1.5-1.2,2.6-2.2,3.5c-0.7,0.7-1.7,1.2-2.9,1.6c-0.9,0.3-2.1,0.4-3.6,0.4h-7.7V71.6z M50.8,74.9v13.2
		h3.1c1.1,0,2-0.1,2.5-0.2c0.7-0.2,1.2-0.4,1.7-0.8c0.4-0.4,0.8-1,1.1-1.9c0.3-0.9,0.4-2.1,0.4-3.7c0-1.5-0.1-2.7-0.4-3.5
		s-0.7-1.5-1.2-1.9c-0.5-0.5-1.1-0.8-1.9-0.9c-0.6-0.1-1.7-0.2-3.4-0.2H50.8z"/>
</g>
<g>
	
		<linearGradient id="SVGID_2_" gradientUnits="userSpaceOnUse" x1="45.1993" y1="74.0359" x2="58.8399" y2="87.6765" gradientTransform="matrix(1 0 0 -1 0 102)">
		<stop  offset="0" style="stop-color:#EBF3F8"/>
		<stop  offset="0.357" style="stop-color:#E8F2F7"/>
		<stop  offset="0.494" style="stop-color:#DFEDF4"/>
		<stop  offset="0.593" style="stop-color:#D0E5F0"/>
		<stop  offset="0.673" style="stop-color:#BBDAE9"/>
		<stop  offset="0.743" style="stop-color:#A0CCE1"/>
		<stop  offset="0.805" style="stop-color:#7FBCD8"/>
		<stop  offset="0.861" style="stop-color:#57ABCC"/>
		<stop  offset="0.913" style="stop-color:#0B99BF"/>
		<stop  offset="0.959" style="stop-color:#0087B1"/>
		<stop  offset="1" style="stop-color:#0076A3"/>
	</linearGradient>
	<path class="st4" d="M45.1,1l27.3,26.9H45.1V1z"/>
	<path class="st5" d="M45.1,1l27.3,26.9H45.1V1z"/>
</g>
<linearGradient id="SVGID_3_" gradientUnits="userSpaceOnUse" x1="517.3029" y1="63.1524" x2="562.9302" y2="63.1524" gradientTransform="matrix(-1 0 0 -1 571.648 102)">
	<stop  offset="0" style="stop-color:#449EC0"/>
	<stop  offset="0.188" style="stop-color:#3E9CBD"/>
	<stop  offset="0.377" style="stop-color:#2894B7"/>
	<stop  offset="0.567" style="stop-color:#0089AD"/>
	<stop  offset="0.758" style="stop-color:#007A9F"/>
	<stop  offset="0.947" style="stop-color:#00688F"/>
	<stop  offset="1" style="stop-color:#00638A"/>
</linearGradient>
<path class="st6" d="M48.9,58.2C49.7,58.6,48.3,58.6,48.9,58.2L48.9,58.2z M50.3,61.1c1.1,2.4,2.6,4.3,3.7,6.7
	c0.8-0.9-1.4-2-0.7-3.4C52.3,63.6,52.3,60.7,50.3,61.1z M31.7,34.5c-1.6,1.5-4.7,2.2-7.6,2c-0.1,0.7,0.6,1,1,1.5
	c2.7,3.4,5.6,7.5,8.2,11c4.5-0.3,6.9,1.6,9.7,2.9c-2.3-0.6-5.3-2-8.9-1.8c1.5,1.6,2.2,3.7,4.1,5.1c2.2,1.6,5.6,0.7,8.7,1.6
	c0.6,0.1,0.6,0.9,1.1,1c0.5-0.2-0.2-0.9-0.5-1.3c-9.2-14.6-18.6-30.6-31.3-42c14.7,10.1,22.7,26.8,32.4,41.8
	c0.1-1.5,0.9-3.1,0.8-4.7c-0.1-1.5-0.9-2.8-1.6-4.1c-0.7-1.3-1.3-2.7-2.3-3.4c-0.1,2.4,0.2,4.4,0.7,6.2c-1-2-2.1-4.8-1.3-7.7
	c-4.7-7-9.5-15-15.2-20.8c0.2,1.5,0.6,2.8,0.5,4.6c-0.7-1.6-0.7-3.8-1.3-5.5c-2.4-2.4-5.1-4.4-7.9-6.4c-0.4,0.5-0.3,1.4-0.5,2.1
	c-0.3-0.8-0.3-1.9-0.5-2.8c-1.6-0.9-3.3-1.8-5.3-2.6c-1.8-0.7-3.8-2-6.1-1.1c-0.1,1.6,0.5,2.5,0.7,3.9c1.1,1.1,3,1.3,5.3,1.1
	c-1.3,0.5-3.4,0.4-4.6-0.2c0.2,2.1,1.5,3.8,2.4,5.5c2.9,5.1,6.4,10,10.2,14.4C25.5,35.8,29.3,35.6,31.7,34.5z"/>
</svg>
