<?xml version="1.0" encoding="utf-8"?>
<!-- Generator: Adobe Illustrator 21.1.0, SVG Export Plug-In . SVG Version: 6.00 Build 0)  -->
<svg version="1.1" id="Layer_1" xmlns="http://www.w3.org/2000/svg"  x="0px" y="0px"
	 viewBox="0 0 72 100" style="enable-background:new 0 0 72 100;" xml:space="preserve">
<style type="text/css">
	.st0{fill:url(#SVGID_1_);}
	.st1{fill-opacity:0;stroke:#113C60;stroke-width:2;}
	.st2{enable-background:new    ;}
	.st3{fill:#FFFFFF;}
	.st4{fill:url(#SVGID_2_);}
	.st5{fill-opacity:0;stroke:#113C60;stroke-width:2;stroke-linejoin:bevel;}
	.st6{fill:url(#SVGID_3_);}
	.st7{fill:url(#SVGID_4_);}
	.st8{fill:url(#SVGID_5_);}
	.st9{fill:url(#SVGID_6_);}
</style>
<linearGradient id="SVGID_1_" gradientUnits="userSpaceOnUse" x1="36" y1="3.0045" x2="36" y2="100.9996" gradientTransform="matrix(1 0 0 -1 0 102)">
	<stop  offset="5.000000e-03" style="stop-color:#113C60"/>
	<stop  offset="0.16" style="stop-color:#194F7E"/>
	<stop  offset="0.3597" style="stop-color:#1C5F97"/>
	<stop  offset="1" style="stop-color:#1D6FB5"/>
</linearGradient>
<path class="st0" d="M45,1l27,26.7V99H0V1H45z"/>
<path class="st1" d="M45,1l27,26.7V99H0V1H45z"/>
<g class="st2">
	<path class="st3" d="M10.4,91.1V71.2h6.5c2.5,0,4.1,0.1,4.8,0.3c1.1,0.3,2.1,0.9,2.9,1.9c0.8,1,1.2,2.3,1.2,3.9
		c0,1.2-0.2,2.2-0.7,3.1c-0.4,0.8-1,1.5-1.7,2c-0.7,0.5-1.4,0.8-2.1,0.9c-1,0.2-2.4,0.3-4.2,0.3h-2.6v7.5H10.4z M14.4,74.6v5.6h2.2
		c1.6,0,2.7-0.1,3.2-0.3c0.5-0.2,1-0.5,1.3-1c0.3-0.4,0.5-1,0.5-1.5c0-0.7-0.2-1.3-0.6-1.8c-0.4-0.5-1-0.8-1.6-0.9
		c-0.5-0.1-1.5-0.1-2.9-0.1H14.4z"/>
	<path class="st3" d="M28,84.6l3.9-0.4c0.2,1.3,0.7,2.3,1.4,2.9c0.7,0.6,1.7,0.9,2.9,0.9c1.3,0,2.3-0.3,2.9-0.8c0.7-0.5,1-1.2,1-1.9
		c0-0.5-0.1-0.9-0.4-1.2c-0.3-0.3-0.8-0.6-1.5-0.9c-0.5-0.2-1.6-0.5-3.2-0.9c-2.2-0.5-3.7-1.2-4.6-2c-1.2-1.1-1.8-2.4-1.8-4
		c0-1,0.3-2,0.9-2.8c0.6-0.9,1.4-1.5,2.5-2c1.1-0.5,2.4-0.7,3.9-0.7c2.5,0,4.4,0.5,5.7,1.6s1.9,2.5,2,4.4l-4,0.2
		c-0.2-1-0.5-1.8-1.1-2.2c-0.6-0.4-1.4-0.7-2.6-0.7c-1.2,0-2.1,0.2-2.8,0.7c-0.4,0.3-0.6,0.7-0.6,1.2c0,0.5,0.2,0.9,0.6,1.2
		c0.5,0.4,1.8,0.9,3.7,1.3s3.4,0.9,4.4,1.4c0.9,0.5,1.7,1.2,2.2,2s0.8,1.9,0.8,3.2c0,1.1-0.3,2.2-1,3.2c-0.6,1-1.5,1.7-2.7,2.2
		s-2.6,0.7-4.4,0.7c-2.5,0-4.5-0.6-5.8-1.7C29.1,88.5,28.3,86.8,28,84.6z"/>
	<path class="st3" d="M52.2,91.1V74.6h-5.9v-3.4h15.9v3.4h-5.9v16.5H52.2z"/>
</g>
<linearGradient id="SVGID_2_" gradientUnits="userSpaceOnUse" x1="45.0685" y1="74.2052" x2="58.5685" y2="87.7052" gradientTransform="matrix(1 0 0 -1 0 102)">
	<stop  offset="5.000000e-03" style="stop-color:#DFF1FA"/>
	<stop  offset="0.3" style="stop-color:#DCEEF7"/>
	<stop  offset="0.443" style="stop-color:#D3E4EF"/>
	<stop  offset="0.553" style="stop-color:#C4D6E3"/>
	<stop  offset="0.647" style="stop-color:#B1C5D5"/>
	<stop  offset="0.73" style="stop-color:#9AB0C5"/>
	<stop  offset="0.805" style="stop-color:#819AB3"/>
	<stop  offset="0.875" style="stop-color:#64829F"/>
	<stop  offset="0.938" style="stop-color:#426C8C"/>
	<stop  offset="0.998" style="stop-color:#06577A"/>
	<stop  offset="1" style="stop-color:#015679"/>
</linearGradient>
<path class="st4" d="M45,1l27,26.7H45V1z"/>
<path class="st5" d="M45,1l27,26.7H45V1z"/>
<g>
	<g>
		<linearGradient id="SVGID_3_" gradientUnits="userSpaceOnUse" x1="26.4135" y1="38.0443" x2="26.4135" y2="45.1562">
			<stop  offset="5.000000e-03" style="stop-color:#113C60"/>
			<stop  offset="0.8235" style="stop-color:#194F7E"/>
			<stop  offset="1" style="stop-color:#1C5F97"/>
		</linearGradient>
		<path class="st6" d="M26.4,38.1c-1.5,0.2-2.7,1.8-2.7,3.5c0,1.8,1.2,3.4,2.7,3.5c1.5,0.2,2.7-1.4,2.7-3.5
			C29.1,39.5,27.9,37.9,26.4,38.1z"/>
		<linearGradient id="SVGID_4_" gradientUnits="userSpaceOnUse" x1="26.7132" y1="23.713" x2="26.7132" y2="59.487">
			<stop  offset="5.000000e-03" style="stop-color:#113C60"/>
			<stop  offset="0.8235" style="stop-color:#194F7E"/>
			<stop  offset="1" style="stop-color:#1C5F97"/>
		</linearGradient>
		<path class="st7" d="M15.9,27.9v27.7l21.7,3.9V23.7L15.9,27.9z M26.4,47.3c-2.4-0.3-4.3-2.9-4.3-5.7s1.9-5.4,4.3-5.7
			s4.3,2.3,4.3,5.7C30.7,45.1,28.8,47.6,26.4,47.3z"/>
	</g>
	<linearGradient id="SVGID_5_" gradientUnits="userSpaceOnUse" x1="47.0392" y1="31.2018" x2="47.0392" y2="41.9972">
		<stop  offset="5.000000e-03" style="stop-color:#113C60"/>
		<stop  offset="0.8235" style="stop-color:#194F7E"/>
		<stop  offset="1" style="stop-color:#1C5F97"/>
	</linearGradient>
	<polygon class="st8" points="54.6,32.1 42.7,42 39.5,39.4 39.5,31.2 54.6,31.2 	"/>
	<linearGradient id="SVGID_6_" gradientUnits="userSpaceOnUse" x1="47.0392" y1="34.0225" x2="47.0392" y2="52.4267">
		<stop  offset="5.000000e-03" style="stop-color:#113C60"/>
		<stop  offset="0.8235" style="stop-color:#194F7E"/>
		<stop  offset="1" style="stop-color:#1C5F97"/>
	</linearGradient>
	<polygon class="st9" points="54.6,34 42.7,43.9 39.5,41.3 39.5,52.4 54.6,52.4 	"/>
</g>
</svg>
