<?xml version="1.0" encoding="utf-8"?>
<!-- Generator: Adobe Illustrator 21.1.0, SVG Export Plug-In . SVG Version: 6.00 Build 0)  -->
<svg version="1.1" id="Layer_1" xmlns="http://www.w3.org/2000/svg"  x="0px" y="0px"
	 viewBox="0 0 72 100" style="enable-background:new 0 0 72 100;" xml:space="preserve">
<style type="text/css">
	.st0{fill:url(#SVGID_1_);}
	.st1{fill:url(#SVGID_2_);fill-opacity:0;stroke:#006E6C;stroke-width:2;}
	.st2{enable-background:new    ;}
	.st3{fill:#FFFFFF;}
	.st4{fill:url(#SVGID_3_);}
	.st5{fill:url(#SVGID_4_);}
	.st6{fill:url(#SVGID_5_);}
	.st7{opacity:0.99;}
	.st8{fill:url(#SVGID_6_);}
	.st9{fill-opacity:0;stroke:#006E6C;stroke-width:2;stroke-linejoin:bevel;}
</style>
<linearGradient id="SVGID_1_" gradientUnits="userSpaceOnUse" x1="36.2" y1="3.0053" x2="36.2" y2="101.0001" gradientTransform="matrix(1 0 0 -1 0 102)">
	<stop  offset="0" style="stop-color:#006B69"/>
	<stop  offset="0.124" style="stop-color:#00807F"/>
	<stop  offset="0.262" style="stop-color:#009393"/>
	<stop  offset="0.41" style="stop-color:#00A3A3"/>
	<stop  offset="0.571" style="stop-color:#00B0AF"/>
	<stop  offset="0.752" style="stop-color:#08B8B7"/>
	<stop  offset="1" style="stop-color:#14BBBB"/>
</linearGradient>
<path class="st0" d="M45.2,1l26.9,26.7V99H0.3V1H45.2z"/>
<linearGradient id="SVGID_2_" gradientUnits="userSpaceOnUse" x1="0.325" y1="49.9973" x2="72.075" y2="49.9973">
	<stop  offset="5.000000e-03" style="stop-color:#077265"/>
	<stop  offset="0.343" style="stop-color:#006A69"/>
	<stop  offset="1" style="stop-color:#003836"/>
</linearGradient>
<path class="st1" d="M45.2,1l26.9,26.7V99H0.3V1H45.2z"/>
<g class="st2">
	<path class="st3" d="M8.8,91.1V71.2h6.5c2.5,0,4.1,0.1,4.8,0.3c1.1,0.3,2.1,0.9,2.9,1.9c0.8,1,1.2,2.3,1.2,3.9
		c0,1.2-0.2,2.2-0.7,3.1c-0.4,0.8-1,1.5-1.7,2c-0.7,0.5-1.4,0.8-2.1,0.9c-1,0.2-2.4,0.3-4.2,0.3h-2.6v7.5H8.8z M12.8,74.6v5.6H15
		c1.6,0,2.7-0.1,3.2-0.3c0.5-0.2,1-0.5,1.3-1c0.3-0.4,0.5-1,0.5-1.5c0-0.7-0.2-1.3-0.6-1.8c-0.4-0.5-1-0.8-1.6-0.9
		c-0.5-0.1-1.4-0.1-2.9-0.1H12.8z"/>
	<path class="st3" d="M27.4,71.2h4V82c0,1.7,0,2.8,0.1,3.3c0.2,0.8,0.6,1.5,1.2,2c0.6,0.5,1.5,0.7,2.7,0.7c1.1,0,2-0.2,2.6-0.7
		c0.6-0.5,0.9-1,1-1.7s0.2-1.8,0.2-3.4v-11h4v10.4c0,2.4-0.1,4.1-0.3,5c-0.2,1-0.6,1.8-1.2,2.5s-1.4,1.2-2.4,1.6s-2.3,0.6-3.8,0.6
		c-1.9,0-3.4-0.2-4.3-0.7s-1.8-1-2.3-1.7s-0.9-1.4-1.1-2.2c-0.3-1.1-0.4-2.8-0.4-5V71.2z"/>
	<path class="st3" d="M47.5,71.2h8c1.6,0,2.8,0.1,3.5,0.2c0.8,0.1,1.5,0.4,2.1,0.8s1.1,1,1.5,1.7c0.4,0.7,0.6,1.5,0.6,2.3
		c0,0.9-0.3,1.8-0.8,2.6c-0.5,0.8-1.2,1.4-2,1.7c1.2,0.4,2.2,1,2.8,1.8c0.7,0.8,1,1.8,1,3c0,0.9-0.2,1.8-0.6,2.6
		c-0.4,0.9-1,1.5-1.7,2s-1.6,0.8-2.7,0.9c-0.7,0.1-2.3,0.1-4.9,0.1h-6.8V71.2z M51.6,74.5v4.6h2.6c1.6,0,2.5,0,2.9-0.1
		c0.7-0.1,1.2-0.3,1.6-0.7c0.4-0.4,0.6-0.9,0.6-1.5c0-0.6-0.2-1.1-0.5-1.5c-0.3-0.4-0.8-0.6-1.5-0.7c-0.4,0-1.5-0.1-3.4-0.1H51.6z
		 M51.6,82.4v5.3h3.7c1.5,0,2.4,0,2.8-0.1c0.6-0.1,1.1-0.4,1.5-0.8c0.4-0.4,0.6-1,0.6-1.7c0-0.6-0.1-1.1-0.4-1.5
		c-0.3-0.4-0.7-0.7-1.3-0.9c-0.5-0.2-1.7-0.3-3.6-0.3H51.6z"/>
</g>
<g>
	<g>
		<linearGradient id="SVGID_3_" gradientUnits="userSpaceOnUse" x1="28.0316" y1="41.4135" x2="28.0316" y2="31.3775">
			<stop  offset="5.000000e-03" style="stop-color:#008281"/>
			<stop  offset="0.343" style="stop-color:#006A69"/>
			<stop  offset="1" style="stop-color:#003836"/>
		</linearGradient>
		<path class="st4" d="M31.1,36.2c0-3.2-1.6-4.8-4-4.8c-1,0-1.7,0.1-2.1,0.3v9.5c0.5,0.2,1.1,0.3,1.8,0.3
			C29.5,41.4,31.1,39.6,31.1,36.2z"/>
		<linearGradient id="SVGID_4_" gradientUnits="userSpaceOnUse" x1="28.0301" y1="62" x2="28.0301" y2="19.292">
			<stop  offset="5.000000e-03" style="stop-color:#008281"/>
			<stop  offset="0.343" style="stop-color:#006A69"/>
			<stop  offset="1" style="stop-color:#003836"/>
		</linearGradient>
		<path class="st5" d="M15,55.3L41.1,62V19.3L15,26V55.3z M22.8,29.3c1.1-0.3,2.5-0.5,4.2-0.5c2.2,0,3.8,0.7,4.8,2
			c0.9,1.2,1.5,2.9,1.5,5.1c0,2.2-0.5,4-1.3,5.2c-1.2,1.8-3.1,2.7-5.2,2.7c-0.7,0-1.3,0-1.8-0.2v9.8h-2.2V29.3z"/>
		<linearGradient id="SVGID_5_" gradientUnits="userSpaceOnUse" x1="50.7388" y1="58.1521" x2="50.7388" y2="24.6809">
			<stop  offset="5.000000e-03" style="stop-color:#008281"/>
			<stop  offset="0.343" style="stop-color:#006A69"/>
			<stop  offset="1" style="stop-color:#003836"/>
		</linearGradient>
		<polygon class="st6" points="43.3,24.7 43.3,27.3 52.1,27.3 52.1,34.6 43.3,34.6 43.3,37.4 52.1,37.4 52.1,40.6 43.3,40.6 
			43.3,43.2 52.1,43.2 52.1,46.5 43.3,46.5 43.3,49.4 52.1,49.4 52.1,52.7 43.3,52.7 43.3,58.2 58.2,58.2 58.2,24.7 		"/>
	</g>
</g>
<g class="st7">
	
		<linearGradient id="SVGID_6_" gradientUnits="userSpaceOnUse" x1="45.2139" y1="74.2291" x2="58.667" y2="87.6823" gradientTransform="matrix(1 0 0 -1 0 102)">
		<stop  offset="0" style="stop-color:#D6EDE8"/>
		<stop  offset="0.297" style="stop-color:#D3EBE6"/>
		<stop  offset="0.44" style="stop-color:#C7E3DF"/>
		<stop  offset="0.551" style="stop-color:#B7D8D5"/>
		<stop  offset="0.645" style="stop-color:#A0CBC9"/>
		<stop  offset="0.729" style="stop-color:#84BAB9"/>
		<stop  offset="0.804" style="stop-color:#62A7A7"/>
		<stop  offset="0.874" style="stop-color:#349394"/>
		<stop  offset="0.938" style="stop-color:#007F7F"/>
		<stop  offset="0.998" style="stop-color:#006B6A"/>
		<stop  offset="1" style="stop-color:#006B69"/>
	</linearGradient>
	<path class="st8" d="M45.2,1l26.9,26.7H45.2V1z"/>
	<path class="st9" d="M45.2,1l26.9,26.7H45.2V1z"/>
</g>
</svg>
