<?xml version="1.0" encoding="utf-8"?>
<!-- Generator: Adobe Illustrator 21.1.0, SVG Export Plug-In . SVG Version: 6.00 Build 0)  -->
<svg version="1.1" id="Layer_1" xmlns="http://www.w3.org/2000/svg" xmlns:xlink="http://www.w3.org/1999/xlink" x="0px" y="0px"
	 viewBox="0 0 72 100" style="enable-background:new 0 0 72 100;" xml:space="preserve">
<style type="text/css">
	.st0{opacity:0.99;}
	.st1{fill:url(#SVGID_1_);}
	.st2{fill-opacity:0;stroke:#2D3293;stroke-width:2;}
	.st3{enable-background:new    ;}
	.st4{fill:#FFFFFF;}
	.st5{fill:url(#SVGID_2_);stroke:url(#SVGID_3_);stroke-width:1.5;stroke-miterlimit:10;}
	.st6{fill:url(#SVGID_4_);stroke:url(#SVGID_5_);stroke-width:1.5;stroke-miterlimit:10;}
	.st7{fill:url(#SVGID_6_);stroke:url(#SVGID_7_);stroke-miterlimit:10;}
	.st8{fill:url(#SVGID_8_);}
	.st9{fill-opacity:0;stroke:#2D3293;stroke-width:2;stroke-linejoin:bevel;}
</style>
<g class="st0">
	
		<linearGradient id="SVGID_1_" gradientUnits="userSpaceOnUse" x1="36.15" y1="2.8868" x2="36.15" y2="101.1256" gradientTransform="matrix(1 0 0 -1 0 102)">
		<stop  offset="0" style="stop-color:#595593"/>
		<stop  offset="1.200000e-02" style="stop-color:#5B5794"/>
		<stop  offset="0.182" style="stop-color:#7B77AA"/>
		<stop  offset="0.352" style="stop-color:#9896BF"/>
		<stop  offset="0.521" style="stop-color:#B2B2D2"/>
		<stop  offset="0.687" style="stop-color:#C7C9E2"/>
		<stop  offset="0.848" style="stop-color:#D6D9EC"/>
		<stop  offset="1" style="stop-color:#DBDFF0"/>
	</linearGradient>
	<path class="st1" d="M45.2,0.9l27.1,26.8v71.4H0V0.9H45.2z"/>
	<path class="st2" d="M45.2,0.9l27.1,26.8v71.4H0V0.9H45.2z"/>
</g>
<g class="st3">
	<path class="st4" d="M6.4,91.2V71.3h8.5c2.1,0,3.7,0.2,4.7,0.5c1,0.4,1.8,1,2.3,1.9c0.6,0.9,0.9,2,0.9,3.1c0,1.5-0.4,2.7-1.3,3.7
		c-0.9,1-2.2,1.6-4,1.8c0.9,0.5,1.6,1.1,2.2,1.7c0.6,0.6,1.3,1.7,2.3,3.2l2.5,3.9h-4.9l-2.9-4.3c-1-1.5-1.8-2.5-2.1-2.9
		c-0.4-0.4-0.8-0.7-1.2-0.8c-0.4-0.1-1.1-0.2-2-0.2h-0.8v8.3H6.4z M10.4,79.7h3c1.9,0,3.2-0.1,3.6-0.2c0.5-0.2,0.9-0.4,1.1-0.8
		c0.3-0.4,0.4-0.9,0.4-1.5c0-0.7-0.2-1.2-0.5-1.6c-0.4-0.4-0.9-0.7-1.5-0.8c-0.3,0-1.3-0.1-3-0.1h-3.2V79.7z"/>
	<path class="st4" d="M44.8,91.2h-4.4l-1.8-4.5h-8l-1.7,4.5h-4.3l7.8-19.9h4.3L44.8,91.2z M37.3,83.3l-2.8-7.4l-2.7,7.4H37.3z"/>
	<path class="st4" d="M46.9,91.2V71.3H53l3.7,13.6l3.6-13.6h6.1v19.9h-3.8V75.5l-4,15.7h-3.9l-4-15.7v15.7H46.9z"/>
</g>
<g>
	<linearGradient id="SVGID_2_" gradientUnits="userSpaceOnUse" x1="10.7843" y1="45.0543" x2="22.3067" y2="45.0543">
		<stop  offset="0" style="stop-color:#352C7F"/>
		<stop  offset="7.400000e-02" style="stop-color:#3E3786"/>
		<stop  offset="0.266" style="stop-color:#544F96"/>
		<stop  offset="0.457" style="stop-color:#6763A5"/>
		<stop  offset="0.645" style="stop-color:#7572B1"/>
		<stop  offset="0.827" style="stop-color:#7E7CBA"/>
		<stop  offset="1" style="stop-color:#8180BD"/>
	</linearGradient>
	<linearGradient id="SVGID_3_" gradientUnits="userSpaceOnUse" x1="10.0343" y1="45.0543" x2="23.0567" y2="45.0543">
		<stop  offset="0" style="stop-color:#352C7F"/>
		<stop  offset="7.400000e-02" style="stop-color:#3E3786"/>
		<stop  offset="0.266" style="stop-color:#544F96"/>
		<stop  offset="0.457" style="stop-color:#6763A5"/>
		<stop  offset="0.645" style="stop-color:#7572B1"/>
		<stop  offset="0.827" style="stop-color:#7E7CBA"/>
		<stop  offset="1" style="stop-color:#8180BD"/>
	</linearGradient>
	<polygon class="st5" points="22.3,54.7 13.6,45.1 13.6,45 22.3,35.4 22.3,29 10.8,42.5 10.8,47.6 22.3,61.1 	"/>
	<linearGradient id="SVGID_4_" gradientUnits="userSpaceOnUse" x1="51.4761" y1="45.0543" x2="63" y2="45.0543">
		<stop  offset="0" style="stop-color:#352C7F"/>
		<stop  offset="7.400000e-02" style="stop-color:#3E3786"/>
		<stop  offset="0.266" style="stop-color:#544F96"/>
		<stop  offset="0.457" style="stop-color:#6763A5"/>
		<stop  offset="0.645" style="stop-color:#7572B1"/>
		<stop  offset="0.827" style="stop-color:#7E7CBA"/>
		<stop  offset="1" style="stop-color:#8180BD"/>
	</linearGradient>
	<linearGradient id="SVGID_5_" gradientUnits="userSpaceOnUse" x1="50.7261" y1="45.0543" x2="63.75" y2="45.0543">
		<stop  offset="0" style="stop-color:#352C7F"/>
		<stop  offset="7.400000e-02" style="stop-color:#3E3786"/>
		<stop  offset="0.266" style="stop-color:#544F96"/>
		<stop  offset="0.457" style="stop-color:#6763A5"/>
		<stop  offset="0.645" style="stop-color:#7572B1"/>
		<stop  offset="0.827" style="stop-color:#7E7CBA"/>
		<stop  offset="1" style="stop-color:#8180BD"/>
	</linearGradient>
	<polygon class="st6" points="51.5,29 51.5,35.4 60.4,45 60.4,45.1 51.5,54.7 51.5,61.1 63,47.8 63,42.3 	"/>
	<linearGradient id="SVGID_6_" gradientUnits="userSpaceOnUse" x1="25.0646" y1="45.0438" x2="48.9354" y2="45.0438">
		<stop  offset="0" style="stop-color:#352C7F"/>
		<stop  offset="7.400000e-02" style="stop-color:#3E3786"/>
		<stop  offset="0.266" style="stop-color:#544F96"/>
		<stop  offset="0.457" style="stop-color:#6763A5"/>
		<stop  offset="0.645" style="stop-color:#7572B1"/>
		<stop  offset="0.827" style="stop-color:#7E7CBA"/>
		<stop  offset="1" style="stop-color:#8180BD"/>
	</linearGradient>
	<linearGradient id="SVGID_7_" gradientUnits="userSpaceOnUse" x1="24.5646" y1="45.0438" x2="49.4354" y2="45.0438">
		<stop  offset="0" style="stop-color:#352C7F"/>
		<stop  offset="7.400000e-02" style="stop-color:#3E3786"/>
		<stop  offset="0.266" style="stop-color:#544F96"/>
		<stop  offset="0.457" style="stop-color:#6763A5"/>
		<stop  offset="0.645" style="stop-color:#7572B1"/>
		<stop  offset="0.827" style="stop-color:#7E7CBA"/>
		<stop  offset="1" style="stop-color:#8180BD"/>
	</linearGradient>
	<path class="st7" d="M42.8,33.9c-1.5-0.7-3.4-1.8-4.1-3.4c0-0.8-0.7-1.5-1.5-1.5s-1.5,0.7-1.5,1.5v19.6c-1.5-0.8-4.4-0.6-6.7,0.7
		c-3.4,1.9-4.9,5.5-3.4,8.1c1.5,2.5,5.6,3,9,1.1c2.4-1.3,4-3.6,4.1-5.8c0-5.7,0-11.2,0-16.9c5,0,7.9,2,6.8,6.8
		c-0.2,0.9-0.5,1.8-0.9,2.6l0,0c-0.2,0.3-0.2,0.6,0.1,0.9c0.2,0.2,0.7,0.2,1.1-0.2c1.9-1.8,3-4.2,3.1-6.8
		C49,37.3,45.7,35.2,42.8,33.9z"/>
</g>
<g class="st0">
	
		<linearGradient id="SVGID_8_" gradientUnits="userSpaceOnUse" x1="58.3206" y1="87.2734" x2="50.783" y2="78.8387" gradientTransform="matrix(1 0 0 -1 0 102)">
		<stop  offset="0" style="stop-color:#595593"/>
		<stop  offset="7.000000e-02" style="stop-color:#706CA2"/>
		<stop  offset="0.159" style="stop-color:#8988B5"/>
		<stop  offset="0.255" style="stop-color:#A3A5C8"/>
		<stop  offset="0.359" style="stop-color:#BABFD9"/>
		<stop  offset="0.471" style="stop-color:#CED5E7"/>
		<stop  offset="0.598" style="stop-color:#DEE6F2"/>
		<stop  offset="0.751" style="stop-color:#E9F3FA"/>
		<stop  offset="1" style="stop-color:#ECF8FE"/>
	</linearGradient>
	<path class="st8" d="M45.2,0.9l27.1,26.8H45.2V0.9z"/>
	<path class="st9" d="M45.2,0.9l27.1,26.8H45.2V0.9z"/>
</g>
</svg>
