<?xml version="1.0" encoding="utf-8"?>
<!-- Generator: Adobe Illustrator 21.1.0, SVG Export Plug-In . SVG Version: 6.00 Build 0)  -->
<svg version="1.1" id="Layer_1" xmlns="http://www.w3.org/2000/svg"  x="0px" y="0px"
	 viewBox="0 0 72 100" style="enable-background:new 0 0 72 100;" xml:space="preserve">
<style type="text/css">
	.st0{fill:url(#SVGID_1_);}
	.st1{fill-opacity:0;stroke:#7191A1;stroke-width:2;}
	.st2{enable-background:new    ;}
	.st3{fill:#4C6C7B;}
	.st4{fill:url(#SVGID_2_);}
	.st5{fill:url(#SVGID_3_);}
	.st6{fill-opacity:0;stroke:#FFFFFF;}
	.st7{fill:url(#SVGID_4_);}
	.st8{fill-opacity:0;stroke:#7191A1;stroke-width:2;stroke-linejoin:bevel;}
</style>
<linearGradient id="SVGID_1_" gradientUnits="userSpaceOnUse" x1="36.2" y1="3.0143" x2="36.2" y2="101.0005" gradientTransform="matrix(1 0 0 -1 0 102)">
	<stop  offset="0" style="stop-color:#C8D4DB"/>
	<stop  offset="0.139" style="stop-color:#D8E1E6"/>
	<stop  offset="0.359" style="stop-color:#EBF0F3"/>
	<stop  offset="0.617" style="stop-color:#F9FAFB"/>
	<stop  offset="1" style="stop-color:#FFFFFF"/>
</linearGradient>
<path class="st0" d="M45.2,1l27.1,26.7V99H0.1V1H45.2z"/>
<path class="st1" d="M45.2,1l27.1,26.7V99H0.1V1H45.2z"/>
<g class="st2">
	<path class="st3" d="M19,90.1V70.2h8.5c2.1,0,3.7,0.2,4.7,0.5s1.8,1,2.3,1.9c0.6,0.9,0.9,2,0.9,3.1c0,1.5-0.4,2.7-1.3,3.7
		c-0.9,1-2.2,1.6-4,1.8c0.9,0.5,1.6,1.1,2.2,1.7c0.6,0.6,1.3,1.7,2.3,3.2l2.5,3.9h-4.9l-2.9-4.3c-1-1.5-1.8-2.5-2.1-2.9
		c-0.4-0.4-0.8-0.7-1.2-0.8c-0.4-0.1-1.1-0.2-2-0.2h-0.8v8.3H19z M23.1,78.6h3c1.9,0,3.2-0.1,3.6-0.2s0.9-0.4,1.1-0.8
		c0.3-0.4,0.4-0.9,0.4-1.5c0-0.7-0.2-1.2-0.5-1.6c-0.4-0.4-0.9-0.7-1.5-0.8c-0.3,0-1.3-0.1-3-0.1h-3.2V78.6z"/>
	<path class="st3" d="M39.3,70.2h8c1.6,0,2.8,0.1,3.6,0.2s1.5,0.4,2.1,0.8c0.6,0.4,1.1,1,1.5,1.7c0.4,0.7,0.6,1.5,0.6,2.3
		c0,0.9-0.3,1.8-0.8,2.6c-0.5,0.8-1.2,1.4-2.1,1.7c1.2,0.4,2.2,1,2.8,1.8c0.7,0.8,1,1.8,1,3c0,0.9-0.2,1.8-0.6,2.6s-1,1.5-1.7,2
		c-0.7,0.5-1.6,0.8-2.7,0.9c-0.7,0.1-2.3,0.1-4.9,0.1h-6.8V70.2z M43.4,73.5v4.6h2.7c1.6,0,2.6,0,3-0.1c0.7-0.1,1.2-0.3,1.6-0.7
		c0.4-0.4,0.6-0.9,0.6-1.5c0-0.6-0.2-1.1-0.5-1.5c-0.3-0.4-0.9-0.6-1.5-0.7c-0.4,0-1.6-0.1-3.5-0.1H43.4z M43.4,81.4v5.3h3.8
		c1.5,0,2.4,0,2.8-0.1c0.6-0.1,1.1-0.4,1.5-0.8c0.4-0.4,0.6-1,0.6-1.7c0-0.6-0.1-1.1-0.4-1.5s-0.7-0.7-1.3-0.9
		c-0.6-0.2-1.8-0.3-3.6-0.3H43.4z"/>
</g>
<linearGradient id="SVGID_2_" gradientUnits="userSpaceOnUse" x1="31.7471" y1="69.9349" x2="31.7471" y2="69.9864" gradientTransform="matrix(1 0 0 -1 0 102)">
	<stop  offset="0" style="stop-color:#ADCCDC"/>
	<stop  offset="1" style="stop-color:#4C6C7B"/>
</linearGradient>
<path class="st4" d="M31.8,32C31.7,32.1,31.7,32.1,31.8,32"/>
<g>
	
		<linearGradient id="SVGID_3_" gradientUnits="userSpaceOnUse" x1="18" y1="60.5" x2="54" y2="60.5" gradientTransform="matrix(1 0 0 -1 0 102)">
		<stop  offset="0" style="stop-color:#ADCCDC"/>
		<stop  offset="1" style="stop-color:#4C6C7B"/>
	</linearGradient>
	<path class="st5" d="M54,23.5v36l-9-27L54,23.5z M18,59.5h36l-27-9L18,59.5z M27,50.5l27,9l-18-18L27,50.5z M36,41.5l18,18l-9-27
		L36,41.5z M18,50.5v9l9-9H18z M36,41.5h-9v9L36,41.5z M45,32.5h-9v9L45,32.5z M54,23.5h-9v9L54,23.5z M27,41.5l-9,9h9V41.5z
		 M36,32.5l-9,9h9V32.5z M45,23.5l-9,9h9V23.5z"/>
	<path class="st6" d="M54,23.5v36l-9-27L54,23.5z M18,59.5h36l-27-9L18,59.5z M27,50.5l27,9l-18-18L27,50.5z M36,41.5l18,18l-9-27
		L36,41.5z M18,50.5v9l9-9H18z M36,41.5h-9v9L36,41.5z M45,32.5h-9v9L45,32.5z M54,23.5h-9v9L54,23.5z M27,41.5l-9,9h9V41.5z
		 M36,32.5l-9,9h9V32.5z M45,23.5l-9,9h9V23.5z"/>
</g>
<linearGradient id="SVGID_4_" gradientUnits="userSpaceOnUse" x1="45.3238" y1="74.1844" x2="58.8707" y2="87.7313" gradientTransform="matrix(1 0 0 -1 0 102)">
	<stop  offset="0" style="stop-color:#FFFFFF"/>
	<stop  offset="0.35" style="stop-color:#FAFBFB"/>
	<stop  offset="0.532" style="stop-color:#EDF1F4"/>
	<stop  offset="0.675" style="stop-color:#DDE5E9"/>
	<stop  offset="0.799" style="stop-color:#C7D3DA"/>
	<stop  offset="0.908" style="stop-color:#ADBDC7"/>
	<stop  offset="1" style="stop-color:#92A5B0"/>
</linearGradient>
<path class="st7" d="M45.2,1l27.1,26.7H45.2V1z"/>
<path class="st8" d="M45.2,1l27.1,26.7H45.2V1z"/>
</svg>
