<?xml version="1.0" encoding="utf-8"?>
<!-- Generator: Adobe Illustrator 21.1.0, SVG Export Plug-In . SVG Version: 6.00 Build 0)  -->
<svg version="1.1" id="Layer_1" xmlns="http://www.w3.org/2000/svg" xmlns:xlink="http://www.w3.org/1999/xlink" x="0px" y="0px"
	 viewBox="0 0 72 100" style="enable-background:new 0 0 72 100;" xml:space="preserve">
<style type="text/css">
	.st0{fill:url(#SVGID_1_);}
	.st1{fill-opacity:0;stroke:#7191A1;stroke-width:2;}
	.st2{fill:url(#SVGID_2_);}
	.st3{fill-opacity:0;stroke:#7191A1;stroke-width:2;stroke-linejoin:bevel;}
	.st4{enable-background:new    ;}
	.st5{fill:#4C6C7B;}
	.st6{fill:url(#SVGID_3_);}
	.st7{fill:url(#SVGID_4_);}
</style>
<g>
	
		<linearGradient id="SVGID_1_" gradientUnits="userSpaceOnUse" x1="36" y1="97" x2="36" y2="-1" gradientTransform="matrix(1 0 0 1 0 2)">
		<stop  offset="0" style="stop-color:#C8D4DB"/>
		<stop  offset="0.139" style="stop-color:#D8E1E6"/>
		<stop  offset="0.359" style="stop-color:#EBF0F3"/>
		<stop  offset="0.617" style="stop-color:#F9FAFB"/>
		<stop  offset="1" style="stop-color:#FFFFFF"/>
	</linearGradient>
	<path class="st0" d="M45,1l27,26.7V99H0V1H45z"/>
	<path class="st1" d="M45,1l27,26.7V99H0V1H45z"/>
</g>
<g>
	
		<linearGradient id="SVGID_2_" gradientUnits="userSpaceOnUse" x1="45.0368" y1="25.8132" x2="58.5368" y2="12.3132" gradientTransform="matrix(1 0 0 1 0 2)">
		<stop  offset="0" style="stop-color:#FFFFFF"/>
		<stop  offset="0.35" style="stop-color:#FAFBFB"/>
		<stop  offset="0.532" style="stop-color:#EDF1F4"/>
		<stop  offset="0.675" style="stop-color:#DDE5E9"/>
		<stop  offset="0.799" style="stop-color:#C7D3DA"/>
		<stop  offset="0.908" style="stop-color:#ADBDC7"/>
		<stop  offset="1" style="stop-color:#92A5B0"/>
	</linearGradient>
	<path class="st2" d="M45,1l27,26.7H45V1z"/>
	<path class="st3" d="M45,1l27,26.7H45V1z"/>
</g>
<g class="st4">
	<path class="st5" d="M10.6,91.5V72.2h8.3c2.1,0,3.6,0.2,4.5,0.5c0.9,0.3,1.7,1,2.3,1.9s0.9,1.9,0.9,3c0,1.4-0.4,2.6-1.3,3.6
		c-0.9,0.9-2.1,1.5-3.9,1.8c0.9,0.5,1.6,1,2.1,1.6c0.6,0.6,1.3,1.6,2.2,3.1l2.4,3.8h-4.7l-2.9-4.2c-1-1.5-1.7-2.5-2.1-2.8
		c-0.4-0.4-0.8-0.7-1.2-0.8c-0.4-0.1-1.1-0.2-2-0.2h-0.8v8.1H10.6z M14.5,80.4h2.9c1.9,0,3.1-0.1,3.5-0.2s0.8-0.4,1.1-0.8
		c0.3-0.4,0.4-0.9,0.4-1.5c0-0.7-0.2-1.2-0.5-1.6c-0.4-0.4-0.8-0.7-1.5-0.8c-0.3,0-1.3-0.1-2.9-0.1h-3.1V80.4z"/>
	<path class="st5" d="M30.2,72.2h7.2c1.6,0,2.9,0.1,3.7,0.4c1.1,0.3,2.1,0.9,2.9,1.8c0.8,0.9,1.4,1.9,1.9,3.1
		c0.4,1.2,0.6,2.8,0.6,4.6c0,1.6-0.2,3-0.6,4.1c-0.5,1.4-1.2,2.5-2.1,3.4c-0.7,0.7-1.6,1.2-2.8,1.5c-0.9,0.3-2,0.4-3.5,0.4h-7.4
		V72.2z M34.2,75.5v12.8h2.9c1.1,0,1.9-0.1,2.4-0.2c0.6-0.2,1.2-0.4,1.6-0.8s0.8-1,1-1.9c0.3-0.9,0.4-2,0.4-3.5s-0.1-2.6-0.4-3.4
		c-0.3-0.8-0.6-1.4-1.1-1.9c-0.5-0.4-1.1-0.8-1.8-0.9c-0.6-0.1-1.6-0.2-3.2-0.2H34.2z"/>
	<path class="st5" d="M50,91.5V72.2h13.4v3.3h-9.4v4.6h8.2v3.3h-8.2v8.2H50z"/>
</g>
<g>
	<linearGradient id="SVGID_3_" gradientUnits="userSpaceOnUse" x1="19.25" y1="35.7421" x2="19.25" y2="59.2421">
		<stop  offset="0" style="stop-color:#869BA6"/>
		<stop  offset="0.379" style="stop-color:#8399A4"/>
		<stop  offset="0.576" style="stop-color:#7B929E"/>
		<stop  offset="0.731" style="stop-color:#6D8694"/>
		<stop  offset="0.863" style="stop-color:#5A7785"/>
		<stop  offset="0.981" style="stop-color:#426373"/>
		<stop  offset="0.99" style="stop-color:#416271"/>
	</linearGradient>
	<polygon class="st6" points="30.8,40.9 14.1,47.5 30.8,54.1 30.8,59.3 7.8,50.2 7.8,44.9 30.8,35.8 	"/>
	
		<linearGradient id="SVGID_4_" gradientUnits="userSpaceOnUse" x1="53.25" y1="40.8061" x2="53.25" y2="64.3061" gradientTransform="matrix(1 0 0 -1 0 100)">
		<stop  offset="0" style="stop-color:#869BA6"/>
		<stop  offset="0.379" style="stop-color:#8399A4"/>
		<stop  offset="0.576" style="stop-color:#7B929E"/>
		<stop  offset="0.731" style="stop-color:#6D8694"/>
		<stop  offset="0.863" style="stop-color:#5A7785"/>
		<stop  offset="0.981" style="stop-color:#426373"/>
		<stop  offset="0.99" style="stop-color:#416271"/>
	</linearGradient>
	<polygon class="st7" points="41.8,54.1 58.4,47.5 41.8,40.9 41.8,35.7 64.8,44.8 64.8,50.1 41.8,59.2 	"/>
</g>
</svg>
