<?xml version="1.0" encoding="utf-8"?>
<!-- Generator: Adobe Illustrator 21.1.0, SVG Export Plug-In . SVG Version: 6.00 Build 0)  -->
<svg version="1.1" id="Layer_1" xmlns="http://www.w3.org/2000/svg"  x="0px" y="0px"
	 viewBox="0 0 72 100" style="enable-background:new 0 0 72 100;" xml:space="preserve">
<style type="text/css">
	.st0{fill:url(#SVGID_1_);}
	.st1{fill-opacity:0;stroke:#7191A1;stroke-width:2;}
	.st2{enable-background:new    ;}
	.st3{fill:#4C6C7B;}
	.st4{fill:url(#SVGID_2_);}
	.st5{fill:url(#SVGID_3_);}
	.st6{fill:url(#SVGID_4_);}
	.st7{fill:url(#SVGID_5_);}
	.st8{fill:url(#SVGID_6_);}
	.st9{fill-opacity:0;stroke:#7191A1;stroke-width:2;stroke-linejoin:bevel;}
</style>
<g>
	
		<linearGradient id="SVGID_1_" gradientUnits="userSpaceOnUse" x1="36" y1="2.9534" x2="36" y2="100.9501" gradientTransform="matrix(1 0 0 -1 0 102)">
		<stop  offset="0" style="stop-color:#C8D4DB"/>
		<stop  offset="0.139" style="stop-color:#D8E1E6"/>
		<stop  offset="0.359" style="stop-color:#EBF0F3"/>
		<stop  offset="0.617" style="stop-color:#F9FAFB"/>
		<stop  offset="1" style="stop-color:#FFFFFF"/>
	</linearGradient>
	<path class="st0" d="M45,1l27,26.7V99H0V1H45z"/>
	<path class="st1" d="M45,1l27,26.7V99H0V1H45z"/>
</g>
<g class="st2">
	<path class="st3" d="M11.6,91.1V71.3h8.5c2.1,0,3.7,0.2,4.7,0.5c1,0.4,1.7,1,2.3,1.9c0.6,0.9,0.9,2,0.9,3.1c0,1.5-0.4,2.7-1.3,3.7
		c-0.9,1-2.2,1.6-4,1.8c0.9,0.5,1.6,1.1,2.2,1.7c0.6,0.6,1.3,1.7,2.3,3.2l2.4,3.9h-4.8l-2.9-4.3c-1-1.5-1.8-2.5-2.1-2.9
		s-0.8-0.7-1.2-0.8c-0.4-0.1-1.1-0.2-2-0.2h-0.8v8.3H11.6z M15.6,79.7h3c1.9,0,3.2-0.1,3.6-0.2c0.5-0.2,0.9-0.4,1.1-0.8
		c0.3-0.4,0.4-0.9,0.4-1.5c0-0.7-0.2-1.2-0.5-1.6c-0.4-0.4-0.9-0.7-1.5-0.8c-0.3,0-1.3-0.1-3-0.1h-3.2V79.7z"/>
	<path class="st3" d="M36.3,91.1V74.6h-5.9v-3.4h15.9v3.4h-5.9v16.5H36.3z"/>
	<path class="st3" d="M48.9,91.1V71.3h13.7v3.4H53v4.7h8.4v3.4H53v8.4H48.9z"/>
</g>
<linearGradient id="SVGID_2_" gradientUnits="userSpaceOnUse" x1="11.84" y1="66.2445" x2="60.452" y2="66.2445" gradientTransform="matrix(1 0 0 -1 0 102)">
	<stop  offset="0" style="stop-color:#7291A1"/>
	<stop  offset="1" style="stop-color:#CAD5DB"/>
</linearGradient>
<path class="st4" d="M11.8,33.7h48.6v4.1H11.8V33.7z"/>
<linearGradient id="SVGID_3_" gradientUnits="userSpaceOnUse" x1="11.84" y1="42.1907" x2="60.452" y2="42.1907" gradientTransform="matrix(1 0 0 -1 0 102)">
	<stop  offset="0" style="stop-color:#7291A1"/>
	<stop  offset="1" style="stop-color:#CAD5DB"/>
</linearGradient>
<path class="st5" d="M11.8,57.8h48.6v4.1H11.8V57.8z"/>
<linearGradient id="SVGID_4_" gradientUnits="userSpaceOnUse" x1="11.84" y1="53.9315" x2="60.452" y2="53.9315" gradientTransform="matrix(1 0 0 -1 0 102)">
	<stop  offset="0" style="stop-color:#7291A1"/>
	<stop  offset="1" style="stop-color:#CAD5DB"/>
</linearGradient>
<path class="st6" d="M11.8,46h48.6v4.1H11.8V46z"/>
<linearGradient id="SVGID_5_" gradientUnits="userSpaceOnUse" x1="11.84" y1="78.4198" x2="60.452" y2="78.4198" gradientTransform="matrix(1 0 0 -1 0 102)">
	<stop  offset="0" style="stop-color:#7291A1"/>
	<stop  offset="1" style="stop-color:#CAD5DB"/>
</linearGradient>
<path class="st7" d="M11.8,21.6h48.6v4.1H11.8V21.6z"/>
<g>
	
		<linearGradient id="SVGID_6_" gradientUnits="userSpaceOnUse" x1="45.0684" y1="74.1553" x2="58.5684" y2="87.6553" gradientTransform="matrix(1 0 0 -1 0 102)">
		<stop  offset="0" style="stop-color:#FFFFFF"/>
		<stop  offset="0.35" style="stop-color:#FAFBFB"/>
		<stop  offset="0.532" style="stop-color:#EDF1F4"/>
		<stop  offset="0.675" style="stop-color:#DDE5E9"/>
		<stop  offset="0.799" style="stop-color:#C7D3DA"/>
		<stop  offset="0.908" style="stop-color:#ADBDC7"/>
		<stop  offset="1" style="stop-color:#92A5B0"/>
	</linearGradient>
	<path class="st8" d="M45,1l27,26.7H45V1z"/>
	<path class="st9" d="M45,1l27,26.7H45V1z"/>
</g>
</svg>
