<?xml version="1.0" encoding="utf-8"?>
<!-- Generator: Adobe Illustrator 21.1.0, SVG Export Plug-In . SVG Version: 6.00 Build 0)  -->
<svg version="1.1" id="Layer_1" xmlns="http://www.w3.org/2000/svg"  x="0px" y="0px"
	 viewBox="0 0 72 100" style="enable-background:new 0 0 72 100;" xml:space="preserve">
<style type="text/css">
	.st0{fill:url(#SVGID_1_);}
	.st1{fill-opacity:0;stroke:#7191A1;stroke-width:2;}
	.st2{fill:#4C6C7B;}
	.st3{fill:#F2F2F2;}
	.st4{fill:url(#SVGID_2_);}
	.st5{fill:url(#SVGID_3_);}
	.st6{fill:url(#SVGID_4_);}
	.st7{fill:url(#SVGID_5_);}
	.st8{fill:#FFFFFF;}
	.st9{fill:url(#SVGID_6_);}
	.st10{fill:url(#SVGID_7_);}
	.st11{fill:url(#SVGID_8_);}
	.st12{fill-opacity:0;stroke:#7191A1;stroke-width:2;stroke-linejoin:bevel;}
</style>
<g>
	
		<linearGradient id="SVGID_1_" gradientUnits="userSpaceOnUse" x1="36" y1="2.9534" x2="36" y2="100.9501" gradientTransform="matrix(1 0 0 -1 0 102)">
		<stop  offset="0" style="stop-color:#C8D4DB"/>
		<stop  offset="0.139" style="stop-color:#D8E1E6"/>
		<stop  offset="0.359" style="stop-color:#EBF0F3"/>
		<stop  offset="0.617" style="stop-color:#F9FAFB"/>
		<stop  offset="1" style="stop-color:#FFFFFF"/>
	</linearGradient>
	<path class="st0" d="M45,1l27,26.7V99H0V1H45z"/>
	<path class="st1" d="M45,1l27,26.7V99H0V1H45z"/>
</g>
<path class="st2" d="M8.7,84.7l3.9-0.4c0.2,1.3,0.7,2.3,1.4,2.9c0.7,0.6,1.7,0.9,2.9,0.9c1.3,0,2.3-0.3,2.9-0.8c0.7-0.5,1-1.2,1-1.9
	c0-0.5-0.1-0.9-0.4-1.2c-0.3-0.3-0.8-0.6-1.5-0.9c-0.5-0.2-1.6-0.5-3.2-0.9c-2.2-0.5-3.7-1.2-4.6-2c-1.2-1.1-1.8-2.4-1.8-4
	c0-1,0.3-2,0.9-2.8c0.6-0.9,1.4-1.5,2.5-2c1.1-0.5,2.4-0.7,3.9-0.7c2.5,0,4.4,0.5,5.7,1.6c1.3,1.1,1.9,2.5,2,4.4l-4,0.2
	c-0.2-1-0.5-1.8-1.1-2.2c-0.6-0.4-1.4-0.7-2.6-0.7c-1.2,0-2.1,0.2-2.8,0.7c-0.4,0.3-0.6,0.7-0.6,1.2c0,0.5,0.2,0.9,0.6,1.2
	c0.5,0.4,1.8,0.9,3.7,1.3s3.4,0.9,4.4,1.4s1.7,1.2,2.2,2s0.8,1.9,0.8,3.2c0,1.1-0.3,2.2-1,3.2c-0.6,1-1.5,1.7-2.7,2.2
	c-1.2,0.5-2.6,0.7-4.4,0.7c-2.5,0-4.5-0.6-5.8-1.7C9.7,88.6,8.9,86.9,8.7,84.7z"/>
<path class="st2" d="M44.5,88.6c1,0.7,2.1,1.3,3.2,1.7l-1.5,2.8c-0.6-0.2-1.2-0.4-1.8-0.7c-0.1-0.1-1-0.6-2.7-1.8
	c-1.3,0.6-2.8,0.9-4.4,0.9c-3.1,0-5.5-0.9-7.2-2.7c-1.7-1.8-2.6-4.3-2.6-7.6c0-3.2,0.9-5.8,2.6-7.6s4.1-2.7,7.1-2.7
	c3,0,5.3,0.9,7.1,2.7c1.7,1.8,2.6,4.3,2.6,7.6c0,1.7-0.2,3.2-0.7,4.5C45.9,86.7,45.3,87.7,44.5,88.6z M41.2,86.3
	c0.5-0.6,0.9-1.3,1.2-2.2s0.4-1.8,0.4-3c0-2.3-0.5-4-1.5-5.1c-1-1.1-2.4-1.7-4-1.7c-1.7,0-3,0.6-4,1.7s-1.5,2.8-1.5,5.1
	c0,2.3,0.5,4.1,1.5,5.2c1,1.2,2.3,1.7,3.9,1.7c0.6,0,1.1-0.1,1.7-0.3c-0.8-0.5-1.7-0.9-2.5-1.2l1.1-2.3C38.7,84.8,40,85.4,41.2,86.3
	z"/>
<path class="st2" d="M50.2,91.1V71.4h4v16.3h10.1v3.3H50.2z"/>
<g>
	<g>
		<path class="st3" d="M54,48.1c0,2.5-8.1,4.5-18,4.5c-9.9,0-18-2-18-4.5c0-2.5,8.1-4.5,18-4.5C45.9,43.6,54,45.6,54,48.1z"/>
		
			<linearGradient id="SVGID_2_" gradientUnits="userSpaceOnUse" x1="28.9721" y1="47.2221" x2="43.0279" y2="61.2778" gradientTransform="matrix(1 0 0 -1 0 102)">
			<stop  offset="0" style="stop-color:#CCDDE7"/>
			<stop  offset="0.212" style="stop-color:#B4CCD8"/>
			<stop  offset="0.639" style="stop-color:#7DA0B1"/>
			<stop  offset="1" style="stop-color:#4F7A8D"/>
		</linearGradient>
		<path class="st4" d="M49.5,47.8c0,2.2-6,3.9-13.5,3.9c-7.5,0-13.5-1.7-13.5-3.9s6-3.9,13.5-3.9C43.5,43.9,49.5,45.6,49.5,47.8z"/>
		
			<linearGradient id="SVGID_3_" gradientUnits="userSpaceOnUse" x1="18" y1="45.9" x2="54" y2="45.9" gradientTransform="matrix(1 0 0 -1 0 102)">
			<stop  offset="0" style="stop-color:#CCDDE7"/>
			<stop  offset="0.212" style="stop-color:#B4CCD8"/>
			<stop  offset="0.639" style="stop-color:#7DA0B1"/>
			<stop  offset="1" style="stop-color:#4F7A8D"/>
		</linearGradient>
		<path class="st5" d="M18,48.3v11.2c0,0,4.5,4.5,18,4.5s18-4.5,18-4.5V48.3c0,0-2.2,3.9-18,4.2C20.2,52.8,18,48.3,18,48.3z"/>
	</g>
	<g>
		<path class="st3" d="M54,32.3c0,2.5-8.1,4.5-18,4.5c-9.9,0-18-2-18-4.5c0-2.5,8.1-4.5,18-4.5C45.9,27.8,54,29.8,54,32.3z"/>
		
			<linearGradient id="SVGID_4_" gradientUnits="userSpaceOnUse" x1="28.954" y1="63.004" x2="43.0097" y2="77.0597" gradientTransform="matrix(1 0 0 -1 0 102)">
			<stop  offset="0" style="stop-color:#CCDDE7"/>
			<stop  offset="0.212" style="stop-color:#B4CCD8"/>
			<stop  offset="0.639" style="stop-color:#7DA0B1"/>
			<stop  offset="1" style="stop-color:#4F7A8D"/>
		</linearGradient>
		<path class="st6" d="M49.5,31.9c0,2.2-6,3.9-13.5,3.9c-7.5,0-13.5-1.7-13.5-3.9c0-2.2,6-3.9,13.5-3.9
			C43.5,28.1,49.5,29.8,49.5,31.9z"/>
		
			<linearGradient id="SVGID_5_" gradientUnits="userSpaceOnUse" x1="18" y1="61.6" x2="54" y2="61.6" gradientTransform="matrix(1 0 0 -1 0 102)">
			<stop  offset="0" style="stop-color:#CCDDE7"/>
			<stop  offset="0.212" style="stop-color:#B4CCD8"/>
			<stop  offset="0.639" style="stop-color:#7DA0B1"/>
			<stop  offset="1" style="stop-color:#4F7A8D"/>
		</linearGradient>
		<path class="st7" d="M18,32.6v11.2c0,0,4.5,4.5,18,4.5s18-4.5,18-4.5V32.6c0,0-2.2,3.9-18,4.2C20.2,37.1,18,32.6,18,32.6z"/>
	</g>
	<g>
		<path class="st8" d="M54,16.6c0,2.5-8.1,4.5-18,4.5c-9.9,0-18-2-18-4.5c0-2.5,8.1-4.5,18-4.5C45.9,12.1,54,14.1,54,16.6z"/>
		
			<linearGradient id="SVGID_6_" gradientUnits="userSpaceOnUse" x1="28.9721" y1="78.7221" x2="43.0279" y2="92.7778" gradientTransform="matrix(1 0 0 -1 0 102)">
			<stop  offset="0" style="stop-color:#CCDDE7"/>
			<stop  offset="0.265" style="stop-color:#B5CCD8"/>
			<stop  offset="0.798" style="stop-color:#7FA0B1"/>
			<stop  offset="1" style="stop-color:#6A8FA1"/>
		</linearGradient>
		<path class="st9" d="M49.5,16.3c0,2.2-6,3.9-13.5,3.9c-7.5,0-13.5-1.7-13.5-3.9s6-3.9,13.5-3.9C43.5,12.4,49.5,14.1,49.5,16.3z"/>
		
			<linearGradient id="SVGID_7_" gradientUnits="userSpaceOnUse" x1="18" y1="77.4" x2="54" y2="77.4" gradientTransform="matrix(1 0 0 -1 0 102)">
			<stop  offset="0" style="stop-color:#CCDDE7"/>
			<stop  offset="0.265" style="stop-color:#B5CCD8"/>
			<stop  offset="0.798" style="stop-color:#7FA0B1"/>
			<stop  offset="1" style="stop-color:#6A8FA1"/>
		</linearGradient>
		<path class="st10" d="M18,16.8v11.2c0,0,4.5,4.5,18,4.5s18-4.5,18-4.5V16.8c0,0-2.2,3.9-18,4.2C20.2,21.3,18,16.8,18,16.8z"/>
	</g>
</g>
<g>
	
		<linearGradient id="SVGID_8_" gradientUnits="userSpaceOnUse" x1="45.0684" y1="74.1553" x2="58.5684" y2="87.6553" gradientTransform="matrix(1 0 0 -1 0 102)">
		<stop  offset="0" style="stop-color:#FFFFFF"/>
		<stop  offset="0.35" style="stop-color:#FAFBFB"/>
		<stop  offset="0.532" style="stop-color:#EDF1F4"/>
		<stop  offset="0.675" style="stop-color:#DDE5E9"/>
		<stop  offset="0.799" style="stop-color:#C7D3DA"/>
		<stop  offset="0.908" style="stop-color:#ADBDC7"/>
		<stop  offset="1" style="stop-color:#92A5B0"/>
	</linearGradient>
	<path class="st11" d="M45,1l27,26.7H45V1z"/>
	<path class="st12" d="M45,1l27,26.7H45V1z"/>
</g>
</svg>
