<?xml version="1.0" encoding="utf-8"?>
<!-- Generator: Adobe Illustrator 21.1.0, SVG Export Plug-In . SVG Version: 6.00 Build 0)  -->
<svg version="1.1" id="Layer_1" xmlns="http://www.w3.org/2000/svg"  x="0px" y="0px"
	 viewBox="0 0 72 100" style="enable-background:new 0 0 72 100;" xml:space="preserve">
<style type="text/css">
	.st0{fill:url(#SVGID_1_);}
	.st1{fill-opacity:0;stroke:#D10407;stroke-width:2;}
	.st2{enable-background:new    ;}
	.st3{fill:#FFFFFF;}
	.st4{fill:url(#SVGID_2_);}
	.st5{fill:url(#SVGID_3_);}
	.st6{fill-opacity:0;stroke:#D10407;stroke-width:2;stroke-linejoin:bevel;}
</style>
<linearGradient id="SVGID_1_" gradientUnits="userSpaceOnUse" x1="36" y1="101.0003" x2="36" y2="3.0043" gradientTransform="matrix(1 0 0 -1 0 102)">
	<stop  offset="0" style="stop-color:#FFFEEE"/>
	<stop  offset="0.5309" style="stop-color:#F9B1B2"/>
	<stop  offset="1" style="stop-color:#D10407"/>
</linearGradient>
<path class="st0" d="M45.1,1l27.2,26.7V99H-0.2V1H45.1z"/>
<path class="st1" d="M45.1,1l27.2,26.7V99H-0.2V1H45.1z"/>
<g class="st2">
	<path class="st3" d="M4.5,84.6l4-0.4c0.2,1.3,0.7,2.3,1.5,2.9c0.7,0.6,1.7,0.9,3,0.9c1.3,0,2.3-0.3,3-0.8c0.7-0.5,1-1.2,1-1.9
		c0-0.5-0.1-0.9-0.4-1.2c-0.3-0.3-0.8-0.6-1.5-0.9c-0.5-0.2-1.6-0.5-3.3-0.9c-2.2-0.5-3.7-1.2-4.6-2c-1.2-1.1-1.9-2.4-1.9-4
		c0-1,0.3-2,0.9-2.8c0.6-0.9,1.4-1.5,2.5-2c1.1-0.5,2.4-0.7,4-0.7c2.5,0,4.4,0.5,5.7,1.6c1.3,1.1,2,2.5,2,4.4l-4.1,0.2
		c-0.2-1-0.5-1.8-1.1-2.2c-0.6-0.4-1.4-0.7-2.6-0.7c-1.2,0-2.1,0.2-2.8,0.7c-0.4,0.3-0.6,0.7-0.6,1.2c0,0.5,0.2,0.9,0.6,1.2
		c0.5,0.4,1.8,0.9,3.7,1.3s3.4,0.9,4.4,1.4c1,0.5,1.7,1.2,2.2,2c0.5,0.9,0.8,1.9,0.8,3.2c0,1.1-0.3,2.2-1,3.2
		c-0.6,1-1.6,1.7-2.7,2.2s-2.6,0.7-4.4,0.7c-2.6,0-4.5-0.6-5.9-1.7C5.6,88.5,4.8,86.8,4.5,84.6z"/>
	<path class="st3" d="M27.2,91.1l-4.8-19.8h4.2l3,13.6l3.7-13.6h4.8l3.5,13.9l3.1-13.9h4.1L44,91.1h-4.3l-4-14.8l-4,14.8H27.2z"/>
	<path class="st3" d="M50.9,71.2h7.4c1.7,0,3,0.1,3.8,0.4c1.2,0.3,2.2,1,3,1.8s1.5,1.9,1.9,3.2c0.4,1.3,0.7,2.8,0.7,4.7
		c0,1.6-0.2,3-0.6,4.2c-0.5,1.4-1.2,2.6-2.2,3.5c-0.7,0.7-1.7,1.2-2.9,1.6c-0.9,0.3-2.1,0.4-3.6,0.4h-7.7V71.2z M55,74.6v13.1h3
		c1.1,0,2-0.1,2.5-0.2c0.7-0.2,1.2-0.4,1.6-0.8s0.8-1,1.1-1.9s0.4-2.1,0.4-3.6s-0.1-2.7-0.4-3.5s-0.7-1.5-1.2-1.9
		c-0.5-0.5-1.1-0.8-1.9-0.9c-0.6-0.1-1.7-0.2-3.3-0.2H55z"/>
</g>
<g transform="translate(0,-952.36218)">
	<linearGradient id="SVGID_2_" gradientUnits="userSpaceOnUse" x1="36.625" y1="974.6121" x2="36.625" y2="1015.3622">
		<stop  offset="0.1185" style="stop-color:#F9B1B2"/>
		<stop  offset="1" style="stop-color:#D10407"/>
	</linearGradient>
	<path class="st4" d="M36.6,974.6c-11.3,0-20.4,9.1-20.4,20.4c0,11.3,9.1,20.4,20.4,20.4S57,1006.2,57,995
		C57,983.7,47.9,974.6,36.6,974.6z M40.5,979.4l-3.3,12.3h8.6l-13,18.8l3.3-12.3h-8.6L40.5,979.4z"/>
</g>
<linearGradient id="SVGID_3_" gradientUnits="userSpaceOnUse" x1="45.1778" y1="74.1588" x2="58.7716" y2="87.7526" gradientTransform="matrix(1 0 0 -1 0 102)">
	<stop  offset="0" style="stop-color:#FFFEEE"/>
	<stop  offset="0.6371" style="stop-color:#F9B1B2"/>
	<stop  offset="1" style="stop-color:#D10407"/>
</linearGradient>
<path class="st5" d="M45.1,1l27.2,26.7H45.1V1z"/>
<path class="st6" d="M45.1,1l27.2,26.7H45.1V1z"/>
</svg>
