<?xml version="1.0" encoding="utf-8"?>
<!-- Generator: Adobe Illustrator 21.1.0, SVG Export Plug-In . SVG Version: 6.00 Build 0)  -->
<svg version="1.1" id="Layer_2" xmlns="http://www.w3.org/2000/svg"  x="0px" y="0px"
	 viewBox="0 0 72 100" style="enable-background:new 0 0 72 100;" xml:space="preserve">
<style type="text/css">
	.st0{fill:url(#SVGID_1_);}
	.st1{fill:url(#SVGID_2_);fill-opacity:0;stroke:#C15127;stroke-width:2;}
	.st2{fill:#FA2A22;}
	.st3{fill:url(#SVGID_3_);}
	.st4{fill-opacity:0;stroke:#C15127;stroke-width:2;stroke-linejoin:bevel;}
	.st5{enable-background:new    ;}
	.st6{fill:#FFFFFF;}
</style>
<linearGradient id="SVGID_1_" gradientUnits="userSpaceOnUse" x1="36" y1="-3.2" x2="36" y2="95.3" gradientTransform="matrix(1 0 0 1 0 4)">
	<stop  offset="5.000000e-03" style="stop-color:#FCAE3F"/>
	<stop  offset="1" style="stop-color:#FE522E"/>
</linearGradient>
<path class="st0" d="M45,0.8l27,26.9v71.6H0V0.8H45z"/>
<linearGradient id="SVGID_2_" gradientUnits="userSpaceOnUse" x1="0" y1="50" x2="72" y2="50">
	<stop  offset="5.000000e-03" style="stop-color:#FCAE3F"/>
	<stop  offset="1" style="stop-color:#FC7032"/>
</linearGradient>
<path class="st1" d="M45,0.8l27,26.9v71.6H0V0.8H45z"/>
<g>
	<path class="st2" d="M15.4,24.5c0.2-0.1,0.8-0.2,1.5-0.2c0.3,0,0.6,0,0.9,0c1.2,0.1,2.3,0.3,3.6,1.3c0.3,0.2,0.7,0.6,1,0.9
		c0.1,0.1,0.2,0.3,0.4,0.1c0.3-0.4,0.8-1.4,1.6-2.1c0.5-0.5,1.8-1.2,3.9-1.2c0.3,0,0.6,0,1,0c2.7,0.3,6.9,1.4,10,2.3
		c2.7,0.8,14.2,4.6,14.3,4.7c0,0,1,0.3,0.8,0.8c-0.1,0.3-0.8,0.3-1,0.2C52,31,39.8,29.7,37,29.6c-1.9-0.1-2.8,0.5-3,1.5
		c-0.1,0.7,0.9,4.5,2,5.9c0.6,0.3,5.2,2.6,7.2,3.5c0.4,0.2,1.2,0.5,2.4,1c5.1,2.1,15.3,6.6,16.4,7.1c0.7,0.4,0.8,1.4,0.5,1.3
		c-0.6-0.2-1.3-0.5-1.5-0.6C60,48.8,48.9,44.5,46,43.8c-1.9-0.5-3.3-0.8-4.2-0.8c-0.2,0-0.7,0-0.8,0.4c-0.2,0.7,0.6,1.8,1.3,2.8
		c0.1,0.1,0.2,0.2,0.2,0.4c0.8,1.2,3.1,4.5,4.2,5.8c1.1,1.3,8.5,9.9,8.6,10.1c0.1,0.3-0.7,0.1-0.7,0.1c-0.2-0.1-1-0.3-1.5-0.9
		C52.5,61,36.3,44.3,34.9,43.1c-0.6-0.5-2.1-1.5-3.5-1.3c-1.6,0.2-3.1,1.7-3.1,3.5c0,1,0.2,2.5,0.5,4.4c0.4,2.4,0.6,3.3,1.3,5.9
		c0.1,0.5,0.3,1.1,0.4,1.7c0.2,0.7,0.4,1.5,0.6,2.3c1.2,4.6,1.2,5.1,0.9,5.3c-0.2,0.1-0.4,0-1.2-0.9c-0.4-0.5-1-1.2-1.8-2.2
		c-1.3-1.7-3.3-4.3-5.2-7c-2.3-3.4-6.4-12.3-6.9-14.1c-0.1-0.5-1.1-3.4-0.3-4.5c0.1-0.1,1.1-1.3,1.1-1.9c-0.1-0.6-0.5-1.4-1-2.2
		c-0.5-0.8-1-1.6-1.4-2.6c-0.7-1.6-0.7-2.9-0.8-3.4L14,24.2L15.4,24.5z"/>
	<path class="st2" d="M15.3,26c0,0,0.7,2.7,1.8,4.1c1.1,1.4,4.6,4.8,2.8,6c-1.8,1.2-2.7,1-1.6,4.9c1.1,3.9,4.9,10.8,5.6,11.9
		c1.7,2.7,5.2,5.1,5,1.7c-0.1-1.8-0.4-2.8-0.8-4.7c-0.4-2-0.5-3.5-0.5-4.5c0-1.6,1.8-4.4,2-4.7c0.2-0.3,0.5-0.7,1.1-0.7
		c1.6-0.1,4.1,2.2,4.7,2.7c0.3,0.3,1.4,1.3,2.8,2.7c1.4,1.2,3.5,2.9,4,3.3c0.8,0.6,1.5,1.6,0.2-0.9c-0.1-0.2-0.6-1-0.7-1.1
		c-0.8-1.2-1.6-2.5-1.3-3.6c0.2-0.5,0.7-0.8,1.5-0.8c1,0,2.5,0.3,4.4,0.8c0.9,0.2,4.8,1.6,4.8,1.4c0-0.3-4.3-1.9-5.6-2.5
		c-1.1-0.5-2-0.8-2.4-1c-2.1-0.9-7.2-3.5-7.3-3.5l-0.1,0l-0.1-0.1c-1.5-1.9-2.4-5.9-2.2-6.5c0.2-0.9,0.9-2.1,3.3-2.1
		c0.2,0,0.3,0,0.4,0c0.8,0,2.3,0.1,4.1,0.3c2.6,0.1,5.8,0.2,6.1-0.2c0,0,0-0.2-0.2-0.2c-3.2-1-6.6-2.2-8-2.6c-1.8-0.5-4-1.1-6-1.6
		c-3.3-0.7-5.3-0.6-6.3-0.3c-2.6,0.8-2.4,3.1-2.9,3.7c-0.7,0.8-1.6-0.6-2.2-1.1c-0.5-0.5-1-0.9-1.3-1.1c-1.2-0.8-3.1-0.8-3.3-0.8
		c-0.8,0-1.4,0.2-1.4,0.2l-0.1,0l-0.5-0.1L15.3,26z"/>
</g>
<g>
	
		<linearGradient id="SVGID_3_" gradientUnits="userSpaceOnUse" x1="45.0704" y1="23.6796" x2="58.5704" y2="10.1796" gradientTransform="matrix(1 0 0 1 0 4)">
		<stop  offset="0" style="stop-color:#FFFCE3"/>
		<stop  offset="0.383" style="stop-color:#FFFAE0"/>
		<stop  offset="0.521" style="stop-color:#FDF3D8"/>
		<stop  offset="0.62" style="stop-color:#FBEBCC"/>
		<stop  offset="0.699" style="stop-color:#F8DFBB"/>
		<stop  offset="0.767" style="stop-color:#F5D0A6"/>
		<stop  offset="0.828" style="stop-color:#F1BF8D"/>
		<stop  offset="0.882" style="stop-color:#ECAA72"/>
		<stop  offset="0.933" style="stop-color:#E79354"/>
		<stop  offset="0.977" style="stop-color:#E27C34"/>
		<stop  offset="1" style="stop-color:#DF6F26"/>
	</linearGradient>
	<path class="st3" d="M45,0.8l27,26.9H45V0.8z"/>
	<path class="st4" d="M45,0.8l27,26.9H45V0.8z"/>
</g>
<g class="st5">
	<path class="st6" d="M5,86.6l2.8-0.3c0.2,0.9,0.5,1.6,1,2.1s1.2,0.7,2.1,0.7c0.9,0,1.6-0.2,2.1-0.6s0.7-0.9,0.7-1.4
		c0-0.3-0.1-0.6-0.3-0.9c-0.2-0.2-0.5-0.4-1-0.6c-0.3-0.1-1.1-0.3-2.3-0.6c-1.6-0.4-2.7-0.9-3.3-1.4c-0.9-0.8-1.3-1.7-1.3-2.9
		c0-0.7,0.2-1.4,0.6-2c0.4-0.6,1-1.1,1.8-1.5s1.7-0.5,2.8-0.5c1.8,0,3.2,0.4,4.1,1.2c0.9,0.8,1.4,1.8,1.4,3.2l-2.9,0.1
		c-0.1-0.7-0.4-1.3-0.8-1.6s-1-0.5-1.8-0.5c-0.8,0-1.5,0.2-2,0.5c-0.3,0.2-0.5,0.5-0.5,0.9c0,0.3,0.1,0.6,0.4,0.9
		c0.4,0.3,1.3,0.6,2.7,1s2.5,0.7,3.1,1s1.2,0.8,1.6,1.5s0.6,1.4,0.6,2.3c0,0.8-0.2,1.6-0.7,2.3c-0.5,0.7-1.1,1.2-1.9,1.6
		c-0.8,0.3-1.9,0.5-3.1,0.5c-1.8,0-3.2-0.4-4.2-1.3S5.2,88.2,5,86.6z"/>
	<path class="st6" d="M21.2,91.3L17.8,77h3l2.2,9.8l2.6-9.8H29l2.5,10l2.2-10h2.9l-3.5,14.3h-3.1l-2.9-10.7l-2.9,10.7H21.2z"/>
	<path class="st6" d="M38.1,91.3V77H41v14.3H38.1z"/>
	<path class="st6" d="M43.8,91.3V77h9.9v2.4h-7v3.4h6v2.4h-6v6.1H43.8z"/>
	<path class="st6" d="M59.3,91.3V79.4H55V77h11.5v2.4h-4.3v11.9H59.3z"/>
</g>
</svg>
