<?xml version="1.0" encoding="utf-8"?>
<!-- Generator: Adobe Illustrator 21.1.0, SVG Export Plug-In . SVG Version: 6.00 Build 0)  -->
<svg version="1.1" id="Layer_1" xmlns="http://www.w3.org/2000/svg" xmlns:xlink="http://www.w3.org/1999/xlink" x="0px" y="0px"
	 viewBox="0 0 72 100" style="enable-background:new 0 0 72 100;" xml:space="preserve">
<style type="text/css">
	.st0{opacity:0.99;}
	.st1{fill:url(#SVGID_1_);}
	.st2{fill-opacity:0;stroke:#006E6C;stroke-width:2;}
	.st3{enable-background:new    ;}
	.st4{fill:#FFFFFF;}
	.st5{fill:url(#SVGID_2_);}
	.st6{fill-opacity:0;stroke:#006E6C;stroke-width:2;stroke-linejoin:bevel;}
	.st7{opacity:0.99;fill:url(#SVGID_3_);}
</style>
<g class="st0">
	
		<linearGradient id="SVGID_1_" gradientUnits="userSpaceOnUse" x1="36.2" y1="3.0053" x2="36.2" y2="101.0001" gradientTransform="matrix(1 0 0 -1 0 102)">
		<stop  offset="0" style="stop-color:#006B69"/>
		<stop  offset="0.124" style="stop-color:#00807F"/>
		<stop  offset="0.262" style="stop-color:#009393"/>
		<stop  offset="0.41" style="stop-color:#00A3A3"/>
		<stop  offset="0.571" style="stop-color:#00B0AF"/>
		<stop  offset="0.752" style="stop-color:#08B8B7"/>
		<stop  offset="1" style="stop-color:#14BBBB"/>
	</linearGradient>
	<path class="st1" d="M45.2,1l26.9,26.7V99H0.3V1H45.2z"/>
	<path class="st2" d="M45.2,1l26.9,26.7V99H0.3V1H45.2z"/>
</g>
<g class="st3">
	<path class="st4" d="M21.8,91.1V74.6h-5.9v-3.4h15.9v3.4h-5.9v16.5H21.8z"/>
	<path class="st4" d="M34.2,91.1V71.2h4v19.8H34.2z"/>
	<path class="st4" d="M42.1,91.1V71.2h13.7v3.4h-9.7v4.7h8.3v3.4h-8.3v8.4H42.1z"/>
</g>
<g class="st0">
	
		<linearGradient id="SVGID_2_" gradientUnits="userSpaceOnUse" x1="45.2139" y1="74.2291" x2="58.667" y2="87.6823" gradientTransform="matrix(1 0 0 -1 0 102)">
		<stop  offset="0" style="stop-color:#D6EDE8"/>
		<stop  offset="0.297" style="stop-color:#D3EBE6"/>
		<stop  offset="0.44" style="stop-color:#C7E3DF"/>
		<stop  offset="0.551" style="stop-color:#B7D8D5"/>
		<stop  offset="0.645" style="stop-color:#A0CBC9"/>
		<stop  offset="0.729" style="stop-color:#84BAB9"/>
		<stop  offset="0.804" style="stop-color:#62A7A7"/>
		<stop  offset="0.874" style="stop-color:#349394"/>
		<stop  offset="0.938" style="stop-color:#007F7F"/>
		<stop  offset="0.998" style="stop-color:#006B6A"/>
		<stop  offset="1" style="stop-color:#006B69"/>
	</linearGradient>
	<path class="st5" d="M45.2,1l26.9,26.7H45.2V1z"/>
	<path class="st6" d="M45.2,1l26.9,26.7H45.2V1z"/>
</g>
<linearGradient id="SVGID_3_" gradientUnits="userSpaceOnUse" x1="36.2498" y1="37.353" x2="36.2498" y2="85.1607" gradientTransform="matrix(1 0 0 -1 0 102)">
	<stop  offset="5.000000e-03" style="stop-color:#008281"/>
	<stop  offset="0.343" style="stop-color:#006A69"/>
	<stop  offset="1" style="stop-color:#003836"/>
</linearGradient>
<path class="st7" d="M62.7,56.8c-1.6-0.8-4.6-6.6-9.2-7c-4-0.3-9.1-1.8-11.9-2c-3.5-5.8-9.5-15-14.5-19.9l13.8,0.7
	C37.2,19.8,27.7,23,27.7,23l6.4-5.3c-8.2-3.3-11.6,4.7-11.6,4.7c-8.5-4.7-12.9,3.3-12.9,3.3l8.8,0.6C8.4,29.1,11.2,39,11.2,39l8.9-8
	c-1.9,4.4,2.3,7.5,2.3,7.5l2.6-10.8c0,0,9.3,10.6,12.2,21.4c-3.7,1.9-9.5,5-14,5.6C17,55.5,9.7,59.7,9.7,59.7v4.9h53.1L62.7,56.8z"
	/>
</svg>
