<?xml version="1.0" encoding="utf-8"?>
<!-- Generator: Adobe Illustrator 21.1.0, SVG Export Plug-In . SVG Version: 6.00 Build 0)  -->
<svg version="1.1" id="Layer_1" xmlns="http://www.w3.org/2000/svg"  x="0px" y="0px"
	 viewBox="0 0 72 100" style="enable-background:new 0 0 72 100;" xml:space="preserve">
<style type="text/css">
	.st0{fill:url(#SVGID_1_);}
	.st1{fill-opacity:0;stroke:#7191A1;stroke-width:2;}
	.st2{fill:url(#SVGID_2_);}
	.st3{fill:url(#SVGID_3_);}
	.st4{fill-opacity:0;stroke:#7191A1;stroke-width:2;stroke-linejoin:bevel;}
	.st5{enable-background:new    ;}
	.st6{fill:#4C6C7B;}
</style>
<g>
	
		<linearGradient id="SVGID_1_" gradientUnits="userSpaceOnUse" x1="36" y1="97" x2="36" y2="-1" gradientTransform="matrix(1 0 0 1 0 2)">
		<stop  offset="0" style="stop-color:#C8D4DB"/>
		<stop  offset="0.139" style="stop-color:#D8E1E6"/>
		<stop  offset="0.359" style="stop-color:#EBF0F3"/>
		<stop  offset="0.617" style="stop-color:#F9FAFB"/>
		<stop  offset="1" style="stop-color:#FFFFFF"/>
	</linearGradient>
	<path class="st0" d="M45,1l27,26.7V99H0V1H45z"/>
	<path class="st1" d="M45,1l27,26.7V99H0V1H45z"/>
</g>
<g>
	<linearGradient id="SVGID_2_" gradientUnits="userSpaceOnUse" x1="14.3595" y1="39.123" x2="58.8405" y2="39.123">
		<stop  offset="0" style="stop-color:#CCDDE7"/>
		<stop  offset="0.265" style="stop-color:#B5CCD8"/>
		<stop  offset="0.798" style="stop-color:#7FA0B1"/>
		<stop  offset="1" style="stop-color:#6A8FA1"/>
	</linearGradient>
	<path class="st2" d="M58.8,53.5c-0.3,1.1-1,1.9-1.8,2.7c-11.4,11.9-31,9.6-39.3-4.6c-2.2-3.8-3.5-7.8-3.3-12.2
		c0.2-5.5,2.1-10.4,5.5-14.7c4.1-5.2,9.3-8.6,15.9-9.8c1.6-0.3,3.2-0.4,4.8-0.6c0,1.6,0,3.1,0,4.6c-1.1,0.1-2.2,0.2-3.3,0.4
		c-9.3,1.3-17.2,9.2-17.9,18.3c-0.4,5.7,1.1,10.8,4.9,15.2c1.5,1.8,3.2,3.4,5.3,4.5c0.6,0.3,1.3,0.4,2,0.5
		c-5.9-3.5-9.4-8.6-10.5-15.3c-0.8-4.5,0.1-8.7,2.6-12.6C30,20.1,41,18.6,48.5,21.8c-0.6,1.3-1.2,2.7-1.8,3.9
		c-1.5-0.3-3-0.7-4.5-0.8c-4.3-0.3-8.2,0.8-11.4,3.8c-8.2,7.5-6,19.1,1.8,24.3c2.5,1.7,5.2,2.9,8.2,3.6c0.7,0.2,1.5,0,2.3-0.1
		c-0.1-0.1-0.3-0.1-0.4-0.1c-3.7-0.7-7.2-2-10.1-4.6c-3-2.6-5.2-5.8-5.5-9.9c-0.4-5.8,1.8-10.5,6.8-13.5c4.3-2.7,8.9-2.7,13.5-0.5
		c2.6,1.2,4.5,3.2,5.9,5.7c-1.3,0.7-2.6,1.4-3.8,2c-1.1-1.1-2.1-2.3-3.3-3.1c-5.8-3.9-13.9-0.2-14.5,7c-0.3,3.6,1.2,6.3,3.7,8.7
		c3,2.7,6.6,3.7,10.5,4.2c3.8,0.5,7.7,0.4,11.5-0.1c0.8-0.1,1.1,0.4,1.4,1C58.8,53.3,58.8,53.4,58.8,53.5z"/>
</g>
<g>
	
		<linearGradient id="SVGID_3_" gradientUnits="userSpaceOnUse" x1="45.0368" y1="25.8132" x2="58.5368" y2="12.3132" gradientTransform="matrix(1 0 0 1 0 2)">
		<stop  offset="0" style="stop-color:#FFFFFF"/>
		<stop  offset="0.35" style="stop-color:#FAFBFB"/>
		<stop  offset="0.532" style="stop-color:#EDF1F4"/>
		<stop  offset="0.675" style="stop-color:#DDE5E9"/>
		<stop  offset="0.799" style="stop-color:#C7D3DA"/>
		<stop  offset="0.908" style="stop-color:#ADBDC7"/>
		<stop  offset="1" style="stop-color:#92A5B0"/>
	</linearGradient>
	<path class="st3" d="M45,1l27,26.7H45V1z"/>
	<path class="st4" d="M45,1l27,26.7H45V1z"/>
</g>
<g class="st5">
	<path class="st6" d="M7.4,91.5v-7.7H4.7v-1.6h7.5v1.6H9.3v7.7H7.4z"/>
	<path class="st6" d="M12.7,86.9c0-0.9,0.1-1.7,0.4-2.4c0.2-0.5,0.5-0.9,0.9-1.3c0.4-0.4,0.8-0.7,1.2-0.8c0.6-0.2,1.3-0.4,2-0.4
		c1.4,0,2.5,0.4,3.3,1.3s1.2,2,1.2,3.5c0,1.5-0.4,2.7-1.2,3.5c-0.8,0.8-1.9,1.3-3.3,1.3c-1.4,0-2.5-0.4-3.3-1.3
		C13.1,89.6,12.7,88.4,12.7,86.9z M14.7,86.9c0,1.1,0.2,1.9,0.7,2.4c0.5,0.5,1.1,0.8,1.9,0.8c0.8,0,1.4-0.3,1.9-0.8
		c0.5-0.5,0.7-1.3,0.7-2.4c0-1.1-0.2-1.9-0.7-2.4c-0.5-0.5-1.1-0.8-1.9-0.8c-0.8,0-1.4,0.3-1.9,0.8C14.9,85,14.7,85.8,14.7,86.9z"/>
	<path class="st6" d="M23.3,91.5v-9.3h4c1,0,1.7,0.1,2.2,0.3c0.5,0.2,0.8,0.5,1.1,0.9s0.4,0.9,0.4,1.5c0,0.7-0.2,1.3-0.6,1.7
		c-0.4,0.5-1,0.7-1.9,0.9c0.4,0.2,0.7,0.5,1,0.8c0.3,0.3,0.6,0.8,1.1,1.5l1.1,1.8h-2.3l-1.4-2c-0.5-0.7-0.8-1.2-1-1.4
		s-0.4-0.3-0.6-0.4c-0.2-0.1-0.5-0.1-1-0.1h-0.4v3.9H23.3z M25.2,86.2h1.4c0.9,0,1.5,0,1.7-0.1s0.4-0.2,0.5-0.4s0.2-0.4,0.2-0.7
		c0-0.3-0.1-0.6-0.3-0.8s-0.4-0.3-0.7-0.4c-0.2,0-0.6,0-1.4,0h-1.5V86.2z"/>
	<path class="st6" d="M32.8,91.5v-9.3h4c1,0,1.7,0.1,2.2,0.3s0.8,0.5,1.1,0.9s0.4,0.9,0.4,1.5c0,0.7-0.2,1.3-0.6,1.7s-1,0.7-1.9,0.9
		c0.4,0.2,0.7,0.5,1,0.8c0.3,0.3,0.6,0.8,1.1,1.5l1.1,1.8H39l-1.4-2c-0.5-0.7-0.8-1.2-1-1.4s-0.4-0.3-0.6-0.4
		c-0.2-0.1-0.5-0.1-1-0.1h-0.4v3.9H32.8z M34.7,86.2h1.4c0.9,0,1.5,0,1.7-0.1s0.4-0.2,0.5-0.4c0.1-0.2,0.2-0.4,0.2-0.7
		c0-0.3-0.1-0.6-0.3-0.8s-0.4-0.3-0.7-0.4c-0.2,0-0.6,0-1.4,0h-1.5V86.2z"/>
	<path class="st6" d="M42.3,91.5v-9.3h7v1.6h-5.1v2.1h4.7v1.6h-4.7V90h5.3v1.6H42.3z"/>
	<path class="st6" d="M51.1,91.5v-9.3h1.8l3.8,6.2v-6.2h1.8v9.3h-1.9l-3.8-6.1v6.1H51.1z"/>
	<path class="st6" d="M62.7,91.5v-7.7h-2.8v-1.6h7.5v1.6h-2.8v7.7H62.7z"/>
</g>
</svg>
