<?xml version="1.0" encoding="utf-8"?>
<!-- Generator: Adobe Illustrator 21.1.0, SVG Export Plug-In . SVG Version: 6.00 Build 0)  -->
<svg version="1.1" id="Layer_1" xmlns="http://www.w3.org/2000/svg" xmlns:xlink="http://www.w3.org/1999/xlink" x="0px" y="0px"
	 viewBox="0 0 72 100" style="enable-background:new 0 0 72 100;" xml:space="preserve">
<style type="text/css">
	.st0{fill:url(#SVGID_1_);}
	.st1{fill-opacity:0;stroke:#7187A1;stroke-width:2;}
	.st2{fill:url(#SVGID_2_);}
	.st3{fill-opacity:0;stroke:#7191A1;stroke-width:2;stroke-linejoin:bevel;}
	.st4{enable-background:new    ;}
	.st5{fill:#7291A1;}
	.st6{fill:#36454D;}
	.st7{fill:#4C627B;}
</style>
<g>
	
		<linearGradient id="SVGID_1_" gradientUnits="userSpaceOnUse" x1="36" y1="3.0046" x2="36" y2="100.9999" gradientTransform="matrix(1 0 0 -1 0 102)">
		<stop  offset="0" style="stop-color:#BEC0DB"/>
		<stop  offset="0.139" style="stop-color:#CECDE6"/>
		<stop  offset="0.359" style="stop-color:#E1DCF3"/>
		<stop  offset="0.617" style="stop-color:#EFE6FB"/>
		<stop  offset="1" style="stop-color:#F5F5FF"/>
	</linearGradient>
	<path class="st0" d="M45,1l26.9,26.7V99H0.1V1H45z"/>
	<path class="st1" d="M45,1l26.9,26.7V99H0.1V1H45z"/>
</g>
<g>
	
		<linearGradient id="SVGID_2_" gradientUnits="userSpaceOnUse" x1="44.7539" y1="74.2336" x2="58.1977" y2="87.6773" gradientTransform="matrix(1 0 0 -1 0 102)">
		<stop  offset="0" style="stop-color:#FFF5FF"/>
		<stop  offset="0.35" style="stop-color:#FAF1FB"/>
		<stop  offset="0.532" style="stop-color:#EDE7F4"/>
		<stop  offset="0.675" style="stop-color:#DDDBE9"/>
		<stop  offset="0.799" style="stop-color:#C7C9DA"/>
		<stop  offset="0.908" style="stop-color:#ADB3C7"/>
		<stop  offset="1" style="stop-color:#9291B0"/>
	</linearGradient>
	<path class="st2" d="M44.7,1l26.9,26.7H44.7V1z"/>
	<path class="st3" d="M44.7,1l26.9,26.7H44.7V1z"/>
</g>
<g class="st4">
	<path class="st5" d="M41,22.2V30h-0.8c-0.5-1.8-1-3.1-1.5-3.9c-0.6-0.8-1.3-1.4-2.3-1.9c-0.5-0.3-1.5-0.4-2.8-0.4h-2.2v22.2
		c0,1.5,0.1,2.4,0.2,2.8s0.5,0.7,1,1c0.5,0.3,1.1,0.4,2,0.4h1V51H20.4v-0.8h1c0.8,0,1.5-0.1,2-0.4c0.4-0.2,0.7-0.5,0.9-1
		c0.2-0.3,0.2-1.2,0.2-2.7V23.9h-2.1c-2,0-3.4,0.4-4.3,1.2c-1.2,1.1-2,2.8-2.4,4.9h-0.8v-7.8H41z"/>
</g>
<g class="st4">
	<path class="st6" d="M54.1,30.8v7.8h-0.8c-0.5-1.8-1-3.1-1.5-3.9c-0.6-0.8-1.3-1.4-2.3-1.9c-0.5-0.3-1.5-0.4-2.8-0.4h-2.2v22.2
		c0,1.5,0.1,2.4,0.2,2.8c0.2,0.4,0.5,0.7,1,1c0.5,0.3,1.1,0.4,2,0.4h1v0.8H33.5v-0.8h1c0.8,0,1.5-0.1,2-0.4c0.4-0.2,0.7-0.5,0.9-1
		c0.2-0.3,0.2-1.2,0.2-2.7V32.4h-2.1c-2,0-3.4,0.4-4.3,1.2c-1.2,1.1-2,2.8-2.4,4.9h-0.8v-7.8H54.1z"/>
</g>
<g class="st4">
	<path class="st7" d="M16.9,92.1V75.6h-5.9v-3.4h15.9v3.4h-5.9v16.5H16.9z"/>
	<path class="st7" d="M33.9,92.1V75.6H28v-3.4h15.9v3.4h-5.9v16.5H33.9z"/>
	<path class="st7" d="M46.5,92.1V72.2h13.7v3.4h-9.7v4.7h8.3v3.4h-8.3v8.4H46.5z"/>
</g>
</svg>
