<?xml version="1.0" encoding="utf-8"?>
<!-- Generator: Adobe Illustrator 21.1.0, SVG Export Plug-In . SVG Version: 6.00 Build 0)  -->
<svg version="1.1" id="Layer_2" xmlns="http://www.w3.org/2000/svg" xmlns:xlink="http://www.w3.org/1999/xlink" x="0px" y="0px"
	 viewBox="0 0 72 100" style="enable-background:new 0 0 72 100;" xml:space="preserve">
<style type="text/css">
	.st0{fill:url(#SVGID_1_);}
	.st1{fill-opacity:0;stroke:#7191A1;stroke-width:2;}
	.st2{enable-background:new    ;}
	.st3{fill:#4C6C7B;}
	.st4{fill:url(#SVGID_2_);}
	.st5{fill:url(#SVGID_3_);}
	.st6{fill-opacity:0;stroke:#7191A1;stroke-width:2;stroke-linejoin:bevel;}
</style>
<g>
	
		<linearGradient id="SVGID_1_" gradientUnits="userSpaceOnUse" x1="36" y1="2.2646" x2="36" y2="100.25" gradientTransform="matrix(1 0 0 -1 0 101)">
		<stop  offset="0" style="stop-color:#C8D4DB"/>
		<stop  offset="0.139" style="stop-color:#D8E1E6"/>
		<stop  offset="0.359" style="stop-color:#EBF0F3"/>
		<stop  offset="0.617" style="stop-color:#F9FAFB"/>
		<stop  offset="1" style="stop-color:#FFFFFF"/>
	</linearGradient>
	<path class="st0" d="M45,0.8l27,26.7v71.3H0v-98H45z"/>
	<path class="st1" d="M45,0.8l27,26.7v71.3H0v-98H45z"/>
</g>
<g class="st2">
	<path class="st3" d="M24.5,89.8l-7.2-20h4.4l5.1,14.8l5-14.8h4.3l-7.3,20H24.5z"/>
	<path class="st3" d="M38.2,69.8h8.1c1.6,0,2.8,0.1,3.6,0.2s1.5,0.4,2.1,0.8c0.6,0.4,1.1,1,1.6,1.7s0.6,1.5,0.6,2.3
		c0,0.9-0.3,1.8-0.8,2.6c-0.5,0.8-1.2,1.4-2.1,1.8c1.2,0.4,2.2,1,2.8,1.8c0.7,0.9,1,1.9,1,3c0,0.9-0.2,1.8-0.6,2.7s-1,1.5-1.8,2.1
		c-0.7,0.5-1.7,0.8-2.7,1c-0.7,0.1-2.3,0.1-4.9,0.1h-6.9V69.8z M42.3,73.1v4.6H45c1.6,0,2.6,0,3-0.1c0.7-0.1,1.2-0.3,1.7-0.7
		c0.4-0.4,0.6-0.9,0.6-1.6c0-0.6-0.2-1.1-0.5-1.5s-0.9-0.6-1.5-0.7c-0.4,0-1.6-0.1-3.5-0.1H42.3z M42.3,81.1v5.4h3.8
		c1.5,0,2.4,0,2.8-0.1c0.6-0.1,1.1-0.4,1.5-0.8c0.4-0.4,0.6-1,0.6-1.7c0-0.6-0.1-1.1-0.4-1.5s-0.7-0.7-1.3-0.9
		c-0.6-0.2-1.8-0.3-3.6-0.3H42.3z"/>
</g>
<linearGradient id="SVGID_2_" gradientUnits="userSpaceOnUse" x1="35.6191" y1="64.5" x2="35.6191" y2="18.9056">
	<stop  offset="0" style="stop-color:#ADCCDC"/>
	<stop  offset="1" style="stop-color:#4C6C7B"/>
</linearGradient>
<path class="st4" d="M28.2,44.6c-1.4,1-2.7,2.1-4,3.1c-2.7,2-5.3,4.1-8,6.1c-0.4,0.3-0.6,0.3-1,0.1c-0.5-0.3-1.1-0.6-1.7-0.9
	c-0.3-0.2-0.4-0.4-0.4-0.7c0-7.1,0-14.1,0-21.2c0-0.2,0.2-0.6,0.4-0.7c0.6-0.4,1.3-0.7,1.9-1c0.3-0.2,0.6,0,0.9,0.2
	c2.2,1.7,4.4,3.4,6.6,5c1.8,1.4,3.6,2.8,5.4,4.1c0.1-0.1,0.3-0.2,0.4-0.3c6.6-6.4,13.2-12.8,19.7-19.2c0.3-0.3,0.6-0.4,1-0.2
	c2.8,1.1,5.6,2.2,8.4,3.4c0.2,0.1,0.4,0.4,0.5,0.6c0.1,0.1,0,0.3,0,0.5c0,12.2,0,24.3,0,36.5c0,0.9,0,0.9-0.9,1.2
	c-2.7,1.1-5.3,2.1-7.9,3.2c-0.5,0.2-0.8,0.1-1.1-0.2c-6.5-6.4-13-12.7-19.6-19C28.6,45,28.4,44.8,28.2,44.6z M47.2,50.4
	c0-5.8,0-11.6,0-17.4c-3.9,2.9-7.7,5.8-11.6,8.7C39.5,44.6,43.3,47.5,47.2,50.4z M22.9,41.7c-1.9-1.7-3.8-3.4-5.8-5.2
	c0,3.5,0,6.9,0,10.4C19,45.2,20.9,43.4,22.9,41.7z"/>
<g>
	
		<linearGradient id="SVGID_3_" gradientUnits="userSpaceOnUse" x1="45.0692" y1="73.4575" x2="58.5692" y2="86.9575" gradientTransform="matrix(1 0 0 -1 0 101)">
		<stop  offset="0" style="stop-color:#FFFFFF"/>
		<stop  offset="0.35" style="stop-color:#FAFBFB"/>
		<stop  offset="0.532" style="stop-color:#EDF1F4"/>
		<stop  offset="0.675" style="stop-color:#DDE5E9"/>
		<stop  offset="0.799" style="stop-color:#C7D3DA"/>
		<stop  offset="0.908" style="stop-color:#ADBDC7"/>
		<stop  offset="1" style="stop-color:#92A5B0"/>
	</linearGradient>
	<path class="st5" d="M45,0.8l27,26.7H45V0.8z"/>
	<path class="st6" d="M45,0.8l27,26.7H45V0.8z"/>
</g>
</svg>
