<?xml version="1.0" encoding="utf-8"?>
<!-- Generator: Adobe Illustrator 21.1.0, SVG Export Plug-In . SVG Version: 6.00 Build 0)  -->
<svg version="1.1" id="Layer_1" xmlns="http://www.w3.org/2000/svg"  x="0px" y="0px"
	 viewBox="0 0 72 100" style="enable-background:new 0 0 72 100;" xml:space="preserve">
<style type="text/css">
	.st0{fill:url(#SVGID_1_);}
	.st1{fill-opacity:0;stroke:#7191A1;stroke-width:2;}
	.st2{fill:url(#SVGID_2_);}
	.st3{enable-background:new    ;}
	.st4{fill:#FFFFFF;}
	.st5{fill:url(#path1156_1_);}
	.st6{fill:url(#SVGID_3_);}
	.st7{fill-opacity:0;stroke:#7191A1;stroke-width:2;stroke-linejoin:bevel;}
</style>
<g>
	
		<linearGradient id="SVGID_1_" gradientUnits="userSpaceOnUse" x1="35.75" y1="3.0958" x2="35.75" y2="101" gradientTransform="matrix(1 0 0 -1 0 102)">
		<stop  offset="0" style="stop-color:#C8D4DB"/>
		<stop  offset="0.139" style="stop-color:#D8E1E6"/>
		<stop  offset="0.359" style="stop-color:#EBF0F3"/>
		<stop  offset="0.617" style="stop-color:#F9FAFB"/>
		<stop  offset="1" style="stop-color:#FFFFFF"/>
	</linearGradient>
	<path class="st0" d="M44.8,1l27,26.7v71.2h-72V1H44.8z"/>
	<path class="st1" d="M44.8,1l27,26.7v71.2h-72V1H44.8z"/>
</g>
<linearGradient id="SVGID_2_" gradientUnits="userSpaceOnUse" x1="35.85" y1="4.0848" x2="35.85" y2="38.4412" gradientTransform="matrix(1 0 0 -1 0 102)">
	<stop  offset="0" style="stop-color:#EF4136"/>
	<stop  offset="1" style="stop-color:#BE1E2D"/>
</linearGradient>
<path class="st2" d="M0.7,63.6h70.2v34.3H0.7V63.6z"/>
<g class="st3">
	<path class="st4" d="M14.6,90.1L7.4,70.3h4.4l5.1,14.7l4.9-14.7h4.3l-7.2,19.8H14.6z"/>
	<path class="st4" d="M40.9,82.8l3.9,1.2c-0.6,2.2-1.6,3.8-3,4.8c-1.4,1.1-3.2,1.6-5.3,1.6c-2.7,0-4.8-0.9-6.6-2.7
		c-1.7-1.8-2.6-4.3-2.6-7.4c0-3.3,0.9-5.9,2.6-7.7s4-2.7,6.8-2.7c2.5,0,4.4,0.7,6,2.1c0.9,0.8,1.6,2.1,2.1,3.7l-4,0.9
		c-0.2-1-0.7-1.8-1.5-2.4c-0.8-0.6-1.7-0.9-2.7-0.9c-1.5,0-2.7,0.5-3.6,1.6C32,76,31.6,77.7,31.6,80c0,2.5,0.5,4.3,1.4,5.4
		c0.9,1.1,2.1,1.6,3.6,1.6c1.1,0,2-0.3,2.8-1C40,85.3,40.6,84.2,40.9,82.8z"/>
	<path class="st4" d="M47.3,83.6l3.9-0.4c0.2,1.3,0.7,2.3,1.4,2.9c0.7,0.6,1.7,0.9,2.9,0.9c1.3,0,2.3-0.3,2.9-0.8
		c0.7-0.5,1-1.2,1-1.9c0-0.5-0.1-0.9-0.4-1.2c-0.3-0.3-0.8-0.6-1.5-0.9c-0.5-0.2-1.6-0.5-3.2-0.9c-2.2-0.5-3.7-1.2-4.6-2
		c-1.2-1.1-1.8-2.4-1.8-4c0-1,0.3-2,0.9-2.8c0.6-0.9,1.4-1.5,2.5-2c1.1-0.5,2.4-0.7,3.9-0.7c2.5,0,4.4,0.5,5.7,1.6
		c1.3,1.1,1.9,2.5,2,4.4l-4,0.2c-0.2-1-0.5-1.8-1.1-2.2c-0.6-0.4-1.4-0.7-2.6-0.7c-1.2,0-2.1,0.2-2.8,0.7c-0.4,0.3-0.6,0.7-0.6,1.2
		c0,0.5,0.2,0.9,0.6,1.2c0.5,0.4,1.8,0.9,3.7,1.3s3.4,0.9,4.4,1.4c0.9,0.5,1.7,1.2,2.2,2c0.5,0.9,0.8,1.9,0.8,3.2
		c0,1.1-0.3,2.2-1,3.2c-0.6,1-1.5,1.7-2.7,2.2c-1.2,0.5-2.6,0.7-4.4,0.7c-2.5,0-4.5-0.6-5.8-1.7C48.4,87.5,47.6,85.8,47.3,83.6z"/>
</g>
<linearGradient id="path1156_1_" gradientUnits="userSpaceOnUse" x1="1025.8" y1="947.9447" x2="1025.8" y2="986.7" gradientTransform="matrix(1 0 0 -1 -990 1005.111)">
	<stop  offset="0" style="stop-color:#879CA8"/>
	<stop  offset="1" style="stop-color:#4D6A78"/>
</linearGradient>
<path id="path1156" class="st5" d="M18.2,54.4v-6.2h7.2v6.2H18.2z M27,54.4v-6.2h8v6.2H27z M18.2,46.8v-6.9h7.2v6.9H18.2z M27,46.8
	v-6.9h8v6.9H27z M18.2,38.5v-6.2h7.2v6.2H18.2z M36.6,54.4v-6.2h8v6.2H36.6z M27,38.5v-6.2h8v6.2H27z M46.2,54.4v-6.2h7.2v6.2H46.2z
	 M36.6,46.8v-6.9h8v6.9H36.6z M27.8,28.1c0,0.4-0.4,0.7-0.8,0.7h-1.6c-0.4,0-0.8-0.3-0.8-0.7v-6.2c0-0.4,0.4-0.7,0.8-0.7H27
	c0.4,0,0.8,0.3,0.8,0.7V28.1z M46.2,46.8v-6.9h7.2v6.9H46.2z M36.6,38.5v-6.2h8v6.2H36.6z M46.2,38.5v-6.2h7.2v6.2H46.2z M47,28.1
	c0,0.4-0.4,0.7-0.8,0.7h-1.6c-0.4,0-0.8-0.3-0.8-0.7v-6.2c0-0.4,0.4-0.7,0.8-0.7h1.6c0.4,0,0.8,0.3,0.8,0.7V28.1z M56.6,26.7
	c0-1.5-1.4-2.8-3.2-2.8h-3.2v-2.1c0-1.9-1.8-3.5-4-3.5h-1.6c-2.2,0-4,1.6-4,3.5v2.1H31v-2.1c0-1.9-1.8-3.5-4-3.5h-1.6
	c-2.2,0-4,1.6-4,3.5v2.1h-3.2c-1.7,0-3.2,1.3-3.2,2.8v27.7c0,1.5,1.4,2.8,3.2,2.8h35.1c1.7,0,3.2-1.3,3.2-2.8V26.7z"/>
<g>
	
		<linearGradient id="SVGID_3_" gradientUnits="userSpaceOnUse" x1="44.8247" y1="74.2242" x2="58.3247" y2="87.7242" gradientTransform="matrix(1 0 0 -1 0 102)">
		<stop  offset="0" style="stop-color:#FFFFFF"/>
		<stop  offset="0.35" style="stop-color:#FAFBFB"/>
		<stop  offset="0.532" style="stop-color:#EDF1F4"/>
		<stop  offset="0.675" style="stop-color:#DDE5E9"/>
		<stop  offset="0.799" style="stop-color:#C7D3DA"/>
		<stop  offset="0.908" style="stop-color:#ADBDC7"/>
		<stop  offset="1" style="stop-color:#92A5B0"/>
	</linearGradient>
	<path class="st6" d="M44.8,1l27,26.7h-27V1z"/>
	<path class="st7" d="M44.8,1l27,26.7h-27V1z"/>
</g>
</svg>
