<?xml version="1.0" encoding="utf-8"?>
<!-- Generator: Adobe Illustrator 21.1.0, SVG Export Plug-In . SVG Version: 6.00 Build 0)  -->
<svg version="1.1" id="Layer_1" xmlns="http://www.w3.org/2000/svg" xmlns:xlink="http://www.w3.org/1999/xlink" x="0px" y="0px"
	 viewBox="0 0 72 100" style="enable-background:new 0 0 72 100;" xml:space="preserve">
<style type="text/css">
	.st0{opacity:0.95;}
	.st1{fill:url(#SVGID_1_);}
	.st2{fill-opacity:0;stroke:#BA9C02;stroke-width:2;}
	.st3{enable-background:new    ;}
	.st4{fill:#A07802;}
	.st5{fill:url(#SVGID_2_);}
	.st6{fill-opacity:0;stroke:#BA9C02;stroke-width:2;stroke-linejoin:bevel;}
	.st7{fill:url(#SVGID_3_);}
	.st8{fill:url(#SVGID_4_);}
	.st9{fill:url(#SVGID_5_);}
</style>
<g class="st0">
	
		<linearGradient id="SVGID_1_" gradientUnits="userSpaceOnUse" x1="35.75" y1="2.9947" x2="35.75" y2="101.0005" gradientTransform="matrix(1 0 0 -1 0 102)">
		<stop  offset="0" style="stop-color:#EFC402"/>
		<stop  offset="3.800000e-02" style="stop-color:#F1C829"/>
		<stop  offset="0.147" style="stop-color:#F4D264"/>
		<stop  offset="0.258" style="stop-color:#F7DC8B"/>
		<stop  offset="0.372" style="stop-color:#F9E5AC"/>
		<stop  offset="0.488" style="stop-color:#FBECC7"/>
		<stop  offset="0.606" style="stop-color:#FCF3DD"/>
		<stop  offset="0.728" style="stop-color:#FEF9EE"/>
		<stop  offset="0.856" style="stop-color:#FFFDF9"/>
		<stop  offset="1" style="stop-color:#FFFFFF"/>
	</linearGradient>
	<path class="st1" d="M44.8,1l27,26.7V99h-72V1H44.8z"/>
	<path class="st2" d="M44.8,1l27,26.7V99h-72V1H44.8z"/>
</g>
<g class="st3">
	<path class="st4" d="M8.6,90.1L2.9,74.3h3.5l4,11.7l3.9-11.7h3.4L12,90.1H8.6z"/>
	<path class="st4" d="M19.3,90.1V74.3h4.8L27,85.1l2.9-10.7h4.8v15.7h-3V77.7l-3.2,12.4h-3.1l-3.1-12.4v12.4H19.3z"/>
	<path class="st4" d="M37.9,74.3h5.9c1.3,0,2.3,0.1,3,0.3c0.9,0.3,1.7,0.8,2.4,1.5c0.7,0.7,1.2,1.5,1.5,2.6c0.3,1,0.5,2.2,0.5,3.7
		c0,1.3-0.2,2.4-0.5,3.4c-0.4,1.1-1,2.1-1.7,2.8c-0.6,0.5-1.3,1-2.3,1.3c-0.7,0.2-1.7,0.3-2.8,0.3h-6V74.3z M41.1,77v10.4h2.4
		c0.9,0,1.5,0,1.9-0.2c0.5-0.1,1-0.3,1.3-0.7s0.6-0.8,0.8-1.5c0.2-0.7,0.3-1.7,0.3-2.9s-0.1-2.2-0.3-2.8c-0.2-0.7-0.5-1.2-0.9-1.5
		s-0.9-0.6-1.5-0.7C44.7,77,43.8,77,42.5,77H41.1z"/>
	<path class="st4" d="M54,90.1V74.3h3.2v7l6.5-7H68l-6,6.1l6.3,9.6h-4.2l-4.4-7.4l-2.6,2.6v4.8H54z"/>
</g>
<g class="st0">
	
		<linearGradient id="SVGID_2_" gradientUnits="userSpaceOnUse" x1="45.3438" y1="74.2299" x2="58.8438" y2="87.7299" gradientTransform="matrix(1 0 0 -1 0 102)">
		<stop  offset="5.000000e-03" style="stop-color:#FFFFFF"/>
		<stop  offset="0.234" style="stop-color:#FFFEFB"/>
		<stop  offset="0.369" style="stop-color:#FEFAF1"/>
		<stop  offset="0.481" style="stop-color:#FDF5E4"/>
		<stop  offset="0.579" style="stop-color:#FCF0D2"/>
		<stop  offset="0.669" style="stop-color:#FAE9BC"/>
		<stop  offset="0.752" style="stop-color:#F9E2A2"/>
		<stop  offset="0.831" style="stop-color:#F7DA83"/>
		<stop  offset="0.905" style="stop-color:#F4D15D"/>
		<stop  offset="0.975" style="stop-color:#F1C827"/>
		<stop  offset="1" style="stop-color:#EFC402"/>
	</linearGradient>
	<path class="st5" d="M45.2,1l27,26.7h-27V1z"/>
	<path class="st6" d="M45.2,1l27,26.7h-27V1z"/>
</g>
<g>
	<linearGradient id="SVGID_3_" gradientUnits="userSpaceOnUse" x1="35.7161" y1="62" x2="35.7161" y2="49.7712">
		<stop  offset="0" style="stop-color:#DEBE00"/>
		<stop  offset="0.1644" style="stop-color:#CFAD04"/>
		<stop  offset="1" style="stop-color:#A07802"/>
	</linearGradient>
	<path class="st7" d="M61.2,53.4c0-2-1.6-3.6-3.6-3.6H13.8c-2,0-3.6,1.6-3.6,3.6v5c0,2,1.6,3.6,3.6,3.6h43.8c2,0,3.6-1.6,3.6-3.6
		V53.4z M42.4,57.9c-1.1,0-2-0.9-2-2s0.9-2,2-2c1.1,0,2,0.9,2,2S43.5,57.9,42.4,57.9z M48.5,57.9c-1.1,0-2-0.9-2-2s0.9-2,2-2
		c1.1,0,2,0.9,2,2S49.6,57.9,48.5,57.9z M54.6,57.9c-1.1,0-2-0.9-2-2s0.9-2,2-2c1.1,0,2,0.9,2,2S55.7,57.9,54.6,57.9z"/>
	<linearGradient id="SVGID_4_" gradientUnits="userSpaceOnUse" x1="35.7161" y1="48.4555" x2="35.7161" y2="35.9298">
		<stop  offset="0" style="stop-color:#DEBE00"/>
		<stop  offset="0.1644" style="stop-color:#CFAD04"/>
		<stop  offset="1" style="stop-color:#A07802"/>
	</linearGradient>
	<path class="st8" d="M13.8,47.7h43.8c1,0,1.9,0.3,2.7,0.7l-4.2-8.9C55,36.9,53,35.9,51,35.9h-4.8l-6.9,7c-0.5,0.5-1,0.9-1.7,1.2
		c-0.6,0.3-1.3,0.4-2,0.4c-0.7,0-1.4-0.1-2-0.4l-0.1,0l-0.1,0c-0.5-0.3-1-0.6-1.5-1l0,0l0,0l-6.9-7h-4.8c-2,0-3.8,1.1-5.1,3.6
		l-4.2,8.9C11.9,48,12.8,47.7,13.8,47.7z"/>
	<linearGradient id="SVGID_5_" gradientUnits="userSpaceOnUse" x1="35.715" y1="41.9816" x2="35.715" y2="17.8546">
		<stop  offset="0" style="stop-color:#DEBE00"/>
		<stop  offset="0.1644" style="stop-color:#CFAD04"/>
		<stop  offset="1" style="stop-color:#A07802"/>
	</linearGradient>
	<path class="st9" d="M45.9,32.6c0.2-0.2,0.4-0.5,0.6-0.9c0.1-0.3,0.2-0.7,0.2-1c0-0.4-0.1-0.7-0.2-1c-0.1-0.3-0.3-0.6-0.6-0.8
		c-0.3-0.3-0.5-0.5-0.9-0.6c-0.3-0.1-0.6-0.2-1-0.2s-0.7,0.1-1,0.2c-0.3,0.2-0.6,0.4-0.9,0.6l-3.9,4V20.5c0-0.4-0.1-0.7-0.2-1
		c-0.1-0.3-0.3-0.6-0.6-0.9c-0.2-0.3-0.5-0.5-0.9-0.6c-0.3-0.1-0.6-0.2-1-0.2c-0.4,0-0.7,0.1-1,0.2c-0.3,0.2-0.6,0.4-0.9,0.6
		c-0.2,0.3-0.4,0.5-0.6,0.9c-0.1,0.3-0.2,0.7-0.2,1v12.3l-3.9-4c-0.2-0.2-0.5-0.4-0.9-0.6c-0.3-0.1-0.6-0.2-1-0.2
		c-0.4,0-0.7,0.1-1,0.2c-0.3,0.1-0.6,0.3-0.9,0.6c-0.2,0.2-0.4,0.5-0.6,0.8c-0.1,0.3-0.2,0.7-0.2,1c0,0.4,0.1,0.7,0.2,1
		c0.1,0.3,0.3,0.6,0.6,0.9l8.4,8.6c0.2,0.2,0.5,0.4,0.9,0.6c0.3,0.1,0.6,0.2,1,0.2c0.4,0,0.7-0.1,1-0.2c0.3-0.1,0.6-0.3,0.9-0.6
		L45.9,32.6z"/>
</g>
</svg>
