<?xml version="1.0" encoding="utf-8"?>
<!-- Generator: Adobe Illustrator 21.1.0, SVG Export Plug-In . SVG Version: 6.00 Build 0)  -->
<svg version="1.1" id="Layer_1" xmlns="http://www.w3.org/2000/svg"  x="0px" y="0px"
	 viewBox="0 0 72 100" style="enable-background:new 0 0 72 100;" xml:space="preserve">
<style type="text/css">
	.st0{fill:url(#SVGID_1_);}
	.st1{fill-opacity:0;stroke:#7191A1;stroke-width:2;}
	.st2{enable-background:new    ;}
	.st3{fill:#4C6C7B;}
	.st4{fill:url(#SVGID_2_);}
	.st5{fill:url(#SVGID_3_);}
	.st6{fill:url(#SVGID_4_);}
	.st7{fill-opacity:0;stroke:#7191A1;stroke-width:2;stroke-linejoin:bevel;}
</style>
<linearGradient id="SVGID_1_" gradientUnits="userSpaceOnUse" x1="36.2" y1="3.0143" x2="36.2" y2="101.0005" gradientTransform="matrix(1 0 0 -1 0 102)">
	<stop  offset="0" style="stop-color:#C8D4DB"/>
	<stop  offset="0.139" style="stop-color:#D8E1E6"/>
	<stop  offset="0.359" style="stop-color:#EBF0F3"/>
	<stop  offset="0.617" style="stop-color:#F9FAFB"/>
	<stop  offset="1" style="stop-color:#FFFFFF"/>
</linearGradient>
<path class="st0" d="M45.2,1l27.1,26.7V99H0.1V1H45.2z"/>
<path class="st1" d="M45.2,1l27.1,26.7V99H0.1V1H45.2z"/>
<g class="st2">
	<path class="st3" d="M14.5,90.1l-3.8-15.7H14l2.4,10.8l2.9-10.8h3.8l2.8,11l2.5-11h3.2l-3.9,15.7h-3.4l-3.2-11.8L18,90.1H14.5z"/>
	<path class="st3" d="M33.3,74.3h6.4c1.3,0,2.2,0.1,2.8,0.2c0.6,0.1,1.2,0.3,1.7,0.6s0.9,0.8,1.2,1.3c0.3,0.5,0.5,1.2,0.5,1.8
		c0,0.7-0.2,1.4-0.6,2s-0.9,1.1-1.6,1.4c1,0.3,1.7,0.8,2.2,1.4s0.8,1.5,0.8,2.4c0,0.7-0.2,1.4-0.5,2.1c-0.3,0.7-0.8,1.2-1.4,1.6
		c-0.6,0.4-1.3,0.7-2.2,0.7c-0.5,0.1-1.8,0.1-3.9,0.1h-5.4V74.3z M36.5,76.9v3.6h2.1c1.3,0,2,0,2.3-0.1c0.6-0.1,1-0.3,1.3-0.6
		c0.3-0.3,0.5-0.7,0.5-1.2c0-0.5-0.1-0.9-0.4-1.2c-0.3-0.3-0.7-0.5-1.2-0.6c-0.3,0-1.2-0.1-2.8-0.1H36.5z M36.5,83.2v4.2h3
		c1.2,0,1.9,0,2.2-0.1c0.5-0.1,0.9-0.3,1.2-0.6c0.3-0.3,0.5-0.8,0.5-1.3c0-0.5-0.1-0.9-0.3-1.2s-0.6-0.6-1-0.7
		c-0.4-0.2-1.4-0.2-2.9-0.2H36.5z"/>
	<path class="st3" d="M49.5,90.1V74.3h3.2v7l6.5-7h4.3l-6,6.1l6.3,9.6h-4.2l-4.4-7.4l-2.6,2.6v4.8H49.5z"/>
</g>
<linearGradient id="SVGID_2_" gradientUnits="userSpaceOnUse" x1="36.606" y1="58.9269" x2="36.606" y2="25.8659">
	<stop  offset="0" style="stop-color:#ADCCDC"/>
	<stop  offset="1" style="stop-color:#4C6C7B"/>
</linearGradient>
<path class="st4" d="M64.4,27.7c-0.5,0-1,0.2-1.4,0.3c-0.5,0.2-1,0.4-1.4,0.6c-0.7,0.4-1.2,0.8-1.5,1.3c-0.3,0.5-0.6,1.1-0.8,1.7
	c-0.9,2.4-2.2,6-4,11.3c-1.8,5.1-3.6,10.5-5.6,16H45l-8.7-24.4l-7.9,24.4h-4.7c-2.6-7.5-4.6-13.3-6-17.2c-1.4-4.1-2.5-7.4-3.5-10.2
	c-0.3-0.8-0.6-1.4-1-1.8c-0.4-0.4-0.9-0.8-1.4-1.2c-0.4-0.3-0.9-0.5-1.3-0.6c-0.5-0.1-1-0.2-1.6-0.3v-1.8h17.6v1.8
	c-1,0.1-1.8,0.2-2.3,0.4c-0.5,0.1-0.9,0.2-1.2,0.4c-0.3,0.1-0.5,0.3-0.5,0.4c-0.1,0.1-0.1,0.3-0.1,0.4c0,0.2,0,0.4,0.1,0.6
	c0.1,0.2,0.1,0.4,0.2,0.7c0.4,1.2,1.1,3.5,2.3,6.8c1.1,3.4,2.5,7.5,4.2,12.5L36.7,26h4.9l8.7,24.5c1.3-4,2.3-7.2,3.1-9.7
	c0.8-2.5,1.4-4.7,1.9-6.4c0.3-1.1,0.6-2,0.7-2.8c0.2-0.7,0.3-1.4,0.3-1.9c0-0.3-0.2-0.6-0.5-0.8c-0.3-0.2-0.7-0.4-1.2-0.6
	c-0.4-0.1-1-0.3-1.7-0.3c-0.7-0.1-1.3-0.2-1.8-0.2v-2h13.3V27.7z"/>
<linearGradient id="SVGID_3_" gradientUnits="userSpaceOnUse" x1="31.7471" y1="69.9349" x2="31.7471" y2="69.9864" gradientTransform="matrix(1 0 0 -1 0 102)">
	<stop  offset="0" style="stop-color:#ADCCDC"/>
	<stop  offset="1" style="stop-color:#4C6C7B"/>
</linearGradient>
<path class="st5" d="M31.8,32C31.7,32.1,31.7,32.1,31.8,32"/>
<linearGradient id="SVGID_4_" gradientUnits="userSpaceOnUse" x1="45.3238" y1="74.1844" x2="58.8707" y2="87.7313" gradientTransform="matrix(1 0 0 -1 0 102)">
	<stop  offset="0" style="stop-color:#FFFFFF"/>
	<stop  offset="0.35" style="stop-color:#FAFBFB"/>
	<stop  offset="0.532" style="stop-color:#EDF1F4"/>
	<stop  offset="0.675" style="stop-color:#DDE5E9"/>
	<stop  offset="0.799" style="stop-color:#C7D3DA"/>
	<stop  offset="0.908" style="stop-color:#ADBDC7"/>
	<stop  offset="1" style="stop-color:#92A5B0"/>
</linearGradient>
<path class="st6" d="M45.2,1l27.1,26.7H45.2V1z"/>
<path class="st7" d="M45.2,1l27.1,26.7H45.2V1z"/>
</svg>
