<?xml version="1.0" encoding="utf-8"?>
<!-- Generator: Adobe Illustrator 21.1.0, SVG Export Plug-In . SVG Version: 6.00 Build 0)  -->
<svg version="1.1" id="Layer_1" xmlns="http://www.w3.org/2000/svg"  x="0px" y="0px"
	 viewBox="0 0 72 100" style="enable-background:new 0 0 72 100;" xml:space="preserve">
<style type="text/css">
	.st0{fill:url(#SVGID_1_);}
	.st1{fill-opacity:0;stroke:#7187A1;stroke-width:2;}
	.st2{fill:url(#SVGID_2_);}
	.st3{fill-opacity:0;stroke:#7191A1;stroke-width:2;stroke-linejoin:bevel;}
	.st4{enable-background:new    ;}
	.st5{fill:#7291A1;}
	.st6{fill:#36454D;}
	.st7{fill:#4C627B;}
</style>
<g>
	
		<linearGradient id="SVGID_1_" gradientUnits="userSpaceOnUse" x1="36" y1="3.0046" x2="36" y2="100.9999" gradientTransform="matrix(1 0 0 -1 0 102)">
		<stop  offset="0" style="stop-color:#BEC0DB"/>
		<stop  offset="0.139" style="stop-color:#CECDE6"/>
		<stop  offset="0.359" style="stop-color:#E1DCF3"/>
		<stop  offset="0.617" style="stop-color:#EFE6FB"/>
		<stop  offset="1" style="stop-color:#F5F5FF"/>
	</linearGradient>
	<path class="st0" d="M45,1l26.9,26.7V99H0.1V1H45z"/>
	<path class="st1" d="M45,1l26.9,26.7V99H0.1V1H45z"/>
</g>
<g>
	
		<linearGradient id="SVGID_2_" gradientUnits="userSpaceOnUse" x1="44.7539" y1="74.2336" x2="58.1977" y2="87.6773" gradientTransform="matrix(1 0 0 -1 0 102)">
		<stop  offset="0" style="stop-color:#FFF5FF"/>
		<stop  offset="0.35" style="stop-color:#FAF1FB"/>
		<stop  offset="0.532" style="stop-color:#EDE7F4"/>
		<stop  offset="0.675" style="stop-color:#DDDBE9"/>
		<stop  offset="0.799" style="stop-color:#C7C9DA"/>
		<stop  offset="0.908" style="stop-color:#ADB3C7"/>
		<stop  offset="1" style="stop-color:#9291B0"/>
	</linearGradient>
	<path class="st2" d="M44.7,1l26.9,26.7H44.7V1z"/>
	<path class="st3" d="M44.7,1l26.9,26.7H44.7V1z"/>
</g>
<g class="st4">
	<path class="st5" d="M26.9,49.3H16.5l-1.2,2.8c-0.4,0.9-0.6,1.7-0.6,2.3c0,0.8,0.3,1.4,1,1.8c0.4,0.2,1.4,0.4,2.9,0.5v0.8H8.7v-0.8
		c1.1-0.2,1.9-0.6,2.6-1.3c0.7-0.7,1.5-2.1,2.5-4.3l10.5-22.7h0.4l10.6,23.4c1,2.2,1.8,3.6,2.5,4.2c0.5,0.4,1.2,0.7,2.1,0.8v0.8
		H25.7v-0.8h0.6c1.1,0,1.9-0.2,2.4-0.5c0.3-0.2,0.5-0.5,0.5-1c0-0.3,0-0.5-0.1-0.8c0-0.1-0.2-0.7-0.7-1.6L26.9,49.3z M26.1,47.7
		l-4.4-9.8l-4.5,9.8H26.1z"/>
</g>
<g class="st4">
	<path class="st6" d="M62.1,38.6l-4.2,14l-0.4,1.7c0,0.2-0.1,0.4-0.1,0.5c0,0.2,0.1,0.3,0.2,0.4c0.1,0.1,0.2,0.2,0.4,0.2
		c0.3,0,0.7-0.2,1.3-0.7c0.2-0.2,0.7-0.8,1.6-1.9l0.8,0.4c-1,1.8-2.1,3.1-3.3,4c-1.2,0.8-2.4,1.2-3.8,1.2c-0.8,0-1.5-0.2-1.9-0.6
		c-0.4-0.4-0.7-0.9-0.7-1.6c0-0.5,0.2-1.6,0.7-3l0.5-1.7c-1.7,2.8-3.3,4.8-4.8,5.9c-0.9,0.7-1.9,1-2.9,1c-1.3,0-2.3-0.5-2.9-1.6
		c-0.6-1.1-0.9-2.2-0.9-3.6c0-2,0.6-4.2,1.9-6.8s2.9-4.6,4.9-6.2c1.7-1.3,3.2-1.9,4.7-1.9c0.8,0,1.5,0.2,2,0.7s0.9,1.3,1.1,2.5
		l0.8-2.6L62.1,38.6z M55.1,42.6c0-1.1-0.2-2-0.5-2.5c-0.3-0.4-0.6-0.5-1.1-0.5c-0.4,0-0.9,0.2-1.4,0.6c-1,0.9-2,2.6-3.1,5.3
		c-1.1,2.7-1.7,4.9-1.7,6.9c0,0.7,0.1,1.3,0.4,1.6c0.3,0.3,0.5,0.5,0.8,0.5c0.7,0,1.3-0.4,2-1.1c1-1,1.8-2.3,2.6-3.8
		C54.4,47,55.1,44.7,55.1,42.6z"/>
</g>
<g class="st4">
	<path class="st7" d="M9.4,91.1L6.5,78.9H9l1.8,8.4l2.2-8.4H16l2.1,8.5l1.9-8.5h2.5l-3,12.2h-2.6L14.5,82l-2.4,9.1H9.4z"/>
	<path class="st7" d="M23.3,85.1c0-1.2,0.2-2.3,0.6-3.1c0.3-0.6,0.7-1.2,1.1-1.7c0.5-0.5,1-0.9,1.6-1.1c0.8-0.3,1.6-0.5,2.6-0.5
		c1.8,0,3.2,0.6,4.3,1.7c1.1,1.1,1.6,2.7,1.6,4.6c0,2-0.5,3.5-1.6,4.6c-1.1,1.1-2.5,1.7-4.3,1.7c-1.8,0-3.3-0.6-4.3-1.7
		C23.8,88.5,23.3,87,23.3,85.1z M25.8,85c0,1.4,0.3,2.4,1,3.1s1.5,1.1,2.4,1.1s1.8-0.4,2.4-1.1c0.6-0.7,0.9-1.8,0.9-3.2
		c0-1.4-0.3-2.4-0.9-3.1s-1.4-1-2.5-1c-1,0-1.8,0.3-2.5,1S25.8,83.6,25.8,85z"/>
	<path class="st7" d="M37.1,91.1V78.9h8.4V81h-5.9v2.9h5.1v2.1h-5.1v5.2H37.1z"/>
	<path class="st7" d="M47.6,91.1V78.9H56V81H50v2.9h5.1v2.1H50v5.2H47.6z"/>
	<path class="st7" d="M65.4,88.9v2.2h-8.2c0.1-0.8,0.4-1.6,0.8-2.3s1.3-1.7,2.6-2.9c1.1-1,1.7-1.6,1.9-2c0.3-0.5,0.5-1,0.5-1.4
		c0-0.5-0.1-0.9-0.4-1.2c-0.3-0.3-0.7-0.4-1.2-0.4c-0.5,0-0.9,0.1-1.2,0.4c-0.3,0.3-0.5,0.8-0.5,1.5l-2.3-0.2
		c0.1-1.3,0.6-2.2,1.3-2.8c0.7-0.6,1.7-0.8,2.8-0.8c1.2,0,2.2,0.3,2.8,1c0.7,0.6,1,1.5,1,2.4c0,0.5-0.1,1.1-0.3,1.6
		c-0.2,0.5-0.5,1-0.9,1.6c-0.3,0.4-0.8,0.9-1.5,1.6c-0.7,0.7-1.2,1.1-1.4,1.3c-0.2,0.2-0.4,0.4-0.5,0.6H65.4z"/>
</g>
</svg>
