<?xml version="1.0" encoding="utf-8"?>
<!-- Generator: Adobe Illustrator 21.1.0, SVG Export Plug-In . SVG Version: 6.00 Build 0)  -->
<svg version="1.1" id="Layer_2" xmlns="http://www.w3.org/2000/svg" xmlns:xlink="http://www.w3.org/1999/xlink" x="0px" y="0px"
	 viewBox="0 0 72 100" style="enable-background:new 0 0 72 100;" xml:space="preserve">
<style type="text/css">
	.st0{fill:url(#SVGID_1_);}
	.st1{fill-opacity:0;stroke:#528228;stroke-width:2;}
	.st2{enable-background:new    ;}
	.st3{fill:#FFFFFF;}
	.st4{fill:url(#SVGID_2_);}
	.st5{fill:url(#SVGID_3_);}
	.st6{fill-opacity:0;stroke:#528228;stroke-width:2;stroke-linejoin:bevel;}
</style>
<g>
	<g>
		
			<linearGradient id="SVGID_1_" gradientUnits="userSpaceOnUse" x1="36" y1="0.75" x2="36" y2="99.25" gradientTransform="matrix(1 0 0 -1 0 100)">
			<stop  offset="0" style="stop-color:#51842A"/>
			<stop  offset="0.102" style="stop-color:#609631"/>
			<stop  offset="0.222" style="stop-color:#6DA737"/>
			<stop  offset="0.355" style="stop-color:#77B33B"/>
			<stop  offset="0.506" style="stop-color:#7EBB3E"/>
			<stop  offset="0.69" style="stop-color:#83C140"/>
			<stop  offset="1" style="stop-color:#85C441"/>
		</linearGradient>
		<path class="st0" d="M45,0.8l27,26.9v71.6H0V0.8H45z"/>
		<path class="st1" d="M45,0.8l27,26.9v71.6H0V0.8H45z"/>
	</g>
	<g class="st2">
		<path class="st3" d="M7.3,91.3l5.4-8.2l-4.9-7.5h3.7l3.2,5l3.1-5h3.7l-4.9,7.6l5.4,8.1h-3.8l-3.5-5.4l-3.5,5.4H7.3z"/>
		<path class="st3" d="M23.6,91.3V75.7h3.2v12.9h7.9v2.6H23.6z"/>
		<path class="st3" d="M36.2,86.2l3.1-0.3c0.2,1,0.6,1.8,1.1,2.3c0.6,0.5,1.3,0.7,2.3,0.7c1,0,1.8-0.2,2.3-0.6s0.8-0.9,0.8-1.5
			c0-0.4-0.1-0.7-0.3-0.9s-0.6-0.5-1.1-0.7c-0.4-0.1-1.2-0.4-2.5-0.7c-1.7-0.4-2.9-0.9-3.6-1.6c-1-0.9-1.5-1.9-1.5-3.2
			c0-0.8,0.2-1.5,0.7-2.2c0.5-0.7,1.1-1.2,2-1.6c0.9-0.4,1.9-0.5,3.1-0.5c2,0,3.5,0.4,4.5,1.3c1,0.9,1.5,2,1.6,3.5l-3.2,0.1
			c-0.1-0.8-0.4-1.4-0.9-1.7c-0.4-0.4-1.1-0.5-2-0.5c-0.9,0-1.6,0.2-2.2,0.6c-0.3,0.2-0.5,0.6-0.5,1c0,0.4,0.2,0.7,0.5,1
			c0.4,0.3,1.4,0.7,2.9,1c1.5,0.4,2.7,0.7,3.4,1.1c0.7,0.4,1.3,0.9,1.7,1.6c0.4,0.7,0.6,1.5,0.6,2.5c0,0.9-0.3,1.7-0.8,2.5
			C47.7,90,47,90.6,46.1,91c-0.9,0.4-2.1,0.6-3.4,0.6c-2,0-3.5-0.5-4.6-1.4C37,89.3,36.4,87.9,36.2,86.2z"/>
		<path class="st3" d="M50.1,91.3l5.4-8.2l-4.9-7.5h3.7l3.2,5l3.1-5h3.7l-4.9,7.6l5.4,8.1h-3.8l-3.5-5.4l-3.5,5.4H50.1z"/>
	</g>
	
		<linearGradient id="SVGID_2_" gradientUnits="userSpaceOnUse" x1="16.3714" y1="36.9867" x2="55.4882" y2="76.1025" gradientTransform="matrix(1 0 0 -1 0 100)">
		<stop  offset="5.000000e-03" style="stop-color:#619530"/>
		<stop  offset="0.267" style="stop-color:#60942F"/>
		<stop  offset="0.443" style="stop-color:#5B8E2D"/>
		<stop  offset="0.594" style="stop-color:#538429"/>
		<stop  offset="0.731" style="stop-color:#487723"/>
		<stop  offset="0.858" style="stop-color:#3A671B"/>
		<stop  offset="0.976" style="stop-color:#29520F"/>
		<stop  offset="1" style="stop-color:#244D0B"/>
	</linearGradient>
	<path class="st4" d="M57.8,61.4H35.2v-2c2.2-0.1,3.5-0.3,4.2-0.6c0.6-0.3,0.9-0.6,0.9-1c0-0.2-0.1-0.6-0.3-1.1
		c-0.2-0.5-0.5-1.1-0.9-1.7c-0.6-1-1.4-2.3-2.4-3.8s-2.1-3.1-3.2-4.8c-3.6,4.2-6,7-6.9,8.4c-1,1.4-1.5,2.3-1.5,2.8
		c0,0.2,0,0.4,0.1,0.6c0.1,0.2,0.3,0.3,0.6,0.5c0.2,0.1,0.7,0.3,1.3,0.4c0.6,0.1,1.3,0.2,2.1,0.3v2H14.8v-2c0.7-0.1,1.3-0.1,1.8-0.2
		c0.4-0.1,0.9-0.2,1.3-0.4c1-0.5,1.9-1.1,2.7-1.8s1.6-1.6,2.4-2.5c1.2-1.4,2.6-2.9,4.1-4.7c1.5-1.7,3.1-3.6,4.8-5.6
		c-1.6-2.4-3.2-4.8-4.8-7c-1.6-2.3-3-4.2-4.1-5.8c-0.6-0.8-1.2-1.6-2.1-2.4c-0.8-0.8-1.7-1.4-2.6-1.7c-0.5-0.2-1-0.4-1.5-0.5
		c-0.6-0.1-1.2-0.2-2-0.3v-2h22.6v2c-1.8,0.1-3.1,0.2-3.9,0.5c-0.8,0.2-1.3,0.6-1.3,1.1c0,0.2,0.1,0.6,0.2,0.9c0.2,0.4,0.5,1,1,1.8
		c0.4,0.7,1.1,1.7,1.9,3c0.9,1.3,1.9,2.9,3,4.6c3.3-3.9,5.3-6.5,6.2-7.6c0.8-1.2,1.3-2,1.3-2.4c0-0.5-0.2-0.9-0.7-1.1
		c-0.5-0.3-1.6-0.5-3.4-0.6v-2h14.4v2c-0.7,0-1.2,0.1-1.6,0.2c-0.4,0.1-0.9,0.3-1.5,0.5c-1.1,0.5-2,1.1-2.7,1.8
		c-0.7,0.7-1.5,1.5-2.4,2.5c-1.3,1.4-2.5,2.8-3.7,4.2c-1.2,1.3-2.6,3-4.3,4.9c2.1,3.2,3.9,5.8,5.4,7.9c1.5,2.1,2.9,4.1,4.3,6
		c0.5,0.8,1.2,1.6,2,2.4c0.8,0.8,1.7,1.4,2.6,1.7c0.4,0.2,0.9,0.3,1.4,0.4c0.5,0.1,1.3,0.2,2.1,0.3v1.9H57.8z"/>
	<g>
		
			<linearGradient id="SVGID_3_" gradientUnits="userSpaceOnUse" x1="45.0341" y1="72.3523" x2="58.5341" y2="85.8523" gradientTransform="matrix(1 0 0 -1 0 100)">
			<stop  offset="0" style="stop-color:#F2F5D5"/>
			<stop  offset="0.312" style="stop-color:#F0F4D2"/>
			<stop  offset="0.458" style="stop-color:#E8EECA"/>
			<stop  offset="0.569" style="stop-color:#DDE7BD"/>
			<stop  offset="0.663" style="stop-color:#CFDDAD"/>
			<stop  offset="0.745" style="stop-color:#BED298"/>
			<stop  offset="0.82" style="stop-color:#A9C481"/>
			<stop  offset="0.889" style="stop-color:#91B566"/>
			<stop  offset="0.951" style="stop-color:#78A647"/>
			<stop  offset="1" style="stop-color:#619932"/>
		</linearGradient>
		<path class="st5" d="M45,0.8l27,26.9H45V0.8z"/>
		<path class="st6" d="M45,0.8l27,26.9H45V0.8z"/>
	</g>
</g>
</svg>
