<?xml version="1.0" encoding="utf-8"?>
<!-- Generator: Adobe Illustrator 21.1.0, SVG Export Plug-In . SVG Version: 6.00 Build 0)  -->
<svg version="1.1" id="Layer_3" xmlns="http://www.w3.org/2000/svg" xmlns:xlink="http://www.w3.org/1999/xlink" x="0px" y="0px"
	 viewBox="0 0 72 100" style="enable-background:new 0 0 72 100;" xml:space="preserve">
<style type="text/css">
	.st0{fill:url(#SVGID_1_);}
	.st1{fill-opacity:0;stroke:#528228;stroke-width:2;}
	.st2{fill:url(#SVGID_2_);}
	.st3{fill:url(#SVGID_3_);}
	.st4{fill-opacity:0;stroke:#528228;stroke-width:2;stroke-linejoin:bevel;}
	.st5{enable-background:new    ;}
	.st6{fill:#FFFFFF;}
</style>
<g>
	<linearGradient id="SVGID_1_" gradientUnits="userSpaceOnUse" x1="36" y1="99.2" x2="36" y2="0.7">
		<stop  offset="0" style="stop-color:#51842A"/>
		<stop  offset="0.102" style="stop-color:#609631"/>
		<stop  offset="0.222" style="stop-color:#6DA737"/>
		<stop  offset="0.355" style="stop-color:#77B33B"/>
		<stop  offset="0.506" style="stop-color:#7EBB3E"/>
		<stop  offset="0.69" style="stop-color:#83C140"/>
		<stop  offset="1" style="stop-color:#85C441"/>
	</linearGradient>
	<path class="st0" d="M45,0.7l27,26.9v71.6H0V0.7H45z"/>
	<path class="st1" d="M45,0.7l27,26.9v71.6H0V0.7H45z"/>
</g>
<linearGradient id="SVGID_2_" gradientUnits="userSpaceOnUse" x1="16.3247" y1="62.9248" x2="55.4415" y2="23.809">
	<stop  offset="5.000000e-03" style="stop-color:#619530"/>
	<stop  offset="0.267" style="stop-color:#60942F"/>
	<stop  offset="0.443" style="stop-color:#5B8E2D"/>
	<stop  offset="0.594" style="stop-color:#538429"/>
	<stop  offset="0.731" style="stop-color:#487723"/>
	<stop  offset="0.858" style="stop-color:#3A671B"/>
	<stop  offset="0.976" style="stop-color:#29520F"/>
	<stop  offset="1" style="stop-color:#244D0B"/>
</linearGradient>
<path class="st2" d="M57.8,61.4H35.2v-2c2.2-0.1,3.5-0.3,4.2-0.6c0.6-0.3,0.9-0.6,0.9-1c0-0.2-0.1-0.6-0.3-1.1s-0.5-1.1-0.9-1.7
	c-0.6-1-1.4-2.3-2.4-3.8s-2.1-3.1-3.2-4.8c-3.6,4.2-6,7-6.9,8.4c-1,1.4-1.5,2.3-1.5,2.8c0,0.2,0,0.4,0.1,0.6
	c0.1,0.2,0.3,0.3,0.6,0.5c0.2,0.1,0.7,0.3,1.3,0.4c0.6,0.1,1.3,0.2,2.1,0.3v2H14.8v-2c0.7-0.1,1.3-0.1,1.8-0.2
	c0.4-0.1,0.9-0.2,1.3-0.4c1-0.5,1.9-1.1,2.7-1.8c0.8-0.7,1.6-1.6,2.4-2.5c1.2-1.4,2.6-2.9,4.1-4.7c1.5-1.7,3.1-3.6,4.8-5.6
	c-1.6-2.4-3.2-4.8-4.8-7c-1.6-2.3-3-4.2-4.1-5.8c-0.6-0.8-1.2-1.6-2.1-2.4c-0.8-0.8-1.7-1.4-2.6-1.7c-0.5-0.2-1-0.4-1.5-0.5
	c-0.6-0.1-1.2-0.2-2-0.3v-2h22.6v2c-1.8,0.1-3.1,0.2-3.9,0.5c-0.8,0.2-1.3,0.6-1.3,1.1c0,0.2,0.1,0.6,0.2,0.9c0.2,0.4,0.5,1,1,1.8
	c0.4,0.7,1.1,1.7,1.9,3c0.9,1.3,1.9,2.9,3,4.6c3.3-3.9,5.3-6.5,6.2-7.6c0.8-1.2,1.3-2,1.3-2.4c0-0.5-0.2-0.9-0.7-1.1
	c-0.5-0.3-1.6-0.5-3.4-0.6v-2h14.4v2c-0.7,0-1.2,0.1-1.6,0.2c-0.4,0.1-0.9,0.3-1.5,0.5c-1.1,0.5-2,1.1-2.7,1.8
	c-0.7,0.7-1.5,1.5-2.4,2.5c-1.3,1.4-2.5,2.8-3.7,4.2c-1.2,1.3-2.6,3-4.3,4.9c2.1,3.2,3.9,5.8,5.4,7.9c1.5,2.1,2.9,4.1,4.3,6
	c0.5,0.8,1.2,1.6,2,2.4c0.8,0.8,1.7,1.4,2.6,1.7c0.4,0.2,0.9,0.3,1.4,0.4c0.5,0.1,1.3,0.2,2.1,0.3L57.8,61.4L57.8,61.4z"/>
<g>
	<linearGradient id="SVGID_3_" gradientUnits="userSpaceOnUse" x1="45.025" y1="27.625" x2="58.525" y2="14.125">
		<stop  offset="0" style="stop-color:#F2F5D5"/>
		<stop  offset="0.312" style="stop-color:#F0F4D2"/>
		<stop  offset="0.458" style="stop-color:#E8EECA"/>
		<stop  offset="0.569" style="stop-color:#DDE7BD"/>
		<stop  offset="0.663" style="stop-color:#CFDDAD"/>
		<stop  offset="0.745" style="stop-color:#BED298"/>
		<stop  offset="0.82" style="stop-color:#A9C481"/>
		<stop  offset="0.889" style="stop-color:#91B566"/>
		<stop  offset="0.951" style="stop-color:#78A647"/>
		<stop  offset="1" style="stop-color:#619932"/>
	</linearGradient>
	<path class="st3" d="M45,0.7l27,26.9H45V0.7z"/>
	<path class="st4" d="M45,0.7l27,26.9H45V0.7z"/>
</g>
<g class="st5">
	<path class="st6" d="M8.4,91.3l5.4-8.2l-4.9-7.5h3.8l3.2,5.1l3.1-5.1h3.7l-4.9,7.6l5.4,8.1h-3.9l-3.5-5.4l-3.5,5.4H8.4z"/>
	<path class="st6" d="M25,91.3V75.7h3.2v13h8v2.7H25z"/>
	<path class="st6" d="M40.4,91.3V78.2h-4.7v-2.7h12.6v2.7h-4.7v13.1H40.4z"/>
	<path class="st6" d="M48.8,91.3l5.4-8.2l-4.9-7.5H53l3.2,5.1l3.1-5.1h3.7l-4.9,7.6l5.4,8.1h-3.9l-3.5-5.4l-3.5,5.4H48.8z"/>
</g>
</svg>
