<?xml version="1.0" encoding="utf-8"?>
<!-- Generator: Adobe Illustrator 21.1.0, SVG Export Plug-In . SVG Version: 6.00 Build 0)  -->
<svg version="1.1" id="Layer_1" xmlns="http://www.w3.org/2000/svg"  x="0px" y="0px"
	 viewBox="0 0 72 100" style="enable-background:new 0 0 72 100;" xml:space="preserve">
<style type="text/css">
	.st0{fill:url(#SVGID_1_);}
	.st1{fill-opacity:0;stroke:#7191A1;stroke-width:2;}
	.st2{enable-background:new    ;}
	.st3{fill:#4C6C7B;}
	.st4{fill:url(#SVGID_2_);}
	.st5{fill-opacity:0;stroke:#247F00;stroke-width:2;stroke-linecap:round;stroke-linejoin:round;}
	.st6{fill:url(#SVGID_3_);}
	.st7{fill-opacity:0;stroke:#7191A1;stroke-width:2;stroke-linejoin:bevel;}
</style>
<linearGradient id="SVGID_1_" gradientUnits="userSpaceOnUse" x1="36.2" y1="3.0038" x2="36.2" y2="100.9993" gradientTransform="matrix(1 0 0 -1 0 102)">
	<stop  offset="0" style="stop-color:#C8D4DB"/>
	<stop  offset="0.139" style="stop-color:#D8E1E6"/>
	<stop  offset="0.359" style="stop-color:#EBF0F3"/>
	<stop  offset="0.617" style="stop-color:#F9FAFB"/>
	<stop  offset="1" style="stop-color:#FFFFFF"/>
</linearGradient>
<path class="st0" d="M45.1,1L72,27.7V99H0.4V1H45.1z"/>
<path class="st1" d="M45.1,1L72,27.7V99H0.4V1H45.1z"/>
<g class="st2">
	<path class="st3" d="M13.8,91.1l6.8-10.4l-6.2-9.5h4.7l4,6.4l3.9-6.4h4.7l-6.2,9.6l6.8,10.2h-4.9L23,84.2l-4.4,6.9H13.8z"/>
	<path class="st3" d="M34.4,91.1V71.2h6.5c2.4,0,4,0.1,4.8,0.3c1.1,0.3,2.1,0.9,2.9,1.9c0.8,1,1.2,2.3,1.2,3.9
		c0,1.2-0.2,2.2-0.7,3.1s-1,1.5-1.7,2c-0.7,0.5-1.4,0.8-2.1,0.9c-1,0.2-2.4,0.3-4.2,0.3h-2.6v7.5H34.4z M38.4,74.6v5.6h2.2
		c1.6,0,2.6-0.1,3.2-0.3c0.5-0.2,1-0.5,1.3-1c0.3-0.4,0.5-1,0.5-1.5c0-0.7-0.2-1.3-0.6-1.8c-0.4-0.5-1-0.8-1.6-0.9
		c-0.5-0.1-1.4-0.1-2.9-0.1H38.4z"/>
	<path class="st3" d="M52.8,91.1V71.2h4v19.8H52.8z"/>
</g>
<linearGradient id="SVGID_2_" gradientUnits="userSpaceOnUse" x1="32.2053" y1="37.5487" x2="32.2053" y2="82.095" gradientTransform="matrix(1 0 0 -1 0 102)">
	<stop  offset="0" style="stop-color:#4CEC00"/>
	<stop  offset="1" style="stop-color:#247F00"/>
</linearGradient>
<path class="st4" d="M30.6,19.9l-2.3,1.8l0.2,3.6l2.7,2.4v1.9l-0.6,0.8l-8,0.3l-1.8,1.9v7.6l-0.7,1.7h-2l-1.5-1.2l-0.4-2.4l-4.3-0.1
	l-2.1,1.5v11.2l1.4,2.5h4.5l2-2.3l0.8-2.4l1.7-0.1l0.7,1.7v12l1.8,2.1h6.8l1.3-2.1l-0.8-1.4l-1.4-0.8v-2.8l2.2-1.9h10.7l2.3,1.9v2.6
	l-1.3,1.1l-1,1.3l1.2,2.1l10.2-0.1l2-2v-9.6l-0.5-1.7l-1.5-0.1l-1.4,1.1l-1,1.2l-2.5-0.1l-2.1-1.8V40.9l1.7-2.8h4.4l1,1.8l2-0.3
	v-6.7l-2-2.1l-11.8-0.3l-1.3-1.1l0.2-2l3.3-1.7l0.4-3.7l-2.3-2.1L30.6,19.9z"/>
<path class="st5" d="M30.6,19.9l-2.3,1.8l0.2,3.6l2.7,2.4v1.9l-0.6,0.8l-8,0.3l-1.8,1.9v7.6l-0.7,1.7h-2l-1.5-1.2l-0.4-2.4l-4.3-0.1
	l-2.1,1.5v11.2l1.4,2.5h4.5l2-2.3l0.8-2.4l1.7-0.1l0.7,1.7v12l1.8,2.1h6.8l1.3-2.1l-0.8-1.4l-1.4-0.8v-2.8l2.2-1.9h10.7l2.3,1.9v2.6
	l-1.3,1.1l-1,1.3l1.2,2.1l10.2-0.1l2-2v-9.6l-0.5-1.7l-1.5-0.1l-1.4,1.1l-1,1.2l-2.5-0.1l-2.1-1.8V40.9l1.7-2.8h4.4l1,1.8l2-0.3
	v-6.7l-2-2.1l-11.8-0.3l-1.3-1.1l0.2-2l3.3-1.7l0.4-3.7l-2.3-2.1L30.6,19.9z"/>
<linearGradient id="SVGID_3_" gradientUnits="userSpaceOnUse" x1="45.181" y1="74.2422" x2="58.606" y2="87.6672" gradientTransform="matrix(1 0 0 -1 0 102)">
	<stop  offset="0" style="stop-color:#FFFFFF"/>
	<stop  offset="0.35" style="stop-color:#FAFBFB"/>
	<stop  offset="0.532" style="stop-color:#EDF1F4"/>
	<stop  offset="0.675" style="stop-color:#DDE5E9"/>
	<stop  offset="0.799" style="stop-color:#C7D3DA"/>
	<stop  offset="0.908" style="stop-color:#ADBDC7"/>
	<stop  offset="1" style="stop-color:#92A5B0"/>
</linearGradient>
<path class="st6" d="M45.1,1L72,27.7H45.1V1z"/>
<path class="st7" d="M45.1,1L72,27.7H45.1V1z"/>
</svg>
