<?xml version="1.0" encoding="utf-8"?>
<!-- Generator: Adobe Illustrator 21.1.0, SVG Export Plug-In . SVG Version: 6.00 Build 0)  -->
<svg version="1.1" id="Layer_1" xmlns="http://www.w3.org/2000/svg" xmlns:xlink="http://www.w3.org/1999/xlink" x="0px" y="0px"
	 viewBox="0 0 72 100" style="enable-background:new 0 0 72 100;" xml:space="preserve">
<style type="text/css">
	.st0{fill:url(#SVGID_1_);}
	.st1{fill-opacity:0;stroke:#7191A1;stroke-width:2;}
	.st2{fill:url(#SVGID_2_);}
	.st3{fill-opacity:0;stroke:#7191A1;stroke-width:2;stroke-linejoin:bevel;}
	.st4{enable-background:new    ;}
	.st5{fill:#4C6C7B;}
	.st6{fill:url(#SVGID_3_);}
	.st7{fill:url(#SVGID_4_);}
</style>
<g>
	
		<linearGradient id="SVGID_1_" gradientUnits="userSpaceOnUse" x1="36" y1="97" x2="36" y2="-1" gradientTransform="matrix(1 0 0 1 0 2)">
		<stop  offset="0" style="stop-color:#C8D4DB"/>
		<stop  offset="0.139" style="stop-color:#D8E1E6"/>
		<stop  offset="0.359" style="stop-color:#EBF0F3"/>
		<stop  offset="0.617" style="stop-color:#F9FAFB"/>
		<stop  offset="1" style="stop-color:#FFFFFF"/>
	</linearGradient>
	<path class="st0" d="M45,1l27,26.7V99H0V1H45z"/>
	<path class="st1" d="M45,1l27,26.7V99H0V1H45z"/>
</g>
<g>
	
		<linearGradient id="SVGID_2_" gradientUnits="userSpaceOnUse" x1="45.0368" y1="25.8132" x2="58.5368" y2="12.3132" gradientTransform="matrix(1 0 0 1 0 2)">
		<stop  offset="0" style="stop-color:#FFFFFF"/>
		<stop  offset="0.35" style="stop-color:#FAFBFB"/>
		<stop  offset="0.532" style="stop-color:#EDF1F4"/>
		<stop  offset="0.675" style="stop-color:#DDE5E9"/>
		<stop  offset="0.799" style="stop-color:#C7D3DA"/>
		<stop  offset="0.908" style="stop-color:#ADBDC7"/>
		<stop  offset="1" style="stop-color:#92A5B0"/>
	</linearGradient>
	<path class="st2" d="M45,1l27,26.7H45V1z"/>
	<path class="st3" d="M45,1l27,26.7H45V1z"/>
</g>
<g class="st4">
	<path class="st5" d="M9.3,91.5L16,81.5l-6-9.2h4.6l3.9,6.2l3.8-6.2h4.6l-6.1,9.4l6.7,9.9h-4.8l-4.3-6.7L14,91.5H9.3z"/>
	<path class="st5" d="M29.5,91.5V72.2h6.3c2.4,0,4,0.1,4.7,0.3c1.1,0.3,2.1,0.9,2.8,1.9c0.8,1,1.1,2.2,1.1,3.8c0,1.2-0.2,2.2-0.7,3
		c-0.4,0.8-1,1.4-1.7,1.9c-0.7,0.5-1.4,0.8-2,0.9c-0.9,0.2-2.3,0.3-4.1,0.3h-2.6v7.3H29.5z M33.4,75.5V81h2.2c1.6,0,2.6-0.1,3.1-0.3
		c0.5-0.2,0.9-0.5,1.2-0.9c0.3-0.4,0.4-0.9,0.4-1.5c0-0.7-0.2-1.3-0.6-1.7c-0.4-0.5-0.9-0.7-1.6-0.9c-0.5-0.1-1.4-0.1-2.8-0.1H33.4z
		"/>
	<path class="st5" d="M46.7,85.3l3.8-0.4c0.2,1.3,0.7,2.2,1.4,2.8s1.7,0.9,2.9,0.9c1.3,0,2.2-0.3,2.9-0.8c0.6-0.5,1-1.2,1-1.9
		c0-0.5-0.1-0.8-0.4-1.2c-0.3-0.3-0.7-0.6-1.4-0.8c-0.5-0.2-1.5-0.4-3.2-0.8c-2.1-0.5-3.6-1.2-4.4-1.9c-1.2-1.1-1.8-2.4-1.8-3.9
		c0-1,0.3-1.9,0.8-2.8c0.6-0.9,1.4-1.5,2.4-2c1.1-0.4,2.3-0.7,3.8-0.7c2.5,0,4.3,0.5,5.5,1.6c1.2,1.1,1.9,2.5,2,4.3l-3.9,0.2
		c-0.2-1-0.5-1.7-1.1-2.1c-0.6-0.4-1.4-0.7-2.5-0.7c-1.1,0-2,0.2-2.7,0.7c-0.4,0.3-0.6,0.7-0.6,1.2c0,0.5,0.2,0.8,0.6,1.2
		c0.5,0.4,1.7,0.8,3.6,1.3c1.9,0.4,3.3,0.9,4.3,1.4c0.9,0.5,1.6,1.1,2.2,2c0.5,0.8,0.8,1.9,0.8,3.1c0,1.1-0.3,2.1-0.9,3.1
		c-0.6,1-1.5,1.7-2.6,2.2c-1.1,0.5-2.6,0.7-4.2,0.7c-2.5,0-4.4-0.6-5.7-1.7C47.7,89.1,46.9,87.4,46.7,85.3z"/>
</g>
<g>
	<linearGradient id="SVGID_3_" gradientUnits="userSpaceOnUse" x1="19.25" y1="35.7421" x2="19.25" y2="59.2421">
		<stop  offset="0" style="stop-color:#869BA6"/>
		<stop  offset="0.379" style="stop-color:#8399A4"/>
		<stop  offset="0.576" style="stop-color:#7B929E"/>
		<stop  offset="0.731" style="stop-color:#6D8694"/>
		<stop  offset="0.863" style="stop-color:#5A7785"/>
		<stop  offset="0.981" style="stop-color:#426373"/>
		<stop  offset="0.99" style="stop-color:#416271"/>
	</linearGradient>
	<polygon class="st6" points="30.8,40.9 14.1,47.5 30.8,54.1 30.8,59.3 7.8,50.2 7.8,44.9 30.8,35.8 	"/>
	
		<linearGradient id="SVGID_4_" gradientUnits="userSpaceOnUse" x1="53.25" y1="40.8061" x2="53.25" y2="64.3061" gradientTransform="matrix(1 0 0 -1 0 100)">
		<stop  offset="0" style="stop-color:#869BA6"/>
		<stop  offset="0.379" style="stop-color:#8399A4"/>
		<stop  offset="0.576" style="stop-color:#7B929E"/>
		<stop  offset="0.731" style="stop-color:#6D8694"/>
		<stop  offset="0.863" style="stop-color:#5A7785"/>
		<stop  offset="0.981" style="stop-color:#426373"/>
		<stop  offset="0.99" style="stop-color:#416271"/>
	</linearGradient>
	<polygon class="st7" points="41.8,54.1 58.4,47.5 41.8,40.9 41.8,35.7 64.8,44.8 64.8,50.1 41.8,59.2 	"/>
</g>
</svg>
