<?xml version="1.0" encoding="utf-8"?>
<!-- Generator: Adobe Illustrator 21.1.0, SVG Export Plug-In . SVG Version: 6.00 Build 0)  -->
<svg version="1.1" id="Layer_1" xmlns="http://www.w3.org/2000/svg"  x="0px" y="0px"
	 viewBox="0 0 72 100" style="enable-background:new 0 0 72 100;" xml:space="preserve">
<style type="text/css">
	.st0{fill:url(#SVGID_1_);}
	.st1{fill-opacity:0;stroke:#7191A1;stroke-width:2;}
	.st2{fill:url(#SVGID_2_);stroke:url(#SVGID_3_);stroke-width:1.5;stroke-miterlimit:10;}
	.st3{fill:url(#SVGID_4_);}
	.st4{fill-opacity:0;stroke:#7191A1;stroke-width:2;stroke-linejoin:bevel;}
	.st5{enable-background:new    ;}
	.st6{fill:#4C6C7B;}
</style>
<g>
	
		<linearGradient id="SVGID_1_" gradientUnits="userSpaceOnUse" x1="36" y1="97" x2="36" y2="-1" gradientTransform="matrix(1 0 0 1 0 2)">
		<stop  offset="0" style="stop-color:#C8D4DB"/>
		<stop  offset="0.139" style="stop-color:#D8E1E6"/>
		<stop  offset="0.359" style="stop-color:#EBF0F3"/>
		<stop  offset="0.617" style="stop-color:#F9FAFB"/>
		<stop  offset="1" style="stop-color:#FFFFFF"/>
	</linearGradient>
	<path class="st0" d="M45,1l27,26.7V99H0V1H45z"/>
	<path class="st1" d="M45,1l27,26.7V99H0V1H45z"/>
</g>
<g transform="translate(0,-952.36218)">
	<linearGradient id="SVGID_2_" gradientUnits="userSpaceOnUse" x1="12.4713" y1="994.2773" x2="60.078" y2="994.2773">
		<stop  offset="0" style="stop-color:#CCDDE7"/>
		<stop  offset="0.265" style="stop-color:#B5CCD8"/>
		<stop  offset="0.798" style="stop-color:#7FA0B1"/>
		<stop  offset="1" style="stop-color:#6A8FA1"/>
	</linearGradient>
	<linearGradient id="SVGID_3_" gradientUnits="userSpaceOnUse" x1="11.7213" y1="994.2773" x2="60.828" y2="994.2773">
		<stop  offset="0" style="stop-color:#CCDDE7"/>
		<stop  offset="0.265" style="stop-color:#B5CCD8"/>
		<stop  offset="0.798" style="stop-color:#7FA0B1"/>
		<stop  offset="1" style="stop-color:#6A8FA1"/>
	</linearGradient>
	<path class="st2" d="M30,972.4c-0.1,0-0.2,0-0.3,0.1L13,980.1c-0.5,0.2-0.7,1-0.3,1.5l5.2,6.1l-5.2,6c-0.3,0.4-0.2,1.2,0.3,1.5
		l5.2,2.4v10.1c0,0.4,0.2,0.7,0.6,0.9l17.1,7.6c0.2,0.1,0.5,0.1,0.8,0l17.2-7.6c0.3-0.1,0.6-0.5,0.6-0.9v-10.1l5.2-2.4
		c0.5-0.2,0.7-1,0.3-1.5l-5.2-6l5.2-6.1c0.4-0.4,0.2-1.2-0.3-1.5l-16.7-7.6c-0.1-0.1-0.3-0.1-0.5-0.1c-0.2,0-0.5,0.1-0.6,0.3
		l-5.5,5.9l-5.5-5.9C30.6,972.5,30.3,972.3,30,972.4L30,972.4z M29.8,974.5l4.8,5.2l-15.3,6.8l-4.4-5.2L29.8,974.5z M42.7,974.5
		l14.9,6.8l-4.4,5.2l-15.3-6.8L42.7,974.5z M36.3,981l14.8,6.6l-14.8,6.6l-14.8-6.6L36.3,981z M19.4,988.8l15.3,6.8l-4.8,5.2
		l-14.9-6.8L19.4,988.8z M53.2,988.8l4.4,5.2l-14.9,6.8l-4.8-5.2L53.2,988.8z M35.3,997.7v16.1l-15.3-6.8v-8.6l9.6,4.4
		c0.4,0.2,0.8,0.1,1.1-0.2L35.3,997.7z M37.2,997.7l4.5,4.9c0.3,0.3,0.7,0.4,1.1,0.2l9.6-4.4v8.6l-15.3,6.8V997.7z"/>
</g>
<g>
	
		<linearGradient id="SVGID_4_" gradientUnits="userSpaceOnUse" x1="45.0368" y1="25.8132" x2="58.5368" y2="12.3132" gradientTransform="matrix(1 0 0 1 0 2)">
		<stop  offset="0" style="stop-color:#FFFFFF"/>
		<stop  offset="0.35" style="stop-color:#FAFBFB"/>
		<stop  offset="0.532" style="stop-color:#EDF1F4"/>
		<stop  offset="0.675" style="stop-color:#DDE5E9"/>
		<stop  offset="0.799" style="stop-color:#C7D3DA"/>
		<stop  offset="0.908" style="stop-color:#ADBDC7"/>
		<stop  offset="1" style="stop-color:#92A5B0"/>
	</linearGradient>
	<path class="st3" d="M45,1l27,26.7H45V1z"/>
	<path class="st4" d="M45,1l27,26.7H45V1z"/>
</g>
<g class="st5">
	<path class="st6" d="M7.8,91.5l6.7-10.1l-6-9.2H13l3.9,6.2l3.8-6.2h4.6l-6.1,9.4l6.7,9.9h-4.8l-4.3-6.7l-4.3,6.7H7.8z"/>
	<path class="st6" d="M28,91.5V72.2h8.3c2.1,0,3.6,0.2,4.5,0.5c0.9,0.3,1.7,1,2.3,1.9s0.9,1.9,0.9,3c0,1.4-0.4,2.6-1.3,3.6
		c-0.9,0.9-2.1,1.5-3.9,1.8c0.9,0.5,1.6,1,2.1,1.6s1.3,1.6,2.2,3.1l2.4,3.8h-4.7L38,87.3c-1-1.5-1.7-2.5-2.1-2.8
		c-0.4-0.4-0.8-0.7-1.2-0.8c-0.4-0.1-1.1-0.2-2-0.2h-0.8v8.1H28z M31.9,80.4h2.9c1.9,0,3.1-0.1,3.5-0.2s0.8-0.4,1.1-0.8
		c0.3-0.4,0.4-0.9,0.4-1.5c0-0.7-0.2-1.2-0.5-1.6c-0.4-0.4-0.8-0.7-1.5-0.8c-0.3,0-1.3-0.1-2.9-0.1h-3.1V80.4z"/>
	<path class="st6" d="M47.7,72.2h7.8c1.5,0,2.7,0.1,3.5,0.2c0.8,0.1,1.4,0.4,2,0.8c0.6,0.4,1.1,0.9,1.5,1.6c0.4,0.7,0.6,1.4,0.6,2.3
		c0,0.9-0.2,1.7-0.7,2.5c-0.5,0.8-1.2,1.3-2,1.7c1.2,0.3,2.1,0.9,2.7,1.8c0.6,0.8,1,1.8,1,2.9c0,0.9-0.2,1.7-0.6,2.6
		c-0.4,0.8-1,1.5-1.7,2c-0.7,0.5-1.6,0.8-2.6,0.9c-0.7,0.1-2.2,0.1-4.8,0.1h-6.6V72.2z M51.6,75.4v4.5h2.6c1.5,0,2.5,0,2.9-0.1
		c0.7-0.1,1.2-0.3,1.6-0.7c0.4-0.4,0.6-0.9,0.6-1.5c0-0.6-0.2-1.1-0.5-1.5c-0.3-0.4-0.8-0.6-1.5-0.7c-0.4,0-1.5-0.1-3.4-0.1H51.6z
		 M51.6,83.1v5.2h3.6c1.4,0,2.3,0,2.7-0.1c0.6-0.1,1.1-0.4,1.4-0.8c0.4-0.4,0.6-1,0.6-1.6c0-0.6-0.1-1.1-0.4-1.5s-0.7-0.7-1.2-0.9
		s-1.7-0.3-3.5-0.3H51.6z"/>
</g>
</svg>
