<?xml version="1.0" encoding="utf-8"?>
<!-- Generator: Adobe Illustrator 21.1.0, SVG Export Plug-In . SVG Version: 6.00 Build 0)  -->
<svg version="1.1" id="Layer_3" xmlns="http://www.w3.org/2000/svg" xmlns:xlink="http://www.w3.org/1999/xlink" x="0px" y="0px"
	 viewBox="0 0 72 100" style="enable-background:new 0 0 72 100;" xml:space="preserve">
<style type="text/css">
	.st0{fill:url(#SVGID_1_);}
	.st1{fill-opacity:0;stroke:#BA9C02;stroke-width:2;}
	.st2{enable-background:new    ;}
	.st3{fill:#A07802;}
	.st4{fill:url(#SVGID_2_);}
	.st5{fill-opacity:0;stroke:#BA9C02;stroke-width:2;stroke-linejoin:bevel;}
	.st6{fill:url(#SVGID_3_);}
	.st7{fill:#FFFFFF;}
</style>
<g>
	
		<linearGradient id="SVGID_1_" gradientUnits="userSpaceOnUse" x1="36" y1="0.994" x2="36" y2="99.0006" gradientTransform="matrix(1 0 0 -1 0 100)">
		<stop  offset="0" style="stop-color:#EFC402"/>
		<stop  offset="3.800000e-02" style="stop-color:#F1C829"/>
		<stop  offset="0.147" style="stop-color:#F4D264"/>
		<stop  offset="0.258" style="stop-color:#F7DC8B"/>
		<stop  offset="0.372" style="stop-color:#F9E5AC"/>
		<stop  offset="0.488" style="stop-color:#FBECC7"/>
		<stop  offset="0.606" style="stop-color:#FCF3DD"/>
		<stop  offset="0.728" style="stop-color:#FEF9EE"/>
		<stop  offset="0.856" style="stop-color:#FFFDF9"/>
		<stop  offset="1" style="stop-color:#FFFFFF"/>
	</linearGradient>
	<path class="st0" d="M45,1l27,26.7V99H0V1H45z"/>
	<path class="st1" d="M45,1l27,26.7V99H0V1H45z"/>
</g>
<g class="st2">
	<path class="st3" d="M14.4,92.1v-3.6l10.5-12.9h-9.3v-3.4h14.7v3.1l-11,13.4h11.4v3.3H14.4z"/>
	<path class="st3" d="M33.1,92.1V72.2h4v19.8H33.1z"/>
	<path class="st3" d="M41,92.1V72.2h6.5c2.5,0,4.1,0.1,4.8,0.3c1.1,0.3,2.1,0.9,2.9,1.9s1.2,2.3,1.2,3.9c0,1.2-0.2,2.2-0.7,3.1
		s-1,1.5-1.7,2s-1.4,0.8-2.1,0.9c-1,0.2-2.4,0.3-4.2,0.3h-2.6v7.5H41z M45.1,75.6v5.6h2.2c1.6,0,2.7-0.1,3.2-0.3s1-0.5,1.3-1
		s0.5-1,0.5-1.5c0-0.7-0.2-1.3-0.6-1.8c-0.4-0.5-1-0.8-1.6-0.9c-0.5-0.1-1.5-0.1-2.9-0.1H45.1z"/>
</g>
<g>
	
		<linearGradient id="SVGID_2_" gradientUnits="userSpaceOnUse" x1="45.0677" y1="72.2038" x2="58.5677" y2="85.7038" gradientTransform="matrix(1 0 0 -1 0 100)">
		<stop  offset="5.000000e-03" style="stop-color:#FFFFFF"/>
		<stop  offset="0.234" style="stop-color:#FFFEFB"/>
		<stop  offset="0.369" style="stop-color:#FEFAF1"/>
		<stop  offset="0.481" style="stop-color:#FDF5E4"/>
		<stop  offset="0.579" style="stop-color:#FCF0D2"/>
		<stop  offset="0.669" style="stop-color:#FAE9BC"/>
		<stop  offset="0.752" style="stop-color:#F9E2A2"/>
		<stop  offset="0.831" style="stop-color:#F7DA83"/>
		<stop  offset="0.905" style="stop-color:#F4D15D"/>
		<stop  offset="0.975" style="stop-color:#F1C827"/>
		<stop  offset="1" style="stop-color:#EFC402"/>
	</linearGradient>
	<path class="st4" d="M45,1l27,26.7H45V1z"/>
	<path class="st5" d="M45,1l27,26.7H45V1z"/>
</g>
<linearGradient id="SVGID_3_" gradientUnits="userSpaceOnUse" x1="33.6" y1="38.7117" x2="33.6" y2="96.0307" gradientTransform="matrix(1 0 0 -1 0 100)">
	<stop  offset="5.000000e-03" style="stop-color:#A47D03"/>
	<stop  offset="0.533" style="stop-color:#DEBE00"/>
	<stop  offset="0.639" style="stop-color:#CFAD04"/>
	<stop  offset="1" style="stop-color:#A07802"/>
</linearGradient>
<path class="st6" d="M38,15.8h-8.5v-4.9H38V15.8z M38,24.8h-8.5v4.9H38V24.8z M38,4h-8.5v4.9H38V4z M38,17.8h-8.5v4.9H38V17.8z
	 M38,31.7h-8.5v4.9H38V31.7z M38.7,56.2c0,2.8-2.3,5-5.1,5s-5.1-2.3-5.1-5c0-0.2,0-0.3,0-0.5l0,0l1.7-14.6c0-1.9,1.5-3.4,3.4-3.4
	c1.8,0,3.3,1.5,3.4,3.3l0,0l1.6,14.4C38.7,55.7,38.7,55.9,38.7,56.2z M37.1,56c0-1.9-1.6-3.5-3.5-3.5c-1.9,0-3.5,1.6-3.5,3.5
	s1.6,3.5,3.5,3.5C35.6,59.5,37.1,57.9,37.1,56z"/>
<path class="st7" d="M32.5,41.6l-2.3-4.5v-2.3l2.3-2.2h2.2l2.3,2.2v2.3l-2.3,4.5H32.5z"/>
</svg>
