<svg xmlns="http://www.w3.org/2000/svg" xmlns:xlink="http://www.w3.org/1999/xlink" viewBox="0 0 48 48"><linearGradient id="a"><stop offset="0"/><stop offset="1" stop-opacity="0"/></linearGradient><radialGradient id="b" cx="8.824419" cy="3.7561285" gradientTransform="matrix(.968273 0 0 1.032767 3.353553 .646447)" gradientUnits="userSpaceOnUse" r="37.751713"><stop offset="0" stop-color="#a3a3a3"/><stop offset="1" stop-color="#4c4c4c"/></radialGradient><radialGradient id="c" cx="33.966679" cy="35.736916" gradientTransform="scale(.960493 1.041132)" gradientUnits="userSpaceOnUse" r="86.70845"><stop offset="0" stop-color="#fafafa"/><stop offset="1" stop-color="#bbb"/></radialGradient><radialGradient id="d" cx="8.1435566" cy="7.2678967" gradientTransform="matrix(.968273 0 0 1.032767 3.353553 .646447)" gradientUnits="userSpaceOnUse" r="38.158695"><stop offset="0" stop-color="#fff"/><stop offset="1" stop-color="#f8f8f8"/></radialGradient><linearGradient id="e"><stop offset="0" stop-color="#f0f0f0"/><stop offset="1" stop-color="#9a9a9a"/></linearGradient><radialGradient id="f" cx="9.4125070463" cy="30.2965131852" gradientUnits="userSpaceOnUse" r="1.207318968" xlink:href="#e"/><radialGradient id="g" cx="9.4125070463" cy="18.8112483337" gradientUnits="userSpaceOnUse" r="1.207548671" xlink:href="#e"/><radialGradient id="h" cx="24.306795" cy="42.07798" gradientTransform="matrix(1 0 0 .284916 0 30.08928)" gradientUnits="userSpaceOnUse" r="15.821514" xlink:href="#a"/><radialGradient id="i" cx="24.130018" cy="37.967922" gradientTransform="matrix(1 0 0 .237968 0 28.93278)" gradientUnits="userSpaceOnUse" r="16.528622" xlink:href="#a"/><radialGradient id="j" cx="23.5625" cy="40.4375" gradientTransform="matrix(1 0 0 .348243 0 26.35543)" gradientUnits="userSpaceOnUse" r="19.5625" xlink:href="#a"/><linearGradient id="k" gradientUnits="userSpaceOnUse" x1="43.236958" x2="45.319043" y1="17.376184" y2="22.250591"><stop offset="0" stop-color="#ffd1d1"/><stop offset=".5" stop-color="#ff1d1d"/><stop offset="1" stop-color="#6f0000"/></linearGradient><linearGradient id="l" gradientUnits="userSpaceOnUse" x1="40.330708" x2="42.018208" y1="19.8125" y2="22.625"><stop offset="0" stop-color="#c1c1c1"/><stop offset="1" stop-color="#acacac"/></linearGradient><radialGradient id="m" cx="29.053354" cy="27.640751" gradientTransform="matrix(2.923565 0 0 2.029717 -61.55532 -27.88417)" gradientUnits="userSpaceOnUse" r="3.2408544"><stop offset="0" stop-color="#e7e2b8"/><stop offset="1" stop-color="#e7e2b8" stop-opacity="0"/></radialGradient><linearGradient id="n" gradientUnits="userSpaceOnUse" x1="19.893208" x2="19.689047" y1="31.171875" y2="30.828125"><stop offset="0"/><stop offset="1" stop-color="#c9c9c9"/></linearGradient><linearGradient id="o" gradientTransform="matrix(-1 0 0 1 48.18409 0)" gradientUnits="userSpaceOnUse" x1="27.366341" x2="31.335964" y1="26.580296" y2="30.557772"><stop offset="0" stop-color="#8a8a8a"/><stop offset="1" stop-color="#484848"/></linearGradient><linearGradient id="p" gradientTransform="matrix(-1.334593 0 0 1.291292 55.15793 -7.460658)" gradientUnits="userSpaceOnUse" x1="30.65625" x2="33.21875" y1="34" y2="31.0625"><stop offset="0" stop-color="#7d7d7d"/><stop offset=".5" stop-color="#b1b1b1"/><stop offset="1" stop-color="#686868"/></linearGradient><linearGradient id="q" gradientTransform="matrix(-1 0 0 1 44.17827 0)" gradientUnits="userSpaceOnUse" x1="18.292673" x2="17.500893" y1="13.602121" y2="25.743469"><stop offset="0" stop-color="#fff"/><stop offset=".5" stop-color="#fff" stop-opacity=".21904762"/><stop offset="1" stop-color="#fff"/></linearGradient><radialGradient id="r" cx="18.240929" cy="21.817987" gradientTransform="matrix(-1 0 0 1 43.352 0)" gradientUnits="userSpaceOnUse" r="8.3085051"><stop offset="0" stop-color="#729fcf" stop-opacity=".20784314"/><stop offset="1" stop-color="#729fcf" stop-opacity=".6761905"/></radialGradient><radialGradient id="s" cx="15.414371" cy="13.078408" gradientTransform="matrix(2.592963 0 0 2.252104 -25.05976 -18.941)" gradientUnits="userSpaceOnUse" r="6.65625"><stop offset="0" stop-color="#fff"/><stop offset="1" stop-color="#fff" stop-opacity=".24761905"/></radialGradient><path d="m40.128309 42.07798a15.821514 4.5078058 0 1 1 -31.643028 0 15.821514 4.5078058 0 1 1  31.643028 0z" fill="url(#h)" fill-rule="evenodd" opacity=".7836257" transform="translate(0 .707108)"/><path d="m11.505723 5.4942766v37.9065924" fill="none" stroke="#000" stroke-opacity=".017543854" stroke-width=".98855311"/><g><rect height="40.920494" rx="1.1449448" ry="1.1468204" style="stroke-width:.99724436;stroke-linecap:round;stroke-linejoin:round;display:block;fill:url(#c);stroke:url(#b)" transform="matrix(1.003584 0 0 1.001943 -.12722 -.153534)" width="34.875" x="6.6035528" y="3.6464462"/><rect height="38.946384" rx=".14851625" ry=".14875954" style="fill:none;stroke-width:.99724436;stroke-linecap:round;stroke-linejoin:round;display:block;stroke:url(#d)" transform="matrix(1.003584 0 0 1.001943 -.12722 -.153534)" width="32.775887" x="7.6660538" y="4.5839462"/><g transform="translate(.646447 -.03798933)"><g fill="#fff" stroke="#000" transform="matrix(.229703 0 0 .229703 4.967081 4.244972)"><path d="m23.428 113.07c0 1.973-1.6 3.572-3.573 3.572-1.974 0-3.573-1.6-3.573-3.572 0-1.974 1.6-3.573 3.573-3.573s3.573 1.6 3.573 3.573z" stroke="none"/><path d="m23.428 63.07c0 1.973-1.6 3.573-3.573 3.573-1.974 0-3.573-1.6-3.573-3.573 0-1.974 1.6-3.573 3.573-3.573s3.573 1.6 3.573 3.573z" stroke="none"/></g><path d="m9.9950109 29.952326c0 .453204-.3675248.820499-.8207288.820499-.4534338 0-.8207289-.367524-.8207289-.820499 0-.453434.3675248-.820729.8207289-.820729.453204 0 .8207288.367525.8207288.820729z" fill="url(#f)"/><path d="m9.9950109 18.467176c0 .453204-.3675248.820729-.8207288.820729-.4534338 0-.8207289-.367525-.8207289-.820729 0-.453434.3675248-.820729.8207289-.820729.453204 0 .8207288.367525.8207288.820729z" fill="url(#g)"/></g><path d="m12.5 5.0205154v38.0177126" fill="none" stroke="#fff" stroke-opacity=".20467831"/><g fill="#9b9b9b" fill-opacity=".54970759" transform="matrix(.909091 0 0 1 2.363628 0)"><rect display="block" height="1" rx=".15156493" ry=".065390877" width="22.000004" x="15.000002" y="9"/><rect display="block" height="1" rx=".15156493" ry=".065390877" width="22.000004" x="15.000002" y="11"/><rect display="block" height="1" rx=".15156493" ry=".065390877" width="22.000004" x="15.000002" y="13"/><rect display="block" height="1" rx=".15156493" ry=".065390877" width="22.000004" x="15.000002" y="15"/><rect display="block" height="1" rx=".15156493" ry=".065390877" width="22.000004" x="15.000002" y="17"/><rect display="block" height="1" rx=".15156493" ry=".065390877" width="22.000004" x="15.000002" y="19"/><rect display="block" height="1" rx=".15156493" ry=".065390877" width="22.000004" x="15.000002" y="21"/><rect display="block" height="1" rx=".15156493" ry=".065390877" width="22.000004" x="15.000002" y="23"/><rect display="block" height="1" rx=".068204239" ry=".065390877" width="9.9000053" x="14.999992" y="25"/><rect display="block" height="1" rx=".15156493" ry=".065390877" width="22.000004" x="14.999992" y="29"/><rect display="block" height="1" rx=".15156493" ry=".065390877" width="22.000004" x="14.999992" y="31"/><rect display="block" height="1" rx=".15156493" ry=".065390877" width="22.000004" x="14.999992" y="33"/><rect display="block" height="1" rx=".15156493" ry=".065390877" width="22.000004" x="14.999992" y="35"/><rect display="block" height="1" rx=".10609552" ry=".065390877" width="15.400014" x="14.999992" y="37"/></g><path d="m40.65864 37.967922a16.528622 3.9332814 0 1 1 -33.0572434 0 16.528622 3.9332814 0 1 1  33.0572434 0z" fill="url(#i)" fill-rule="evenodd" opacity=".17112301" transform="matrix(.962422 0 0 1.011366 -7.130766 -7.903209)"/><g transform="translate(-1.000325 -.85088)"><g fill-rule="evenodd"><path d="m18.627569 3.1435548c-8.13913 0-14.7448008 6.6056711-14.7448008 14.7448012 0 8.13913 6.6056708 14.744802 14.7448008 14.744802 3.479555 0 6.551001-1.384393 9.073723-3.402647-.205377 1.006881-.078035 2.035368.756144 2.759925l10.964084 9.52741c1.233416 1.071329 3.087462.93096 4.15879-.302457 1.071328-1.233418.930959-3.087462-.302457-4.15879l-10.964084-9.527411c-.671527-.583279-1.492878-.755969-2.306238-.642722 1.9867-2.512422 3.364839-5.548803 3.364839-8.99811 0-8.1391301-6.605671-14.7448012-14.744801-14.7448012zm-.075615 1.2261833c7.639459 0 13.291775 4.7889505 13.291775 13.2917749 0 8.675113-5.81669 13.291775-13.291775 13.291775-7.302949 0-13.2917734-5.478092-13.2917734-13.291775 0-7.9841069 5.8246384-13.291775 13.2917734-13.2917749z" fill="#dcdcdc" stroke="url(#o)" stroke-linecap="round" stroke-miterlimit="10" stroke-width="3.10908341" transform="matrix(-.643277 0 0 .643277 31.49802 4.828704)"/><path d="m18.602905 3.0803551c-8.16544 0-14.7924642 6.627024-14.7924642 14.7924639 0 8.16544 6.6270242 14.792464 14.7924642 14.792464 3.490803 0 6.572177-1.388867 9.103055-3.413645-.206041 1.010136-.078288 2.041947.758587 2.768846l10.999526 9.558207c1.237403 1.074792 3.097442.93397 4.172233-.303435 1.074791-1.237404.933968-3.097442-.303435-4.172233l-10.999525-9.558208c-.673698-.585164-1.497704-.758413-2.313693-.644799 1.993122-2.520544 3.375716-5.56674 3.375716-9.027197 0-8.1654399-6.627024-14.7924639-14.792464-14.7924639zm-.075859 3.1860692c6.281108.0000002 11.378818 5.0977107 11.378818 11.3788187s-5.09771 11.378818-11.378818 11.378818-11.3788184-5.09771-11.3788184-11.378818c.0000002-6.281108 5.0977104-11.3788187 11.3788184-11.3788187z" fill="#dcdcdc" transform="matrix(-.643277 0 0 .643277 31.49802 4.828704)"/><path d="m39.507004 41.57769c-.478672-2.273187 1.39733-4.811422 3.584053-4.788375 0 0-10.760367-9.258111-10.760367-9.258111-2.944791-.056706-4.269502 2.272616-3.776814 4.599922l10.953128 9.446564z" fill="url(#p)" transform="matrix(-.643277 0 0 .643277 31.49802 4.828704)"/></g><path d="m28.549437 18.920233a11.048544 11.048544 0 1 1 -22.0970883 0 11.048544 11.048544 0 1 1  22.0970883 0z" fill="none" stroke="url(#q)" stroke-linecap="round" stroke-miterlimit="10" stroke-width="1.24788225" transform="matrix(-.801358 0 0 .801358 33.70147 .855159)"/><rect height="4.4404783" rx="3.3215265" ry="2.9348745" style="opacity:.43315507;fill:none;stroke:#fff;stroke-width:1.55458939;stroke-linecap:round;stroke-miterlimit:10" transform="matrix(-.484379 .4233 .417423 .489452 31.49802 4.828704)" width="19.048439" x="40.373337" y=".14086054"/><path d="m25.897786 18.478292a8.3085051 8.3085051 0 1 1 -16.61701 0 8.3085051 8.3085051 0 1 1  16.61701 0z" style="fill-rule:evenodd;stroke:#3063a3;stroke-width:1.11148739;stroke-linecap:round;stroke-miterlimit:10;fill:url(#r)" transform="matrix(-.899697 0 0 .899697 35.502 -.509826)"/><path d="m18.156915 7.3966938c-5.20759 0-9.4245469 4.2169572-9.4245469 9.4245472 0 1.503975.4203072 2.887773 1.0471719 4.149903 1.25238.461613 2.582757.775683 3.994767.775683 6.170955 0 11.099282-4.861637 11.480106-10.937129-1.730964-2.0455312-4.210039-3.4130042-7.097498-3.4130042z" fill="url(#s)" fill-rule="evenodd" opacity=".83422457" transform="matrix(.643277 0 0 .643277 7.855933 4.828704)"/></g><path d="m43.125 40.4375a19.5625 6.8125 0 1 1 -39.125 0 19.5625 6.8125 0 1 1  39.125 0z" fill="url(#j)" fill-rule="evenodd" opacity=".2" transform="matrix(.616613 0 0 .293577 12.73816 29.12848)"/><g fill-rule="evenodd" transform="matrix(1.033699 -.276979 .276979 1.033699 -9.42730824654 13.33368855534)"><path d="m17.34116 32.5 5.625-5.625 20.093749-9.75c3.25-1.25 5.1875 3.375 2.3125 5l-20.031249 9.375-8 1z" fill="#cb9022" stroke="#5c410c" stroke-width=".93443578"/><path d="m38.330708 20s1.4375.09375 2 1.34375c.579493 1.287761 0 2.65625 0 2.65625l5.03125-2.46875s1.452032-.881367.65625-2.84375c-.784912-1.935577-2.6875-1.15625-2.6875-1.15625l-5 2.46875z" fill="url(#k)"/><path d="m38.330708 20s1.4375.09375 2 1.34375c.579493 1.287761 0 2.65625 0 2.65625l2-1s .827032-1.318867.21875-2.6875c-.625-1.40625-2.21875-1.3125-2.21875-1.3125l-2 1z" fill="url(#l)"/><path d="m18.768208 31.78125 4.5-4.5c1.5.8125 2.28125 2.15625 1.875 3.71875l-6.375.78125z" fill="url(#m)"/><path d="m20.111958 30.375-1.625 1.59375 2.34375-.3125c.21875-.71875-.1875-1.0625-.71875-1.28125z" fill="url(#n)"/><path d="m23.268208 27.25 1.5625 1.25 15.38734-7.31867c-.444432-.856044-1.241767-1.084597-1.903379-1.162262l-15.046461 7.230932z" fill="#fff" fill-opacity=".36363639"/><path d="m25.143208 31.0625.1875-.75 15.23109-7.1296s-.11016.613627-.215879.74935l-15.202711 7.13025z" fill-opacity=".36363639"/></g></g></svg>